<svg width="81" height="65" viewBox="0 0 81 65" fill="none" xmlns="http://www.w3.org/2000/svg">
<g clip-path="url(#clip0_2_20)">
<path fill-rule="evenodd" clip-rule="evenodd" d="M66.6475 42.1455C62.2049 42.1607 57.7974 41.3574 53.6458 39.7761C53.6458 43.1114 55.8635 47.6806 66.6475 47.6806C77.4317 47.6806 79.6456 43.1114 79.6456 39.7761C75.4947 41.3552 71.0889 42.1583 66.6475 42.1455Z" fill="#DC1F27"/>
<path d="M66.6475 42.1455C62.2049 42.1607 57.7974 41.3574 53.6458 39.7761C53.6458 43.1114 55.8635 47.6806 66.6475 47.6806C77.4317 47.6806 79.6456 43.1114 79.6456 39.7761C75.4947 41.3552 71.0889 42.1583 66.6475 42.1455Z" fill="#DC1F27"/>
<mask id="mask0_2_20" style="mask-type:luminance" maskUnits="userSpaceOnUse" x="53" y="39" width="27" height="9">
<path d="M66.6475 42.1455C62.2049 42.1607 57.7974 41.3574 53.6458 39.7761C53.6458 43.1114 55.8635 47.6806 66.6475 47.6806C77.4317 47.6806 79.6456 43.1114 79.6456 39.7761C75.4947 41.3552 71.0889 42.1583 66.6475 42.1455Z" fill="white"/>
</mask>
<g mask="url(#mask0_2_20)">
<path d="M79.5374 39.8845H53.6243V47.789H79.5374V39.8845Z" fill="#DC1F27"/>
</g>
<path fill-rule="evenodd" clip-rule="evenodd" d="M12.9981 47.6583C23.7823 47.6583 25.9998 43.0893 25.9998 39.7538C17.6212 42.9131 8.37869 42.9131 0 39.7538C0 43.0893 2.21761 47.6583 12.9981 47.6583Z" fill="#DC1F27"/>
<path d="M12.9981 47.6583C23.7823 47.6583 25.9998 43.0893 25.9998 39.7538C17.6212 42.9131 8.37869 42.9131 0 39.7538C0 43.0893 2.21761 47.6583 12.9981 47.6583Z" fill="#DC1F27"/>
<mask id="mask1_2_20" style="mask-type:luminance" maskUnits="userSpaceOnUse" x="0" y="39" width="26" height="9">
<path d="M12.9981 47.6583C23.7823 47.6583 25.9998 43.0893 25.9998 39.7538C17.6212 42.9131 8.37869 42.9131 0 39.7538C0 43.0893 2.21761 47.6583 12.9981 47.6583Z" fill="white"/>
</mask>
<g mask="url(#mask1_2_20)">
<path d="M25.9566 39.8843H0.0434734V47.7888H25.9566V39.8843Z" fill="#DC1F27"/>
</g>
<path fill-rule="evenodd" clip-rule="evenodd" d="M35.8434 54.8181C35.2977 54.8101 34.7695 55.0102 34.3663 55.3778C33.963 55.7454 33.7151 56.2529 33.6727 56.797C33.659 57.0794 33.7028 57.3615 33.8014 57.6266C33.8997 57.8916 34.0509 58.134 34.2458 58.3389C34.4406 58.5438 34.6748 58.707 34.9346 58.8189C35.1942 58.9306 35.4739 58.9885 35.7565 58.9892H43.8021C44.3483 58.9973 44.877 58.7966 45.2804 58.4282C45.6837 58.0599 45.9314 57.5515 45.9728 57.0067C45.9839 56.726 45.9384 56.446 45.8387 56.1833C45.7391 55.9205 45.5874 55.6807 45.3927 55.478C45.1983 55.2753 44.9648 55.114 44.7063 55.0037C44.448 54.8934 44.1699 54.8364 43.889 54.8362L35.8434 54.8181Z" fill="#DC1F27"/>
<path d="M35.8434 54.8181C35.2977 54.8101 34.7695 55.0102 34.3663 55.3778C33.963 55.7454 33.7151 56.2529 33.6727 56.797C33.659 57.0794 33.7028 57.3615 33.8014 57.6266C33.8997 57.8916 34.0509 58.134 34.2458 58.3389C34.4406 58.5438 34.6748 58.707 34.9346 58.8189C35.1942 58.9306 35.4739 58.9885 35.7565 58.9892H43.8021C44.3483 58.9973 44.877 58.7966 45.2804 58.4282C45.6837 58.0599 45.9314 57.5515 45.9728 57.0067C45.9839 56.726 45.9384 56.446 45.8387 56.1833C45.7391 55.9205 45.5874 55.6807 45.3927 55.478C45.1983 55.2753 44.9648 55.114 44.7063 55.0037C44.448 54.8934 44.1699 54.8364 43.889 54.8362L35.8434 54.8181Z" fill="#DC1F27"/>
<mask id="mask2_2_20" style="mask-type:luminance" maskUnits="userSpaceOnUse" x="33" y="54" width="13" height="5">
<path d="M35.8434 54.8181C35.2977 54.8101 34.7695 55.0102 34.3663 55.3778C33.963 55.7454 33.7151 56.2529 33.6727 56.797C33.659 57.0794 33.7028 57.3615 33.8014 57.6266C33.8997 57.8916 34.0509 58.134 34.2458 58.3389C34.4406 58.5438 34.6748 58.707 34.9346 58.8189C35.1942 58.9306 35.4739 58.9885 35.7565 58.9892H43.8021C44.3483 58.9973 44.877 58.7966 45.2804 58.4282C45.6837 58.0599 45.9314 57.5515 45.9728 57.0067C45.9839 56.726 45.9384 56.446 45.8387 56.1833C45.7391 55.9205 45.5874 55.6807 45.3927 55.478C45.1983 55.2753 44.9648 55.114 44.7063 55.0037C44.448 54.8934 44.1699 54.8364 43.889 54.8362L35.8434 54.8181Z" fill="white"/>
</mask>
<g mask="url(#mask2_2_20)">
<path d="M46.1606 54.8183H33.6437V58.9894H46.1606V54.8183Z" fill="#DC1F27"/>
</g>
<path fill-rule="evenodd" clip-rule="evenodd" d="M54.941 60.5264H24.741C24.2249 60.5184 23.7234 60.697 23.3286 61.0293C22.9338 61.3617 22.6723 61.8254 22.592 62.3352C22.5549 62.6333 22.5819 62.9361 22.6714 63.2229C22.761 63.5098 22.9109 63.774 23.111 63.9981C23.3111 64.2222 23.5568 64.401 23.8318 64.5222C24.1067 64.6435 24.4043 64.7044 24.7049 64.7012H54.9047C55.4208 64.7092 55.9223 64.5306 56.3171 64.1983C56.7119 63.8659 56.9734 63.4022 57.0537 62.8923C57.0908 62.5941 57.0638 62.2915 56.9743 62.0047C56.8848 61.7178 56.735 61.4536 56.5349 61.2293C56.3347 61.0052 56.0889 60.8265 55.814 60.7054C55.539 60.5841 55.2414 60.523 54.941 60.5264Z" fill="#DC1F27"/>
<path d="M54.941 60.5264H24.741C24.2249 60.5184 23.7234 60.697 23.3286 61.0293C22.9338 61.3617 22.6723 61.8254 22.592 62.3352C22.5549 62.6333 22.5819 62.9361 22.6714 63.2229C22.761 63.5098 22.9109 63.774 23.111 63.9981C23.3111 64.2222 23.5568 64.401 23.8318 64.5222C24.1067 64.6435 24.4043 64.7044 24.7049 64.7012H54.9047C55.4208 64.7092 55.9223 64.5306 56.3171 64.1983C56.7119 63.8659 56.9734 63.4022 57.0537 62.8923C57.0908 62.5941 57.0638 62.2915 56.9743 62.0047C56.8848 61.7178 56.735 61.4536 56.5349 61.2293C56.3347 61.0052 56.0889 60.8265 55.814 60.7054C55.539 60.5841 55.2414 60.523 54.941 60.5264Z" fill="#DC1F27"/>
<mask id="mask3_2_20" style="mask-type:luminance" maskUnits="userSpaceOnUse" x="22" y="60" width="36" height="5">
<path d="M54.941 60.5264H24.741C24.2249 60.5184 23.7234 60.697 23.3286 61.0293C22.9338 61.3617 22.6723 61.8254 22.592 62.3352C22.5549 62.6333 22.5819 62.9361 22.6714 63.2229C22.761 63.5098 22.9109 63.774 23.111 63.9981C23.3111 64.2222 23.5568 64.401 23.8318 64.5222C24.1067 64.6435 24.4043 64.7044 24.7049 64.7012H54.9047C55.4208 64.7092 55.9223 64.5306 56.3171 64.1983C56.7119 63.8659 56.9734 63.4022 57.0537 62.8923C57.0908 62.5941 57.0638 62.2915 56.9743 62.0047C56.8848 61.7178 56.735 61.4536 56.5349 61.2293C56.3347 61.0052 56.0889 60.8265 55.814 60.7054C55.539 60.5841 55.2414 60.523 54.941 60.5264Z" fill="white"/>
</mask>
<g mask="url(#mask3_2_20)">
<path d="M57.1369 60.5266H22.6609V64.6977H57.1369V60.5266Z" fill="#DC1F27"/>
</g>
<path fill-rule="evenodd" clip-rule="evenodd" d="M39.8228 9.40579C40.7521 9.40223 41.6595 9.12336 42.4306 8.60444C43.2016 8.0855 43.8016 7.34975 44.1547 6.49011C44.5079 5.63045 44.5984 4.68544 44.415 3.77434C44.2315 2.86327 43.7821 2.02699 43.1237 1.37108C42.4652 0.715173 41.6272 0.269055 40.7155 0.089053C39.8038 -0.0909487 38.8591 0.00323476 38.0007 0.359713C37.1424 0.71619 36.4091 1.31898 35.893 2.09197C35.3771 2.86496 35.1017 3.77351 35.1017 4.70289C35.1017 5.32199 35.224 5.93503 35.4614 6.50679C35.6989 7.07857 36.047 7.59781 36.4855 8.03475C36.9241 8.47169 37.4448 8.81773 38.0175 9.05301C38.5902 9.28829 39.2036 9.40818 39.8228 9.40579Z" fill="#DC1F27"/>
<path d="M39.8228 9.40579C40.7521 9.40223 41.6595 9.12336 42.4306 8.60444C43.2016 8.0855 43.8016 7.34975 44.1547 6.49011C44.5079 5.63045 44.5984 4.68544 44.415 3.77434C44.2315 2.86327 43.7821 2.02699 43.1237 1.37108C42.4652 0.715173 41.6272 0.269055 40.7155 0.089053C39.8038 -0.0909487 38.8591 0.00323476 38.0007 0.359713C37.1424 0.71619 36.4091 1.31898 35.893 2.09197C35.3771 2.86496 35.1017 3.77351 35.1017 4.70289C35.1017 5.32199 35.224 5.93503 35.4614 6.50679C35.6989 7.07857 36.047 7.59781 36.4855 8.03475C36.9241 8.47169 37.4448 8.81773 38.0175 9.05301C38.5902 9.28829 39.2036 9.40818 39.8228 9.40579Z" fill="#DC1F27"/>
<mask id="mask4_2_20" style="mask-type:luminance" maskUnits="userSpaceOnUse" x="35" y="0" width="10" height="10">
<path d="M39.8228 9.40623C40.7521 9.40265 41.6595 9.12379 42.4306 8.60486C43.2016 8.08592 43.8016 7.35019 44.1547 6.49053C44.5079 5.63087 44.5984 4.68586 44.415 3.77478C44.2315 2.8637 43.7821 2.02741 43.1237 1.37151C42.4652 0.7156 41.6272 0.269483 40.7155 0.089481C39.8038 -0.0905207 38.8591 0.00366285 38.0007 0.360141C37.1424 0.716618 36.4091 1.31941 35.893 2.09239C35.3771 2.8654 35.1017 3.77393 35.1017 4.70331C35.1017 5.32243 35.224 5.93545 35.4614 6.50723C35.6989 7.07899 36.047 7.59824 36.4855 8.03517C36.9241 8.47213 37.4448 8.81817 38.0175 9.05343C38.5902 9.28871 39.2036 9.40861 39.8228 9.40623Z" fill="white"/>
</mask>
<g mask="url(#mask4_2_20)">
<path d="M44.6197 -0.0793037H35.1776V9.36269H44.6197V-0.0793037Z" fill="#DC1F27"/>
</g>
<path fill-rule="evenodd" clip-rule="evenodd" d="M30.1927 14.9373C31.3923 14.9476 32.5866 15.0957 33.7525 15.3786C34.5597 14.0267 35.6183 12.8418 36.8708 11.8876C34.7579 11.1219 32.5303 10.7206 30.283 10.701C22.1578 10.5455 13.9423 17.2127 11.2435 15.838L11.3086 15.6427C14.0544 16.2794 15.0203 12.1517 12.2963 11.4897C11.4731 11.2995 10.6125 11.3515 9.81816 11.6393C9.02385 11.9271 8.32968 12.4384 7.81929 13.1116C7.30891 13.7849 7.00408 14.5914 6.94152 15.4339C6.87897 16.2764 7.06136 17.119 7.46674 17.8603C8.19026 19.1336 9.22129 19.727 10.6068 20.0778L10.5634 20.143C7.70912 25.6129 1.73642 37.1169 3.32817 34.8559L11.7138 23.4821C11.7138 25.9638 12.0756 34.4182 12.4193 38.1733C12.6363 40.5645 13.3635 40.5862 13.5805 38.1733C13.9423 34.3965 14.286 25.942 14.286 23.4821L22.6717 34.8559C24.2308 37.1169 18.2797 25.6129 15.4364 20.143L15.2157 19.7487C19.8498 18.3632 24.7481 14.8287 30.2144 14.9373H30.1927Z" fill="#DC1F27"/>
<path d="M30.1927 14.9373C31.3923 14.9476 32.5866 15.0957 33.7525 15.3786C34.5597 14.0267 35.6183 12.8418 36.8708 11.8876C34.7579 11.1219 32.5303 10.7206 30.283 10.701C22.1578 10.5455 13.9423 17.2127 11.2435 15.838L11.3086 15.6427C14.0544 16.2794 15.0203 12.1517 12.2963 11.4897C11.4731 11.2995 10.6125 11.3515 9.81816 11.6393C9.02385 11.9271 8.32968 12.4384 7.81929 13.1116C7.30891 13.7849 7.00408 14.5914 6.94152 15.4339C6.87897 16.2764 7.06136 17.119 7.46674 17.8603C8.19026 19.1336 9.22129 19.727 10.6068 20.0778L10.5634 20.143C7.70912 25.6129 1.73642 37.1169 3.32817 34.8559L11.7138 23.4821C11.7138 25.9638 12.0756 34.4182 12.4193 38.1733C12.6363 40.5645 13.3635 40.5862 13.5805 38.1733C13.9423 34.3965 14.286 25.942 14.286 23.4821L22.6717 34.8559C24.2308 37.1169 18.2797 25.6129 15.4364 20.143L15.2157 19.7487C19.8498 18.3632 24.7481 14.8287 30.2144 14.9373" fill="#DC1F27"/>
<mask id="mask5_2_20" style="mask-type:luminance" maskUnits="userSpaceOnUse" x="3" y="10" width="34" height="30">
<path d="M30.1927 14.9373C31.3923 14.9476 32.5866 15.0957 33.7525 15.3786C34.5597 14.0267 35.6183 12.8418 36.8708 11.8876C34.7579 11.1219 32.5303 10.7206 30.283 10.701C22.1578 10.5455 13.9423 17.2127 11.2435 15.838L11.3086 15.6427C14.0544 16.2794 15.0203 12.1517 12.2963 11.4897C11.4731 11.2995 10.6125 11.3515 9.81816 11.6393C9.02385 11.9271 8.32968 12.4384 7.81929 13.1116C7.30891 13.7849 7.00408 14.5914 6.94152 15.4339C6.87897 16.2764 7.06136 17.119 7.46674 17.8603C8.19026 19.1336 9.22129 19.727 10.6068 20.0778L10.5634 20.143C7.70912 25.6129 1.73642 37.1169 3.32817 34.8559L11.7138 23.4821C11.7138 25.9638 12.0756 34.4182 12.4193 38.1733C12.6363 40.5645 13.3635 40.5862 13.5805 38.1733C13.9423 34.3965 14.286 25.942 14.286 23.4821L22.6717 34.8559C24.2308 37.1169 18.2797 25.6129 15.4364 20.143L15.2157 19.7487C19.8498 18.3632 24.7481 14.8287 30.2144 14.9373" fill="white"/>
</mask>
<g mask="url(#mask5_2_20)">
<path d="M36.9358 10.4619H1.80142V40.5462H36.9358V10.4619Z" fill="#DC1F27"/>
</g>
<path fill-rule="evenodd" clip-rule="evenodd" d="M39.8229 19.6367C40.4161 20.8666 40.4379 22.0316 40.0869 23.5473C40.0219 23.8766 39.9097 24.2057 39.8229 24.5567C39.273 22.7767 39.0777 21.2176 39.8229 19.6367ZM39.8012 13.4867C38.292 14.5518 37.0389 15.9396 36.1328 17.5493C35.5969 18.5524 35.2534 19.6468 35.12 20.7763C35.0983 20.8847 35.0983 20.9969 35.0766 21.1054C35.0473 21.441 35.0401 21.7781 35.0548 22.1147C35.0983 24.7738 36.1944 27.4507 37.4462 30.153C34.5049 36.6106 29.433 49.6883 38.9836 53.494H40.5862C45.9692 51.3235 46.7579 46.2588 45.8137 40.9336C45.3144 38.3702 44.5643 35.8619 43.5743 33.4451C42.6301 35.5324 41.7945 37.486 41.042 39.2333C41.0203 39.4974 43.5743 46.6567 39.7903 49.113C35.9701 46.635 38.3433 39.2116 39.7903 35.4999V35.5217C41.0203 32.5154 43.5454 27.487 44.2038 24.5421C44.8621 21.5975 44.533 19.076 42.887 16.5834C44.8993 15.5439 47.1339 15.0089 49.3988 15.0242C54.865 14.912 59.7632 18.4284 64.3721 19.8103L64.155 20.2046C61.3006 25.6745 55.3244 37.1785 56.9198 34.9175L65.3055 23.5437C65.3055 26.0253 65.6673 34.4798 66.0109 38.2349C66.228 40.6261 66.9551 40.6478 67.1722 38.2349C67.5338 34.4581 67.874 26.0036 67.874 23.5437L76.2633 34.9175C77.8224 37.1785 71.8714 25.6745 69.0279 20.2046L68.9845 20.1394C70.3664 19.7451 71.3794 19.2821 72.1247 17.9219C73.9914 14.5828 70.9598 10.6866 67.2952 11.5549C64.571 12.1916 65.5369 16.3193 68.2827 15.7043C68.5685 15.6392 68.5685 16.1854 66.9189 16.0335C63.2325 15.6717 56.7317 10.6324 49.2866 10.7626C45.8933 10.8531 42.4674 11.667 39.7903 13.4903L39.8012 13.4867Z" fill="#DC1F27"/>
<path d="M39.8229 19.6367C40.4161 20.8666 40.4379 22.0316 40.0869 23.5473C40.0219 23.8766 39.9097 24.2057 39.8229 24.5567C39.273 22.7767 39.0777 21.2176 39.8229 19.6367ZM39.8012 13.4867C38.292 14.5518 37.0389 15.9396 36.1328 17.5493C35.5969 18.5524 35.2534 19.6468 35.12 20.7763C35.0983 20.8847 35.0983 20.9969 35.0766 21.1054C35.0473 21.441 35.0401 21.7781 35.0548 22.1147C35.0983 24.7738 36.1944 27.4507 37.4462 30.153C34.5049 36.6106 29.433 49.6883 38.9836 53.494H40.5862C45.9692 51.3235 46.7579 46.2588 45.8137 40.9336C45.3144 38.3702 44.5643 35.8619 43.5743 33.4451C42.6301 35.5324 41.7945 37.486 41.042 39.2333C41.0203 39.4974 43.5743 46.6567 39.7903 49.113C35.9701 46.635 38.3433 39.2116 39.7903 35.4999V35.5217C41.0203 32.5154 43.5454 27.487 44.2038 24.5421C44.8621 21.5975 44.533 19.076 42.887 16.5834C44.8993 15.5439 47.1339 15.0089 49.3988 15.0242C54.865 14.912 59.7632 18.4284 64.3721 19.8103L64.155 20.2046C61.3006 25.6745 55.3244 37.1785 56.9198 34.9175L65.3055 23.5437C65.3055 26.0253 65.6673 34.4798 66.0109 38.2349C66.228 40.6261 66.9551 40.6478 67.1722 38.2349C67.5338 34.4581 67.874 26.0036 67.874 23.5437L76.2633 34.9175C77.8224 37.1785 71.8714 25.6745 69.0279 20.2046L68.9845 20.1394C70.3664 19.7451 71.3794 19.2821 72.1247 17.9219C73.9914 14.5828 70.9598 10.6866 67.2952 11.5549C64.571 12.1916 65.5369 16.3193 68.2827 15.7043C68.5685 15.6392 68.5685 16.1854 66.9189 16.0335C63.2325 15.6717 56.7317 10.6324 49.2866 10.7626C45.8933 10.8531 42.4674 11.667 39.7903 13.4903L39.8012 13.4867Z" fill="#DC1F27"/>
</g>
<defs>
<clipPath id="clip0_2_20">
<rect width="80.2516" height="64.8843" fill="white" transform="scale(1.00178)"/>
</clipPath>
</defs>
</svg>
