<svg width="55" height="50" viewBox="0 0 55 50" fill="none" xmlns="http://www.w3.org/2000/svg">
<path d="M0.456153 48.9514H54.5438H0.456153Z" fill="#20ACB6"/>
<path d="M15.9098 5.1304V48.3672H2.38786V5.1304H15.9098ZM15.9098 3.96184H2.38786C1.80835 3.96184 1.42201 4.42926 1.42201 5.1304V48.3672C1.42201 49.0683 1.80835 49.5357 2.38786 49.5357H15.9098C16.4893 49.5357 16.8756 49.0683 16.8756 48.3672V5.1304C16.8756 4.42926 16.4893 3.96184 15.9098 3.96184Z" fill="#20ACB6"/>
<path d="M7.70004 43.1086C7.70004 45.0952 7.41029 46.6143 5.76834 46.6143C4.12639 46.6143 3.83663 45.0952 3.83663 43.1086C3.83663 41.1221 4.12639 38.4344 5.76834 38.4344C7.41029 38.4344 7.70004 41.1221 7.70004 43.1086ZM14.461 43.1086C14.461 45.0952 14.1712 46.6143 12.5293 46.6143C10.8874 46.6143 10.5976 45.0952 10.5976 43.1086C10.5976 41.1221 10.8874 38.4344 12.5293 38.4344C14.1712 38.4344 14.461 41.1221 14.461 43.1086ZM10.5976 25.5802H13.4952H10.5976Z" fill="#20ACB6"/>
<path d="M16.8756 1.62471V3.96184H1.42201V1.62471H16.8756ZM16.8756 0.456153H1.42201C0.842494 0.456153 0.456153 0.923578 0.456153 1.62471V3.96184C0.456153 4.66297 0.842494 5.1304 1.42201 5.1304H16.8756C17.4551 5.1304 17.8415 4.66297 17.8415 3.96184V1.62471C17.8415 0.923578 17.4551 0.456153 16.8756 0.456153ZM52.6121 23.8274V48.3672H26.5341V23.8274H52.6121ZM52.6121 22.6588H26.5341C25.9546 22.6588 25.5683 23.1262 25.5683 23.8274V48.3672C25.5683 49.0683 25.9546 49.5357 26.5341 49.5357H52.6121C53.1917 49.5357 53.578 49.0683 53.578 48.3672V23.8274C53.578 23.1262 53.1917 22.6588 52.6121 22.6588Z" fill="#20ACB6"/>
<path d="M53.578 20.3217V22.6588H25.5683V20.3217H53.578ZM53.578 19.1531H25.5683C24.9888 19.1531 24.6024 19.6206 24.6024 20.3217V22.6588C24.6024 23.36 24.9888 23.8274 25.5683 23.8274H53.578C54.1575 23.8274 54.5438 23.36 54.5438 22.6588V20.3217C54.5438 19.6206 54.1575 19.1531 53.578 19.1531ZM39.5731 40.1872C40.9253 40.1872 41.9878 41.4727 41.9878 43.1086V48.3672H37.1585V43.1086C37.1585 41.4727 38.221 40.1872 39.5731 40.1872ZM39.5731 39.0187C37.738 39.0187 36.1927 40.8884 36.1927 43.1086V48.3672C36.1927 49.0683 36.579 49.5357 37.1585 49.5357H41.9878C42.5673 49.5357 42.9536 49.0683 42.9536 48.3672V43.1086C42.9536 40.8884 41.4083 39.0187 39.5731 39.0187Z" fill="#20ACB6"/>
<path d="M53.1917 16.2318V19.1532V16.2318Z" fill="#20ACB6"/>
<path d="M31.8463 27.3331C32.619 27.3331 33.2951 28.1511 33.2951 29.0859V30.8387H30.3976V29.0859C30.3976 28.1511 31.0737 27.3331 31.8463 27.3331ZM31.8463 26.1645C30.4941 26.1645 29.4317 27.4499 29.4317 29.0859V30.8387C29.4317 31.5399 29.818 32.0073 30.3976 32.0073H33.2951C33.8746 32.0073 34.261 31.5399 34.261 30.8387V29.0859C34.261 27.4499 33.1985 26.1645 31.8463 26.1645ZM39.5731 27.3331C40.3458 27.3331 41.0219 28.1511 41.0219 29.0859V30.8387H38.1244V29.0859C38.1244 28.1511 38.8005 27.3331 39.5731 27.3331ZM39.5731 26.1645C38.221 26.1645 37.1585 27.4499 37.1585 29.0859V30.8387C37.1585 31.5399 37.5449 32.0073 38.1244 32.0073H41.0219C41.6014 32.0073 41.9878 31.5399 41.9878 30.8387V29.0859C41.9878 27.4499 40.9253 26.1645 39.5731 26.1645ZM47.3 27.3331C48.0726 27.3331 48.7487 28.1511 48.7487 29.0859V30.8387H45.8512V29.0859C45.8512 28.1511 46.5273 27.3331 47.3 27.3331ZM47.3 26.1645C45.9478 26.1645 44.8853 27.4499 44.8853 29.0859V30.8387C44.8853 31.5399 45.2717 32.0073 45.8512 32.0073H48.7487C49.3282 32.0073 49.7146 31.5399 49.7146 30.8387V29.0859C49.7146 27.4499 48.6522 26.1645 47.3 26.1645Z" fill="#20ACB6"/>
<path d="M16.8756 6.88324H29.9146V15.998L16.8756 6.88324ZM29.4317 6.88324H30.8805V3.37756H17.8415" fill="#20ACB6"/>
<path d="M22.6707 40.1872V48.3672H19.7732V40.1872H22.6707ZM22.6707 39.0187H19.7732C19.1937 39.0187 18.8073 39.4861 18.8073 40.1872V48.3672C18.8073 49.0683 19.1937 49.5357 19.7732 49.5357H22.6707C23.2503 49.5357 23.6366 49.0683 23.6366 48.3672V40.1872C23.6366 39.4861 23.2503 39.0187 22.6707 39.0187Z" fill="#20ACB6"/>
<path d="M16.8756 10.3889H29.4317H16.8756Z" fill="#20ACB6"/>
<path d="M0.456153 48.4953C0.204225 48.4953 -3.91044e-06 48.6995 -3.91044e-06 48.9514C-3.91044e-06 49.2034 0.204225 49.4076 0.456153 49.4076V48.4953ZM54.5438 49.4076C54.7958 49.4076 55 49.2034 55 48.9514C55 48.6995 54.7958 48.4953 54.5438 48.4953V49.4076ZM15.9098 5.1304H16.3659V4.67424H15.9098V5.1304ZM15.9098 48.3672V48.8233H16.3659V48.3672H15.9098ZM2.38786 48.3672H1.9317V48.8233H2.38786V48.3672ZM2.38786 5.1304V4.67424H1.9317V5.1304H2.38786ZM6.2245 44.2772C6.2245 44.0253 6.02027 43.821 5.76834 43.821C5.51641 43.821 5.31218 44.0253 5.31218 44.2772H6.2245ZM5.31218 48.9514C5.31218 49.2034 5.51641 49.4076 5.76834 49.4076C6.02027 49.4076 6.2245 49.2034 6.2245 48.9514H5.31218ZM12.9855 44.2772C12.9855 44.0253 12.7812 43.821 12.5293 43.821C12.2774 43.821 12.0731 44.0253 12.0731 44.2772H12.9855ZM12.0731 48.9514C12.0731 49.2034 12.2774 49.4076 12.5293 49.4076C12.7812 49.4076 12.9855 49.2034 12.9855 48.9514H12.0731ZM2.38786 33.304C2.13593 33.304 1.9317 33.5082 1.9317 33.7601C1.9317 34.0121 2.13593 34.2163 2.38786 34.2163V33.304ZM15.9098 34.2163C16.1617 34.2163 16.3659 34.0121 16.3659 33.7601C16.3659 33.5082 16.1617 33.304 15.9098 33.304V34.2163ZM4.80249 7.59564C4.55056 7.59564 4.34633 7.79987 4.34633 8.0518C4.34633 8.30373 4.55056 8.50796 4.80249 8.50796V7.59564ZM7.70004 8.50796C7.95197 8.50796 8.1562 8.30373 8.1562 8.0518C8.1562 7.79987 7.95197 7.59564 7.70004 7.59564V8.50796ZM10.5976 7.59564C10.3457 7.59564 10.1414 7.79987 10.1414 8.0518C10.1414 8.30373 10.3457 8.50796 10.5976 8.50796V7.59564ZM13.4952 8.50796C13.7471 8.50796 13.9513 8.30373 13.9513 8.0518C13.9513 7.79987 13.7471 7.59564 13.4952 7.59564V8.50796ZM4.80249 11.1013C4.55056 11.1013 4.34633 11.3056 4.34633 11.5575C4.34633 11.8094 4.55056 12.0136 4.80249 12.0136V11.1013ZM7.70004 12.0136C7.95197 12.0136 8.1562 11.8094 8.1562 11.5575C8.1562 11.3056 7.95197 11.1013 7.70004 11.1013V12.0136ZM10.5976 11.1013C10.3457 11.1013 10.1414 11.3056 10.1414 11.5575C10.1414 11.8094 10.3457 12.0136 10.5976 12.0136V11.1013ZM13.4952 12.0136C13.7471 12.0136 13.9513 11.8094 13.9513 11.5575C13.9513 11.3056 13.7471 11.1013 13.4952 11.1013V12.0136ZM4.80249 14.607C4.55056 14.607 4.34633 14.8112 4.34633 15.0632C4.34633 15.3151 4.55056 15.5193 4.80249 15.5193V14.607ZM7.70004 15.5193C7.95197 15.5193 8.1562 15.3151 8.1562 15.0632C8.1562 14.8112 7.95197 14.607 7.70004 14.607V15.5193ZM10.5976 14.607C10.3457 14.607 10.1414 14.8112 10.1414 15.0632C10.1414 15.3151 10.3457 15.5193 10.5976 15.5193V14.607ZM13.4952 15.5193C13.7471 15.5193 13.9513 15.3151 13.9513 15.0632C13.9513 14.8112 13.7471 14.607 13.4952 14.607V15.5193ZM4.80249 18.1127C4.55056 18.1127 4.34633 18.3169 4.34633 18.5689C4.34633 18.8208 4.55056 19.025 4.80249 19.025V18.1127ZM7.70004 19.025C7.95197 19.025 8.1562 18.8208 8.1562 18.5689C8.1562 18.3169 7.95197 18.1127 7.70004 18.1127V19.025ZM10.5976 18.1127C10.3457 18.1127 10.1414 18.3169 10.1414 18.5689C10.1414 18.8208 10.3457 19.025 10.5976 19.025V18.1127ZM13.4952 19.025C13.7471 19.025 13.9513 18.8208 13.9513 18.5689C13.9513 18.3169 13.7471 18.1127 13.4952 18.1127V19.025ZM4.80249 21.6184C4.55056 21.6184 4.34633 21.8226 4.34633 22.0745C4.34633 22.3265 4.55056 22.5307 4.80249 22.5307V21.6184ZM7.70004 22.5307C7.95197 22.5307 8.1562 22.3265 8.1562 22.0745C8.1562 21.8226 7.95197 21.6184 7.70004 21.6184V22.5307ZM10.5976 21.6184C10.3457 21.6184 10.1414 21.8226 10.1414 22.0745C10.1414 22.3265 10.3457 22.5307 10.5976 22.5307V21.6184ZM13.4952 22.5307C13.7471 22.5307 13.9513 22.3265 13.9513 22.0745C13.9513 21.8226 13.7471 21.6184 13.4952 21.6184V22.5307ZM4.80249 25.1241C4.55056 25.1241 4.34633 25.3283 4.34633 25.5802C4.34633 25.8321 4.55056 26.0364 4.80249 26.0364V25.1241ZM7.70004 26.0364C7.95197 26.0364 8.1562 25.8321 8.1562 25.5802C8.1562 25.3283 7.95197 25.1241 7.70004 25.1241V26.0364ZM10.5976 25.1241C10.3457 25.1241 10.1414 25.3283 10.1414 25.5802C10.1414 25.8321 10.3457 26.0364 10.5976 26.0364V25.1241ZM13.4952 26.0364C13.7471 26.0364 13.9513 25.8321 13.9513 25.5802C13.9513 25.3283 13.7471 25.1241 13.4952 25.1241V26.0364ZM16.8756 1.62471H17.3318V1.16856H16.8756V1.62471ZM16.8756 3.96184V4.41799H17.3318V3.96184H16.8756ZM1.42201 3.96184H0.965848V4.41799H1.42201V3.96184ZM1.42201 1.62471V1.16856H0.965848V1.62471H1.42201ZM52.6121 23.8274H53.0683V23.3712H52.6121V23.8274ZM52.6121 48.3672V48.8233H53.0683V48.3672H52.6121ZM26.5341 48.3672H26.078V48.8233H26.5341V48.3672ZM26.5341 23.8274V23.3712H26.078V23.8274H26.5341ZM53.578 20.3217H54.0342V19.8655H53.578V20.3217ZM53.578 22.6588V23.115H54.0342V22.6588H53.578ZM25.5683 22.6588H25.1121V23.115H25.5683V22.6588ZM25.5683 20.3217V19.8655H25.1121V20.3217H25.5683ZM41.9878 48.3672V48.8233H42.4439V48.3672H41.9878ZM37.1585 48.3672H36.7024V48.8233H37.1585V48.3672ZM25.5683 15.6587C25.3164 15.6587 25.1121 15.863 25.1121 16.1149C25.1121 16.3668 25.3164 16.5711 25.5683 16.5711V15.6587ZM53.578 16.5711C53.8299 16.5711 54.0342 16.3668 54.0342 16.1149C54.0342 15.863 53.8299 15.6587 53.578 15.6587V16.5711ZM26.5074 16.2318C26.5074 15.9798 26.3032 15.7756 26.0512 15.7756C25.7993 15.7756 25.5951 15.9798 25.5951 16.2318H26.5074ZM25.5951 19.1532C25.5951 19.4051 25.7993 19.6093 26.0512 19.6093C26.3032 19.6093 26.5074 19.4051 26.5074 19.1532H25.5951ZM30.3708 16.2318C30.3708 15.9798 30.1666 15.7756 29.9146 15.7756C29.6627 15.7756 29.4585 15.9798 29.4585 16.2318H30.3708ZM29.4585 19.1532C29.4585 19.4051 29.6627 19.6093 29.9146 19.6093C30.1666 19.6093 30.3708 19.4051 30.3708 19.1532H29.4585ZM34.2342 16.2318C34.2342 15.9798 34.03 15.7756 33.778 15.7756C33.5261 15.7756 33.3219 15.9798 33.3219 16.2318H34.2342ZM33.3219 19.1532C33.3219 19.4051 33.5261 19.6093 33.778 19.6093C34.03 19.6093 34.2342 19.4051 34.2342 19.1532H33.3219ZM38.0976 16.2318C38.0976 15.9798 37.8934 15.7756 37.6414 15.7756C37.3895 15.7756 37.1853 15.9798 37.1853 16.2318H38.0976ZM37.1853 19.1532C37.1853 19.4051 37.3895 19.6093 37.6414 19.6093C37.8934 19.6093 38.0976 19.4051 38.0976 19.1532H37.1853ZM41.961 16.2318C41.961 15.9798 41.7568 15.7756 41.5048 15.7756C41.2529 15.7756 41.0487 15.9798 41.0487 16.2318H41.961ZM41.0487 19.1532C41.0487 19.4051 41.2529 19.6093 41.5048 19.6093C41.7568 19.6093 41.961 19.4051 41.961 19.1532H41.0487ZM45.8244 16.2318C45.8244 15.9798 45.6202 15.7756 45.3683 15.7756C45.1163 15.7756 44.9121 15.9798 44.9121 16.2318H45.8244ZM44.9121 19.1532C44.9121 19.4051 45.1163 19.6093 45.3683 19.6093C45.6202 19.6093 45.8244 19.4051 45.8244 19.1532H44.9121ZM49.6878 16.2318C49.6878 15.9798 49.4836 15.7756 49.2317 15.7756C48.9797 15.7756 48.7755 15.9798 48.7755 16.2318H49.6878ZM48.7755 19.1532C48.7755 19.4051 48.9797 19.6093 49.2317 19.6093C49.4836 19.6093 49.6878 19.4051 49.6878 19.1532H48.7755ZM53.6478 16.2318C53.6478 15.9798 53.4436 15.7756 53.1917 15.7756C52.9397 15.7756 52.7355 15.9798 52.7355 16.2318H53.6478ZM52.7355 19.1532C52.7355 19.4051 52.9397 19.6093 53.1917 19.6093C53.4436 19.6093 53.6478 19.4051 53.6478 19.1532H52.7355ZM33.2951 30.8387V31.2949H33.7513V30.8387H33.2951ZM30.3976 30.8387H29.9414V31.2949H30.3976V30.8387ZM41.0219 30.8387V31.2949H41.4781V30.8387H41.0219ZM38.1244 30.8387H37.6682V31.2949H38.1244V30.8387ZM48.7487 30.8387V31.2949H49.2049V30.8387H48.7487ZM45.8512 30.8387H45.395V31.2949H45.8512V30.8387ZM26.5341 35.6411C26.2822 35.6411 26.078 35.8453 26.078 36.0973C26.078 36.3492 26.2822 36.5534 26.5341 36.5534V35.6411ZM52.6121 36.5534C52.8641 36.5534 53.0683 36.3492 53.0683 36.0973C53.0683 35.8453 52.8641 35.6411 52.6121 35.6411V36.5534ZM16.8756 6.88324V6.42708C16.6765 6.42708 16.5003 6.55628 16.4405 6.74624C16.3807 6.9362 16.4511 7.14301 16.6143 7.25711L16.8756 6.88324ZM29.9146 6.88324H30.3708C30.3708 6.63131 30.1666 6.42708 29.9146 6.42708V6.88324ZM29.9146 15.998L29.6533 16.3719C29.7926 16.4693 29.9746 16.4811 30.1254 16.4026C30.2762 16.324 30.3708 16.1681 30.3708 15.998H29.9146ZM29.4317 6.42708C29.1798 6.42708 28.9755 6.63131 28.9755 6.88324C28.9755 7.13517 29.1798 7.3394 29.4317 7.3394V6.42708ZM30.8805 6.88324V7.3394C31.1324 7.3394 31.3366 7.13517 31.3366 6.88324H30.8805ZM30.8805 3.37756H31.3366C31.3366 3.12563 31.1324 2.9214 30.8805 2.9214V3.37756ZM17.8415 2.9214C17.5896 2.9214 17.3853 3.12563 17.3853 3.37756C17.3853 3.62949 17.5896 3.83371 17.8415 3.83371V2.9214ZM22.6707 40.1872H23.1269V39.7311H22.6707V40.1872ZM22.6707 48.3672V48.8233H23.1269V48.3672H22.6707ZM19.7732 48.3672H19.317V48.8233H19.7732V48.3672ZM19.7732 40.1872V39.7311H19.317V40.1872H19.7732ZM20.7658 31.423C20.7658 31.675 20.97 31.8792 21.222 31.8792C21.4739 31.8792 21.6781 31.675 21.6781 31.423H20.7658ZM21.6781 7.46752C21.6781 7.21559 21.4739 7.01136 21.222 7.01136C20.97 7.01136 20.7658 7.21559 20.7658 7.46752H21.6781ZM16.8756 30.9669C16.6237 30.9669 16.4195 31.1711 16.4195 31.423C16.4195 31.675 16.6237 31.8792 16.8756 31.8792V30.9669ZM25.5683 31.8792C25.8202 31.8792 26.0245 31.675 26.0245 31.423C26.0245 31.1711 25.8202 30.9669 25.5683 30.9669V31.8792ZM16.8756 25.1241C16.6237 25.1241 16.4195 25.3283 16.4195 25.5802C16.4195 25.8321 16.6237 26.0364 16.8756 26.0364V25.1241ZM25.5683 26.0364C25.8202 26.0364 26.0245 25.8321 26.0245 25.5802C26.0245 25.3283 25.8202 25.1241 25.5683 25.1241V26.0364ZM16.8756 19.2813C16.6237 19.2813 16.4195 19.4855 16.4195 19.7374C16.4195 19.9893 16.6237 20.1936 16.8756 20.1936V19.2813ZM25.5683 20.1936C25.8202 20.1936 26.0245 19.9893 26.0245 19.7374C26.0245 19.4855 25.8202 19.2813 25.5683 19.2813V20.1936ZM16.8756 14.607C16.6237 14.607 16.4195 14.8112 16.4195 15.0632C16.4195 15.3151 16.6237 15.5193 16.8756 15.5193V14.607ZM29.4317 15.5193C29.6836 15.5193 29.8879 15.3151 29.8879 15.0632C29.8879 14.8112 29.6836 14.607 29.4317 14.607V15.5193ZM16.8756 9.93277C16.6237 9.93277 16.4195 10.137 16.4195 10.3889C16.4195 10.6409 16.6237 10.8451 16.8756 10.8451V9.93277ZM29.4317 10.8451C29.6836 10.8451 29.8879 10.6409 29.8879 10.3889C29.8879 10.137 29.6836 9.93277 29.4317 9.93277V10.8451ZM0.456153 49.4076H54.5438V48.4953H0.456153V49.4076ZM15.4536 5.1304V48.3672H16.3659V5.1304H15.4536ZM15.9098 47.911H2.38786V48.8233H15.9098V47.911ZM2.84401 48.3672V5.1304H1.9317V48.3672H2.84401ZM2.38786 5.58656H15.9098V4.67424H2.38786V5.58656ZM15.9098 3.50568H2.38786V4.41799H15.9098V3.50568ZM2.38786 3.50568C1.96513 3.50568 1.59361 3.68091 1.33601 3.99258C1.08475 4.29658 0.965848 4.69929 0.965848 5.1304H1.87816C1.87816 4.86037 1.95243 4.6788 2.03922 4.5738C2.11966 4.47647 2.23108 4.41799 2.38786 4.41799V3.50568ZM0.965848 5.1304V48.3672H1.87816V5.1304H0.965848ZM0.965848 48.3672C0.965848 48.7983 1.08475 49.201 1.33601 49.505C1.59361 49.8167 1.96513 49.9919 2.38786 49.9919V49.0796C2.23108 49.0796 2.11966 49.0211 2.03922 48.9238C1.95243 48.8188 1.87816 48.6372 1.87816 48.3672H0.965848ZM2.38786 49.9919H15.9098V49.0796H2.38786V49.9919ZM15.9098 49.9919C16.3325 49.9919 16.704 49.8167 16.9616 49.505C17.2129 49.201 17.3318 48.7983 17.3318 48.3672H16.4195C16.4195 48.6372 16.3452 48.8188 16.2584 48.9238C16.178 49.0211 16.0666 49.0796 15.9098 49.0796V49.9919ZM17.3318 48.3672V5.1304H16.4195V48.3672H17.3318ZM17.3318 5.1304C17.3318 4.69929 17.2129 4.29658 16.9616 3.99258C16.704 3.68091 16.3325 3.50568 15.9098 3.50568V4.41799C16.0666 4.41799 16.178 4.47647 16.2584 4.5738C16.3452 4.6788 16.4195 4.86037 16.4195 5.1304H17.3318ZM5.31218 44.2772V48.9514H6.2245V44.2772H5.31218ZM7.24388 43.1086C7.24388 44.1005 7.16789 44.89 6.93272 45.422C6.81984 45.6773 6.67873 45.8528 6.5084 45.9673C6.33936 46.081 6.10637 46.1582 5.76834 46.1582V47.0705C6.25128 47.0705 6.67024 46.9578 7.01733 46.7245C7.36313 46.4921 7.60232 46.1637 7.76712 45.7909C8.08732 45.0666 8.1562 44.1033 8.1562 43.1086H7.24388ZM5.76834 46.1582C5.43031 46.1582 5.19731 46.081 5.02828 45.9673C4.85795 45.8528 4.71684 45.6773 4.60396 45.422C4.36879 44.89 4.29279 44.1005 4.29279 43.1086H3.38048C3.38048 44.1033 3.44936 45.0666 3.76955 45.7909C3.93435 46.1637 4.17355 46.4921 4.51935 46.7245C4.86644 46.9578 5.28539 47.0705 5.76834 47.0705V46.1582ZM4.29279 43.1086C4.29279 42.1262 4.36575 41.0124 4.62346 40.1583C4.75231 39.7313 4.91695 39.4054 5.11088 39.1927C5.29289 38.9931 5.50077 38.8905 5.76834 38.8905V37.9782C5.21494 37.9782 4.77087 38.2116 4.43675 38.578C4.11454 38.9314 3.89888 39.4015 3.75005 39.8948C3.4524 40.8812 3.38048 42.1046 3.38048 43.1086H4.29279ZM5.76834 38.8905C6.03591 38.8905 6.24379 38.9931 6.4258 39.1927C6.61972 39.4054 6.78436 39.7313 6.91321 40.1583C7.17093 41.0124 7.24388 42.1262 7.24388 43.1086H8.1562C8.1562 42.1046 8.08428 40.8812 7.78663 39.8948C7.63779 39.4015 7.42213 38.9314 7.09993 38.578C6.76581 38.2116 6.32174 37.9782 5.76834 37.9782V38.8905ZM12.0731 44.2772V48.9514H12.9855V44.2772H12.0731ZM14.0048 43.1086C14.0048 44.1005 13.9289 44.89 13.6937 45.422C13.5808 45.6773 13.4397 45.8528 13.2694 45.9673C13.1003 46.081 12.8673 46.1582 12.5293 46.1582V47.0705C13.0122 47.0705 13.4312 46.9578 13.7783 46.7245C14.1241 46.4921 14.3633 46.1637 14.5281 45.7909C14.8483 45.0666 14.9172 44.1033 14.9172 43.1086H14.0048ZM12.5293 46.1582C12.1913 46.1582 11.9583 46.081 11.7892 45.9673C11.6189 45.8528 11.4778 45.6773 11.3649 45.422C11.1297 44.89 11.0538 44.1005 11.0538 43.1086H10.1414C10.1414 44.1033 10.2103 45.0666 10.5305 45.7909C10.6953 46.1637 10.9345 46.4921 11.2803 46.7245C11.6274 46.9578 12.0464 47.0705 12.5293 47.0705V46.1582ZM11.0538 43.1086C11.0538 42.1262 11.1267 41.0124 11.3844 40.1583C11.5133 39.7313 11.6779 39.4054 11.8718 39.1927C12.0538 38.9931 12.2617 38.8905 12.5293 38.8905V37.9782C11.9759 37.9782 11.5318 38.2116 11.1977 38.578C10.8755 38.9314 10.6598 39.4015 10.511 39.8948C10.2134 40.8812 10.1414 42.1046 10.1414 43.1086H11.0538ZM12.5293 38.8905C12.7969 38.8905 13.0048 38.9931 13.1868 39.1927C13.3807 39.4054 13.5453 39.7313 13.6742 40.1583C13.9319 41.0124 14.0048 42.1262 14.0048 43.1086H14.9172C14.9172 42.1046 14.8452 40.8812 14.5476 39.8948C14.3988 39.4015 14.1831 38.9314 13.8609 38.578C13.5268 38.2116 13.0827 37.9782 12.5293 37.9782V38.8905ZM2.38786 34.2163H15.9098V33.304H2.38786V34.2163ZM4.80249 8.50796H7.70004V7.59564H4.80249V8.50796ZM10.5976 8.50796H13.4952V7.59564H10.5976V8.50796ZM4.80249 12.0136H7.70004V11.1013H4.80249V12.0136ZM10.5976 12.0136H13.4952V11.1013H10.5976V12.0136ZM4.80249 15.5193H7.70004V14.607H4.80249V15.5193ZM10.5976 15.5193H13.4952V14.607H10.5976V15.5193ZM4.80249 19.025H7.70004V18.1127H4.80249V19.025ZM10.5976 19.025H13.4952V18.1127H10.5976V19.025ZM4.80249 22.5307H7.70004V21.6184H4.80249V22.5307ZM10.5976 22.5307H13.4952V21.6184H10.5976V22.5307ZM4.80249 26.0364H7.70004V25.1241H4.80249V26.0364ZM10.5976 26.0364H13.4952V25.1241H10.5976V26.0364ZM16.4195 1.62471V3.96184H17.3318V1.62471H16.4195ZM16.8756 3.50568H1.42201V4.41799H16.8756V3.50568ZM1.87816 3.96184V1.62471H0.965848V3.96184H1.87816ZM1.42201 2.08087H16.8756V1.16856H1.42201V2.08087ZM16.8756 -3.91044e-06H1.42201V0.912311H16.8756V-3.91044e-06ZM1.42201 -3.91044e-06C0.999274 -3.91044e-06 0.627762 0.175229 0.370159 0.486897C0.118896 0.790894 -3.91044e-06 1.19361 -3.91044e-06 1.62471H0.912311C0.912311 1.35469 0.986581 1.17312 1.07337 1.06812C1.15381 0.97079 1.26523 0.912311 1.42201 0.912311V-3.91044e-06ZM-3.91044e-06 1.62471V3.96184H0.912311V1.62471H-3.91044e-06ZM-3.91044e-06 3.96184C-3.91044e-06 4.39295 0.118896 4.79566 0.370159 5.09965C0.627762 5.41132 0.999274 5.58656 1.42201 5.58656V4.67424C1.26523 4.67424 1.15381 4.61576 1.07337 4.51843C0.986581 4.41343 0.912311 4.23187 0.912311 3.96184H-3.91044e-06ZM1.42201 5.58656H16.8756V4.67424H1.42201V5.58656ZM16.8756 5.58656C17.2984 5.58656 17.6699 5.41132 17.9275 5.09965C18.1787 4.79566 18.2976 4.39295 18.2976 3.96184H17.3853C17.3853 4.23187 17.3111 4.41343 17.2243 4.51843C17.1438 4.61576 17.0324 4.67424 16.8756 4.67424V5.58656ZM18.2976 3.96184V1.62471H17.3853V3.96184H18.2976ZM18.2976 1.62471C18.2976 1.19361 18.1787 0.790894 17.9275 0.486897C17.6699 0.175229 17.2984 -3.91044e-06 16.8756 -3.91044e-06V0.912311C17.0324 0.912311 17.1438 0.97079 17.2243 1.06812C17.3111 1.17312 17.3853 1.35469 17.3853 1.62471H18.2976ZM52.156 23.8274V48.3672H53.0683V23.8274H52.156ZM52.6121 47.911H26.5341V48.8233H52.6121V47.911ZM26.9903 48.3672V23.8274H26.078V48.3672H26.9903ZM26.5341 24.2835H52.6121V23.3712H26.5341V24.2835ZM52.6121 22.2027H26.5341V23.115H52.6121V22.2027ZM26.5341 22.2027C26.1114 22.2027 25.7399 22.3779 25.4823 22.6896C25.231 22.9936 25.1121 23.3963 25.1121 23.8274H26.0245C26.0245 23.5573 26.0987 23.3758 26.1855 23.2708C26.266 23.1735 26.3774 23.115 26.5341 23.115V22.2027ZM25.1121 23.8274V48.3672H26.0245V23.8274H25.1121ZM25.1121 48.3672C25.1121 48.7983 25.231 49.201 25.4823 49.505C25.7399 49.8167 26.1114 49.9919 26.5341 49.9919V49.0796C26.3774 49.0796 26.266 49.0211 26.1855 48.9238C26.0987 48.8188 26.0245 48.6372 26.0245 48.3672H25.1121ZM26.5341 49.9919H52.6121V49.0796H26.5341V49.9919ZM52.6121 49.9919C53.0349 49.9919 53.4064 49.8167 53.664 49.505C53.9153 49.201 54.0342 48.7983 54.0342 48.3672H53.1218C53.1218 48.6372 53.0476 48.8188 52.9608 48.9238C52.8803 49.0211 52.7689 49.0796 52.6121 49.0796V49.9919ZM54.0342 48.3672V23.8274H53.1218V48.3672H54.0342ZM54.0342 23.8274C54.0342 23.3963 53.9153 22.9936 53.664 22.6896C53.4064 22.3779 53.0349 22.2027 52.6121 22.2027V23.115C52.7689 23.115 52.8803 23.1735 52.9608 23.2708C53.0476 23.3758 53.1218 23.5573 53.1218 23.8274H54.0342ZM53.1218 20.3217V22.6588H54.0342V20.3217H53.1218ZM53.578 22.2027H25.5683V23.115H53.578V22.2027ZM26.0245 22.6588V20.3217H25.1121V22.6588H26.0245ZM25.5683 20.7779H53.578V19.8655H25.5683V20.7779ZM53.578 18.697H25.5683V19.6093H53.578V18.697ZM25.5683 18.697C25.1456 18.697 24.7741 18.8722 24.5165 19.1839C24.2652 19.4879 24.1463 19.8906 24.1463 20.3217H25.0586C25.0586 20.0517 25.1329 19.8701 25.2197 19.7651C25.3001 19.6678 25.4115 19.6093 25.5683 19.6093V18.697ZM24.1463 20.3217V22.6588H25.0586V20.3217H24.1463ZM24.1463 22.6588C24.1463 23.0899 24.2652 23.4926 24.5165 23.7966C24.7741 24.1083 25.1456 24.2835 25.5683 24.2835V23.3712C25.4115 23.3712 25.3001 23.3127 25.2197 23.2154C25.1329 23.1104 25.0586 22.9288 25.0586 22.6588H24.1463ZM25.5683 24.2835H53.578V23.3712H25.5683V24.2835ZM53.578 24.2835C54.0007 24.2835 54.3722 24.1083 54.6298 23.7966C54.8811 23.4926 55 23.0899 55 22.6588H54.0877C54.0877 22.9288 54.0134 23.1104 53.9266 23.2154C53.8462 23.3127 53.7348 23.3712 53.578 23.3712V24.2835ZM55 22.6588V20.3217H54.0877V22.6588H55ZM55 20.3217C55 19.8906 54.8811 19.4879 54.6298 19.1839C54.3722 18.8722 54.0007 18.697 53.578 18.697V19.6093C53.7348 19.6093 53.8462 19.6678 53.9266 19.7651C54.0134 19.8701 54.0877 20.0517 54.0877 20.3217H55ZM39.5731 40.6434C40.5959 40.6434 41.5316 41.6394 41.5316 43.1086H42.4439C42.4439 41.3059 41.2547 39.7311 39.5731 39.7311V40.6434ZM41.5316 43.1086V48.3672H42.4439V43.1086H41.5316ZM41.9878 47.911H37.1585V48.8233H41.9878V47.911ZM37.6147 48.3672V43.1086H36.7024V48.3672H37.6147ZM37.6147 43.1086C37.6147 41.6394 38.5504 40.6434 39.5731 40.6434V39.7311C37.8916 39.7311 36.7024 41.3059 36.7024 43.1086H37.6147ZM39.5731 38.5625C37.4086 38.5625 35.7365 40.7216 35.7365 43.1086H36.6488C36.6488 41.0551 38.0674 39.4748 39.5731 39.4748V38.5625ZM35.7365 43.1086V48.3672H36.6488V43.1086H35.7365ZM35.7365 48.3672C35.7365 48.7983 35.8554 49.201 36.1067 49.505C36.3643 49.8167 36.7358 49.9919 37.1585 49.9919V49.0796C37.0017 49.0796 36.8903 49.0211 36.8099 48.9238C36.7231 48.8188 36.6488 48.6372 36.6488 48.3672H35.7365ZM37.1585 49.9919H41.9878V49.0796H37.1585V49.9919ZM41.9878 49.9919C42.4105 49.9919 42.782 49.8167 43.0396 49.505C43.2909 49.201 43.4098 48.7983 43.4098 48.3672H42.4975C42.4975 48.6372 42.4232 48.8188 42.3364 48.9238C42.256 49.0211 42.1446 49.0796 41.9878 49.0796V49.9919ZM43.4098 48.3672V43.1086H42.4975V48.3672H43.4098ZM43.4098 43.1086C43.4098 40.7216 41.7377 38.5625 39.5731 38.5625V39.4748C41.0789 39.4748 42.4975 41.0551 42.4975 43.1086H43.4098ZM25.5683 16.5711H53.578V15.6587H25.5683V16.5711ZM25.5951 16.2318V19.1532H26.5074V16.2318H25.5951ZM29.4585 16.2318V19.1532H30.3708V16.2318H29.4585ZM33.3219 16.2318V19.1532H34.2342V16.2318H33.3219ZM37.1853 16.2318V19.1532H38.0976V16.2318H37.1853ZM41.0487 16.2318V19.1532H41.961V16.2318H41.0487ZM44.9121 16.2318V19.1532H45.8244V16.2318H44.9121ZM48.7755 16.2318V19.1532H49.6878V16.2318H48.7755ZM52.7355 16.2318V19.1532H53.6478V16.2318H52.7355ZM31.8463 27.7892C32.0661 27.7892 32.3084 27.907 32.5089 28.1495C32.7079 28.3903 32.839 28.7261 32.839 29.0859H33.7513C33.7513 28.5108 33.5443 27.9702 33.2121 27.5683C32.8813 27.1681 32.3992 26.8769 31.8463 26.8769V27.7892ZM32.839 29.0859V30.8387H33.7513V29.0859H32.839ZM33.2951 30.3826H30.3976V31.2949H33.2951V30.3826ZM30.8537 30.8387V29.0859H29.9414V30.8387H30.8537ZM30.8537 29.0859C30.8537 28.7261 30.9848 28.3903 31.1838 28.1495C31.3843 27.907 31.6265 27.7892 31.8463 27.7892V26.8769C31.2935 26.8769 30.8113 27.1681 30.4806 27.5683C30.1484 27.9702 29.9414 28.5108 29.9414 29.0859H30.8537ZM31.8463 25.7083C30.1647 25.7083 28.9755 27.2832 28.9755 29.0859H29.8879C29.8879 27.6167 30.8235 26.6207 31.8463 26.6207V25.7083ZM28.9755 29.0859V30.8387H29.8879V29.0859H28.9755ZM28.9755 30.8387C28.9755 31.2699 29.0944 31.6726 29.3457 31.9766C29.6033 32.2882 29.9748 32.4635 30.3976 32.4635V31.5511C30.2408 31.5511 30.1294 31.4927 30.0489 31.3953C29.9621 31.2903 29.8879 31.1088 29.8879 30.8387H28.9755ZM30.3976 32.4635H33.2951V31.5511H30.3976V32.4635ZM33.2951 32.4635C33.7178 32.4635 34.0894 32.2882 34.347 31.9766C34.5982 31.6726 34.7171 31.2699 34.7171 30.8387H33.8048C33.8048 31.1088 33.7305 31.2903 33.6438 31.3953C33.5633 31.4927 33.4519 31.5511 33.2951 31.5511V32.4635ZM34.7171 30.8387V29.0859H33.8048V30.8387H34.7171ZM34.7171 29.0859C34.7171 27.2832 33.5279 25.7083 31.8463 25.7083V26.6207C32.8691 26.6207 33.8048 27.6167 33.8048 29.0859H34.7171ZM39.5731 27.7892C39.793 27.7892 40.0352 27.907 40.2357 28.1495C40.4347 28.3903 40.5658 28.7261 40.5658 29.0859H41.4781C41.4781 28.5108 41.2711 27.9702 40.9389 27.5683C40.6081 27.1681 40.126 26.8769 39.5731 26.8769V27.7892ZM40.5658 29.0859V30.8387H41.4781V29.0859H40.5658ZM41.0219 30.3826H38.1244V31.2949H41.0219V30.3826ZM38.5805 30.8387V29.0859H37.6682V30.8387H38.5805ZM38.5805 29.0859C38.5805 28.7261 38.7116 28.3903 38.9106 28.1495C39.1111 27.907 39.3533 27.7892 39.5731 27.7892V26.8769C39.0203 26.8769 38.5382 27.1681 38.2074 27.5683C37.8752 27.9702 37.6682 28.5108 37.6682 29.0859H38.5805ZM39.5731 25.7083C37.8916 25.7083 36.7024 27.2832 36.7024 29.0859H37.6147C37.6147 27.6167 38.5504 26.6207 39.5731 26.6207V25.7083ZM36.7024 29.0859V30.8387H37.6147V29.0859H36.7024ZM36.7024 30.8387C36.7024 31.2699 36.8213 31.6726 37.0725 31.9766C37.3301 32.2882 37.7016 32.4635 38.1244 32.4635V31.5511C37.9676 31.5511 37.8562 31.4927 37.7757 31.3953C37.6889 31.2903 37.6147 31.1088 37.6147 30.8387H36.7024ZM38.1244 32.4635H41.0219V31.5511H38.1244V32.4635ZM41.0219 32.4635C41.4447 32.4635 41.8162 32.2882 42.0738 31.9766C42.325 31.6726 42.4439 31.2699 42.4439 30.8387H41.5316C41.5316 31.1088 41.4573 31.2903 41.3706 31.3953C41.2901 31.4927 41.1787 31.5511 41.0219 31.5511V32.4635ZM42.4439 30.8387V29.0859H41.5316V30.8387H42.4439ZM42.4439 29.0859C42.4439 27.2832 41.2547 25.7083 39.5731 25.7083V26.6207C40.5959 26.6207 41.5316 27.6167 41.5316 29.0859H42.4439ZM47.3 27.7892C47.5198 27.7892 47.762 27.907 47.9625 28.1495C48.1615 28.3903 48.2926 28.7261 48.2926 29.0859H49.2049C49.2049 28.5108 48.9979 27.9702 48.6657 27.5683C48.335 27.1681 47.8528 26.8769 47.3 26.8769V27.7892ZM48.2926 29.0859V30.8387H49.2049V29.0859H48.2926ZM48.7487 30.3826H45.8512V31.2949H48.7487V30.3826ZM46.3073 30.8387V29.0859H45.395V30.8387H46.3073ZM46.3073 29.0859C46.3073 28.7261 46.4384 28.3903 46.6374 28.1495C46.8379 27.907 47.0801 27.7892 47.3 27.7892V26.8769C46.7471 26.8769 46.265 27.1681 45.9342 27.5683C45.602 27.9702 45.395 28.5108 45.395 29.0859H46.3073ZM47.3 25.7083C45.6184 25.7083 44.4292 27.2832 44.4292 29.0859H45.3415C45.3415 27.6167 46.2772 26.6207 47.3 26.6207V25.7083ZM44.4292 29.0859V30.8387H45.3415V29.0859H44.4292ZM44.4292 30.8387C44.4292 31.2699 44.5481 31.6726 44.7993 31.9766C45.0569 32.2882 45.4285 32.4635 45.8512 32.4635V31.5511C45.6944 31.5511 45.583 31.4927 45.5025 31.3953C45.4158 31.2903 45.3415 31.1088 45.3415 30.8387H44.4292ZM45.8512 32.4635H48.7487V31.5511H45.8512V32.4635ZM48.7487 32.4635C49.1715 32.4635 49.543 32.2882 49.8006 31.9766C50.0518 31.6726 50.1707 31.2699 50.1707 30.8387H49.2584C49.2584 31.1088 49.1842 31.2903 49.0974 31.3953C49.0169 31.4927 48.9055 31.5511 48.7487 31.5511V32.4635ZM50.1707 30.8387V29.0859H49.2584V30.8387H50.1707ZM50.1707 29.0859C50.1707 27.2832 48.9816 25.7083 47.3 25.7083V26.6207C48.3228 26.6207 49.2584 27.6167 49.2584 29.0859H50.1707ZM26.5341 36.5534H52.6121V35.6411H26.5341V36.5534ZM16.8756 7.3394H29.9146V6.42708H16.8756V7.3394ZM29.4585 6.88324V15.998H30.3708V6.88324H29.4585ZM30.176 15.6241L17.137 6.50937L16.6143 7.25711L29.6533 16.3719L30.176 15.6241ZM29.4317 7.3394H30.8805V6.42708H29.4317V7.3394ZM31.3366 6.88324V3.37756H30.4243V6.88324H31.3366ZM30.8805 2.9214H17.8415V3.83371H30.8805V2.9214ZM22.2146 40.1872V48.3672H23.1269V40.1872H22.2146ZM22.6707 47.911H19.7732V48.8233H22.6707V47.911ZM20.2293 48.3672V40.1872H19.317V48.3672H20.2293ZM19.7732 40.6434H22.6707V39.7311H19.7732V40.6434ZM22.6707 38.5625H19.7732V39.4748H22.6707V38.5625ZM19.7732 38.5625C19.3505 38.5625 18.9789 38.7378 18.7213 39.0494C18.4701 39.3534 18.3512 39.7561 18.3512 40.1872H19.2635C19.2635 39.9172 19.3378 39.7356 19.4245 39.6306C19.505 39.5333 19.6164 39.4748 19.7732 39.4748V38.5625ZM18.3512 40.1872V48.3672H19.2635V40.1872H18.3512ZM18.3512 48.3672C18.3512 48.7983 18.4701 49.201 18.7213 49.505C18.9789 49.8167 19.3505 49.9919 19.7732 49.9919V49.0796C19.6164 49.0796 19.505 49.0211 19.4245 48.9238C19.3378 48.8188 19.2635 48.6372 19.2635 48.3672H18.3512ZM19.7732 49.9919H22.6707V49.0796H19.7732V49.9919ZM22.6707 49.9919C23.0935 49.9919 23.465 49.8167 23.7226 49.505C23.9739 49.201 24.0928 48.7983 24.0928 48.3672H23.1804C23.1804 48.6372 23.1062 48.8188 23.0194 48.9238C22.9389 49.0211 22.8275 49.0796 22.6707 49.0796V49.9919ZM24.0928 48.3672V40.1872H23.1804V48.3672H24.0928ZM24.0928 40.1872C24.0928 39.7561 23.9739 39.3534 23.7226 39.0494C23.465 38.7378 23.0935 38.5625 22.6707 38.5625V39.4748C22.8275 39.4748 22.9389 39.5333 23.0194 39.6306C23.1062 39.7356 23.1804 39.9172 23.1804 40.1872H24.0928ZM21.6781 31.423V7.46752H20.7658V31.423H21.6781ZM16.8756 31.8792H25.5683V30.9669H16.8756V31.8792ZM16.8756 26.0364H25.5683V25.1241H16.8756V26.0364ZM16.8756 20.1936H25.5683V19.2813H16.8756V20.1936ZM16.8756 15.5193H29.4317V14.607H16.8756V15.5193ZM16.8756 10.8451H29.4317V9.93277H16.8756V10.8451Z" fill="#20ACB6"/>
</svg>
