<svg width="51" height="49" viewBox="0 0 51 49" fill="none" xmlns="http://www.w3.org/2000/svg">
<path fill-rule="evenodd" clip-rule="evenodd" d="M25.5 45.5489C38.0185 45.5489 48.1667 35.9523 48.1667 24.1141C48.1667 12.276 38.0185 2.67935 25.5 2.67935C12.9815 2.67935 2.83333 12.276 2.83333 24.1141C2.83333 35.9523 12.9815 45.5489 25.5 45.5489ZM25.5 48.2283C39.5832 48.2283 51 37.432 51 24.1141C51 10.7963 39.5832 0 25.5 0C11.4168 0 0 10.7963 0 24.1141C0 37.432 11.4168 48.2283 25.5 48.2283Z" fill="white"/>
<path fill-rule="evenodd" clip-rule="evenodd" d="M15.1512 29.4731C17.3542 34.6066 21.4118 37.5112 25.5001 37.5112C29.5883 37.5112 33.6459 34.6066 35.849 29.4731H15.1512ZM25.5001 40.1905C19.7794 40.1905 14.821 36.1073 12.3844 30.143C12.3611 30.0856 12.3378 30.0281 12.3149 29.9705C11.6798 28.3746 13.0331 26.7938 14.8364 26.7938H36.1637C37.967 26.7938 39.3204 28.3746 38.6853 29.9705C38.6623 30.0281 38.6391 30.0856 38.6157 30.143C36.1792 36.1073 31.2207 40.1905 25.5001 40.1905Z" fill="white"/>
<path d="M21.6782 22.0274C21.8624 21.5482 21.8073 20.9628 21.6547 20.4289C21.4956 19.8721 21.2026 19.2722 20.79 18.7151C19.9674 17.6042 18.6033 16.583 16.7605 16.5097C14.8526 16.434 13.4268 17.579 12.5485 18.7944C12.103 19.411 11.7717 20.0781 11.5641 20.6918C11.3619 21.2887 11.2547 21.8999 11.3254 22.3883C11.3581 22.615 11.5109 22.8102 11.7305 22.9058C11.9502 23.0016 12.2064 22.9847 12.4098 22.8612C12.9756 22.5177 13.5702 22.0476 14.1196 21.6133C14.3698 21.4154 14.6107 21.2251 14.8351 21.0575C15.6317 20.4625 16.2515 20.1235 16.7655 20.0998C17.2537 20.0771 17.8179 20.3418 18.5287 20.8446C18.7828 21.0245 19.0295 21.2148 19.2849 21.412C19.376 21.4822 19.4681 21.5533 19.562 21.625C19.9074 21.8888 20.2751 22.1598 20.6459 22.3717C20.8272 22.4755 21.0482 22.497 21.2481 22.4304C21.448 22.3637 21.6058 22.2158 21.6782 22.0274ZM29.202 22.0274C29.0178 21.5482 29.0729 20.9628 29.2255 20.4289C29.3846 19.8721 29.6776 19.2722 30.0902 18.7151C30.9128 17.6042 32.277 16.583 34.1197 16.5097C36.0276 16.434 37.4534 17.579 38.3317 18.7944C38.7774 19.411 39.1085 20.0781 39.3163 20.6918C39.5184 21.2887 39.6255 21.8999 39.5548 22.3883C39.5221 22.615 39.3693 22.8102 39.1497 22.9058C38.9301 23.0016 38.674 22.9847 38.4704 22.8612C37.9047 22.5177 37.31 22.0476 36.7606 21.6133C36.5104 21.4154 36.2695 21.2251 36.0451 21.0575C35.2485 20.4625 34.6287 20.1235 34.1147 20.0998C33.6267 20.0771 33.0623 20.3418 32.3517 20.8446C32.0975 21.0245 31.8509 21.2148 31.5953 21.412C31.5044 21.4822 31.4121 21.5533 31.3182 21.625C30.9728 21.8888 30.6051 22.1598 30.2345 22.3717C30.053 22.4755 29.8321 22.497 29.6322 22.4304C29.4323 22.3637 29.2745 22.2158 29.202 22.0274Z" fill="white"/>
</svg>
