<svg width="60" height="54" viewBox="0 0 60 54" fill="none" xmlns="http://www.w3.org/2000/svg">
<path d="M0.5 52.869H59.5H0.5Z" fill="#827AC7"/>
<path d="M17.3571 5.54762V52.2381H2.60714V5.54762H17.3571ZM17.3571 4.28571H2.60714C1.975 4.28571 1.55357 4.79048 1.55357 5.54762V52.2381C1.55357 52.9952 1.975 53.5 2.60714 53.5H17.3571C17.9893 53.5 18.4107 52.9952 18.4107 52.2381V5.54762C18.4107 4.79048 17.9893 4.28571 17.3571 4.28571Z" fill="#827AC7"/>
<path d="M8.40178 46.5595C8.40178 48.7048 8.08571 50.3452 6.29464 50.3452C4.50357 50.3452 4.1875 48.7048 4.1875 46.5595C4.1875 44.4143 4.50357 41.5119 6.29464 41.5119C8.08571 41.5119 8.40178 44.4143 8.40178 46.5595ZM15.7768 46.5595C15.7768 48.7048 15.4607 50.3452 13.6696 50.3452C11.8786 50.3452 11.5625 48.7048 11.5625 46.5595C11.5625 44.4143 11.8786 41.5119 13.6696 41.5119C15.4607 41.5119 15.7768 44.4143 15.7768 46.5595ZM11.5625 27.631H14.7232H11.5625Z" fill="#827AC7"/>
<path d="M18.4107 1.7619V4.28571H1.55357V1.7619H18.4107ZM18.4107 0.5H1.55357C0.921429 0.5 0.5 1.00476 0.5 1.7619V4.28571C0.5 5.04286 0.921429 5.54762 1.55357 5.54762H18.4107C19.0429 5.54762 19.4643 5.04286 19.4643 4.28571V1.7619C19.4643 1.00476 19.0429 0.5 18.4107 0.5ZM57.3929 25.7381V52.2381H28.9464V25.7381H57.3929ZM57.3929 24.4762H28.9464C28.3143 24.4762 27.8929 24.981 27.8929 25.7381V52.2381C27.8929 52.9952 28.3143 53.5 28.9464 53.5H57.3929C58.025 53.5 58.4464 52.9952 58.4464 52.2381V25.7381C58.4464 24.981 58.025 24.4762 57.3929 24.4762Z" fill="#827AC7"/>
<path d="M58.4464 21.9524V24.4762H27.8929V21.9524H58.4464ZM58.4464 20.6905H27.8929C27.2607 20.6905 26.8393 21.1952 26.8393 21.9524V24.4762C26.8393 25.2333 27.2607 25.7381 27.8929 25.7381H58.4464C59.0786 25.7381 59.5 25.2333 59.5 24.4762V21.9524C59.5 21.1952 59.0786 20.6905 58.4464 20.6905ZM43.1696 43.4048C44.6446 43.4048 45.8036 44.7929 45.8036 46.5595V52.2381H40.5357V46.5595C40.5357 44.7929 41.6946 43.4048 43.1696 43.4048ZM43.1696 42.1429C41.1679 42.1429 39.4821 44.1619 39.4821 46.5595V52.2381C39.4821 52.9952 39.9036 53.5 40.5357 53.5H45.8036C46.4357 53.5 46.8571 52.9952 46.8571 52.2381V46.5595C46.8571 44.1619 45.1714 42.1429 43.1696 42.1429Z" fill="#827AC7"/>
<path d="M58.025 17.5357V20.6905V17.5357Z" fill="#827AC7"/>
<path d="M34.7411 29.5238C35.5839 29.5238 36.3214 30.4071 36.3214 31.4167V33.3095H33.1607V31.4167C33.1607 30.4071 33.8982 29.5238 34.7411 29.5238ZM34.7411 28.2619C33.2661 28.2619 32.1071 29.65 32.1071 31.4167V33.3095C32.1071 34.0667 32.5286 34.5714 33.1607 34.5714H36.3214C36.9536 34.5714 37.375 34.0667 37.375 33.3095V31.4167C37.375 29.65 36.2161 28.2619 34.7411 28.2619ZM43.1696 29.5238C44.0125 29.5238 44.75 30.4071 44.75 31.4167V33.3095H41.5893V31.4167C41.5893 30.4071 42.3268 29.5238 43.1696 29.5238ZM43.1696 28.2619C41.6946 28.2619 40.5357 29.65 40.5357 31.4167V33.3095C40.5357 34.0667 40.9571 34.5714 41.5893 34.5714H44.75C45.3821 34.5714 45.8036 34.0667 45.8036 33.3095V31.4167C45.8036 29.65 44.6446 28.2619 43.1696 28.2619ZM51.5982 29.5238C52.4411 29.5238 53.1786 30.4071 53.1786 31.4167V33.3095H50.0179V31.4167C50.0179 30.4071 50.7554 29.5238 51.5982 29.5238ZM51.5982 28.2619C50.1232 28.2619 48.9643 29.65 48.9643 31.4167V33.3095C48.9643 34.0667 49.3857 34.5714 50.0179 34.5714H53.1786C53.8107 34.5714 54.2321 34.0667 54.2321 33.3095V31.4167C54.2321 29.65 53.0732 28.2619 51.5982 28.2619Z" fill="#827AC7"/>
<path d="M18.4107 7.44048H32.6339V17.2833L18.4107 7.44048ZM32.1071 7.44048H33.6875V3.65476H19.4643" fill="#827AC7"/>
<path d="M24.7321 43.4048V52.2381H21.5714V43.4048H24.7321ZM24.7321 42.1429H21.5714C20.9393 42.1429 20.5179 42.6476 20.5179 43.4048V52.2381C20.5179 52.9952 20.9393 53.5 21.5714 53.5H24.7321C25.3643 53.5 25.7857 52.9952 25.7857 52.2381V43.4048C25.7857 42.6476 25.3643 42.1429 24.7321 42.1429Z" fill="#827AC7"/>
<path d="M18.4107 11.2262H32.1071H18.4107Z" fill="#827AC7"/>
<path d="M0.5 52.369C0.223858 52.369 0 52.5929 0 52.869C0 53.1452 0.223858 53.369 0.5 53.369V52.369ZM59.5 53.369C59.7761 53.369 60 53.1452 60 52.869C60 52.5929 59.7761 52.369 59.5 52.369V53.369ZM17.3571 5.54762H17.8571V5.04762H17.3571V5.54762ZM17.3571 52.2381V52.7381H17.8571V52.2381H17.3571ZM2.60714 52.2381H2.10714V52.7381H2.60714V52.2381ZM2.60714 5.54762V5.04762H2.10714V5.54762H2.60714ZM6.79464 47.8214C6.79464 47.5453 6.57079 47.3214 6.29464 47.3214C6.0185 47.3214 5.79464 47.5453 5.79464 47.8214H6.79464ZM5.79464 52.869C5.79464 53.1452 6.0185 53.369 6.29464 53.369C6.57079 53.369 6.79464 53.1452 6.79464 52.869H5.79464ZM14.1696 47.8214C14.1696 47.5453 13.9458 47.3214 13.6696 47.3214C13.3935 47.3214 13.1696 47.5453 13.1696 47.8214H14.1696ZM13.1696 52.869C13.1696 53.1452 13.3935 53.369 13.6696 53.369C13.9458 53.369 14.1696 53.1452 14.1696 52.869H13.1696ZM2.60714 35.9643C2.331 35.9643 2.10714 36.1881 2.10714 36.4643C2.10714 36.7404 2.331 36.9643 2.60714 36.9643V35.9643ZM17.3571 36.9643C17.6333 36.9643 17.8571 36.7404 17.8571 36.4643C17.8571 36.1881 17.6333 35.9643 17.3571 35.9643V36.9643ZM5.24107 8.20238C4.96493 8.20238 4.74107 8.42624 4.74107 8.70238C4.74107 8.97852 4.96493 9.20238 5.24107 9.20238V8.20238ZM8.40178 9.20238C8.67793 9.20238 8.90178 8.97852 8.90178 8.70238C8.90178 8.42624 8.67793 8.20238 8.40178 8.20238V9.20238ZM11.5625 8.20238C11.2864 8.20238 11.0625 8.42624 11.0625 8.70238C11.0625 8.97852 11.2864 9.20238 11.5625 9.20238V8.20238ZM14.7232 9.20238C14.9994 9.20238 15.2232 8.97852 15.2232 8.70238C15.2232 8.42624 14.9994 8.20238 14.7232 8.20238V9.20238ZM5.24107 11.9881C4.96493 11.9881 4.74107 12.212 4.74107 12.4881C4.74107 12.7642 4.96493 12.9881 5.24107 12.9881V11.9881ZM8.40178 12.9881C8.67793 12.9881 8.90178 12.7642 8.90178 12.4881C8.90178 12.212 8.67793 11.9881 8.40178 11.9881V12.9881ZM11.5625 11.9881C11.2864 11.9881 11.0625 12.212 11.0625 12.4881C11.0625 12.7642 11.2864 12.9881 11.5625 12.9881V11.9881ZM14.7232 12.9881C14.9994 12.9881 15.2232 12.7642 15.2232 12.4881C15.2232 12.212 14.9994 11.9881 14.7232 11.9881V12.9881ZM5.24107 15.7738C4.96493 15.7738 4.74107 15.9977 4.74107 16.2738C4.74107 16.5499 4.96493 16.7738 5.24107 16.7738V15.7738ZM8.40178 16.7738C8.67793 16.7738 8.90178 16.5499 8.90178 16.2738C8.90178 15.9977 8.67793 15.7738 8.40178 15.7738V16.7738ZM11.5625 15.7738C11.2864 15.7738 11.0625 15.9977 11.0625 16.2738C11.0625 16.5499 11.2864 16.7738 11.5625 16.7738V15.7738ZM14.7232 16.7738C14.9994 16.7738 15.2232 16.5499 15.2232 16.2738C15.2232 15.9977 14.9994 15.7738 14.7232 15.7738V16.7738ZM5.24107 19.5595C4.96493 19.5595 4.74107 19.7834 4.74107 20.0595C4.74107 20.3357 4.96493 20.5595 5.24107 20.5595V19.5595ZM8.40178 20.5595C8.67793 20.5595 8.90178 20.3357 8.90178 20.0595C8.90178 19.7834 8.67793 19.5595 8.40178 19.5595V20.5595ZM11.5625 19.5595C11.2864 19.5595 11.0625 19.7834 11.0625 20.0595C11.0625 20.3357 11.2864 20.5595 11.5625 20.5595V19.5595ZM14.7232 20.5595C14.9994 20.5595 15.2232 20.3357 15.2232 20.0595C15.2232 19.7834 14.9994 19.5595 14.7232 19.5595V20.5595ZM5.24107 23.3452C4.96493 23.3452 4.74107 23.5691 4.74107 23.8452C4.74107 24.1214 4.96493 24.3452 5.24107 24.3452V23.3452ZM8.40178 24.3452C8.67793 24.3452 8.90178 24.1214 8.90178 23.8452C8.90178 23.5691 8.67793 23.3452 8.40178 23.3452V24.3452ZM11.5625 23.3452C11.2864 23.3452 11.0625 23.5691 11.0625 23.8452C11.0625 24.1214 11.2864 24.3452 11.5625 24.3452V23.3452ZM14.7232 24.3452C14.9994 24.3452 15.2232 24.1214 15.2232 23.8452C15.2232 23.5691 14.9994 23.3452 14.7232 23.3452V24.3452ZM5.24107 27.131C4.96493 27.131 4.74107 27.3548 4.74107 27.631C4.74107 27.9071 4.96493 28.131 5.24107 28.131V27.131ZM8.40178 28.131C8.67793 28.131 8.90178 27.9071 8.90178 27.631C8.90178 27.3548 8.67793 27.131 8.40178 27.131V28.131ZM11.5625 27.131C11.2864 27.131 11.0625 27.3548 11.0625 27.631C11.0625 27.9071 11.2864 28.131 11.5625 28.131V27.131ZM14.7232 28.131C14.9994 28.131 15.2232 27.9071 15.2232 27.631C15.2232 27.3548 14.9994 27.131 14.7232 27.131V28.131ZM18.4107 1.7619H18.9107V1.2619H18.4107V1.7619ZM18.4107 4.28571V4.78571H18.9107V4.28571H18.4107ZM1.55357 4.28571H1.05357V4.78571H1.55357V4.28571ZM1.55357 1.7619V1.2619H1.05357V1.7619H1.55357ZM57.3929 25.7381H57.8929V25.2381H57.3929V25.7381ZM57.3929 52.2381V52.7381H57.8929V52.2381H57.3929ZM28.9464 52.2381H28.4464V52.7381H28.9464V52.2381ZM28.9464 25.7381V25.2381H28.4464V25.7381H28.9464ZM58.4464 21.9524H58.9464V21.4524H58.4464V21.9524ZM58.4464 24.4762V24.9762H58.9464V24.4762H58.4464ZM27.8929 24.4762H27.3929V24.9762H27.8929V24.4762ZM27.8929 21.9524V21.4524H27.3929V21.9524H27.8929ZM45.8036 52.2381V52.7381H46.3036V52.2381H45.8036ZM40.5357 52.2381H40.0357V52.7381H40.5357V52.2381ZM27.8929 16.9096C27.6167 16.9096 27.3929 17.1334 27.3929 17.4096C27.3929 17.6857 27.6167 17.9096 27.8929 17.9096V16.9096ZM58.4464 17.9096C58.7226 17.9096 58.9464 17.6857 58.9464 17.4096C58.9464 17.1334 58.7226 16.9096 58.4464 16.9096V17.9096ZM28.9196 17.5357C28.9196 17.2596 28.6958 17.0357 28.4196 17.0357C28.1435 17.0357 27.9196 17.2596 27.9196 17.5357H28.9196ZM27.9196 20.6905C27.9196 20.9666 28.1435 21.1905 28.4196 21.1905C28.6958 21.1905 28.9196 20.9666 28.9196 20.6905H27.9196ZM33.1339 17.5357C33.1339 17.2596 32.9101 17.0357 32.6339 17.0357C32.3578 17.0357 32.1339 17.2596 32.1339 17.5357H33.1339ZM32.1339 20.6905C32.1339 20.9666 32.3578 21.1905 32.6339 21.1905C32.9101 21.1905 33.1339 20.9666 33.1339 20.6905H32.1339ZM37.3482 17.5357C37.3482 17.2596 37.1244 17.0357 36.8482 17.0357C36.5721 17.0357 36.3482 17.2596 36.3482 17.5357H37.3482ZM36.3482 20.6905C36.3482 20.9666 36.5721 21.1905 36.8482 21.1905C37.1244 21.1905 37.3482 20.9666 37.3482 20.6905H36.3482ZM41.5625 17.5357C41.5625 17.2596 41.3386 17.0357 41.0625 17.0357C40.7864 17.0357 40.5625 17.2596 40.5625 17.5357H41.5625ZM40.5625 20.6905C40.5625 20.9666 40.7864 21.1905 41.0625 21.1905C41.3386 21.1905 41.5625 20.9666 41.5625 20.6905H40.5625ZM45.7768 17.5357C45.7768 17.2596 45.5529 17.0357 45.2768 17.0357C45.0006 17.0357 44.7768 17.2596 44.7768 17.5357H45.7768ZM44.7768 20.6905C44.7768 20.9666 45.0006 21.1905 45.2768 21.1905C45.5529 21.1905 45.7768 20.9666 45.7768 20.6905H44.7768ZM49.9911 17.5357C49.9911 17.2596 49.7672 17.0357 49.4911 17.0357C49.2149 17.0357 48.9911 17.2596 48.9911 17.5357H49.9911ZM48.9911 20.6905C48.9911 20.9666 49.2149 21.1905 49.4911 21.1905C49.7672 21.1905 49.9911 20.9666 49.9911 20.6905H48.9911ZM54.2054 17.5357C54.2054 17.2596 53.9815 17.0357 53.7054 17.0357C53.4292 17.0357 53.2054 17.2596 53.2054 17.5357H54.2054ZM53.2054 20.6905C53.2054 20.9666 53.4292 21.1905 53.7054 21.1905C53.9815 21.1905 54.2054 20.9666 54.2054 20.6905H53.2054ZM58.525 17.5357C58.525 17.2596 58.3011 17.0357 58.025 17.0357C57.7489 17.0357 57.525 17.2596 57.525 17.5357H58.525ZM57.525 20.6905C57.525 20.9666 57.7489 21.1905 58.025 21.1905C58.3011 21.1905 58.525 20.9666 58.525 20.6905H57.525ZM36.3214 33.3095V33.8095H36.8214V33.3095H36.3214ZM33.1607 33.3095H32.6607V33.8095H33.1607V33.3095ZM44.75 33.3095V33.8095H45.25V33.3095H44.75ZM41.5893 33.3095H41.0893V33.8095H41.5893V33.3095ZM53.1786 33.3095V33.8095H53.6786V33.3095H53.1786ZM50.0179 33.3095H49.5179V33.8095H50.0179V33.3095ZM28.9464 38.4881C28.6703 38.4881 28.4464 38.712 28.4464 38.9881C28.4464 39.2642 28.6703 39.4881 28.9464 39.4881V38.4881ZM57.3929 39.4881C57.669 39.4881 57.8929 39.2642 57.8929 38.9881C57.8929 38.712 57.669 38.4881 57.3929 38.4881V39.4881ZM18.4107 7.44048V6.94048C18.192 6.94048 17.9986 7.08265 17.9334 7.29144C17.8682 7.50022 17.9463 7.72716 18.1262 7.85163L18.4107 7.44048ZM32.6339 7.44048H33.1339C33.1339 7.16433 32.9101 6.94048 32.6339 6.94048V7.44048ZM32.6339 17.2833L32.3494 17.6945C32.5023 17.8003 32.7013 17.8125 32.866 17.7262C33.0307 17.6399 33.1339 17.4693 33.1339 17.2833H32.6339ZM32.1071 6.94048C31.831 6.94048 31.6071 7.16433 31.6071 7.44048C31.6071 7.71662 31.831 7.94048 32.1071 7.94048V6.94048ZM33.6875 7.44048V7.94048C33.9636 7.94048 34.1875 7.71662 34.1875 7.44048H33.6875ZM33.6875 3.65476H34.1875C34.1875 3.37862 33.9636 3.15476 33.6875 3.15476V3.65476ZM19.4643 3.15476C19.1881 3.15476 18.9643 3.37862 18.9643 3.65476C18.9643 3.9309 19.1881 4.15476 19.4643 4.15476V3.15476ZM24.7321 43.4048H25.2321V42.9048H24.7321V43.4048ZM24.7321 52.2381V52.7381H25.2321V52.2381H24.7321ZM21.5714 52.2381H21.0714V52.7381H21.5714V52.2381ZM21.5714 43.4048V42.9048H21.0714V43.4048H21.5714ZM22.6518 33.9405C22.6518 34.2166 22.8756 34.4405 23.1518 34.4405C23.4279 34.4405 23.6518 34.2166 23.6518 33.9405H22.6518ZM23.6518 8.07143C23.6518 7.79529 23.4279 7.57143 23.1518 7.57143C22.8756 7.57143 22.6518 7.79529 22.6518 8.07143H23.6518ZM18.4107 33.4405C18.1346 33.4405 17.9107 33.6643 17.9107 33.9405C17.9107 34.2166 18.1346 34.4405 18.4107 34.4405V33.4405ZM27.8929 34.4405C28.169 34.4405 28.3929 34.2166 28.3929 33.9405C28.3929 33.6643 28.169 33.4405 27.8929 33.4405V34.4405ZM18.4107 27.131C18.1346 27.131 17.9107 27.3548 17.9107 27.631C17.9107 27.9071 18.1346 28.131 18.4107 28.131V27.131ZM27.8929 28.131C28.169 28.131 28.3929 27.9071 28.3929 27.631C28.3929 27.3548 28.169 27.131 27.8929 27.131V28.131ZM18.4107 20.8214C18.1346 20.8214 17.9107 21.0453 17.9107 21.3214C17.9107 21.5976 18.1346 21.8214 18.4107 21.8214V20.8214ZM27.8929 21.8214C28.169 21.8214 28.3929 21.5976 28.3929 21.3214C28.3929 21.0453 28.169 20.8214 27.8929 20.8214V21.8214ZM18.4107 15.7738C18.1346 15.7738 17.9107 15.9977 17.9107 16.2738C17.9107 16.5499 18.1346 16.7738 18.4107 16.7738V15.7738ZM32.1071 16.7738C32.3833 16.7738 32.6071 16.5499 32.6071 16.2738C32.6071 15.9977 32.3833 15.7738 32.1071 15.7738V16.7738ZM18.4107 10.7262C18.1346 10.7262 17.9107 10.95 17.9107 11.2262C17.9107 11.5023 18.1346 11.7262 18.4107 11.7262V10.7262ZM32.1071 11.7262C32.3833 11.7262 32.6071 11.5023 32.6071 11.2262C32.6071 10.95 32.3833 10.7262 32.1071 10.7262V11.7262ZM0.5 53.369H59.5V52.369H0.5V53.369ZM16.8571 5.54762V52.2381H17.8571V5.54762H16.8571ZM17.3571 51.7381H2.60714V52.7381H17.3571V51.7381ZM3.10714 52.2381V5.54762H2.10714V52.2381H3.10714ZM2.60714 6.04762H17.3571V5.04762H2.60714V6.04762ZM17.3571 3.78571H2.60714V4.78571H17.3571V3.78571ZM2.60714 3.78571C2.14719 3.78571 1.74162 3.97437 1.45949 4.31229C1.18405 4.6422 1.05357 5.07958 1.05357 5.54762H2.05357C2.05357 5.25851 2.13381 5.06494 2.22712 4.95319C2.31374 4.84943 2.43495 4.78571 2.60714 4.78571V3.78571ZM1.05357 5.54762V52.2381H2.05357V5.54762H1.05357ZM1.05357 52.2381C1.05357 52.7061 1.18405 53.1435 1.45949 53.4734C1.74162 53.8113 2.14719 54 2.60714 54V53C2.43495 53 2.31374 52.9363 2.22712 52.8325C2.13381 52.7208 2.05357 52.5272 2.05357 52.2381H1.05357ZM2.60714 54H17.3571V53H2.60714V54ZM17.3571 54C17.8171 54 18.2227 53.8113 18.5048 53.4734C18.7802 53.1435 18.9107 52.7061 18.9107 52.2381H17.9107C17.9107 52.5272 17.8305 52.7208 17.7372 52.8325C17.6505 52.9363 17.5293 53 17.3571 53V54ZM18.9107 52.2381V5.54762H17.9107V52.2381H18.9107ZM18.9107 5.54762C18.9107 5.07958 18.7802 4.6422 18.5048 4.31229C18.2227 3.97437 17.8171 3.78571 17.3571 3.78571V4.78571C17.5293 4.78571 17.6505 4.84943 17.7372 4.95319C17.8305 5.06494 17.9107 5.25851 17.9107 5.54762H18.9107ZM5.79464 47.8214V52.869H6.79464V47.8214H5.79464ZM7.90178 46.5595C7.90178 47.6305 7.81882 48.4808 7.56332 49.053C7.44085 49.3272 7.28777 49.5159 7.1025 49.6391C6.91834 49.7617 6.66396 49.8452 6.29464 49.8452V50.8452C6.82086 50.8452 7.27764 50.7237 7.65648 50.4717C8.03422 50.2203 8.29598 49.8648 8.47641 49.4607C8.82671 48.6763 8.90178 47.6338 8.90178 46.5595H7.90178ZM6.29464 49.8452C5.92533 49.8452 5.67094 49.7617 5.48678 49.6391C5.30152 49.5159 5.14843 49.3272 5.02596 49.053C4.77046 48.4808 4.6875 47.6305 4.6875 46.5595H3.6875C3.6875 47.6338 3.76257 48.6763 4.11288 49.4607C4.29331 49.8648 4.55507 50.2203 4.93281 50.4717C5.31165 50.7237 5.76842 50.8452 6.29464 50.8452V49.8452ZM4.6875 46.5595C4.6875 45.4989 4.76709 44.2976 5.0477 43.377C5.33771 42.4256 5.755 42.0119 6.29464 42.0119V41.0119C5.04321 41.0119 4.40693 42.0494 4.09114 43.0855C3.76595 44.1524 3.6875 45.4749 3.6875 46.5595H4.6875ZM6.29464 42.0119C6.83428 42.0119 7.25157 42.4256 7.54159 43.377C7.8222 44.2976 7.90178 45.4989 7.90178 46.5595H8.90178C8.90178 45.4749 8.82334 44.1524 8.49814 43.0855C8.18235 42.0494 7.54607 41.0119 6.29464 41.0119V42.0119ZM13.1696 47.8214V52.869H14.1696V47.8214H13.1696ZM15.2768 46.5595C15.2768 47.6305 15.1938 48.4808 14.9383 49.053C14.8159 49.3272 14.6628 49.5159 14.4775 49.6391C14.2933 49.7617 14.039 49.8452 13.6696 49.8452V50.8452C14.1959 50.8452 14.6526 50.7237 15.0315 50.4717C15.4092 50.2203 15.671 49.8648 15.8514 49.4607C16.2017 48.6763 16.2768 47.6338 16.2768 46.5595H15.2768ZM13.6696 49.8452C13.3003 49.8452 13.0459 49.7617 12.8618 49.6391C12.6765 49.5159 12.5234 49.3272 12.401 49.053C12.1455 48.4808 12.0625 47.6305 12.0625 46.5595H11.0625C11.0625 47.6338 11.1376 48.6763 11.4879 49.4607C11.6683 49.8648 11.9301 50.2203 12.3078 50.4717C12.6866 50.7237 13.1434 50.8452 13.6696 50.8452V49.8452ZM12.0625 46.5595C12.0625 45.4989 12.1421 44.2976 12.4227 43.377C12.7127 42.4256 13.13 42.0119 13.6696 42.0119V41.0119C12.4182 41.0119 11.7819 42.0494 11.4661 43.0855C11.1409 44.1524 11.0625 45.4749 11.0625 46.5595H12.0625ZM13.6696 42.0119C14.2093 42.0119 14.6266 42.4256 14.9166 43.377C15.1972 44.2976 15.2768 45.4989 15.2768 46.5595H16.2768C16.2768 45.4749 16.1983 44.1524 15.8731 43.0855C15.5574 42.0494 14.9211 41.0119 13.6696 41.0119V42.0119ZM2.60714 36.9643H17.3571V35.9643H2.60714V36.9643ZM5.24107 9.20238H8.40178V8.20238H5.24107V9.20238ZM11.5625 9.20238H14.7232V8.20238H11.5625V9.20238ZM5.24107 12.9881H8.40178V11.9881H5.24107V12.9881ZM11.5625 12.9881H14.7232V11.9881H11.5625V12.9881ZM5.24107 16.7738H8.40178V15.7738H5.24107V16.7738ZM11.5625 16.7738H14.7232V15.7738H11.5625V16.7738ZM5.24107 20.5595H8.40178V19.5595H5.24107V20.5595ZM11.5625 20.5595H14.7232V19.5595H11.5625V20.5595ZM5.24107 24.3452H8.40178V23.3452H5.24107V24.3452ZM11.5625 24.3452H14.7232V23.3452H11.5625V24.3452ZM5.24107 28.131H8.40178V27.131H5.24107V28.131ZM11.5625 28.131H14.7232V27.131H11.5625V28.131ZM17.9107 1.7619V4.28571H18.9107V1.7619H17.9107ZM18.4107 3.78571H1.55357V4.78571H18.4107V3.78571ZM2.05357 4.28571V1.7619H1.05357V4.28571H2.05357ZM1.55357 2.2619H18.4107V1.2619H1.55357V2.2619ZM18.4107 0H1.55357V1H18.4107V0ZM1.55357 0C1.09362 0 0.688046 0.18866 0.405918 0.526576C0.130475 0.856485 0 1.29387 0 1.7619H1C1 1.4728 1.08024 1.27923 1.17355 1.16747C1.26017 1.06372 1.38138 1 1.55357 1V0ZM0 1.7619V4.28571H1V1.7619H0ZM0 4.28571C0 4.75375 0.130475 5.19113 0.405918 5.52104C0.688046 5.85896 1.09362 6.04762 1.55357 6.04762V5.04762C1.38138 5.04762 1.26017 4.9839 1.17355 4.88015C1.08024 4.76839 1 4.57482 1 4.28571H0ZM1.55357 6.04762H18.4107V5.04762H1.55357V6.04762ZM18.4107 6.04762C18.8707 6.04762 19.2762 5.85896 19.5584 5.52104C19.8338 5.19113 19.9643 4.75375 19.9643 4.28571H18.9643C18.9643 4.57482 18.884 4.76839 18.7907 4.88015C18.7041 4.9839 18.5829 5.04762 18.4107 5.04762V6.04762ZM19.9643 4.28571V1.7619H18.9643V4.28571H19.9643ZM19.9643 1.7619C19.9643 1.29387 19.8338 0.856485 19.5584 0.526576C19.2762 0.188661 18.8707 0 18.4107 0V1C18.5829 1 18.7041 1.06372 18.7907 1.16747C18.884 1.27923 18.9643 1.4728 18.9643 1.7619H19.9643ZM56.8929 25.7381V52.2381H57.8929V25.7381H56.8929ZM57.3929 51.7381H28.9464V52.7381H57.3929V51.7381ZM29.4464 52.2381V25.7381H28.4464V52.2381H29.4464ZM28.9464 26.2381H57.3929V25.2381H28.9464V26.2381ZM57.3929 23.9762H28.9464V24.9762H57.3929V23.9762ZM28.9464 23.9762C28.4865 23.9762 28.0809 24.1649 27.7988 24.5028C27.5233 24.8327 27.3929 25.2701 27.3929 25.7381H28.3929C28.3929 25.449 28.4731 25.2554 28.5664 25.1437C28.653 25.0399 28.7742 24.9762 28.9464 24.9762V23.9762ZM27.3929 25.7381V52.2381H28.3929V25.7381H27.3929ZM27.3929 52.2381C27.3929 52.7061 27.5233 53.1435 27.7988 53.4734C28.0809 53.8113 28.4865 54 28.9464 54V53C28.7742 53 28.653 52.9363 28.5664 52.8325C28.4731 52.7208 28.3929 52.5272 28.3929 52.2381H27.3929ZM28.9464 54H57.3929V53H28.9464V54ZM57.3929 54C57.8528 54 58.2584 53.8113 58.5405 53.4734C58.816 53.1435 58.9464 52.7061 58.9464 52.2381H57.9464C57.9464 52.5272 57.8662 52.7208 57.7729 52.8325C57.6863 52.9363 57.5651 53 57.3929 53V54ZM58.9464 52.2381V25.7381H57.9464V52.2381H58.9464ZM58.9464 25.7381C58.9464 25.2701 58.816 24.8327 58.5405 24.5028C58.2584 24.1649 57.8528 23.9762 57.3929 23.9762V24.9762C57.565 24.9762 57.6863 25.0399 57.7729 25.1437C57.8662 25.2554 57.9464 25.449 57.9464 25.7381H58.9464ZM57.9464 21.9524V24.4762H58.9464V21.9524H57.9464ZM58.4464 23.9762H27.8929V24.9762H58.4464V23.9762ZM28.3929 24.4762V21.9524H27.3929V24.4762H28.3929ZM27.8929 22.4524H58.4464V21.4524H27.8929V22.4524ZM58.4464 20.1905H27.8929V21.1905H58.4464V20.1905ZM27.8929 20.1905C27.4329 20.1905 27.0273 20.3791 26.7452 20.7171C26.4698 21.047 26.3393 21.4843 26.3393 21.9524H27.3393C27.3393 21.6633 27.4195 21.4697 27.5128 21.3579C27.5995 21.2542 27.7207 21.1905 27.8929 21.1905V20.1905ZM26.3393 21.9524V24.4762H27.3393V21.9524H26.3393ZM26.3393 24.4762C26.3393 24.9442 26.4698 25.3816 26.7452 25.7115C27.0273 26.0494 27.4329 26.2381 27.8929 26.2381V25.2381C27.7207 25.2381 27.5995 25.1744 27.5128 25.0706C27.4195 24.9589 27.3393 24.7653 27.3393 24.4762H26.3393ZM27.8929 26.2381H58.4464V25.2381H27.8929V26.2381ZM58.4464 26.2381C58.9064 26.2381 59.312 26.0494 59.5941 25.7115C59.8695 25.3816 60 24.9442 60 24.4762H59C59 24.7653 58.9198 24.9589 58.8265 25.0706C58.7398 25.1744 58.6186 25.2381 58.4464 25.2381V26.2381ZM60 24.4762V21.9524H59V24.4762H60ZM60 21.9524C60 21.4843 59.8695 21.047 59.5941 20.7171C59.312 20.3791 58.9064 20.1905 58.4464 20.1905V21.1905C58.6186 21.1905 58.7398 21.2542 58.8265 21.3579C58.9198 21.4697 59 21.6633 59 21.9524H60ZM43.1696 43.9048C44.2878 43.9048 45.3036 44.9807 45.3036 46.5595H46.3036C46.3036 44.605 45.0015 42.9048 43.1696 42.9048V43.9048ZM45.3036 46.5595V52.2381H46.3036V46.5595H45.3036ZM45.8036 51.7381H40.5357V52.7381H45.8036V51.7381ZM41.0357 52.2381V46.5595H40.0357V52.2381H41.0357ZM41.0357 46.5595C41.0357 44.9807 42.0515 43.9048 43.1696 43.9048V42.9048C41.3378 42.9048 40.0357 44.605 40.0357 46.5595H41.0357ZM43.1696 41.6429C40.811 41.6429 38.9821 43.974 38.9821 46.5595H39.9821C39.9821 44.3498 41.5247 42.6429 43.1696 42.6429V41.6429ZM38.9821 46.5595V52.2381H39.9821V46.5595H38.9821ZM38.9821 52.2381C38.9821 52.7061 39.1126 53.1435 39.3881 53.4734C39.6702 53.8113 40.0758 54 40.5357 54V53C40.3635 53 40.2423 52.9363 40.1557 52.8325C40.0624 52.7208 39.9821 52.5272 39.9821 52.2381H38.9821ZM40.5357 54H45.8036V53H40.5357V54ZM45.8036 54C46.2635 54 46.6691 53.8113 46.9512 53.4734C47.2267 53.1435 47.3571 52.7061 47.3571 52.2381H46.3571C46.3571 52.5272 46.2769 52.7208 46.1836 52.8325C46.097 52.9363 45.9758 53 45.8036 53V54ZM47.3571 52.2381V46.5595H46.3571V52.2381H47.3571ZM47.3571 46.5595C47.3571 43.974 45.5283 41.6429 43.1696 41.6429V42.6429C44.8146 42.6429 46.3571 44.3498 46.3571 46.5595H47.3571ZM27.8929 17.9096H58.4464V16.9096H27.8929V17.9096ZM27.9196 17.5357V20.6905H28.9196V17.5357H27.9196ZM32.1339 17.5357V20.6905H33.1339V17.5357H32.1339ZM36.3482 17.5357V20.6905H37.3482V17.5357H36.3482ZM40.5625 17.5357V20.6905H41.5625V17.5357H40.5625ZM44.7768 17.5357V20.6905H45.7768V17.5357H44.7768ZM48.9911 17.5357V20.6905H49.9911V17.5357H48.9911ZM53.2054 17.5357V20.6905H54.2054V17.5357H53.2054ZM57.525 17.5357V20.6905H58.525V17.5357H57.525ZM34.7411 30.0238C34.982 30.0238 35.2459 30.1515 35.4635 30.4121C35.6796 30.671 35.8214 31.0313 35.8214 31.4167H36.8214C36.8214 30.7925 36.5945 30.2064 36.2311 29.7712C35.8692 29.3378 35.343 29.0238 34.7411 29.0238V30.0238ZM35.8214 31.4167V33.3095H36.8214V31.4167H35.8214ZM36.3214 32.8095H33.1607V33.8095H36.3214V32.8095ZM33.6607 33.3095V31.4167H32.6607V33.3095H33.6607ZM33.6607 31.4167C33.6607 31.0313 33.8025 30.671 34.0186 30.4121C34.2362 30.1515 34.5001 30.0238 34.7411 30.0238V29.0238C34.1391 29.0238 33.6129 29.3378 33.251 29.7712C32.8877 30.2064 32.6607 30.7925 32.6607 31.4167H33.6607ZM34.7411 27.7619C32.9092 27.7619 31.6071 29.4621 31.6071 31.4167H32.6071C32.6071 29.8379 33.6229 28.7619 34.7411 28.7619V27.7619ZM31.6071 31.4167V33.3095H32.6071V31.4167H31.6071ZM31.6071 33.3095C31.6071 33.7776 31.7376 34.2149 32.0131 34.5449C32.2952 34.8828 32.7008 35.0714 33.1607 35.0714V34.0714C32.9885 34.0714 32.8673 34.0077 32.7807 33.904C32.6874 33.7922 32.6071 33.5986 32.6071 33.3095H31.6071ZM33.1607 35.0714H36.3214V34.0714H33.1607V35.0714ZM36.3214 35.0714C36.7814 35.0714 37.187 34.8828 37.4691 34.5448C37.7445 34.2149 37.875 33.7776 37.875 33.3095H36.875C36.875 33.5986 36.7948 33.7922 36.7015 33.904C36.6148 34.0077 36.4936 34.0714 36.3214 34.0714V35.0714ZM37.875 33.3095V31.4167H36.875V33.3095H37.875ZM37.875 31.4167C37.875 29.4621 36.5729 27.7619 34.7411 27.7619V28.7619C35.8592 28.7619 36.875 29.8379 36.875 31.4167H37.875ZM43.1696 30.0238C43.4106 30.0238 43.6745 30.1515 43.8921 30.4121C44.1082 30.671 44.25 31.0313 44.25 31.4167H45.25C45.25 30.7925 45.023 30.2064 44.6597 29.7712C44.2978 29.3378 43.7716 29.0238 43.1696 29.0238V30.0238ZM44.25 31.4167V33.3095H45.25V31.4167H44.25ZM44.75 32.8095H41.5893V33.8095H44.75V32.8095ZM42.0893 33.3095V31.4167H41.0893V33.3095H42.0893ZM42.0893 31.4167C42.0893 31.0313 42.2311 30.671 42.4472 30.4121C42.6648 30.1515 42.9287 30.0238 43.1696 30.0238V29.0238C42.5677 29.0238 42.0415 29.3378 41.6796 29.7712C41.3162 30.2064 41.0893 30.7925 41.0893 31.4167H42.0893ZM43.1696 27.7619C41.3378 27.7619 40.0357 29.4621 40.0357 31.4167H41.0357C41.0357 29.8379 42.0515 28.7619 43.1696 28.7619V27.7619ZM40.0357 31.4167V33.3095H41.0357V31.4167H40.0357ZM40.0357 33.3095C40.0357 33.7776 40.1662 34.2149 40.4416 34.5448C40.7238 34.8828 41.1293 35.0714 41.5893 35.0714V34.0714C41.4171 34.0714 41.2959 34.0077 41.2093 33.904C41.1159 33.7922 41.0357 33.5986 41.0357 33.3095H40.0357ZM41.5893 35.0714H44.75V34.0714H41.5893V35.0714ZM44.75 35.0714C45.2099 35.0714 45.6155 34.8828 45.8977 34.5448C46.1731 34.2149 46.3036 33.7776 46.3036 33.3095H45.3036C45.3036 33.5986 45.2233 33.7922 45.13 33.904C45.0434 34.0077 44.9222 34.0714 44.75 34.0714V35.0714ZM46.3036 33.3095V31.4167H45.3036V33.3095H46.3036ZM46.3036 31.4167C46.3036 29.4621 45.0015 27.7619 43.1696 27.7619V28.7619C44.2878 28.7619 45.3036 29.8379 45.3036 31.4167H46.3036ZM51.5982 30.0238C51.8391 30.0238 52.1031 30.1515 52.3206 30.4121C52.5368 30.671 52.6786 31.0313 52.6786 31.4167H53.6786C53.6786 30.7925 53.4516 30.2064 53.0883 29.7712C52.7264 29.3378 52.2001 29.0238 51.5982 29.0238V30.0238ZM52.6786 31.4167V33.3095H53.6786V31.4167H52.6786ZM53.1786 32.8095H50.0179V33.8095H53.1786V32.8095ZM50.5179 33.3095V31.4167H49.5179V33.3095H50.5179ZM50.5179 31.4167C50.5179 31.0313 50.6597 30.671 50.8758 30.4121C51.0933 30.1515 51.3573 30.0238 51.5982 30.0238V29.0238C50.9963 29.0238 50.4701 29.3378 50.1081 29.7712C49.7448 30.2064 49.5179 30.7925 49.5179 31.4167H50.5179ZM51.5982 27.7619C49.7664 27.7619 48.4643 29.4621 48.4643 31.4167H49.4643C49.4643 29.8379 50.48 28.7619 51.5982 28.7619V27.7619ZM48.4643 31.4167V33.3095H49.4643V31.4167H48.4643ZM48.4643 33.3095C48.4643 33.7776 48.5948 34.2149 48.8702 34.5449C49.1523 34.8828 49.5579 35.0714 50.0179 35.0714V34.0714C49.8457 34.0714 49.7245 34.0077 49.6378 33.904C49.5445 33.7922 49.4643 33.5986 49.4643 33.3095H48.4643ZM50.0179 35.0714H53.1786V34.0714H50.0179V35.0714ZM53.1786 35.0714C53.6385 35.0714 54.0441 34.8828 54.3262 34.5448C54.6017 34.2149 54.7321 33.7776 54.7321 33.3095H53.7321C53.7321 33.5986 53.6519 33.7922 53.5586 33.904C53.472 34.0077 53.3508 34.0714 53.1786 34.0714V35.0714ZM54.7321 33.3095V31.4167H53.7321V33.3095H54.7321ZM54.7321 31.4167C54.7321 29.4621 53.43 27.7619 51.5982 27.7619V28.7619C52.7164 28.7619 53.7321 29.8379 53.7321 31.4167H54.7321ZM28.9464 39.4881H57.3929V38.4881H28.9464V39.4881ZM18.4107 7.94048H32.6339V6.94048H18.4107V7.94048ZM32.1339 7.44048V17.2833H33.1339V7.44048H32.1339ZM32.9185 16.8722L18.6952 7.02933L18.1262 7.85163L32.3494 17.6945L32.9185 16.8722ZM32.1071 7.94048H33.6875V6.94048H32.1071V7.94048ZM34.1875 7.44048V3.65476H33.1875V7.44048H34.1875ZM33.6875 3.15476H19.4643V4.15476H33.6875V3.15476ZM24.2321 43.4048V52.2381H25.2321V43.4048H24.2321ZM24.7321 51.7381H21.5714V52.7381H24.7321V51.7381ZM22.0714 52.2381V43.4048H21.0714V52.2381H22.0714ZM21.5714 43.9048H24.7321V42.9048H21.5714V43.9048ZM24.7321 41.6429H21.5714V42.6429H24.7321V41.6429ZM21.5714 41.6429C21.1115 41.6429 20.7059 41.8315 20.4238 42.1694C20.1483 42.4993 20.0179 42.9367 20.0179 43.4048H21.0179C21.0179 43.1157 21.0981 42.9221 21.1914 42.8103C21.278 42.7066 21.3992 42.6429 21.5714 42.6429V41.6429ZM20.0179 43.4048V52.2381H21.0179V43.4048H20.0179ZM20.0179 52.2381C20.0179 52.7061 20.1483 53.1435 20.4238 53.4734C20.7059 53.8113 21.1115 54 21.5714 54V53C21.3992 53 21.278 52.9363 21.1914 52.8325C21.0981 52.7208 21.0179 52.5272 21.0179 52.2381H20.0179ZM21.5714 54H24.7321V53H21.5714V54ZM24.7321 54C25.1921 54 25.5977 53.8113 25.8798 53.4734C26.1552 53.1435 26.2857 52.7061 26.2857 52.2381H25.2857C25.2857 52.5272 25.2055 52.7208 25.1122 52.8325C25.0255 52.9363 24.9043 53 24.7321 53V54ZM26.2857 52.2381V43.4048H25.2857V52.2381H26.2857ZM26.2857 43.4048C26.2857 42.9367 26.1552 42.4993 25.8798 42.1694C25.5977 41.8315 25.1921 41.6429 24.7321 41.6429V42.6429C24.9043 42.6429 25.0255 42.7066 25.1122 42.8103C25.2055 42.9221 25.2857 43.1157 25.2857 43.4048H26.2857ZM23.6518 33.9405V8.07143H22.6518V33.9405H23.6518ZM18.4107 34.4405H27.8929V33.4405H18.4107V34.4405ZM18.4107 28.131H27.8929V27.131H18.4107V28.131ZM18.4107 21.8214H27.8929V20.8214H18.4107V21.8214ZM18.4107 16.7738H32.1071V15.7738H18.4107V16.7738ZM18.4107 11.7262H32.1071V10.7262H18.4107V11.7262Z" fill="#827AC7"/>
</svg>
