<svg width="267" height="394" viewBox="0 0 267 394" fill="none" xmlns="http://www.w3.org/2000/svg">
<g clip-path="url(#clip0_17_329)">
<path d="M227.79 351.295C279.9 294.362 279.9 202.055 227.79 145.122C175.679 88.1888 91.1921 88.1889 39.0819 145.122C-13.0283 202.055 -13.0283 294.362 39.0819 351.295C91.1921 408.228 175.679 408.229 227.79 351.295Z" fill="#425066"/>
<path d="M60.6341 89.3762C60.6341 89.3762 61.6707 51.4093 120.335 29.7513C161.704 14.514 220.106 34.0812 223.08 106.373C224.946 151.144 211.685 175.956 204.588 211.057C201.088 228.071 203.185 247.752 210.258 259.042C210.258 259.042 218.622 271.457 227.537 265.568C227.537 265.568 219.747 279.481 193.975 276.58C193.975 276.58 181.392 274.314 170.85 268.904C147.16 256.751 117.863 259.042 131.618 272.581C131.618 272.581 107.218 270.185 91.2382 280.692C83.8383 285.535 64.4058 279.855 64.4058 279.855C64.4058 279.855 71.6222 276.24 74.5566 271.997C75.7288 270.307 78.3682 267.545 78.3682 267.545C78.3682 267.545 77.6984 271.91 67.388 272.964C57.1096 274.018 50.2201 264.836 50.2201 264.836C50.2201 264.836 59.5975 276.675 72.8502 246.636C76.1594 239.013 76.5501 231.704 72.4754 215.343C67.5555 195.654 53.6569 184.267 50.7543 150.743C48.5216 124.947 51.9106 117.899 60.6341 89.3762Z" fill="#592A0E"/>
<path opacity="0.2" d="M94.659 180.957C94.659 180.957 88.2958 162.984 72.6748 176.47C72.6748 176.47 86.1588 219.15 82.2356 236.556C79.9789 246.131 68.2094 269.88 53.0827 267.449C53.0827 267.449 73.0735 276.257 89.7152 250.156C98.0161 237.184 107.25 196.603 94.659 180.965V180.957Z" fill="url(#paint0_linear_17_329)"/>
<path d="M210.393 128.092C210.393 128.092 156.091 237.079 211.342 264.069C211.342 264.069 164.95 260.793 155.038 239.266L156.091 272.711H76.0637C76.0637 272.711 125.462 251.114 74.0942 180.956C74.0942 180.956 26.665 53.6307 134.306 37.4525C187.245 29.4984 229.156 74.1474 210.385 128.101L210.393 128.092Z" fill="url(#paint1_linear_17_329)"/>
<path d="M103.717 355.545C100.512 367.254 97.729 378.022 97.3861 387.44C98.6061 387.187 99.8182 386.917 101.038 386.603C123.549 380.74 145.98 374.816 168.745 370.565C163.179 357.81 154.958 346.241 152.829 338.391C148.93 324.043 160.444 295.337 174.311 278.287C174.311 278.287 196.247 263.25 182.811 244.755C179.032 239.554 169.399 241.566 159.44 234.44C152.59 229.535 147.893 218.889 150.293 207.546C152.415 197.483 155.78 194.007 155.78 194.007L128.883 202.981C128.883 202.981 138.213 218.035 131.483 230.441C127.799 237.236 110.639 237.445 103.717 243.343C95.4804 250.365 95.7275 262.71 99.9378 277.521C106.054 299.013 115.048 314.146 103.717 355.554V355.545Z" fill="url(#paint2_radial_17_329)"/>
<path d="M186.368 136.682C186.368 136.682 202.834 108.952 210.242 128.45C210.242 128.45 215.321 150.857 188.401 157.687L179.191 156.232L186.36 136.682H186.368Z" fill="#FDCB95"/>
<path d="M201.462 132.823C201.462 132.823 190.028 139.575 190.498 148.191C190.498 148.191 198.313 148.548 199.557 143.4C199.557 143.4 198.313 139.096 196.877 139.392C196.877 139.392 203.727 132.179 201.462 132.823Z" fill="#E2A66A"/>
<path d="M185.722 173.822C177.939 190.671 155.277 201.517 144.967 206.875C134.074 213.74 123.597 215.927 116.699 212.494C108.287 208.304 94.9301 189.8 88.3436 180.852C84.1732 175.19 77.0525 164.396 77.1641 152.573C77.2917 138.878 80.3378 137.51 79.9789 129.913C79.652 123.04 66.3514 42.0617 133.827 35.2228C179.749 35.397 202.332 79.2968 190.331 129.521C188.911 140.551 194.932 153.898 185.73 173.822H185.722Z" fill="#FDCB95"/>
<path d="M186.615 159.673C185.809 171.33 175.419 179.981 163.411 178.988C151.402 177.995 142.327 167.741 143.133 156.075C143.938 144.41 154.328 135.768 166.337 136.752C178.346 137.745 187.42 147.999 186.615 159.665V159.673Z" fill="url(#paint3_radial_17_329)"/>
<path d="M85.17 107.062C83.9819 107.724 82.6502 109.336 81.8767 113.578C80.5371 120.949 81.9405 134.391 87.5383 144.697C96.3575 160.945 114.921 157.826 114.921 157.826C114.921 157.826 135.996 114.171 94.6829 105.52C91.0787 104.762 88.4872 105.197 85.162 107.062H85.17Z" fill="url(#paint4_linear_17_329)"/>
<path d="M103.398 152.521C102.88 159.97 96.9396 165.545 90.1298 164.979C83.32 164.413 78.2087 157.922 78.727 150.482C79.2453 143.042 85.1859 137.458 91.9957 138.024C98.8055 138.591 103.917 145.081 103.398 152.521Z" fill="url(#paint5_radial_17_329)"/>
<path d="M112.449 160.109C112.449 160.109 114.865 168.847 116.906 167.558C116.906 167.558 122.153 168.011 124.474 163.428L116.978 163.969C116.978 163.969 113.653 163.306 112.449 160.1V160.109Z" fill="url(#paint6_linear_17_329)"/>
<path d="M118.613 148.287C118.613 148.287 117.281 155.823 113.94 159.012C113.94 159.012 113.262 159.996 112.473 160.048C112.473 160.048 111.675 158.646 112.441 157.304C113.127 156.102 117.201 154.49 118.613 148.287Z" fill="#F8CFAF"/>
<path d="M177.038 149.768C176.887 151.902 174.766 153.462 172.294 153.253C169.822 153.044 167.94 151.153 168.091 149.019C168.243 146.884 170.364 145.325 172.836 145.534C175.308 145.743 177.19 147.634 177.038 149.768Z" fill="#F8CFAF"/>
<path d="M89.7311 145.464C89.6115 147.172 88.0167 148.426 86.1588 148.27C84.3088 148.113 82.8974 146.614 83.017 144.907C83.1366 143.199 84.7314 141.945 86.5814 142.101C88.4313 142.258 89.8427 143.757 89.7231 145.464H89.7311Z" fill="#F8CFAF"/>
<path d="M140.709 130.201C140.709 130.201 148.412 110.912 166.72 119.738C166.72 119.738 172.405 124.529 173.203 128.101C173.203 128.101 172.732 141.57 152.55 140.063C152.55 140.063 146.785 139.409 140.709 130.201Z" fill="#FFF2E9"/>
<path d="M169.606 129.46C169.551 135.794 164.551 140.873 158.435 140.812C152.319 140.751 147.407 135.567 147.463 129.234C147.518 122.9 152.518 117.821 158.634 117.882C164.75 117.943 169.662 123.127 169.606 129.46Z" fill="url(#paint7_linear_17_329)"/>
<path d="M165.38 129.059C165.348 132.901 162.565 135.994 159.168 135.951C155.772 135.916 153.044 132.771 153.076 128.92C153.108 125.078 155.891 121.985 159.288 122.029C162.685 122.064 165.412 125.209 165.38 129.059Z" fill="#673D17"/>
<path d="M156.314 126.908C156.298 128.563 155.094 129.904 153.619 129.887C152.143 129.87 150.963 128.511 150.971 126.855C150.987 125.191 152.191 123.858 153.666 123.876C155.142 123.893 156.322 125.252 156.314 126.908Z" fill="#F3EDCD"/>
<path d="M139.744 130.68C139.744 130.68 144.688 112.202 159.113 110.163C159.113 110.163 173.043 108.987 173.928 125.157C173.928 125.157 167.82 114.92 155.572 118.814C143.316 122.709 139.744 130.68 139.744 130.68Z" fill="#F6BB81"/>
<path d="M139.744 130.68C139.744 130.68 157.797 108.395 173.203 128.101C173.203 128.101 177.102 128.572 181.432 120.278C181.432 120.278 179.319 124.521 173.187 123.223C173.187 123.223 165.603 111.313 153.029 116.07C148.667 118.161 142.375 125.148 139.752 130.68H139.744Z" fill="url(#paint8_linear_17_329)"/>
<path d="M173.697 127.997C173.697 127.997 167.501 146.179 150.652 139.81C150.652 139.81 169.981 149.663 173.697 127.997Z" fill="#F6BB81"/>
<path d="M115.75 131.22C115.75 131.22 108.558 114.354 93.9733 119.86C93.9733 119.86 89.3005 123.188 88.4393 125.949C88.4393 125.949 87.8572 136.648 103.351 137.083C103.351 137.083 113.43 136.412 115.75 131.211V131.22Z" fill="#F9EFE5"/>
<path d="M114.73 129.199C114.73 129.199 113.509 112.219 100.44 111.139C100.44 111.139 87.8811 111.052 85.6803 122.97C85.6803 122.97 93.455 115.965 102.521 120.034C111.596 124.102 114.722 129.199 114.722 129.199H114.73Z" fill="#F4B283"/>
<path d="M96.82 127.753C96.4133 132.623 99.6667 136.927 104.092 137.371C108.518 137.815 112.433 134.226 112.84 129.356C113.246 124.486 109.985 120.182 105.567 119.738C101.142 119.294 97.2266 122.883 96.82 127.753Z" fill="url(#paint9_linear_17_329)"/>
<path d="M100.161 128.241C99.9139 131.212 101.899 133.834 104.603 134.104C107.298 134.374 109.69 132.188 109.937 129.217C110.184 126.246 108.199 123.624 105.496 123.354C102.8 123.084 100.408 125.27 100.161 128.241Z" fill="#673D17"/>
<path d="M99.252 125.871C99.1404 127.143 100.002 128.276 101.158 128.389C102.314 128.502 103.343 127.561 103.454 126.289C103.566 125.017 102.705 123.885 101.549 123.771C100.392 123.658 99.3637 124.599 99.252 125.871Z" fill="#F3EDCD"/>
<path d="M115.12 130.009C115.12 130.009 106.054 109.815 87.8174 126.647C87.8174 126.647 80.3776 126.647 78.137 118.161C78.137 118.161 80.4095 122.648 86.0631 121.393C86.0631 121.393 95.7834 111.357 105.392 116.584C112.6 120.252 114.642 128.45 115.12 130.001V130.009Z" fill="url(#paint10_linear_17_329)"/>
<path d="M89.0055 129.556C89.0055 129.556 92.0595 139.026 106.054 136.709C106.054 136.709 90.1139 143.67 89.0055 129.556Z" fill="#F4B283"/>
<path d="M117.855 198.503C117.855 198.503 128.221 199.365 131.762 196.664C131.762 196.664 125.917 204.017 117.855 198.503Z" fill="url(#paint11_linear_17_329)"/>
<path d="M148.651 108.647C153.571 105.459 171.632 89.5942 179.016 113.726C179.016 113.726 169.83 94.9259 148.651 108.647Z" fill="#553110"/>
<path d="M114.139 115.931C114.139 115.931 97.9682 94.6734 83.1606 108.586C83.1606 108.586 98.0878 101.051 114.139 115.931Z" fill="#553110"/>
<path d="M108.159 169.997C108.159 169.997 119.466 177.812 145.541 173.586C145.541 173.586 138.604 187.09 127.296 190.662C127.296 190.662 113.494 191.707 111.851 182.839L111.675 178.195C111.675 178.195 108.326 170.973 108.159 170.006V169.997Z" fill="#B93B4A"/>
<path d="M111.572 172.053C111.572 172.053 109.443 179.92 119.442 181.532C122.719 182.063 128.293 181.453 130.941 180.93C137.073 179.711 141.769 177.62 145.541 173.595C145.541 173.595 126.842 179.693 111.572 172.053Z" fill="white"/>
<path d="M117.6 179.92C117.6 179.92 111.054 182.438 114.961 185.539C117.799 187.796 132.264 190.801 142.718 178.343C142.718 178.343 128.293 190.287 116.882 183.841C116.882 183.841 115.95 182.342 117.6 179.92Z" fill="white"/>
<path d="M107.035 169.318C107.035 169.318 119.905 176.975 145.541 173.587C145.541 173.587 136.985 179.302 119.721 177.307C119.721 177.307 108.406 175.634 107.035 169.318Z" fill="#F38583"/>
<path d="M111.787 180.504C111.787 180.504 113.159 185.566 120.327 186.21C120.327 186.21 137.176 187.055 145.477 173.709C145.477 173.709 136.746 195.811 117.887 191.15C117.887 191.15 109.921 189.242 111.787 180.504Z" fill="#F38583"/>
<path d="M126.18 189.033C126.132 189.695 125.662 190.2 125.128 190.157C124.593 190.113 124.195 189.538 124.242 188.867C124.29 188.197 124.761 187.7 125.295 187.744C125.829 187.787 126.228 188.362 126.18 189.033Z" fill="#F0AAA6"/>
<path d="M129.123 189.007C129.091 189.434 128.772 189.756 128.405 189.721C128.038 189.695 127.767 189.32 127.799 188.893C127.831 188.467 128.15 188.144 128.516 188.179C128.883 188.205 129.154 188.58 129.123 189.007Z" fill="#F0AAA6"/>
<path d="M34.9499 222.522C34.9499 222.522 32.2547 225.196 35.4443 229.213C38.6259 233.229 41.3211 238.308 41.3211 238.308C41.3211 238.308 32.2627 240.712 24.4243 237.506C16.5859 234.3 13.1571 232.157 8.74745 232.157C8.74745 232.157 2.87064 226.808 0.422627 230.014L1.40343 232.689C1.40343 232.689 0.422627 233.49 3.85144 237.236C7.28024 240.983 9.72825 243.396 9.72825 243.396L18.3003 248.214L12.6706 247.412C12.6706 247.412 6.79383 242.333 4.34582 245.008C4.34582 245.008 8.50824 250.357 11.937 251.968C15.3659 253.571 28.1003 254.913 28.1003 254.913C28.1003 254.913 44.2635 257.858 45.2443 262.405C46.2251 266.953 62.1412 318.058 70.2268 332.502C78.3044 346.955 92.2668 321.264 96.4293 302.271C96.4293 302.271 109.491 262.606 109.802 261.874C116.882 245.234 109.802 229.369 93.8616 249.102C91.3419 252.221 88.8301 261.865 88.8301 261.865L79.3968 301.827L55.0364 254.373L53.0748 245.278C53.0748 245.278 53.8084 241.261 48.1787 235.642C42.5491 230.023 34.9499 222.531 34.9499 222.531V222.522Z" fill="#FDCB95"/>
<path d="M18.3003 248.205C18.3003 248.205 21.7291 249.346 27.3986 248.954C30.8752 248.719 37.5494 246.759 42.1504 249.085C42.1504 249.085 37.4298 245.731 30.022 247.83C23.1086 249.782 18.3003 248.205 18.3003 248.205Z" fill="#ECB782"/>
<path d="M1.40343 232.689C1.40343 232.689 2.48789 231.966 4.9678 233.9C7.4477 235.834 10.3662 238.735 10.3662 238.735C10.3662 238.735 16.5221 241.392 19.7037 243.134L24.201 245.086L22.3112 243.666L20.1423 242.647C20.1423 242.647 13.189 238.874 10.5336 238.491C10.5336 238.491 4.29001 230.79 1.38748 232.68L1.40343 232.689Z" fill="#ECB782"/>
<path d="M8.74745 232.149L13.1969 235.834L22.7577 240.669L25.2695 241.218L13.3724 235.451C13.3724 235.451 10.4858 233.212 8.73948 232.149H8.74745Z" fill="#ECB782"/>
<path d="M167.972 239.188C167.972 239.188 184.151 235.041 191.375 255.741C198.592 276.441 209.58 310.966 209.58 310.966C209.58 310.966 221.7 336.693 203.711 337.782C203.711 337.782 198.225 339.925 192.46 323.477C186.695 307.028 166.911 262.292 166.911 262.292C166.911 262.292 156.258 248.475 167.98 239.205L167.972 239.188Z" fill="#FDCB95"/>
<path d="M246.133 232.715C246.133 232.715 228.343 230.014 225.193 233.176C225.193 233.176 218.575 238.09 221.214 242.159C223.853 246.227 234.387 239.937 234.387 239.937C234.387 239.937 253.229 236.992 246.125 232.715H246.133Z" fill="#E5AB70"/>
<path d="M203.185 338.365C203.185 338.365 217.729 336.501 219.611 316.62C221.485 296.739 225.831 249.817 225.831 249.817C225.831 249.817 226.166 239.38 218.08 244.494C218.08 244.494 205.681 289.413 203.057 299.51C200.434 309.607 196.79 328.547 203.185 338.365Z" fill="url(#paint12_radial_17_329)"/>
<path d="M217.059 248.693C217.059 248.693 217.594 233.455 230.647 235.146L240.248 235.041C240.248 235.041 241.253 232.541 240.965 231.547C240.965 231.547 237.816 234.187 236.349 234.466C233.43 235.015 230.623 232.079 242.114 225.284C242.114 225.284 246.069 223.803 247.504 225.754C249.625 228.655 250.335 232.523 250.335 232.523C250.335 232.523 253.524 231.556 254.41 225.562C254.41 225.562 255.119 222.47 255.47 219.368C255.893 215.666 258.476 215.108 259.011 216.85C263.643 232.044 253.509 238.169 249.45 240.451C245.383 242.734 239.761 242.734 233.94 244.084C228.111 245.434 225.815 249.546 225.815 249.546C225.815 249.546 217.363 256.333 217.067 248.701L217.059 248.693Z" fill="#FDCB95"/>
<path d="M240.367 226.46C240.367 226.46 246.013 223.001 247.504 225.946C248.995 228.891 249.984 232.907 249.984 232.907C249.984 232.907 249.211 236.949 248.046 238.291C248.046 238.291 251.874 235.189 249.984 229.814C248.094 224.439 245.75 222.069 240.367 226.46Z" fill="#ECB782"/>
<path d="M235.774 230.162C235.774 230.162 242.823 225.414 244.107 228.376C245.391 231.338 245.016 234.84 245.016 234.84C245.016 234.84 247.034 227.906 243.334 226.599C243.334 226.599 238.286 227.061 235.766 230.162H235.774Z" fill="#ECB782"/>
<path d="M159.384 232.183C159.384 232.183 156.019 261.717 139.967 262.754C123.916 263.782 124.737 232.767 124.737 232.767C101.006 241.087 95.5202 239.928 93.3991 245.339C87.8652 259.435 78.6553 300.503 78.6553 300.503L90.9192 322.213L101.78 287.644C101.78 287.644 114.06 313.44 104.611 342.329C98.662 360.52 94.97 377.273 93.0403 387.196C105.783 391.613 119.354 394 133.436 394C149.137 394 164.192 391.029 178.186 385.593C173.434 373.353 165.763 363.508 155.612 342.329C145.222 320.662 173.553 282.486 173.553 282.486L194.804 329.435C194.804 329.435 194.716 323.084 198.815 310.6C202.116 300.538 204.341 293.96 204.341 293.96C204.341 293.96 196.495 268.87 191.495 246.114C190.442 241.322 159.384 232.183 159.384 232.183Z" fill="#27273D"/>
<path d="M125.486 248.771C125.486 248.771 125.183 258.093 128.277 267.006C130.757 274.167 133.062 283.062 133.062 283.062L147.407 267.589C147.407 267.589 152.367 261.395 153.252 256.177C154.408 249.381 156.083 241.218 156.083 241.218L147.407 239.354L138.021 259.67L135.47 239.162L127.488 239.85L125.494 248.789L125.486 248.771Z" fill="#D682AC"/>
<path d="M133.891 218.593L133.939 220.144C133.939 220.144 126.635 224.979 125.75 227.688C124.705 230.868 130 235.041 136.554 240.46L124.689 263.094L119.729 234.074C119.729 234.074 123.581 227.026 125.439 224.979C127.336 222.888 133.891 218.593 133.891 218.593Z" fill="#D682AC"/>
<path d="M150.19 219.081L150.453 220.536C150.453 220.536 157.183 223.82 159.838 226.73C160.253 227.183 161.441 228.429 161.258 229.047C159.663 234.466 147.622 241.619 147.622 241.619L155.764 261.839L165.771 235.625C165.771 235.625 165.069 229.927 160.723 225.859C158.865 224.116 157.446 222.766 150.19 219.089V219.081Z" fill="#D682AC"/>
<path d="M136.427 240.451L126.627 259.208L127.041 261.543L136.945 248.135L136.427 240.451Z" fill="#AA6385"/>
<path d="M148.005 240.687L145.174 246.637L153.85 257.178L154.121 255.584L148.005 240.687Z" fill="#AA6385"/>
<path d="M106.5 335.883C106.5 335.883 113.9 341.232 128.724 340.526C146.96 339.655 153.69 335.107 153.69 335.107L154.312 338.784C154.312 338.784 139.967 345.649 120.933 343.715C109.762 342.582 105.32 340.265 105.32 340.265L106.5 335.883Z" fill="#E6E7E8"/>
<path d="M144.807 257.544C144.807 258.581 144.122 259.417 143.268 259.417C142.415 259.417 141.737 258.581 141.737 257.544C141.737 256.508 142.423 255.68 143.268 255.68C144.114 255.68 144.807 256.516 144.807 257.544Z" fill="#AA6385"/>
<path d="M199.636 308.021C199.636 308.021 192.962 330.882 200.346 336.266C204.596 339.358 215.273 335.403 219.428 320.079L215.927 335.499C215.927 335.499 201.765 341.693 196.096 336.274C190.426 330.856 185.116 322.344 199.636 308.03V308.021Z" fill="#D682AC"/>
<path d="M78.6553 300.503C78.6553 300.503 85.9594 329.688 78.1688 335.107C78.1688 335.107 70.3783 334.332 67.5475 326.596C67.5475 326.596 72.5073 345.945 85.2577 332.79C85.2577 332.79 95.1773 327.371 89.5078 314.991C89.5078 314.991 79.1497 296.077 78.6632 300.503H78.6553Z" fill="#D682AC"/>
<path d="M123.278 339.855L131.092 340.265L131.268 344.708L122.751 344.525L123.278 339.855Z" fill="#BBBDBF"/>
<path d="M123.772 340.343L123.333 344.298L125.526 344.325L125.781 340.509L123.772 340.343Z" fill="#D0D2D3"/>
<path d="M126.499 340.544L126.172 344.368L130.733 344.542L130.638 340.605L126.499 340.544Z" fill="#D0D2D3"/>
<path d="M126.499 340.544L129.162 340.674L128.245 344.464L126.172 344.368L126.499 340.544Z" fill="#F1F1F2"/>
<path d="M124.896 340.422L124.282 344.325L123.333 344.298L123.772 340.343L124.896 340.422Z" fill="#F1F1F2"/>
<path d="M133.915 220.144C133.915 220.144 134.29 231.077 128.493 233.43C128.493 233.43 124.386 229.753 125.981 227.044C127.576 224.334 133.532 220.388 133.915 220.135V220.144Z" fill="#AA6385"/>
<path d="M150.445 220.509C150.445 220.509 157.956 223.837 160.484 227.514C160.484 227.514 161.68 228.481 161.018 229.692C160.357 230.903 160.085 231.626 158.228 233.516C158.228 233.516 153.563 231.112 150.445 220.518V220.509Z" fill="#AA6385"/>
<path d="M79.046 98.4365C79.046 98.4365 80.4574 99.1509 109.02 93.9063C148.611 86.6405 165.675 63.9022 165.675 63.9022C165.675 63.9022 168.147 103.76 198.847 109.222L174.582 45.0843H158.084L78.2885 91.4321L79.046 98.4365Z" fill="#DFA877"/>
<path d="M71.4946 98.3847C71.4946 98.3847 49.9011 103.246 51.0334 134.008C51.0334 134.008 45.4756 114.711 47.0464 100.223C48.1309 89.8643 48.2824 77.1971 60.6739 58.0307C73.9666 37.392 86.1747 28.4535 102.489 16.3525C124.41 0.156918 175.284 -11.3603 187.261 18.6351C187.261 18.6351 198.065 19.6282 213.28 46.3392C226.556 69.7048 226.214 108.891 217.57 117.507C217.57 117.507 221.246 138.155 214.181 157.069C214.181 157.069 220.831 140.211 208.001 121.297L203.583 106.051L187.061 86.4841C187.061 86.4841 183.369 81.8928 179.845 75.6899C179.845 75.6899 166.68 67.37 167.804 51.035C167.804 51.035 163.028 61.9947 145.206 72.6843C127.831 83.0951 132.743 81.5879 71.5026 98.3759L71.4946 98.3847Z" fill="url(#paint13_linear_17_329)"/>
<path d="M167.796 50.9391C167.796 50.9391 154.328 75.202 83.009 85.9178C38.586 92.5999 50.7145 132.954 51.0334 133.381C51.0334 133.381 50.2679 106.783 73.6795 100.005C95.0258 93.8283 153.922 78.9569 167.796 50.9391Z" fill="#81431D"/>
<path d="M167.717 54.0754C167.717 54.0754 168.514 89.8643 191.878 108.508C200.521 115.373 209.779 120.243 210.29 126.315C210.29 126.315 213.296 109.919 189.741 87.5208C189.741 87.5208 172.932 70.0619 167.796 51.2353L167.717 54.0667V54.0754Z" fill="#592A0E"/>
<path opacity="0.4" d="M185.961 22.9995C185.961 22.9995 183.736 11.2121 166.736 9.05156C166.736 9.05156 182.636 14.061 181.926 24.2801C181.926 24.2801 172.932 18.1295 167.972 25.2994C167.972 25.2994 189.565 19.0878 191.407 42.5056C191.407 42.5056 192.667 33.2883 187.093 27.9566C187.093 27.9566 193.823 23.6442 201.143 32.3649C201.143 32.3649 195.41 22.6945 185.961 22.9908V22.9995Z" fill="#592A0E"/>
<path d="M87.5938 65.6099C87.5938 65.6099 48.322 65.7144 46.8708 107.088C46.8708 107.088 57.5001 78.2597 87.5938 65.6099Z" fill="#B06F29"/>
<path d="M111.851 10.7941C111.851 10.7941 132.033 48.6477 167.31 51.1219C167.31 51.1219 160.971 58.6927 152.574 64.1725C145.987 68.5111 136.993 70.9679 136.419 71.2815C136.419 71.2815 79.2772 73.8864 70.0593 46.9053L80.6807 35.8847C80.6807 35.8847 102.298 15.1501 111.859 10.8028L111.851 10.7941Z" fill="url(#paint14_linear_17_329)"/>
<path d="M167.717 51.1395C167.717 51.1395 196.654 60.8359 214.994 50.2509C214.994 50.2509 223.295 67.9624 223.494 91.7287C223.494 91.7287 218.064 93.1836 196.511 82.0061C196.511 82.0061 177.708 70.8373 167.717 51.1308V51.1395Z" fill="url(#paint15_linear_17_329)"/>
</g>
<defs>
<linearGradient id="paint0_linear_17_329" x1="53.0827" y1="220.16" x2="100.839" y2="220.16" gradientUnits="userSpaceOnUse">
<stop stop-color="#A85E20"/>
<stop offset="0.95" stop-color="#592A0E"/>
</linearGradient>
<linearGradient id="paint1_linear_17_329" x1="141.227" y1="14.5051" x2="135.793" y2="246.45" gradientUnits="userSpaceOnUse">
<stop offset="0.41" stop-color="#3E1C13"/>
<stop offset="1" stop-color="#592A0E"/>
</linearGradient>
<radialGradient id="paint2_radial_17_329" cx="0" cy="0" r="1" gradientUnits="userSpaceOnUse" gradientTransform="translate(134.688 194.356) scale(35.4363 38.7161)">
<stop stop-color="#F3AC88"/>
<stop offset="1" stop-color="#FDCB95"/>
</radialGradient>
<radialGradient id="paint3_radial_17_329" cx="0" cy="0" r="1" gradientUnits="userSpaceOnUse" gradientTransform="translate(164.805 158.538) rotate(4.7181) scale(19.3151 21.0796)">
<stop stop-color="#F3AC88"/>
<stop offset="1" stop-color="#FDCB95"/>
</radialGradient>
<linearGradient id="paint4_linear_17_329" x1="98.0599" y1="134.757" x2="130.603" y2="98.9405" gradientUnits="userSpaceOnUse">
<stop stop-color="#FDCB95"/>
<stop offset="1" stop-color="#F19B82"/>
</linearGradient>
<radialGradient id="paint5_radial_17_329" cx="0" cy="0" r="1" gradientUnits="userSpaceOnUse" gradientTransform="translate(91.1577 151.826) rotate(4.72902) scale(11.7416 14.394)">
<stop stop-color="#F3AC88"/>
<stop offset="1" stop-color="#FDCB95"/>
</radialGradient>
<linearGradient id="paint6_linear_17_329" x1="116.016" y1="167.211" x2="120.189" y2="159.442" gradientUnits="userSpaceOnUse">
<stop stop-color="#FDCB95"/>
<stop offset="0.17" stop-color="#F5BA8D"/>
</linearGradient>
<linearGradient id="paint7_linear_17_329" x1="155.013" y1="144.321" x2="163.501" y2="113.91" gradientUnits="userSpaceOnUse">
<stop offset="0.3" stop-color="#E6AF22"/>
<stop offset="0.82" stop-color="#BB7F2B"/>
</linearGradient>
<linearGradient id="paint8_linear_17_329" x1="139.296" y1="122.76" x2="180.762" y2="122.966" gradientUnits="userSpaceOnUse">
<stop offset="0.36" stop-color="#3B2314"/>
<stop offset="0.77" stop-color="#050000"/>
</linearGradient>
<linearGradient id="paint9_linear_17_329" x1="105.959" y1="141.037" x2="101.526" y2="116.937" gradientUnits="userSpaceOnUse">
<stop offset="0.3" stop-color="#E6AF22"/>
<stop offset="0.82" stop-color="#BB7F2B"/>
</linearGradient>
<linearGradient id="paint10_linear_17_329" x1="115.005" y1="123.718" x2="77.3522" y2="120.576" gradientUnits="userSpaceOnUse">
<stop offset="0.36" stop-color="#3B2314"/>
<stop offset="0.77" stop-color="#050000"/>
</linearGradient>
<linearGradient id="paint11_linear_17_329" x1="123.228" y1="201.111" x2="127.752" y2="192.666" gradientUnits="userSpaceOnUse">
<stop stop-color="#FDCB95"/>
<stop offset="0.17" stop-color="#F5BA8D"/>
</linearGradient>
<radialGradient id="paint12_radial_17_329" cx="0" cy="0" r="1" gradientUnits="userSpaceOnUse" gradientTransform="translate(191.952 299.111) rotate(-5.17642) scale(27.8922 26.883)">
<stop stop-color="#F9D896"/>
<stop offset="1" stop-color="#FDCB95"/>
</radialGradient>
<linearGradient id="paint13_linear_17_329" x1="49.2359" y1="67.1982" x2="224.369" y2="79.448" gradientUnits="userSpaceOnUse">
<stop offset="0.42" stop-color="#A85E20"/>
<stop offset="0.94" stop-color="#592A0E"/>
</linearGradient>
<linearGradient id="paint14_linear_17_329" x1="187.229" y1="60.2434" x2="135.708" y2="49.1353" gradientUnits="userSpaceOnUse">
<stop offset="0.41" stop-color="#935423"/>
<stop offset="1" stop-color="#B26628"/>
</linearGradient>
<linearGradient id="paint15_linear_17_329" x1="167.717" y1="71.0203" x2="223.494" y2="71.0203" gradientUnits="userSpaceOnUse">
<stop offset="0.41" stop-color="#844D20"/>
<stop offset="1" stop-color="#663617"/>
</linearGradient>
<clipPath id="clip0_17_329">
<rect width="266.583" height="393.583" fill="white" transform="scale(1.00106)"/>
</clipPath>
</defs>
</svg>
