<svg width="66" height="27" viewBox="0 0 66 27" fill="none" xmlns="http://www.w3.org/2000/svg">
<path d="M2.41771 17.778H8.90037V19.6929H0V1.65617H2.41771V17.778ZM17.8178 19.9258C16.4539 19.9258 15.2141 19.624 14.0983 19.0201C13 18.4162 12.1322 17.5622 11.4946 16.4582C10.8746 15.3368 10.5647 14.0429 10.5647 12.5765C10.5647 11.1274 10.8835 9.8507 11.5211 8.74665C12.1764 7.62522 13.0621 6.77126 14.178 6.18476C15.2938 5.58089 16.5426 5.27904 17.9241 5.27904C19.3057 5.27904 20.5544 5.58089 21.6702 6.18476C22.7861 6.77126 23.6628 7.61672 24.3005 8.72077C24.9558 9.82482 25.2835 11.1102 25.2835 12.5765C25.2835 14.0429 24.9469 15.3368 24.2739 16.4582C23.6184 17.5622 22.724 18.4162 21.5905 19.0201C20.4568 19.624 19.1994 19.9258 17.8178 19.9258ZM17.8178 17.8556C18.6857 17.8556 19.5004 17.6573 20.2621 17.2604C21.0237 16.8635 21.6347 16.2684 22.0953 15.4748C22.5736 14.6813 22.8127 13.7152 22.8127 12.5765C22.8127 11.4379 22.5823 10.4718 22.1219 9.67825C21.6613 8.88473 21.0592 8.29804 20.3152 7.91857C19.5713 7.52171 18.7654 7.32338 17.8975 7.32338C17.0119 7.32338 16.1972 7.52171 15.4533 7.91857C14.727 8.29804 14.1425 8.88473 13.6997 9.67825C13.2568 10.4718 13.0355 11.4379 13.0355 12.5765C13.0355 13.7324 13.2481 14.7072 13.6732 15.5007C14.1159 16.2942 14.7004 16.8894 15.4267 17.2863C16.1528 17.6658 16.9498 17.8556 17.8178 17.8556ZM34.4667 5.27904C35.7243 5.27904 36.8225 5.54651 37.7611 6.08125C38.7176 6.61599 39.4262 7.28881 39.8866 8.09971V5.51194H42.3309V20.0034C42.3309 21.2973 42.0475 22.4446 41.4807 23.4452C40.914 24.4631 40.0991 25.2566 39.0364 25.8259C37.9915 26.3952 36.7694 26.6799 35.37 26.6799C33.4571 26.6799 31.863 26.24 30.5877 25.3601C29.3124 24.4803 28.5598 23.2812 28.3294 21.7631H30.7205C30.9862 22.6258 31.5354 23.3158 32.3678 23.8333C33.2003 24.3681 34.201 24.6355 35.37 24.6355C36.6984 24.6355 37.779 24.2302 38.6113 23.4193C39.4615 22.6084 39.8866 21.4698 39.8866 20.0034V17.0275C39.4084 17.8556 38.6999 18.5456 37.7611 19.0977C36.8225 19.6498 35.7243 19.9258 34.4667 19.9258C33.1737 19.9258 31.9958 19.6153 30.9331 18.9942C29.8882 18.3731 29.0646 17.502 28.4622 16.3806C27.8601 15.2591 27.5589 13.9826 27.5589 12.5507C27.5589 11.1015 27.8601 9.83351 28.4622 8.74665C29.0646 7.6426 29.8882 6.78864 30.9331 6.18476C31.9958 5.58089 33.1737 5.27904 34.4667 5.27904ZM39.8866 12.5765C39.8866 11.5069 39.6653 10.5753 39.2224 9.78176C38.7796 8.98824 38.1775 8.38436 37.4157 7.97032C36.6718 7.53909 35.8482 7.32338 34.9449 7.32338C34.0416 7.32338 33.2179 7.5304 32.474 7.94444C31.7301 8.35849 31.1369 8.96236 30.694 9.75588C30.2512 10.5494 30.0297 11.481 30.0297 12.5507C30.0297 13.6375 30.2512 14.5863 30.694 15.3972C31.1369 16.1907 31.7301 16.8033 32.474 17.2345C33.2179 17.6486 34.0416 17.8556 34.9449 17.8556C35.8482 17.8556 36.6718 17.6486 37.4157 17.2345C38.1775 16.8033 38.7796 16.1907 39.2224 15.3972C39.6653 14.5863 39.8866 13.6462 39.8866 12.5765ZM47.6654 3.20883C47.2048 3.20883 46.8152 3.05356 46.4964 2.74303C46.1776 2.4325 46.0182 2.05297 46.0182 1.60442C46.0182 1.15586 46.1776 0.77633 46.4964 0.465798C46.8152 0.155266 47.2048 0 47.6654 0C48.1081 0 48.4801 0.155266 48.7813 0.465798C49.1001 0.77633 49.2595 1.15586 49.2595 1.60442C49.2595 2.05297 49.1001 2.4325 48.7813 2.74303C48.4801 3.05356 48.1081 3.20883 47.6654 3.20883ZM48.8344 5.51194V19.6929H46.4167V5.51194H48.8344ZM60.0487 5.25317C61.8198 5.25317 63.2545 5.77941 64.3527 6.8317C65.451 7.86681 66 9.36771 66 11.3344V19.6929H63.6088V11.6708C63.6088 10.2562 63.2458 9.17788 62.5195 8.43612C61.7933 7.67698 60.8015 7.2975 59.5439 7.2975C58.2686 7.2975 57.2501 7.68567 56.4885 8.462C55.7446 9.23833 55.3727 10.3683 55.3727 11.852V19.6929H52.9549V5.51194H55.3727V7.5304C55.8509 6.80583 56.4974 6.24521 57.3121 5.84835C58.1447 5.4515 59.0567 5.25317 60.0487 5.25317Z" fill="white"/>
</svg>
