<svg width="73" height="49" viewBox="0 0 73 49" fill="none" xmlns="http://www.w3.org/2000/svg">
<path d="M70.6018 0H46.2667C44.9437 0 43.8678 0.665804 43.8678 1.48422V11.4072C43.8678 12.2256 44.9437 12.8917 46.2667 12.8917H47.7496V16.594C47.7496 17.6942 49.9549 18.1997 51.1163 17.3741L57.4254 12.8917H70.6018C71.9241 12.8917 73 12.2256 73 11.4072V1.48422C73 0.665804 71.9241 0 70.6018 0ZM71.394 11.4073C71.394 11.6778 71.0388 11.8978 70.602 11.8978H57.0601C56.8279 11.8978 56.6069 11.96 56.4547 12.0684L49.9057 16.7214C49.7122 16.8585 49.3561 16.7733 49.3561 16.5941V12.3948C49.3561 12.1204 48.9969 11.8979 48.5531 11.8979H46.267C45.8302 11.8979 45.4742 11.6778 45.4742 11.4073V1.48422C45.4742 1.21392 45.8302 0.99381 46.267 0.99381H70.6023C71.0391 0.99381 71.3943 1.21392 71.3943 1.48422V11.4073H71.394ZM58.4331 4.64669C56.8325 4.64669 55.53 5.45249 55.53 6.44319C55.53 7.43634 56.8326 8.24412 58.4331 8.24412C60.0336 8.24412 61.3363 7.43634 61.3363 6.44319C61.3363 5.45249 60.0338 4.64669 58.4331 4.64669ZM58.4331 7.25022C57.7179 7.25022 57.136 6.88822 57.136 6.44319C57.136 6.00061 57.7179 5.6405 58.4331 5.6405C59.1483 5.6405 59.7303 6.00061 59.7303 6.44319C59.7303 6.88822 59.1483 7.25022 58.4331 7.25022ZM51.0621 4.64669C49.4615 4.64669 48.159 5.45249 48.159 6.44319C48.159 7.43634 49.4616 8.24412 51.0621 8.24412C52.6666 8.24412 53.9717 7.43634 53.9717 6.44319C53.9717 5.45249 52.6668 4.64669 51.0621 4.64669ZM51.0621 7.25022C50.3469 7.25022 49.765 6.88822 49.765 6.44319C49.765 6.00061 50.3469 5.6405 51.0621 5.6405C51.7806 5.6405 52.3655 6.00061 52.3655 6.44319C52.3657 6.88822 51.7806 7.25022 51.0621 7.25022ZM65.804 4.64669C64.1995 4.64669 62.8945 5.45249 62.8945 6.44319C62.8945 7.43634 64.1994 8.24412 65.804 8.24412C67.4046 8.24412 68.7071 7.43634 68.7071 6.44319C68.7072 5.45249 67.4046 4.64669 65.804 4.64669ZM65.804 7.25022C65.0856 7.25022 64.5006 6.88822 64.5006 6.44319C64.5006 6.00061 65.0856 5.6405 65.804 5.6405C66.5192 5.6405 67.1011 6.00061 67.1011 6.44319C67.1011 6.88822 66.5192 7.25022 65.804 7.25022ZM47.6462 41.9636C47.6462 42.238 47.287 42.4605 46.8432 42.4605H39.7311C39.2872 42.4605 38.9281 42.238 38.9281 41.9636C38.9281 41.6892 39.2873 41.4667 39.7311 41.4667H46.8432C47.287 41.4666 47.6462 41.6892 47.6462 41.9636ZM44.3839 34.3524V20.8627C44.3839 14.5565 35.732 9.94883 26.1766 10.3748C17.3423 10.759 10.4223 15.483 10.4223 21.1294V34.3567C3.50118 35.7998 0 38.3902 0 42.0856V44.7244C0 46.6425 2.52201 48.2029 5.62124 48.2029H49.2106C52.3098 48.2029 54.8319 46.6424 54.8319 44.7244V42.0856C54.832 38.3859 51.3215 35.7942 44.3839 34.3524ZM12.0283 21.1293C12.0283 16.0024 18.2926 11.7139 26.2909 11.3662C34.9427 10.9773 42.7776 15.1513 42.7776 20.8627V34.0487C40.2948 33.6253 37.4734 33.3515 34.8993 33.2022C33.6932 33.132 32.7483 32.4813 32.7483 31.7203V31.4364C36.5992 29.5684 39.0675 25.9625 39.0675 23.276C39.0675 20.3225 34.7534 16.1069 30.9696 15.3622C29.2976 15.0326 27.7958 15.3539 26.7489 16.2699C23.9587 18.7208 21.3856 19.459 19.5067 19.9979C17.4041 20.6014 15.7432 21.0777 15.7432 23.2761C15.7432 25.9618 18.2103 29.5665 22.0593 31.435V31.7209C22.0593 32.4945 21.1347 33.1314 19.9089 33.2025C17.4552 33.3452 14.5132 33.6275 12.0283 34.0528V21.1293ZM23.614 32.0642C24.7885 32.4502 26.0592 32.6753 27.4054 32.6753C28.7506 32.6753 30.0202 32.4506 31.1938 32.0651C31.4435 33.1935 32.8806 34.0832 34.7496 34.1916C35.9173 34.2593 37.0412 34.3457 38.099 34.4493C37.3947 37.7289 32.8353 40.2369 27.4162 40.2369C21.9926 40.2369 17.4292 37.7289 16.725 34.449C17.7765 34.3457 18.8949 34.2595 20.0595 34.1918C21.9278 34.0834 23.3652 33.1933 23.614 32.0642ZM17.3493 23.276C17.3493 21.7124 18.1791 21.4743 20.1828 20.8996C22.2257 20.3136 25.0238 19.5106 28.0611 16.8433C28.6954 16.2882 29.4614 16.1081 30.4837 16.3095C33.6142 16.9253 37.4617 20.7668 37.4617 23.276C37.4617 26.9812 32.7273 31.6815 27.4056 31.6815C21.8546 31.6815 17.3493 26.5954 17.3493 23.276ZM53.2259 44.7244C53.2259 46.0945 51.4245 47.2092 49.2106 47.2092H5.62124C3.40731 47.2092 1.60598 46.0945 1.60598 44.7244V42.0857C1.60598 38.2186 6.17168 35.7139 15.154 34.6266C15.9983 38.3715 21.2122 41.2309 27.4164 41.2309C33.6154 41.2309 38.8248 38.3722 39.67 34.6279C48.6558 35.7144 53.226 38.2183 53.226 42.0857V44.7244H53.2259Z" fill="#4B1A6B"/>
</svg>
