<svg width="10" height="9" viewBox="0 0 10 9" fill="none" xmlns="http://www.w3.org/2000/svg">
<path d="M4.13293 8.83787C4.85189 8.95061 5.58986 8.92178 6.29497 8.75341C7.00009 8.58504 7.65522 8.28121 8.2144 7.86327C8.77357 7.44533 9.22322 6.92342 9.5317 6.33421C9.84018 5.74499 10 5.10278 10 4.45267C10 3.80256 9.84018 3.16033 9.5317 2.57112C9.22322 1.98191 8.77357 1.46 8.2144 1.04206C7.65522 0.624119 7.00009 0.320292 6.29497 0.151921C5.58986 -0.0164498 4.85189 -0.0452731 4.13293 0.0674665C2.97502 0.249036 1.92597 0.788167 1.17012 1.59015C0.414279 2.39213 0 3.40566 0 4.45267C0 5.49968 0.414279 6.5132 1.17012 7.31518C1.92597 8.11716 2.97502 8.6563 4.13293 8.83787Z" fill="#C2D5FC"/>
</svg>
