<svg width="25" height="25" viewBox="0 0 25 25" fill="none" xmlns="http://www.w3.org/2000/svg">
<path d="M8.7684 9.41133C8.96136 9.31485 9.03949 9.08008 8.943 8.88711C8.84652 8.69414 8.61254 8.61563 8.41879 8.7125C8.41293 8.71563 7.79535 9.00742 7.2059 8.7125C7.01254 8.61563 6.77816 8.69414 6.68168 8.88711C6.58519 9.08008 6.66332 9.31485 6.85629 9.41133C7.17777 9.57227 7.49769 9.62578 7.7809 9.62578C8.33012 9.62578 8.74261 9.42383 8.7684 9.41133ZM7.0309 6.81406C7.15707 6.81406 7.2809 6.75313 7.35629 6.64024C7.47582 6.46094 7.42738 6.21797 7.24808 6.09844C6.6141 5.67617 5.94066 5.89961 5.64301 6.09844C5.46371 6.21797 5.41527 6.46055 5.5348 6.64024C5.65433 6.81992 5.89691 6.86797 6.0766 6.74844C6.08051 6.7457 6.45004 6.50547 6.81527 6.74844C6.88129 6.79297 6.95668 6.81406 7.0309 6.81406ZM8.81058 6.74844C8.8141 6.7457 9.18441 6.50547 9.54926 6.74844C9.61566 6.79297 9.69105 6.81406 9.76566 6.81406C9.89183 6.81406 10.0157 6.75313 10.0911 6.64024C10.2106 6.46094 10.1621 6.21797 9.98285 6.09844C9.34886 5.67617 8.67543 5.89961 8.37777 6.09844C8.19847 6.21797 8.15004 6.46055 8.26957 6.64024C8.3891 6.81992 8.63051 6.86797 8.81058 6.74844Z" fill="#9B6623"/>
<path d="M0.390625 25H15.2344C15.45 25 15.625 24.825 15.625 24.6094V21.0938C15.625 20.8781 15.45 20.7031 15.2344 20.7031C15.0188 20.7031 14.8438 20.8781 14.8438 21.0938V24.2188H12.5V18.3594C12.5 18.1437 12.325 17.9688 12.1094 17.9688C11.8938 17.9688 11.7188 18.1437 11.7188 18.3594V24.2188H8.20312V14.4199C9.03828 14.2871 9.75078 13.7586 10.0293 13.2812H11.7188C13.4418 13.2812 14.8438 14.6832 14.8438 16.4062V19.9219C14.8438 20.1375 15.0188 20.3125 15.2344 20.3125C15.45 20.3125 15.625 20.1375 15.625 19.9219V16.4062C15.625 14.2523 13.8727 12.5 11.7188 12.5H10.0957L9.82031 10.8723C10.6242 10.3836 11.1914 9.54453 11.3055 8.56719C11.3754 8.5832 11.448 8.59375 11.5234 8.59375C12.0617 8.59375 12.5 8.15547 12.5 7.61719V4.42305C12.5 1.98438 10.5723 0 8.20312 0H7.42188C5.05273 0 3.125 1.98438 3.125 4.42305V7.61719C3.125 8.15547 3.56328 8.59375 4.10156 8.59375C4.17695 8.59375 4.24961 8.5832 4.31992 8.56719C4.43477 9.55234 5.00977 10.3965 5.82383 10.8836L5.53281 12.5H3.90625C1.75234 12.5 0 14.2523 0 16.4062V24.6094C0 24.825 0.175 25 0.390625 25ZM11.7188 7.61719C11.7188 7.725 11.6313 7.8125 11.5234 7.8125C11.4156 7.8125 11.3281 7.725 11.3281 7.61719V6.44531C11.3281 6.3375 11.4156 6.25 11.5234 6.25C11.6313 6.25 11.7188 6.3375 11.7188 6.44531V7.61719ZM7.42188 0.78125H8.20312C10.1414 0.78125 11.7188 2.41484 11.7188 4.42305V5.48867C11.6555 5.47578 11.5902 5.46875 11.5234 5.46875C11.4566 5.46875 11.3914 5.47578 11.3281 5.48867V5.07812C11.3281 4.96484 11.2789 4.85742 11.1934 4.7832C11.1078 4.70898 10.9953 4.675 10.882 4.6918C8.69766 5.0043 7.34023 3.40898 7.03125 2.99961V1.95312C7.03125 1.7375 6.85625 1.5625 6.64062 1.5625C6.425 1.5625 6.25 1.7375 6.25 1.95312V3.05078C5.88711 4.02617 4.52617 4.72188 4.5125 4.72891C4.38047 4.79531 4.29688 4.93047 4.29688 5.07812V5.48867C4.23359 5.47578 4.16836 5.46875 4.10156 5.46875C4.03477 5.46875 3.96953 5.47578 3.90625 5.48867V4.42305C3.90625 2.41484 5.48359 0.78125 7.42188 0.78125ZM4.10156 7.8125C3.99375 7.8125 3.90625 7.725 3.90625 7.61719V6.44531C3.90625 6.3375 3.99375 6.25 4.10156 6.25C4.20937 6.25 4.29688 6.3375 4.29688 6.44531V7.61719C4.29688 7.725 4.20937 7.8125 4.10156 7.8125ZM5.07812 8.20312V5.30898C5.45742 5.08789 6.23789 4.56602 6.71562 3.83477C7.33008 4.50352 8.63672 5.60273 10.5469 5.50781V8.20312C10.5469 9.4957 9.4957 10.5469 8.20312 10.5469H7.42188C6.1293 10.5469 5.07812 9.4957 5.07812 8.20312ZM7.42188 11.3281H8.20312C8.50898 11.3281 8.80391 11.282 9.0832 11.1996L9.3668 12.8742C9.26953 13.0902 8.61484 13.6719 7.8125 13.6719C7.01172 13.6719 6.3582 13.093 6.25898 12.8758L6.55977 11.2047C6.83398 11.2832 7.12266 11.3281 7.42188 11.3281ZM0.78125 16.4062C0.78125 14.6832 2.1832 13.2812 3.90625 13.2812H5.5957C5.87422 13.7582 6.58672 14.2871 7.42188 14.4199V24.2188H3.90625V18.3594C3.90625 18.1437 3.73125 17.9688 3.51562 17.9688C3.3 17.9688 3.125 18.1437 3.125 18.3594V24.2188H0.78125V16.4062Z" fill="#9B6623"/>
<path d="M23.4375 0H14.4531C13.5914 0 12.8906 0.700781 12.8906 1.5625V3.51562C12.8906 3.73125 13.0656 3.90625 13.2812 3.90625C13.4969 3.90625 13.6719 3.73125 13.6719 3.51562V1.5625C13.6719 1.13164 14.0223 0.78125 14.4531 0.78125H23.4375C23.8684 0.78125 24.2188 1.13164 24.2188 1.5625V8.20312C24.2188 8.63398 23.8684 8.98438 23.4375 8.98438H17.9688C17.8574 8.98438 17.7516 9.0332 17.6773 9.11602C17.6035 9.19883 17.5684 9.31094 17.5805 9.42109C17.5844 9.45625 17.6699 10.2867 17.0367 10.9395C16.5812 11.4082 15.8715 11.6754 14.918 11.7383C15.6691 10.9348 15.7328 9.87617 15.6172 9.29805C15.5809 9.11562 15.4207 8.98438 15.2344 8.98438H14.4531C14.0223 8.98438 13.6719 8.63398 13.6719 8.20312V5.07812C13.6719 4.8625 13.4969 4.6875 13.2812 4.6875C13.0656 4.6875 12.8906 4.8625 12.8906 5.07812V8.20312C12.8906 9.06484 13.5914 9.76562 14.4531 9.76562H14.8773C14.8816 10.2758 14.7246 11.2676 13.5266 11.7465C13.3586 11.8137 13.2586 11.9879 13.2855 12.1672C13.3121 12.3465 13.4586 12.4836 13.6395 12.4988C13.9211 12.5223 14.1906 12.534 14.4488 12.534C15.8703 12.534 16.9312 12.1781 17.6086 11.4723C18.1711 10.8859 18.3238 10.2016 18.3582 9.76562H23.4375C24.2992 9.76562 25 9.06484 25 8.20312V1.5625C25 0.700781 24.2992 0 23.4375 0Z" fill="#9B6623"/>
<path d="M20.7031 4.29688C20.4875 4.29688 20.3125 4.47188 20.3125 4.6875V8.20313C20.3125 8.41875 20.4875 8.59375 20.7031 8.59375H22.2656C22.4813 8.59375 22.6562 8.41875 22.6562 8.20313V4.6875C22.6562 4.47188 22.4813 4.29688 22.2656 4.29688H20.7031ZM21.0938 6.25H21.875V6.64063H21.0938V6.25ZM21.0938 5.07813H21.875V5.46875H21.0938V5.07813ZM21.875 7.8125H21.0938V7.42188H21.875V7.8125ZM17.5781 5.46875C17.3625 5.46875 17.1875 5.64375 17.1875 5.85938V8.20313C17.1875 8.41875 17.3625 8.59375 17.5781 8.59375H19.1406C19.3563 8.59375 19.5312 8.41875 19.5312 8.20313V5.85938C19.5312 5.64375 19.3563 5.46875 19.1406 5.46875H17.5781ZM17.9688 6.25H18.75V6.64063H17.9688V6.25ZM18.75 7.8125H17.9688V7.42188H18.75V7.8125ZM14.0625 7.03125V8.20313C14.0625 8.41875 14.2375 8.59375 14.4531 8.59375H16.0156C16.2313 8.59375 16.4062 8.41875 16.4062 8.20313V7.03125C16.4062 6.81563 16.2313 6.64063 16.0156 6.64063H14.4531C14.2375 6.64063 14.0625 6.81563 14.0625 7.03125ZM14.8438 7.42188H15.625V7.8125H14.8438V7.42188ZM23.7137 1.28633C23.5609 1.1336 23.3141 1.1336 23.1613 1.28633L21.4477 3L20.1562 2.03125C20.0703 1.9668 19.9613 1.94141 19.8559 1.9586C19.75 1.97656 19.6562 2.03789 19.5969 2.12696L18.2633 4.12735L17.0312 3.20313C16.9453 3.13867 16.8363 3.11289 16.7309 3.13047C16.625 3.14844 16.5312 3.20977 16.4719 3.29883L14.9094 5.64258C14.7898 5.82188 14.8383 6.06485 15.0176 6.18438C15.0844 6.22891 15.1598 6.25 15.234 6.25C15.3602 6.25 15.484 6.18906 15.5594 6.07617L16.893 4.07578L18.125 5C18.2109 5.06446 18.3195 5.09024 18.4254 5.07266C18.5312 5.05469 18.625 4.99336 18.6844 4.9043L20.018 2.90391L21.25 3.82813C21.4055 3.94492 21.6234 3.92891 21.7605 3.7918L23.7137 1.83867C23.8664 1.68594 23.8664 1.43906 23.7137 1.28633Z" fill="#9B6623"/>
</svg>
