<svg width="66" height="49" viewBox="0 0 66 49" fill="none" xmlns="http://www.w3.org/2000/svg">
<path d="M16.2865 17.6326C15.8513 17.2976 15.5061 16.8998 15.2706 16.4619C15.0351 16.024 14.9139 15.5546 14.9139 15.0806C14.9139 14.6065 15.0351 14.1372 15.2706 13.6993C15.5061 13.2614 15.8513 12.8635 16.2865 12.5285L31.1806 1.05792C31.8345 0.55343 32.6676 0.209613 33.5749 0.0699084C34.4821 -0.0697958 35.4227 0.000881556 36.2778 0.273012C37.133 0.545142 37.8643 1.00652 38.3794 1.59884C38.8944 2.19117 39.1702 2.88787 39.1718 3.60094C39.1705 3.95811 39.1035 4.31334 38.9729 4.65602C38.9729 4.7462 38.891 4.83637 38.8442 4.93557C38.6075 5.38135 38.2574 5.7861 37.8146 6.12592L22.9087 17.6326C22.4741 17.968 21.9579 18.234 21.3898 18.4156C20.8216 18.5971 20.2126 18.6905 19.5976 18.6905C18.9826 18.6905 18.3736 18.5971 17.8054 18.4156C17.2373 18.234 16.7211 17.968 16.2865 17.6326ZM31.5082 25.0272L3.98972 46.2099C3.66251 46.4607 3.24644 46.6312 2.79381 46.7002C2.34119 46.7691 1.87221 46.7334 1.44584 46.5976C1.01947 46.4617 0.654732 46.2317 0.397478 45.9365C0.140224 45.6413 0.00193714 45.294 0 44.9384C0.0210628 44.4664 0.281519 44.0196 0.725403 43.694L28.2322 22.4661C29.4995 23.1752 30.6064 24.0405 31.5082 25.0272ZM36.1532 27.8317L35.9894 27.967C35.167 25.8547 33.6788 23.9323 31.6576 22.3713C29.6364 20.8103 27.1452 19.6594 24.4063 19.0213L24.5701 18.9041L39.4526 7.43349C39.5696 7.34332 39.6866 7.24412 39.7919 7.14493C40.5798 9.27615 42.0604 11.2171 44.0935 12.7841C46.1266 14.3511 48.6449 15.4923 51.41 16.0996L51.0356 16.3611L36.1532 27.8317ZM60.6882 20.1846C60.6871 20.6591 60.5646 21.1287 60.3277 21.5667C60.0908 22.0046 59.7441 22.4022 59.3076 22.7367L44.4251 34.2163C43.9905 34.5517 43.4743 34.8177 42.9062 34.9993C42.338 35.1808 41.729 35.2742 41.114 35.2742C40.499 35.2742 39.89 35.1808 39.3218 34.9993C38.7537 34.8177 38.2375 34.5517 37.8029 34.2163C37.3684 33.8811 37.0239 33.4831 36.789 33.0452C36.5541 32.6074 36.4335 32.1381 36.434 31.6643C36.4338 31.2813 36.5128 30.9008 36.668 30.537C36.6939 30.4666 36.7252 30.3973 36.7616 30.3296C36.9893 29.8702 37.3447 29.4547 37.8029 29.1122L52.697 17.6326C53.1523 17.2835 53.6987 17.013 54.2999 16.839C54.4015 16.804 54.5073 16.7768 54.6158 16.7579C55.0765 16.6418 55.5586 16.5839 56.0433 16.5865C57.2845 16.5865 58.4749 16.9666 59.3525 17.643C60.2302 18.3195 60.7233 19.237 60.7233 20.1937L60.6882 20.1846ZM62.49 42.7922H34.4099C33.4789 42.7922 32.5862 43.0772 31.9279 43.5846C31.2696 44.0919 30.8998 44.78 30.8998 45.4975C30.8998 46.215 31.2696 46.9032 31.9279 47.4105C32.5862 47.9179 33.4789 48.2029 34.4099 48.2029H62.49C63.4209 48.2029 64.3137 47.9179 64.9719 47.4105C65.6302 46.9032 66 46.215 66 45.4975C66 44.78 65.6302 44.0919 64.9719 43.5846C64.3137 43.0772 63.4209 42.7922 62.49 42.7922Z" fill="#C682B5"/>
</svg>
