<svg width="66" height="48" viewBox="0 0 66 48" fill="none" xmlns="http://www.w3.org/2000/svg">
<path d="M0.5 46.617H65.5H0.5Z" fill="#2511C4"/>
<path d="M19.0714 4.94501V46.0614H2.82143V4.94501H19.0714ZM19.0714 3.83376H2.82143C2.125 3.83376 1.66071 4.27826 1.66071 4.94501V46.0614C1.66071 46.7281 2.125 47.1726 2.82143 47.1726H19.0714C19.7679 47.1726 20.2321 46.7281 20.2321 46.0614V4.94501C20.2321 4.27826 19.7679 3.83376 19.0714 3.83376Z" fill="#2511C4"/>
<path d="M9.20536 41.0607C9.20536 42.9499 8.85714 44.3945 6.88393 44.3945C4.91071 44.3945 4.5625 42.9499 4.5625 41.0607C4.5625 39.1716 4.91071 36.6157 6.88393 36.6157C8.85714 36.6157 9.20536 39.1716 9.20536 41.0607ZM17.3304 41.0607C17.3304 42.9499 16.9821 44.3945 15.0089 44.3945C13.0357 44.3945 12.6875 42.9499 12.6875 41.0607C12.6875 39.1716 13.0357 36.6157 15.0089 36.6157C16.9821 36.6157 17.3304 39.1716 17.3304 41.0607ZM12.6875 24.3919H16.1696H12.6875Z" fill="#2511C4"/>
<path d="M20.2321 1.61125V3.83376H1.66071V1.61125H20.2321ZM20.2321 0.5H1.66071C0.964286 0.5 0.5 0.944501 0.5 1.61125V3.83376C0.5 4.50051 0.964286 4.94501 1.66071 4.94501H20.2321C20.9286 4.94501 21.3929 4.50051 21.3929 3.83376V1.61125C21.3929 0.944501 20.9286 0.5 20.2321 0.5ZM63.1786 22.7251V46.0614H31.8393V22.7251H63.1786ZM63.1786 21.6138H31.8393C31.1429 21.6138 30.6786 22.0583 30.6786 22.7251V46.0614C30.6786 46.7281 31.1429 47.1726 31.8393 47.1726H63.1786C63.875 47.1726 64.3393 46.7281 64.3393 46.0614V22.7251C64.3393 22.0583 63.875 21.6138 63.1786 21.6138Z" fill="#2511C4"/>
<path d="M64.3393 19.3913V21.6138H30.6786V19.3913H64.3393ZM64.3393 18.2801H30.6786C29.9821 18.2801 29.5179 18.7246 29.5179 19.3913V21.6138C29.5179 22.2806 29.9821 22.7251 30.6786 22.7251H64.3393C65.0357 22.7251 65.5 22.2806 65.5 21.6138V19.3913C65.5 18.7246 65.0357 18.2801 64.3393 18.2801ZM47.5089 38.2826C49.1339 38.2826 50.4107 39.505 50.4107 41.0607V46.0614H44.6071V41.0607C44.6071 39.505 45.8839 38.2826 47.5089 38.2826ZM47.5089 37.1714C45.3036 37.1714 43.4464 38.9494 43.4464 41.0607V46.0614C43.4464 46.7281 43.9107 47.1726 44.6071 47.1726H50.4107C51.1071 47.1726 51.5714 46.7281 51.5714 46.0614V41.0607C51.5714 38.9494 49.7143 37.1714 47.5089 37.1714Z" fill="#2511C4"/>
<path d="M63.875 15.5019V18.2801V15.5019Z" fill="#2511C4"/>
<path d="M38.2232 26.0588C39.1518 26.0588 39.9643 26.8367 39.9643 27.7257V29.3926H36.4821V27.7257C36.4821 26.8367 37.2946 26.0588 38.2232 26.0588ZM38.2232 24.9476C36.5982 24.9476 35.3214 26.1699 35.3214 27.7257V29.3926C35.3214 30.0593 35.7857 30.5038 36.4821 30.5038H39.9643C40.6607 30.5038 41.125 30.0593 41.125 29.3926V27.7257C41.125 26.1699 39.8482 24.9476 38.2232 24.9476ZM47.5089 26.0588C48.4375 26.0588 49.25 26.8367 49.25 27.7257V29.3926H45.7679V27.7257C45.7679 26.8367 46.5804 26.0588 47.5089 26.0588ZM47.5089 24.9476C45.8839 24.9476 44.6071 26.1699 44.6071 27.7257V29.3926C44.6071 30.0593 45.0714 30.5038 45.7679 30.5038H49.25C49.9464 30.5038 50.4107 30.0593 50.4107 29.3926V27.7257C50.4107 26.1699 49.1339 24.9476 47.5089 24.9476ZM56.7946 26.0588C57.7232 26.0588 58.5357 26.8367 58.5357 27.7257V29.3926H55.0536V27.7257C55.0536 26.8367 55.8661 26.0588 56.7946 26.0588ZM56.7946 24.9476C55.1696 24.9476 53.8929 26.1699 53.8929 27.7257V29.3926C53.8929 30.0593 54.3571 30.5038 55.0536 30.5038H58.5357C59.2321 30.5038 59.6964 30.0593 59.6964 29.3926V27.7257C59.6964 26.1699 58.4196 24.9476 56.7946 24.9476Z" fill="#2511C4"/>
<path d="M20.2321 6.61189H35.9018V15.2797L20.2321 6.61189ZM35.3214 6.61189H37.0625V3.27813H21.3929" fill="#2511C4"/>
<path d="M27.1964 38.2826V46.0614H23.7143V38.2826H27.1964ZM27.1964 37.1714H23.7143C23.0179 37.1714 22.5536 37.6159 22.5536 38.2826V46.0614C22.5536 46.7281 23.0179 47.1726 23.7143 47.1726H27.1964C27.8929 47.1726 28.3571 46.7281 28.3571 46.0614V38.2826C28.3571 37.6159 27.8929 37.1714 27.1964 37.1714Z" fill="#2511C4"/>
<path d="M20.2321 9.94565H35.3214H20.2321Z" fill="#2511C4"/>
<path d="M0.5 46.117C0.223858 46.117 0 46.3409 0 46.617C0 46.8931 0.223858 47.117 0.5 47.117V46.117ZM65.5 47.117C65.7761 47.117 66 46.8931 66 46.617C66 46.3409 65.7761 46.117 65.5 46.117V47.117ZM19.0714 4.94501H19.5714V4.44501H19.0714V4.94501ZM19.0714 46.0614V46.5614H19.5714V46.0614H19.0714ZM2.82143 46.0614H2.32143V46.5614H2.82143V46.0614ZM2.82143 4.94501V4.44501H2.32143V4.94501H2.82143ZM7.38393 42.172C7.38393 41.8958 7.16007 41.672 6.88393 41.672C6.60779 41.672 6.38393 41.8958 6.38393 42.172H7.38393ZM6.38393 46.617C6.38393 46.8931 6.60779 47.117 6.88393 47.117C7.16007 47.117 7.38393 46.8931 7.38393 46.617H6.38393ZM15.5089 42.172C15.5089 41.8958 15.2851 41.672 15.0089 41.672C14.7328 41.672 14.5089 41.8958 14.5089 42.172H15.5089ZM14.5089 46.617C14.5089 46.8931 14.7328 47.117 15.0089 47.117C15.2851 47.117 15.5089 46.8931 15.5089 46.617H14.5089ZM2.82143 31.6707C2.54529 31.6707 2.32143 31.8946 2.32143 32.1707C2.32143 32.4469 2.54529 32.6707 2.82143 32.6707V31.6707ZM19.0714 32.6707C19.3476 32.6707 19.5714 32.4469 19.5714 32.1707C19.5714 31.8946 19.3476 31.6707 19.0714 31.6707V32.6707ZM5.72321 7.22315C5.44707 7.22315 5.22321 7.447 5.22321 7.72315C5.22321 7.99929 5.44707 8.22315 5.72321 8.22315V7.22315ZM9.20536 8.22315C9.4815 8.22315 9.70536 7.99929 9.70536 7.72315C9.70536 7.447 9.4815 7.22315 9.20536 7.22315V8.22315ZM12.6875 7.22315C12.4114 7.22315 12.1875 7.447 12.1875 7.72315C12.1875 7.99929 12.4114 8.22315 12.6875 8.22315V7.22315ZM16.1696 8.22315C16.4458 8.22315 16.6696 7.99929 16.6696 7.72315C16.6696 7.447 16.4458 7.22315 16.1696 7.22315V8.22315ZM5.72321 10.5569C5.44707 10.5569 5.22321 10.7808 5.22321 11.0569C5.22321 11.333 5.44707 11.5569 5.72321 11.5569V10.5569ZM9.20536 11.5569C9.4815 11.5569 9.70536 11.333 9.70536 11.0569C9.70536 10.7808 9.4815 10.5569 9.20536 10.5569V11.5569ZM12.6875 10.5569C12.4114 10.5569 12.1875 10.7808 12.1875 11.0569C12.1875 11.333 12.4114 11.5569 12.6875 11.5569V10.5569ZM16.1696 11.5569C16.4458 11.5569 16.6696 11.333 16.6696 11.0569C16.6696 10.7808 16.4458 10.5569 16.1696 10.5569V11.5569ZM5.72321 13.8907C5.44707 13.8907 5.22321 14.1145 5.22321 14.3907C5.22321 14.6668 5.44707 14.8907 5.72321 14.8907V13.8907ZM9.20536 14.8907C9.4815 14.8907 9.70536 14.6668 9.70536 14.3907C9.70536 14.1145 9.4815 13.8907 9.20536 13.8907V14.8907ZM12.6875 13.8907C12.4114 13.8907 12.1875 14.1145 12.1875 14.3907C12.1875 14.6668 12.4114 14.8907 12.6875 14.8907V13.8907ZM16.1696 14.8907C16.4458 14.8907 16.6696 14.6668 16.6696 14.3907C16.6696 14.1145 16.4458 13.8907 16.1696 13.8907V14.8907ZM5.72321 17.2244C5.44707 17.2244 5.22321 17.4483 5.22321 17.7244C5.22321 18.0006 5.44707 18.2244 5.72321 18.2244V17.2244ZM9.20536 18.2244C9.4815 18.2244 9.70536 18.0006 9.70536 17.7244C9.70536 17.4483 9.4815 17.2244 9.20536 17.2244V18.2244ZM12.6875 17.2244C12.4114 17.2244 12.1875 17.4483 12.1875 17.7244C12.1875 18.0006 12.4114 18.2244 12.6875 18.2244V17.2244ZM16.1696 18.2244C16.4458 18.2244 16.6696 18.0006 16.6696 17.7244C16.6696 17.4483 16.4458 17.2244 16.1696 17.2244V18.2244ZM5.72321 20.5582C5.44707 20.5582 5.22321 20.782 5.22321 21.0582C5.22321 21.3343 5.44707 21.5582 5.72321 21.5582V20.5582ZM9.20536 21.5582C9.4815 21.5582 9.70536 21.3343 9.70536 21.0582C9.70536 20.782 9.4815 20.5582 9.20536 20.5582V21.5582ZM12.6875 20.5582C12.4114 20.5582 12.1875 20.782 12.1875 21.0582C12.1875 21.3343 12.4114 21.5582 12.6875 21.5582V20.5582ZM16.1696 21.5582C16.4458 21.5582 16.6696 21.3343 16.6696 21.0582C16.6696 20.782 16.4458 20.5582 16.1696 20.5582V21.5582ZM5.72321 23.8919C5.44707 23.8919 5.22321 24.1158 5.22321 24.3919C5.22321 24.6681 5.44707 24.8919 5.72321 24.8919V23.8919ZM9.20536 24.8919C9.4815 24.8919 9.70536 24.6681 9.70536 24.3919C9.70536 24.1158 9.4815 23.8919 9.20536 23.8919V24.8919ZM12.6875 23.8919C12.4114 23.8919 12.1875 24.1158 12.1875 24.3919C12.1875 24.6681 12.4114 24.8919 12.6875 24.8919V23.8919ZM16.1696 24.8919C16.4458 24.8919 16.6696 24.6681 16.6696 24.3919C16.6696 24.1158 16.4458 23.8919 16.1696 23.8919V24.8919ZM20.2321 1.61125H20.7321V1.11125H20.2321V1.61125ZM20.2321 3.83376V4.33376H20.7321V3.83376H20.2321ZM1.66071 3.83376H1.16071V4.33376H1.66071V3.83376ZM1.66071 1.61125V1.11125H1.16071V1.61125H1.66071ZM63.1786 22.7251H63.6786V22.2251H63.1786V22.7251ZM63.1786 46.0614V46.5614H63.6786V46.0614H63.1786ZM31.8393 46.0614H31.3393V46.5614H31.8393V46.0614ZM31.8393 22.7251V22.2251H31.3393V22.7251H31.8393ZM64.3393 19.3913H64.8393V18.8913H64.3393V19.3913ZM64.3393 21.6138V22.1138H64.8393V21.6138H64.3393ZM30.6786 21.6138H30.1786V22.1138H30.6786V21.6138ZM30.6786 19.3913V18.8913H30.1786V19.3913H30.6786ZM50.4107 46.0614V46.5614H50.9107V46.0614H50.4107ZM44.6071 46.0614H44.1071V46.5614H44.6071V46.0614ZM30.6786 14.8908C30.4024 14.8908 30.1786 15.1147 30.1786 15.3908C30.1786 15.667 30.4024 15.8908 30.6786 15.8908V14.8908ZM64.3393 15.8908C64.6154 15.8908 64.8393 15.667 64.8393 15.3908C64.8393 15.1147 64.6154 14.8908 64.3393 14.8908V15.8908ZM31.7589 15.5019C31.7589 15.2258 31.5351 15.0019 31.2589 15.0019C30.9828 15.0019 30.7589 15.2258 30.7589 15.5019H31.7589ZM30.7589 18.2801C30.7589 18.5562 30.9828 18.7801 31.2589 18.7801C31.5351 18.7801 31.7589 18.5562 31.7589 18.2801H30.7589ZM36.4018 15.5019C36.4018 15.2258 36.1779 15.0019 35.9018 15.0019C35.6256 15.0019 35.4018 15.2258 35.4018 15.5019H36.4018ZM35.4018 18.2801C35.4018 18.5562 35.6256 18.7801 35.9018 18.7801C36.1779 18.7801 36.4018 18.5562 36.4018 18.2801H35.4018ZM41.0446 15.5019C41.0446 15.2258 40.8208 15.0019 40.5446 15.0019C40.2685 15.0019 40.0446 15.2258 40.0446 15.5019H41.0446ZM40.0446 18.2801C40.0446 18.5562 40.2685 18.7801 40.5446 18.7801C40.8208 18.7801 41.0446 18.5562 41.0446 18.2801H40.0446ZM45.6875 15.5019C45.6875 15.2258 45.4636 15.0019 45.1875 15.0019C44.9114 15.0019 44.6875 15.2258 44.6875 15.5019H45.6875ZM44.6875 18.2801C44.6875 18.5562 44.9114 18.7801 45.1875 18.7801C45.4636 18.7801 45.6875 18.5562 45.6875 18.2801H44.6875ZM50.3304 15.5019C50.3304 15.2258 50.1065 15.0019 49.8304 15.0019C49.5542 15.0019 49.3304 15.2258 49.3304 15.5019H50.3304ZM49.3304 18.2801C49.3304 18.5562 49.5542 18.7801 49.8304 18.7801C50.1065 18.7801 50.3304 18.5562 50.3304 18.2801H49.3304ZM54.9732 15.5019C54.9732 15.2258 54.7494 15.0019 54.4732 15.0019C54.1971 15.0019 53.9732 15.2258 53.9732 15.5019H54.9732ZM53.9732 18.2801C53.9732 18.5562 54.1971 18.7801 54.4732 18.7801C54.7494 18.7801 54.9732 18.5562 54.9732 18.2801H53.9732ZM59.6161 15.5019C59.6161 15.2258 59.3922 15.0019 59.1161 15.0019C58.8399 15.0019 58.6161 15.2258 58.6161 15.5019H59.6161ZM58.6161 18.2801C58.6161 18.5562 58.8399 18.7801 59.1161 18.7801C59.3922 18.7801 59.6161 18.5562 59.6161 18.2801H58.6161ZM64.375 15.5019C64.375 15.2258 64.1511 15.0019 63.875 15.0019C63.5989 15.0019 63.375 15.2258 63.375 15.5019H64.375ZM63.375 18.2801C63.375 18.5562 63.5989 18.7801 63.875 18.7801C64.1511 18.7801 64.375 18.5562 64.375 18.2801H63.375ZM39.9643 29.3926V29.8926H40.4643V29.3926H39.9643ZM36.4821 29.3926H35.9821V29.8926H36.4821V29.3926ZM49.25 29.3926V29.8926H49.75V29.3926H49.25ZM45.7679 29.3926H45.2679V29.8926H45.7679V29.3926ZM58.5357 29.3926V29.8926H59.0357V29.3926H58.5357ZM55.0536 29.3926H54.5536V29.8926H55.0536V29.3926ZM31.8393 33.8932C31.5631 33.8932 31.3393 34.1171 31.3393 34.3932C31.3393 34.6694 31.5631 34.8932 31.8393 34.8932V33.8932ZM63.1786 34.8932C63.4547 34.8932 63.6786 34.6694 63.6786 34.3932C63.6786 34.1171 63.4547 33.8932 63.1786 33.8932V34.8932ZM20.2321 6.61189V6.11189C20.0041 6.11189 19.805 6.26614 19.748 6.48692C19.691 6.70769 19.7906 6.93905 19.9901 7.04942L20.2321 6.61189ZM35.9018 6.61189H36.4018C36.4018 6.33575 36.1779 6.11189 35.9018 6.11189V6.61189ZM35.9018 15.2797L35.6598 15.7172C35.8146 15.8029 36.0033 15.8003 36.1557 15.7104C36.3082 15.6205 36.4018 15.4567 36.4018 15.2797H35.9018ZM35.3214 6.11189C35.0453 6.11189 34.8214 6.33575 34.8214 6.61189C34.8214 6.88803 35.0453 7.11189 35.3214 7.11189V6.11189ZM37.0625 6.61189V7.11189C37.3386 7.11189 37.5625 6.88803 37.5625 6.61189H37.0625ZM37.0625 3.27813H37.5625C37.5625 3.00199 37.3386 2.77813 37.0625 2.77813V3.27813ZM21.3929 2.77813C21.1167 2.77813 20.8929 3.00199 20.8929 3.27813C20.8929 3.55428 21.1167 3.77813 21.3929 3.77813V2.77813ZM27.1964 38.2826H27.6964V37.7826H27.1964V38.2826ZM27.1964 46.0614V46.5614H27.6964V46.0614H27.1964ZM23.7143 46.0614H23.2143V46.5614H23.7143V46.0614ZM23.7143 38.2826V37.7826H23.2143V38.2826H23.7143ZM24.9554 29.9482C24.9554 30.2243 25.1792 30.4482 25.4554 30.4482C25.7315 30.4482 25.9554 30.2243 25.9554 29.9482H24.9554ZM25.9554 7.16752C25.9554 6.89138 25.7315 6.66752 25.4554 6.66752C25.1792 6.66752 24.9554 6.89138 24.9554 7.16752H25.9554ZM20.2321 29.4482C19.956 29.4482 19.7321 29.6721 19.7321 29.9482C19.7321 30.2243 19.956 30.4482 20.2321 30.4482V29.4482ZM30.6786 30.4482C30.9547 30.4482 31.1786 30.2243 31.1786 29.9482C31.1786 29.6721 30.9547 29.4482 30.6786 29.4482V30.4482ZM20.2321 23.8919C19.956 23.8919 19.7321 24.1158 19.7321 24.3919C19.7321 24.6681 19.956 24.8919 20.2321 24.8919V23.8919ZM30.6786 24.8919C30.9547 24.8919 31.1786 24.6681 31.1786 24.3919C31.1786 24.1158 30.9547 23.8919 30.6786 23.8919V24.8919ZM20.2321 18.3357C19.956 18.3357 19.7321 18.5595 19.7321 18.8357C19.7321 19.1118 19.956 19.3357 20.2321 19.3357V18.3357ZM30.6786 19.3357C30.9547 19.3357 31.1786 19.1118 31.1786 18.8357C31.1786 18.5595 30.9547 18.3357 30.6786 18.3357V19.3357ZM20.2321 13.8907C19.956 13.8907 19.7321 14.1145 19.7321 14.3907C19.7321 14.6668 19.956 14.8907 20.2321 14.8907V13.8907ZM35.3214 14.8907C35.5976 14.8907 35.8214 14.6668 35.8214 14.3907C35.8214 14.1145 35.5976 13.8907 35.3214 13.8907V14.8907ZM20.2321 9.44565C19.956 9.44565 19.7321 9.66951 19.7321 9.94565C19.7321 10.2218 19.956 10.4457 20.2321 10.4457V9.44565ZM35.3214 10.4457C35.5976 10.4457 35.8214 10.2218 35.8214 9.94565C35.8214 9.66951 35.5976 9.44565 35.3214 9.44565V10.4457ZM0.5 47.117H65.5V46.117H0.5V47.117ZM18.5714 4.94501V46.0614H19.5714V4.94501H18.5714ZM19.0714 45.5614H2.82143V46.5614H19.0714V45.5614ZM3.32143 46.0614V4.94501H2.32143V46.0614H3.32143ZM2.82143 5.44501H19.0714V4.44501H2.82143V5.44501ZM19.0714 3.33376H2.82143V4.33376H19.0714V3.33376ZM2.82143 3.33376C2.36595 3.33376 1.94483 3.48074 1.63414 3.77819C1.32148 4.07752 1.16071 4.49129 1.16071 4.94501H2.16071C2.16071 4.73198 2.23209 4.59013 2.32569 4.50052C2.42124 4.40903 2.58047 4.33376 2.82143 4.33376V3.33376ZM1.16071 4.94501V46.0614H2.16071V4.94501H1.16071ZM1.16071 46.0614C1.16071 46.5151 1.32148 46.9289 1.63414 47.2282C1.94483 47.5257 2.36595 47.6726 2.82143 47.6726V46.6726C2.58047 46.6726 2.42124 46.5974 2.32569 46.5059C2.23209 46.4163 2.16071 46.2744 2.16071 46.0614H1.16071ZM2.82143 47.6726H19.0714V46.6726H2.82143V47.6726ZM19.0714 47.6726C19.5269 47.6726 19.948 47.5257 20.2587 47.2282C20.5714 46.9289 20.7321 46.5151 20.7321 46.0614H19.7321C19.7321 46.2744 19.6608 46.4163 19.5672 46.5059C19.4716 46.5974 19.3124 46.6726 19.0714 46.6726V47.6726ZM20.7321 46.0614V4.94501H19.7321V46.0614H20.7321ZM20.7321 4.94501C20.7321 4.49129 20.5714 4.07752 20.2587 3.77819C19.948 3.48074 19.5269 3.33376 19.0714 3.33376V4.33376C19.3124 4.33376 19.4716 4.40903 19.5672 4.50052C19.6608 4.59013 19.7321 4.73198 19.7321 4.94501H20.7321ZM6.38393 42.172V46.617H7.38393V42.172H6.38393ZM8.70536 41.0607C8.70536 41.9998 8.61353 42.7171 8.3481 43.1922C8.22288 43.4163 8.06063 43.5828 7.84431 43.6978C7.62358 43.8152 7.31722 43.8945 6.88393 43.8945V44.8945C7.43724 44.8945 7.91436 44.7932 8.3139 44.5807C8.71783 44.3659 9.01261 44.0531 9.22109 43.6799C9.62308 42.9604 9.70536 42.0108 9.70536 41.0607H8.70536ZM6.88393 43.8945C6.45064 43.8945 6.14428 43.8152 5.92355 43.6978C5.70723 43.5828 5.54498 43.4163 5.41975 43.1922C5.15433 42.7171 5.0625 41.9998 5.0625 41.0607H4.0625C4.0625 42.0108 4.14478 42.9604 4.54676 43.6799C4.75525 44.0531 5.05003 44.3659 5.45396 44.5807C5.85349 44.7932 6.33061 44.8945 6.88393 44.8945V43.8945ZM5.0625 41.0607C5.0625 40.1323 5.15009 39.0956 5.45044 38.308C5.59915 37.918 5.78862 37.62 6.01647 37.4222C6.23449 37.233 6.50947 37.1157 6.88393 37.1157V36.1157C6.27177 36.1157 5.76328 36.3179 5.36104 36.667C4.96864 37.0075 4.70107 37.4665 4.51607 37.9517C4.14901 38.9142 4.0625 40.1 4.0625 41.0607H5.0625ZM6.88393 37.1157C7.25838 37.1157 7.53337 37.233 7.75139 37.4222C7.97924 37.62 8.1687 37.918 8.31741 38.308C8.61776 39.0956 8.70536 40.1323 8.70536 41.0607H9.70536C9.70536 40.1 9.61884 38.9142 9.25178 37.9517C9.06678 37.4665 8.79922 37.0075 8.40681 36.667C8.00457 36.3179 7.49608 36.1157 6.88393 36.1157V37.1157ZM14.5089 42.172V46.617H15.5089V42.172H14.5089ZM16.8304 41.0607C16.8304 41.9998 16.7385 42.7171 16.4731 43.1922C16.3479 43.4163 16.1856 43.5828 15.9693 43.6978C15.7486 43.8152 15.4422 43.8945 15.0089 43.8945V44.8945C15.5622 44.8945 16.0394 44.7932 16.4389 44.5807C16.8428 44.3659 17.1376 44.0531 17.3461 43.6799C17.7481 42.9604 17.8304 42.0108 17.8304 41.0607H16.8304ZM15.0089 43.8945C14.5756 43.8945 14.2693 43.8152 14.0485 43.6978C13.8322 43.5828 13.67 43.4163 13.5448 43.1922C13.2793 42.7171 13.1875 41.9998 13.1875 41.0607H12.1875C12.1875 42.0108 12.2698 42.9604 12.6718 43.6799C12.8802 44.0531 13.175 44.3659 13.579 44.5807C13.9785 44.7932 14.4556 44.8945 15.0089 44.8945V43.8945ZM13.1875 41.0607C13.1875 40.1323 13.2751 39.0956 13.5754 38.308C13.7242 37.918 13.9136 37.62 14.1415 37.4222C14.3595 37.233 14.6345 37.1157 15.0089 37.1157V36.1157C14.3968 36.1157 13.8883 36.3179 13.486 36.667C13.0936 37.0075 12.8261 37.4665 12.6411 37.9517C12.274 38.9142 12.1875 40.1 12.1875 41.0607H13.1875ZM15.0089 37.1157C15.3834 37.1157 15.6584 37.233 15.8764 37.4222C16.1042 37.62 16.2937 37.918 16.4424 38.308C16.7428 39.0956 16.8304 40.1323 16.8304 41.0607H17.8304C17.8304 40.1 17.7438 38.9142 17.3768 37.9517C17.1918 37.4665 16.9242 37.0075 16.5318 36.667C16.1296 36.3179 15.6211 36.1157 15.0089 36.1157V37.1157ZM2.82143 32.6707H19.0714V31.6707H2.82143V32.6707ZM5.72321 8.22315H9.20536V7.22315H5.72321V8.22315ZM12.6875 8.22315H16.1696V7.22315H12.6875V8.22315ZM5.72321 11.5569H9.20536V10.5569H5.72321V11.5569ZM12.6875 11.5569H16.1696V10.5569H12.6875V11.5569ZM5.72321 14.8907H9.20536V13.8907H5.72321V14.8907ZM12.6875 14.8907H16.1696V13.8907H12.6875V14.8907ZM5.72321 18.2244H9.20536V17.2244H5.72321V18.2244ZM12.6875 18.2244H16.1696V17.2244H12.6875V18.2244ZM5.72321 21.5582H9.20536V20.5582H5.72321V21.5582ZM12.6875 21.5582H16.1696V20.5582H12.6875V21.5582ZM5.72321 24.8919H9.20536V23.8919H5.72321V24.8919ZM12.6875 24.8919H16.1696V23.8919H12.6875V24.8919ZM19.7321 1.61125V3.83376H20.7321V1.61125H19.7321ZM20.2321 3.33376H1.66071V4.33376H20.2321V3.33376ZM2.16071 3.83376V1.61125H1.16071V3.83376H2.16071ZM1.66071 2.11125H20.2321V1.11125H1.66071V2.11125ZM20.2321 0H1.66071V1H20.2321V0ZM1.66071 0C1.20524 0 0.784114 0.146977 0.473422 0.44443C0.160769 0.74376 0 1.15753 0 1.61125H1C1 1.39822 1.07137 1.25637 1.16497 1.16676C1.26053 1.07527 1.41976 1 1.66071 1V0ZM0 1.61125V3.83376H1V1.61125H0ZM0 3.83376C0 4.28748 0.160769 4.70125 0.473422 5.00058C0.784114 5.29804 1.20524 5.44501 1.66071 5.44501V4.44501C1.41976 4.44501 1.26053 4.36974 1.16497 4.27825C1.07137 4.18864 1 4.04679 1 3.83376H0ZM1.66071 5.44501H20.2321V4.44501H1.66071V5.44501ZM20.2321 5.44501C20.6876 5.44501 21.1087 5.29804 21.4194 5.00058C21.7321 4.70125 21.8929 4.28748 21.8929 3.83376H20.8929C20.8929 4.04679 20.8215 4.18864 20.7279 4.27825C20.6323 4.36974 20.4731 4.44501 20.2321 4.44501V5.44501ZM21.8929 3.83376V1.61125H20.8929V3.83376H21.8929ZM21.8929 1.61125C21.8929 1.15753 21.7321 0.74376 21.4194 0.44443C21.1087 0.146977 20.6876 0 20.2321 0V1C20.4731 1 20.6323 1.07527 20.7279 1.16676C20.8215 1.25637 20.8929 1.39822 20.8929 1.61125H21.8929ZM62.6786 22.7251V46.0614H63.6786V22.7251H62.6786ZM63.1786 45.5614H31.8393V46.5614H63.1786V45.5614ZM32.3393 46.0614V22.7251H31.3393V46.0614H32.3393ZM31.8393 23.2251H63.1786V22.2251H31.8393V23.2251ZM63.1786 21.1138H31.8393V22.1138H63.1786V21.1138ZM31.8393 21.1138C31.3838 21.1138 30.9627 21.2608 30.652 21.5582C30.3393 21.8576 30.1786 22.2713 30.1786 22.7251H31.1786C31.1786 22.512 31.2499 22.3702 31.3435 22.2806C31.4391 22.1891 31.5983 22.1138 31.8393 22.1138V21.1138ZM30.1786 22.7251V46.0614H31.1786V22.7251H30.1786ZM30.1786 46.0614C30.1786 46.5151 30.3393 46.9289 30.652 47.2282C30.9627 47.5257 31.3838 47.6726 31.8393 47.6726V46.6726C31.5983 46.6726 31.4391 46.5974 31.3435 46.5059C31.2499 46.4163 31.1786 46.2744 31.1786 46.0614H30.1786ZM31.8393 47.6726H63.1786V46.6726H31.8393V47.6726ZM63.1786 47.6726C63.634 47.6726 64.0552 47.5257 64.3659 47.2282C64.6785 46.9289 64.8393 46.5151 64.8393 46.0614H63.8393C63.8393 46.2744 63.7679 46.4163 63.6743 46.5059C63.5788 46.5974 63.4195 46.6726 63.1786 46.6726V47.6726ZM64.8393 46.0614V22.7251H63.8393V46.0614H64.8393ZM64.8393 22.7251C64.8393 22.2713 64.6785 21.8576 64.3659 21.5582C64.0552 21.2608 63.634 21.1138 63.1786 21.1138V22.1138C63.4195 22.1138 63.5788 22.1891 63.6743 22.2806C63.7679 22.3702 63.8393 22.512 63.8393 22.7251H64.8393ZM63.8393 19.3913V21.6138H64.8393V19.3913H63.8393ZM64.3393 21.1138H30.6786V22.1138H64.3393V21.1138ZM31.1786 21.6138V19.3913H30.1786V21.6138H31.1786ZM30.6786 19.8913H64.3393V18.8913H30.6786V19.8913ZM64.3393 17.7801H30.6786V18.7801H64.3393V17.7801ZM30.6786 17.7801C30.2231 17.7801 29.802 17.927 29.4913 18.2245C29.1786 18.5238 29.0179 18.9376 29.0179 19.3913H30.0179C30.0179 19.1783 30.0892 19.0364 30.1828 18.9468C30.2784 18.8553 30.4376 18.7801 30.6786 18.7801V17.7801ZM29.0179 19.3913V21.6138H30.0179V19.3913H29.0179ZM29.0179 21.6138C29.0179 22.0675 29.1786 22.4813 29.4913 22.7806C29.802 23.0781 30.2231 23.2251 30.6786 23.2251V22.2251C30.4376 22.2251 30.2784 22.1498 30.1828 22.0583C30.0892 21.9687 30.0179 21.8268 30.0179 21.6138H29.0179ZM30.6786 23.2251H64.3393V22.2251H30.6786V23.2251ZM64.3393 23.2251C64.7948 23.2251 65.2159 23.0781 65.5266 22.7806C65.8392 22.4813 66 22.0675 66 21.6138H65C65 21.8268 64.9286 21.9687 64.835 22.0583C64.7395 22.1498 64.5802 22.2251 64.3393 22.2251V23.2251ZM66 21.6138V19.3913H65V21.6138H66ZM66 19.3913C66 18.9376 65.8392 18.5238 65.5266 18.2245C65.2159 17.927 64.7948 17.7801 64.3393 17.7801V18.7801C64.5802 18.7801 64.7395 18.8553 64.835 18.9468C64.9286 19.0364 65 19.1783 65 19.3913H66ZM47.5089 38.7826C48.8785 38.7826 49.9107 39.8014 49.9107 41.0607H50.9107C50.9107 39.2085 49.3893 37.7826 47.5089 37.7826V38.7826ZM49.9107 41.0607V46.0614H50.9107V41.0607H49.9107ZM50.4107 45.5614H44.6071V46.5614H50.4107V45.5614ZM45.1071 46.0614V41.0607H44.1071V46.0614H45.1071ZM45.1071 41.0607C45.1071 39.8014 46.1393 38.7826 47.5089 38.7826V37.7826C45.6285 37.7826 44.1071 39.2085 44.1071 41.0607H45.1071ZM47.5089 36.6714C45.0482 36.6714 42.9464 38.6529 42.9464 41.0607H43.9464C43.9464 39.2458 45.559 37.6714 47.5089 37.6714V36.6714ZM42.9464 41.0607V46.0614H43.9464V41.0607H42.9464ZM42.9464 46.0614C42.9464 46.5151 43.1072 46.9289 43.4198 47.2282C43.7305 47.5257 44.1517 47.6726 44.6071 47.6726V46.6726C44.3662 46.6726 44.207 46.5974 44.1114 46.5059C44.0178 46.4163 43.9464 46.2744 43.9464 46.0614H42.9464ZM44.6071 47.6726H50.4107V46.6726H44.6071V47.6726ZM50.4107 47.6726C50.8662 47.6726 51.2873 47.5257 51.598 47.2282C51.9107 46.9289 52.0714 46.5151 52.0714 46.0614H51.0714C51.0714 46.2744 51 46.4163 50.9065 46.5059C50.8109 46.5974 50.6517 46.6726 50.4107 46.6726V47.6726ZM52.0714 46.0614V41.0607H51.0714V46.0614H52.0714ZM52.0714 41.0607C52.0714 38.6529 49.9697 36.6714 47.5089 36.6714V37.6714C49.4589 37.6714 51.0714 39.2458 51.0714 41.0607H52.0714ZM30.6786 15.8908H64.3393V14.8908H30.6786V15.8908ZM30.7589 15.5019V18.2801H31.7589V15.5019H30.7589ZM35.4018 15.5019V18.2801H36.4018V15.5019H35.4018ZM40.0446 15.5019V18.2801H41.0446V15.5019H40.0446ZM44.6875 15.5019V18.2801H45.6875V15.5019H44.6875ZM49.3304 15.5019V18.2801H50.3304V15.5019H49.3304ZM53.9732 15.5019V18.2801H54.9732V15.5019H53.9732ZM58.6161 15.5019V18.2801H59.6161V15.5019H58.6161ZM63.375 15.5019V18.2801H64.375V15.5019H63.375ZM38.2232 26.5588C38.8964 26.5588 39.4643 27.1331 39.4643 27.7257H40.4643C40.4643 26.5403 39.4072 25.5588 38.2232 25.5588V26.5588ZM39.4643 27.7257V29.3926H40.4643V27.7257H39.4643ZM39.9643 28.8926H36.4821V29.8926H39.9643V28.8926ZM36.9821 29.3926V27.7257H35.9821V29.3926H36.9821ZM36.9821 27.7257C36.9821 27.1331 37.55 26.5588 38.2232 26.5588V25.5588C37.0392 25.5588 35.9821 26.5403 35.9821 27.7257H36.9821ZM38.2232 24.4476C36.3428 24.4476 34.8214 25.8735 34.8214 27.7257H35.8214C35.8214 26.4664 36.8536 25.4476 38.2232 25.4476V24.4476ZM34.8214 27.7257V29.3926H35.8214V27.7257H34.8214ZM34.8214 29.3926C34.8214 29.8463 34.9822 30.2601 35.2948 30.5594C35.6055 30.8569 36.0267 31.0038 36.4821 31.0038V30.0038C36.2412 30.0038 36.082 29.9286 35.9864 29.8371C35.8928 29.7475 35.8214 29.6056 35.8214 29.3926H34.8214ZM36.4821 31.0038H39.9643V30.0038H36.4821V31.0038ZM39.9643 31.0038C40.4198 31.0038 40.8409 30.8569 41.1516 30.5594C41.4642 30.2601 41.625 29.8463 41.625 29.3926H40.625C40.625 29.6056 40.5536 29.7475 40.46 29.8371C40.3645 29.9286 40.2052 30.0038 39.9643 30.0038V31.0038ZM41.625 29.3926V27.7257H40.625V29.3926H41.625ZM41.625 27.7257C41.625 25.8735 40.1036 24.4476 38.2232 24.4476V25.4476C39.5928 25.4476 40.625 26.4664 40.625 27.7257H41.625ZM47.5089 26.5588C48.1821 26.5588 48.75 27.1331 48.75 27.7257H49.75C49.75 26.5403 48.6929 25.5588 47.5089 25.5588V26.5588ZM48.75 27.7257V29.3926H49.75V27.7257H48.75ZM49.25 28.8926H45.7679V29.8926H49.25V28.8926ZM46.2679 29.3926V27.7257H45.2679V29.3926H46.2679ZM46.2679 27.7257C46.2679 27.1331 46.8358 26.5588 47.5089 26.5588V25.5588C46.325 25.5588 45.2679 26.5403 45.2679 27.7257H46.2679ZM47.5089 24.4476C45.6285 24.4476 44.1071 25.8735 44.1071 27.7257H45.1071C45.1071 26.4664 46.1393 25.4476 47.5089 25.4476V24.4476ZM44.1071 27.7257V29.3926H45.1071V27.7257H44.1071ZM44.1071 29.3926C44.1071 29.8463 44.2679 30.2601 44.5806 30.5594C44.8913 30.8569 45.3124 31.0038 45.7679 31.0038V30.0038C45.5269 30.0038 45.3677 29.9286 45.2721 29.8371C45.1785 29.7475 45.1071 29.6056 45.1071 29.3926H44.1071ZM45.7679 31.0038H49.25V30.0038H45.7679V31.0038ZM49.25 31.0038C49.7055 31.0038 50.1266 30.8569 50.4373 30.5594C50.7499 30.2601 50.9107 29.8463 50.9107 29.3926H49.9107C49.9107 29.6056 49.8393 29.7475 49.7457 29.8371C49.6502 29.9286 49.491 30.0038 49.25 30.0038V31.0038ZM50.9107 29.3926V27.7257H49.9107V29.3926H50.9107ZM50.9107 27.7257C50.9107 25.8735 49.3893 24.4476 47.5089 24.4476V25.4476C48.8785 25.4476 49.9107 26.4664 49.9107 27.7257H50.9107ZM56.7946 26.5588C57.4678 26.5588 58.0357 27.1331 58.0357 27.7257H59.0357C59.0357 26.5403 57.9786 25.5588 56.7946 25.5588V26.5588ZM58.0357 27.7257V29.3926H59.0357V27.7257H58.0357ZM58.5357 28.8926H55.0536V29.8926H58.5357V28.8926ZM55.5536 29.3926V27.7257H54.5536V29.3926H55.5536ZM55.5536 27.7257C55.5536 27.1331 56.1215 26.5588 56.7946 26.5588V25.5588C55.6107 25.5588 54.5536 26.5403 54.5536 27.7257H55.5536ZM56.7946 24.4476C54.9142 24.4476 53.3929 25.8735 53.3929 27.7257H54.3929C54.3929 26.4664 55.425 25.4476 56.7946 25.4476V24.4476ZM53.3929 27.7257V29.3926H54.3929V27.7257H53.3929ZM53.3929 29.3926C53.3929 29.8463 53.5536 30.2601 53.8663 30.5594C54.177 30.8569 54.5981 31.0038 55.0536 31.0038V30.0038C54.8126 30.0038 54.6534 29.9286 54.5578 29.8371C54.4642 29.7475 54.3929 29.6056 54.3929 29.3926H53.3929ZM55.0536 31.0038H58.5357V30.0038H55.0536V31.0038ZM58.5357 31.0038C58.9912 31.0038 59.4123 30.8569 59.723 30.5594C60.0357 30.2601 60.1964 29.8463 60.1964 29.3926H59.1964C59.1964 29.6056 59.125 29.7475 59.0315 29.8371C58.9359 29.9286 58.7767 30.0038 58.5357 30.0038V31.0038ZM60.1964 29.3926V27.7257H59.1964V29.3926H60.1964ZM60.1964 27.7257C60.1964 25.8735 58.675 24.4476 56.7946 24.4476V25.4476C58.1642 25.4476 59.1964 26.4664 59.1964 27.7257H60.1964ZM31.8393 34.8932H63.1786V33.8932H31.8393V34.8932ZM20.2321 7.11189H35.9018V6.11189H20.2321V7.11189ZM35.4018 6.61189V15.2797H36.4018V6.61189H35.4018ZM36.1438 14.8421L20.4742 6.17437L19.9901 7.04942L35.6598 15.7172L36.1438 14.8421ZM35.3214 7.11189H37.0625V6.11189H35.3214V7.11189ZM37.5625 6.61189V3.27813H36.5625V6.61189H37.5625ZM37.0625 2.77813H21.3929V3.77813H37.0625V2.77813ZM26.6964 38.2826V46.0614H27.6964V38.2826H26.6964ZM27.1964 45.5614H23.7143V46.5614H27.1964V45.5614ZM24.2143 46.0614V38.2826H23.2143V46.0614H24.2143ZM23.7143 38.7826H27.1964V37.7826H23.7143V38.7826ZM27.1964 36.6714H23.7143V37.6714H27.1964V36.6714ZM23.7143 36.6714C23.2588 36.6714 22.8377 36.8183 22.527 37.1158C22.2143 37.4151 22.0536 37.8289 22.0536 38.2826H23.0536C23.0536 38.0696 23.1249 37.9277 23.2185 37.8381C23.3141 37.7466 23.4733 37.6714 23.7143 37.6714V36.6714ZM22.0536 38.2826V46.0614H23.0536V38.2826H22.0536ZM22.0536 46.0614C22.0536 46.5151 22.2143 46.9289 22.527 47.2282C22.8377 47.5257 23.2588 47.6726 23.7143 47.6726V46.6726C23.4733 46.6726 23.3141 46.5974 23.2185 46.5059C23.1249 46.4163 23.0536 46.2744 23.0536 46.0614H22.0536ZM23.7143 47.6726H27.1964V46.6726H23.7143V47.6726ZM27.1964 47.6726C27.6519 47.6726 28.073 47.5257 28.3837 47.2282C28.6964 46.9289 28.8571 46.5151 28.8571 46.0614H27.8571C27.8571 46.2744 27.7858 46.4163 27.6922 46.5059C27.5966 46.5974 27.4374 46.6726 27.1964 46.6726V47.6726ZM28.8571 46.0614V38.2826H27.8571V46.0614H28.8571ZM28.8571 38.2826C28.8571 37.8289 28.6964 37.4151 28.3837 37.1158C28.073 36.8183 27.6519 36.6714 27.1964 36.6714V37.6714C27.4374 37.6714 27.5966 37.7466 27.6922 37.8381C27.7858 37.9277 27.8571 38.0696 27.8571 38.2826H28.8571ZM25.9554 29.9482V7.16752H24.9554V29.9482H25.9554ZM20.2321 30.4482H30.6786V29.4482H20.2321V30.4482ZM20.2321 24.8919H30.6786V23.8919H20.2321V24.8919ZM20.2321 19.3357H30.6786V18.3357H20.2321V19.3357ZM20.2321 14.8907H35.3214V13.8907H20.2321V14.8907ZM20.2321 10.4457H35.3214V9.44565H20.2321V10.4457Z" fill="#827AC7"/>
</svg>
