<svg width="28" height="25" viewBox="0 0 28 25" fill="none" xmlns="http://www.w3.org/2000/svg">
<path fill-rule="evenodd" clip-rule="evenodd" d="M0 2.82522C0 1.2649 1.31815 0 2.94433 0H18.5223C20.1484 0 21.4667 1.2649 21.4667 2.82522V12.2914C21.4664 12.2917 21.4661 12.292 21.4657 12.2923C19.1911 14.4692 14.4624 18.9966 13.744 19.6909C12.8461 20.5589 12.6414 21.8386 12.6216 22.0984C12.6102 22.2462 12.5512 22.774 12.4934 23.2907C12.4496 23.6817 12.4065 24.0664 12.3855 24.2754C12.3572 24.555 12.3778 24.7618 12.4284 24.9348H2.94433C1.31815 24.9348 0 23.6699 0 22.1096V2.82522ZM3.38915 5.63036C3.38915 5.00622 3.91644 4.50026 4.5669 4.50026H16.8992C17.5496 4.50026 18.0769 5.00622 18.0769 5.63036C18.0769 6.25443 17.5496 6.76039 16.8992 6.76039H4.5669C3.91644 6.76039 3.38915 6.25443 3.38915 5.63036ZM4.5669 9.07936C3.91644 9.07936 3.38915 9.58532 3.38915 10.2095C3.38915 10.8336 3.91644 11.3396 4.5669 11.3396H16.8992C17.5496 11.3396 18.0769 10.8336 18.0769 10.2095C18.0769 9.58532 17.5496 9.07936 16.8992 9.07936H4.5669ZM3.38915 14.7886C3.38915 14.1645 3.91644 13.6585 4.5669 13.6585H10.7174C11.3678 13.6585 11.8951 14.1645 11.8951 14.7886C11.8951 15.4127 11.3678 15.9187 10.7174 15.9187H4.5669C3.91644 15.9187 3.38915 15.4127 3.38915 14.7886Z" fill="white"/>
<path d="M27.5121 12.1356C26.8615 11.3906 25.8067 11.3906 25.1561 12.1356L23.3333 14.2226L25.6893 16.92L27.5121 14.833C28.1626 14.0881 28.1626 12.8804 27.5121 12.1356Z" fill="white"/>
<path d="M24.2667 17.7463L21.5153 15.139L15.2418 21.0843C14.8746 21.4322 14.6144 21.8683 14.4892 22.3458L14.0209 24.1302C13.8942 24.6127 14.365 25.045 14.87 24.9097L16.7131 24.416C17.1845 24.2897 17.6138 24.0511 17.9602 23.7228L24.2667 17.7463Z" fill="white"/>
</svg>
