<svg width="105" height="126" viewBox="0 0 105 126" fill="none" xmlns="http://www.w3.org/2000/svg">
<path d="M86.9556 67.7682L52.4998 80.2325L18.044 67.7682C17.69 67.6402 17.383 67.4248 17.158 67.1467C16.9331 66.8685 16.7992 66.5388 16.7717 66.1952C16.7443 65.8516 16.8243 65.5079 17.0027 65.2034C17.1811 64.8989 17.4506 64.6459 17.7806 64.4732C20.3528 63.127 22.4461 61.1452 23.8145 58.7608C25.1829 56.3765 25.7694 53.6887 25.5051 51.0135L24.0622 36.4046V25.6946C24.0623 18.8799 27.0584 12.3444 32.3915 7.52575C37.7245 2.70709 44.9577 -3.16469e-10 52.4998 0C60.0419 0 67.2751 2.70712 72.6082 7.52583C77.9413 12.3445 80.9374 18.8801 80.9374 25.6948V36.4049L79.4944 51.0137C79.2301 53.6889 79.8167 56.3767 81.1851 58.7611C82.5534 61.1454 84.6468 63.1272 87.219 64.4735C87.5489 64.6461 87.8185 64.8991 87.9969 65.2036C88.1753 65.5081 88.2554 65.8517 88.228 66.1953C88.2005 66.539 88.0667 66.8687 87.8417 67.1469C87.6168 67.425 87.3098 67.6404 86.9558 67.7685L86.9556 67.7682Z" fill="#343C4A"/>
<path d="M105 123.444V92.473C105 89.6907 104.135 86.9644 102.504 84.6043C100.874 82.2442 98.5424 80.3453 95.7758 79.1237L67.5953 66.6802C66.6731 66.273 65.896 65.6401 65.3524 64.8534C64.8088 64.0668 64.5206 63.1581 64.5205 62.2307V53.8016H40.4792V62.2307C40.4792 63.1581 40.191 64.0669 39.6474 64.8536C39.1038 65.6403 38.3267 66.2732 37.4045 66.6804L9.22395 79.1239C6.45742 80.3455 4.12607 82.2444 2.49533 84.6044C0.864603 86.9645 1.38113e-05 89.6908 0 92.473V123.444C0 124.101 0.288747 124.731 0.80272 125.195C1.31669 125.66 2.01379 125.921 2.74066 125.921H102.259C102.986 125.921 103.683 125.66 104.197 125.195C104.711 124.731 105 124.101 105 123.444H105Z" fill="#343C4A"/>
<path d="M67.5953 66.6804C66.6731 66.2732 65.896 65.6402 65.3524 64.8534C64.8088 64.0668 64.5206 63.1581 64.5205 62.2307V53.8016H40.4792V62.2307C40.4792 63.1581 40.191 64.0669 39.6474 64.8536C39.1038 65.6403 38.3267 66.2732 37.4045 66.6804C37.3264 67.7452 37.1768 71.7071 40.2474 75.2356C44.6916 80.3423 51.8828 79.946 52.5 79.9025C55.9119 79.8323 59.2051 78.7569 61.8783 76.84C67.0485 73.0713 67.5306 67.6083 67.5953 66.6804Z" fill="#F9BEAC"/>
<path d="M73.1062 106.255L66.0186 109.355C65.8145 109.444 65.5921 109.495 65.3654 109.502C65.1388 109.51 64.9128 109.476 64.7016 109.401C64.4905 109.326 64.2988 109.213 64.1385 109.068C63.9783 108.923 63.8529 108.749 63.7704 108.558L51.5255 80.2229L52.4998 79.5667L59.7669 77.5128L73.8744 104.279C74.0611 104.634 74.0851 105.04 73.9412 105.411C73.7973 105.781 73.4971 106.085 73.1062 106.255V106.255Z" fill="#F9F7F8"/>
<path d="M31.8933 106.255L38.9809 109.355C39.1851 109.444 39.4075 109.495 39.6341 109.502C39.8608 109.51 40.0867 109.476 40.2979 109.401C40.509 109.326 40.7008 109.213 40.861 109.068C41.0213 108.923 41.1466 108.749 41.2291 108.558L53.4741 80.2229L52.4998 79.5667L45.2326 77.5128L31.1251 104.279C30.9384 104.634 30.9144 105.04 31.0583 105.411C31.2022 105.781 31.5024 106.085 31.8933 106.255V106.255Z" fill="#F9F7F8"/>
<path d="M67.4089 65.1993C67.212 65.0605 66.9769 64.973 66.7289 64.9463C66.481 64.9195 66.2296 64.9545 66.0021 65.0475C65.7746 65.1405 65.5795 65.288 65.438 65.4739C65.2966 65.6598 65.214 65.8772 65.1994 66.1024C65.0488 68.4759 64.2622 70.7807 62.9074 72.8187C59.4421 77.9957 53.6234 79.3297 52.4998 79.5664L69.7124 85.8984C70.0392 86.0186 70.3964 86.0551 70.7446 86.0038C71.0928 85.9525 71.4187 85.8154 71.6863 85.6076L71.6917 85.6032C73.1155 84.498 74.2498 83.1209 75.0126 81.5713C75.7755 80.0217 76.1479 78.3383 76.103 76.6429C76.058 74.9474 75.5968 73.2821 74.7527 71.7673C73.9086 70.2525 72.7027 68.926 71.222 67.8836L67.4089 65.1993ZM37.5906 65.1993C37.7875 65.0605 38.0226 64.973 38.2706 64.9463C38.5185 64.9195 38.7699 64.9545 38.9974 65.0475C39.2249 65.1405 39.42 65.288 39.5615 65.4739C39.7029 65.6598 39.7855 65.8772 39.8001 66.1024C39.9508 68.4759 40.7373 70.7807 42.0921 72.8187C45.5574 77.9957 51.3764 79.3297 52.4998 79.5664L35.2871 85.8984C34.9603 86.0186 34.6031 86.0551 34.2549 86.0038C33.9067 85.9525 33.5808 85.8154 33.3132 85.6076L33.3078 85.6032C31.884 84.498 30.7497 83.1209 29.9869 81.5713C29.224 80.0217 28.8516 78.3383 28.8965 76.6429C28.9415 74.9474 29.4027 73.2821 30.2468 71.7673C31.0909 70.2525 32.2968 68.926 33.7775 67.8836L37.5906 65.1993Z" fill="#EAEAEA"/>
<path d="M64.5205 62.2307V53.8016H40.4792V62.2307C40.4782 62.5365 40.4459 62.8416 40.3825 63.142C44.3273 66.0983 49.2932 67.7132 54.4182 67.7066C58.302 67.7105 62.1172 66.7819 65.4732 65.0158C64.8533 64.1951 64.5213 63.2246 64.5206 62.2309L64.5205 62.2307Z" fill="#E58A7B"/>
<path d="M30.4725 42.6034V27.0192C30.4728 26.7888 30.5239 26.5608 30.6227 26.3484C30.7216 26.1361 30.8662 25.9436 31.0482 25.7823C31.2302 25.621 31.446 25.4941 31.6829 25.4089C31.9198 25.3237 32.1731 25.282 32.428 25.2862C38.0418 25.3672 43.6359 24.6647 49.0125 23.2036C53.7063 21.9255 58.1878 20.0809 62.3357 17.7198C62.6918 17.5185 63.1199 17.4484 63.5316 17.5239C63.9433 17.5993 64.3073 17.8147 64.5485 18.1254C66.8052 21.0118 69.8622 23.3113 73.4129 24.7932C73.7455 24.9319 74.0272 25.1537 74.2246 25.4325C74.4221 25.7113 74.527 26.0354 74.5269 26.3664V42.6034C74.5269 47.8819 72.2062 52.9442 68.0753 56.6767C63.9444 60.4092 58.3417 62.5061 52.4997 62.5061C46.6578 62.5061 41.0551 60.4092 36.9241 56.6767C32.7933 52.9442 30.4725 47.8819 30.4725 42.6034Z" fill="#F9BEAC"/>
<path d="M52.5003 55.5005C51.0104 55.4987 49.5392 55.1996 48.192 54.6247C48.0762 54.5771 47.9719 54.5092 47.8854 54.4248C47.7989 54.3405 47.7319 54.2415 47.6881 54.1335C47.6444 54.0255 47.6249 53.9108 47.6307 53.7959C47.6365 53.6811 47.6676 53.5684 47.7221 53.4645C47.7766 53.3606 47.8534 53.2675 47.9481 53.1907C48.0428 53.1139 48.1534 53.0549 48.2736 53.0171C48.3938 52.9793 48.5211 52.9635 48.6481 52.9706C48.7751 52.9777 48.8993 53.0075 49.0134 53.0584C50.1037 53.5236 51.2943 53.7656 52.5 53.7671H52.5247C53.722 53.7622 54.9035 53.5202 55.9862 53.0581C56.2161 52.9597 56.4798 52.9478 56.7195 53.0251C56.9591 53.1024 57.1549 53.2625 57.2638 53.4702C57.3728 53.6779 57.386 53.9163 57.3004 54.1328C57.2149 54.3493 57.0377 54.5262 56.8078 54.6247C55.4699 55.1954 54.0099 55.4944 52.5305 55.5005H52.5003ZM55.9815 44.0191V45.8322C55.9814 46.6663 55.6147 47.4662 54.962 48.056C54.3092 48.6457 53.424 48.9771 52.5009 48.9772H52.4989C51.5758 48.9772 50.6905 48.6458 50.0377 48.0561C49.3849 47.4663 49.0181 46.6663 49.018 45.8322V44.0191C49.018 43.822 49.1047 43.6331 49.2588 43.4938C49.413 43.3544 49.6222 43.2762 49.8402 43.2762H55.1593C55.3774 43.2762 55.5865 43.3544 55.7407 43.4938C55.8949 43.6331 55.9815 43.822 55.9815 44.0191ZM74.527 31.4173H79.0189C79.5277 31.4173 80.0157 31.6 80.3755 31.925C80.7352 32.2501 80.9374 32.691 80.9374 33.1507V35.7905C80.9374 37.3267 80.262 38.7999 79.0598 39.8861C77.8576 40.9724 76.2271 41.5826 74.527 41.5826V31.4173ZM30.4726 41.5826C28.7724 41.5826 27.1419 40.9724 25.9397 39.8861C24.7375 38.7999 24.0622 37.3267 24.0622 35.7905V33.1507C24.0622 32.691 24.2643 32.2501 24.6241 31.925C24.9839 31.6 25.4718 31.4173 25.9806 31.4173H30.4726V41.5826Z" fill="#E58A7B"/>
<path d="M65.2564 33.9157C65.1318 33.9156 65.0083 33.8936 64.893 33.8508C63.9333 33.4961 62.9028 33.3243 61.8662 33.3462C60.9569 33.3666 60.0595 33.5376 59.2185 33.8506C58.9831 33.9379 58.719 33.9372 58.4843 33.8485C58.2495 33.7599 58.0633 33.5906 57.9667 33.378C57.87 33.1653 57.8709 32.9267 57.9689 32.7146C58.067 32.5024 58.2544 32.3342 58.4897 32.2469C60.7738 31.3983 63.3363 31.3983 65.6204 32.2469C65.8261 32.323 65.9962 32.4613 66.1015 32.6382C66.2069 32.8151 66.241 33.0195 66.198 33.2166C66.155 33.4136 66.0376 33.5911 65.8659 33.7186C65.6941 33.8461 65.4787 33.9158 65.2564 33.9157ZM62.0553 38.3005C61.8009 38.3005 61.5569 38.2092 61.377 38.0467C61.1972 37.8841 61.0961 37.6637 61.0961 37.4338V35.5932C61.0961 35.3633 61.1972 35.1428 61.377 34.9803C61.5569 34.8178 61.8009 34.7265 62.0553 34.7265C62.3097 34.7265 62.5537 34.8178 62.7336 34.9803C62.9135 35.1428 63.0146 35.3633 63.0146 35.5932V37.4338C63.0146 37.6637 62.9135 37.8841 62.7336 38.0467C62.5537 38.2092 62.3097 38.3005 62.0553 38.3005ZM46.145 33.9157C46.0203 33.9156 45.8969 33.8936 45.7816 33.8508C44.822 33.4961 43.7916 33.3242 42.7551 33.3462C41.8457 33.3666 40.9482 33.5376 40.1071 33.8506C39.9905 33.8938 39.8657 33.9159 39.7397 33.9155C39.6138 33.9151 39.4891 33.8923 39.3729 33.8484C39.2566 33.8045 39.1511 33.7404 39.0623 33.6596C38.9735 33.5789 38.9032 33.4831 38.8554 33.3778C38.7588 33.1652 38.7597 32.9266 38.8578 32.7145C38.9559 32.5024 39.1432 32.3342 39.3786 32.2469C41.6627 31.3983 44.2251 31.3983 46.5092 32.2469C46.715 32.323 46.8851 32.4614 46.9904 32.6382C47.0958 32.8151 47.1299 33.0196 47.0869 33.2167C47.0438 33.4138 46.9264 33.5912 46.7546 33.7187C46.5828 33.8462 46.3673 33.9159 46.145 33.9157ZM42.9439 38.3005C42.6895 38.3005 42.4455 38.2092 42.2656 38.0467C42.0857 37.8841 41.9847 37.6637 41.9847 37.4338V35.5932C41.9847 35.3633 42.0857 35.1428 42.2656 34.9803C42.4455 34.8178 42.6895 34.7265 42.9439 34.7265C43.1983 34.7265 43.4423 34.8178 43.6222 34.9803C43.8021 35.1428 43.9031 35.3633 43.9031 35.5932V37.4338C43.9031 37.6637 43.8021 37.8841 43.6222 38.0467C43.4423 38.2092 43.1983 38.3005 42.9439 38.3005Z" fill="#343C4A"/>
<path d="M52.4998 31.6159C52.2454 31.6159 52.0014 31.5246 51.8215 31.3621C51.6416 31.1995 51.5405 30.9791 51.5405 30.7492V28.9086C51.5405 28.6787 51.6416 28.4583 51.8215 28.2957C52.0014 28.1332 52.2454 28.0419 52.4998 28.0419C52.7542 28.0419 52.9981 28.1332 53.178 28.2957C53.3579 28.4583 53.459 28.6787 53.459 28.9086V30.7492C53.459 30.9791 53.3579 31.1995 53.178 31.3621C52.9981 31.5246 52.7542 31.6159 52.4998 31.6159Z" fill="#D34342"/>
<path d="M89.1516 125.921C88.9987 125.921 88.848 125.888 88.7122 125.824C88.5763 125.761 88.4591 125.669 88.3705 125.557C88.2818 125.444 88.2242 125.314 88.2024 125.177C88.1806 125.04 88.1953 124.901 88.2453 124.77C90.1178 119.855 90.18 114.524 88.4226 109.573L87.8005 107.833C87.2397 106.264 86.954 104.626 86.9536 102.978V98.483C86.9536 98.2532 87.0547 98.0327 87.2346 97.8702C87.4145 97.7076 87.6584 97.6163 87.9128 97.6163C88.1672 97.6163 88.4112 97.7076 88.5911 97.8702C88.771 98.0327 88.8721 98.2532 88.8721 98.483V102.978C88.8725 104.445 89.127 105.904 89.6263 107.3L90.2484 109.041C92.1327 114.349 92.0659 120.066 90.0582 125.337C89.9929 125.508 89.8705 125.655 89.708 125.76C89.5456 125.865 89.3511 125.921 89.1516 125.921ZM15.85 125.921C15.6507 125.921 15.4564 125.865 15.294 125.76C15.1317 125.656 15.0093 125.508 14.944 125.338C12.9335 120.067 12.8659 114.349 14.7513 109.041L15.3729 107.3C15.8721 105.903 16.1265 104.445 16.1268 102.978V98.483C16.1268 98.2532 16.2279 98.0327 16.4078 97.8702C16.5877 97.7076 16.8317 97.6163 17.0861 97.6163C17.3405 97.6163 17.5845 97.7076 17.7643 97.8702C17.9442 98.0327 18.0453 98.2532 18.0453 98.483V102.978C18.045 104.626 17.7594 106.264 17.1987 107.832L16.5766 109.573C14.8187 114.524 14.8817 119.855 16.7564 124.77C16.8063 124.901 16.821 125.04 16.7992 125.177C16.7774 125.314 16.7198 125.444 16.6312 125.556C16.5425 125.669 16.4254 125.761 16.2895 125.824C16.1536 125.888 16.003 125.921 15.85 125.921Z" fill="#243047"/>
</svg>
