<svg width="28" height="25" viewBox="0 0 28 25" fill="none" xmlns="http://www.w3.org/2000/svg">
<path d="M18.1879 5.67245H23.2127L22.1038 6.67635C21.8424 6.91147 21.6957 7.22952 21.6957 7.56104C21.6957 7.89256 21.8424 8.21061 22.1038 8.44573C22.3668 8.67945 22.7226 8.81064 23.0934 8.81064C23.4642 8.81064 23.8199 8.67945 24.0829 8.44573L27.5919 5.30853C27.8533 5.07342 28 4.75537 28 4.42384C28 4.09232 27.8533 3.77427 27.5919 3.53916L24.0829 0.401959C23.8144 0.196377 23.469 0.0889518 23.1158 0.101151C22.7625 0.11335 22.4274 0.244274 22.1774 0.467761C21.9275 0.691248 21.781 0.990837 21.7674 1.30666C21.7537 1.62248 21.8739 1.93128 22.1038 2.17134L23.2127 3.16269H18.1879C17.8156 3.16269 17.4586 3.2949 17.1954 3.53024C16.9321 3.76557 16.7843 4.08476 16.7843 4.41757C16.7843 4.75038 16.9321 5.06957 17.1954 5.3049C17.4586 5.54024 17.8156 5.67245 18.1879 5.67245ZM24.504 13.7539C24.1952 13.7539 23.8724 13.666 23.5636 13.6033C22.9383 13.4801 22.3237 13.3165 21.7249 13.1139C21.0737 12.9021 20.358 12.9131 19.7154 13.1448C19.0728 13.3764 18.5487 13.8124 18.244 14.3688L17.9352 14.9334C16.5681 14.2535 15.3119 13.4091 14.2017 12.4237C13.0995 11.4311 12.155 10.308 11.3945 9.08572L11.984 8.73435C12.6063 8.46194 13.0939 7.99338 13.3531 7.41885C13.6122 6.84432 13.6245 6.20441 13.3876 5.62225C13.1647 5.08569 12.9819 4.53653 12.8402 3.97836C12.77 3.70229 12.7139 3.41367 12.6718 3.12505C12.5013 2.24113 11.9835 1.44067 11.2115 0.867819C10.4395 0.294964 9.46416 -0.0126414 8.46103 0.000398177H4.25028C3.64538 -0.00467974 3.04636 0.106829 2.49399 0.327332C1.94163 0.547836 1.44889 0.872157 1.04931 1.27822C0.649743 1.68428 0.352723 2.16255 0.178473 2.68046C0.00422295 3.19837 -0.043165 3.74377 0.039535 4.27953C0.787277 9.5367 3.47274 14.4213 7.67173 18.1618C11.8707 21.9023 17.3439 24.2854 23.2267 24.9348H23.7601C24.7951 24.9362 25.7944 24.5967 26.5672 23.9811C27.0113 23.626 27.366 23.1908 27.6079 22.7041C27.8499 22.2173 27.9736 21.6903 27.9708 21.1576V17.393C27.9536 16.5214 27.5986 15.6821 26.9663 15.0184C26.3341 14.3547 25.4638 13.9077 24.504 13.7539ZM25.2058 21.2831C25.2055 21.4613 25.1628 21.6374 25.0805 21.7997C24.9983 21.9619 24.8783 22.1067 24.7285 22.2243C24.5717 22.3454 24.3883 22.4358 24.1901 22.4898C23.9919 22.5438 23.7833 22.5603 23.5776 22.538C18.3211 21.9354 13.4385 19.7854 9.69999 16.4271C5.96152 13.0688 3.57995 8.69336 2.93091 3.99091C2.90858 3.80709 2.92815 3.62114 2.98846 3.44427C3.04877 3.26741 3.14857 3.10332 3.28181 2.96191C3.41334 2.82805 3.57524 2.72078 3.75675 2.64721C3.93826 2.57364 4.13521 2.53548 4.3345 2.53525H8.54524C8.87164 2.52876 9.19036 2.6242 9.44654 2.80514C9.70273 2.98608 9.88035 3.24121 9.94883 3.52661C10.005 3.86961 10.0751 4.20842 10.1594 4.54306C10.3215 5.20456 10.5373 5.85463 10.805 6.48812L8.84 7.30379C8.67198 7.37271 8.52085 7.47062 8.39528 7.5919C8.26971 7.71319 8.17217 7.85545 8.10827 8.01053C8.04436 8.16561 8.01535 8.33045 8.0229 8.49557C8.03044 8.66071 8.0744 8.82288 8.15224 8.97278C10.1723 12.8413 13.6504 15.9509 17.9773 17.7569C18.319 17.8824 18.7023 17.8824 19.044 17.7569C19.2191 17.7009 19.3799 17.6144 19.5173 17.5024C19.6546 17.3904 19.7657 17.2551 19.8441 17.1044L20.7143 15.3476C21.4399 15.5796 22.1805 15.7723 22.932 15.9248C23.3063 16.0001 23.6852 16.0628 24.0689 16.113C24.3881 16.1743 24.6734 16.3331 24.8758 16.5621C25.0782 16.7911 25.185 17.0761 25.1777 17.3679L25.2058 21.2831Z" fill="white"/>
</svg>
