<svg width="28" height="6" viewBox="0 0 28 6" fill="none" xmlns="http://www.w3.org/2000/svg">
<path d="M10.2744 4.56995C10.4568 4.17332 10.4022 3.68875 10.2511 3.24687C10.0936 2.78604 9.80345 2.2895 9.39476 1.82833C8.58018 0.908871 7.22925 0.0635965 5.40424 0.00294253C3.51471 -0.0597074 2.10274 0.888023 1.23289 1.89397C0.791652 2.40437 0.463635 2.95647 0.257957 3.46443C0.0577514 3.95853 -0.0484545 4.46439 0.0215545 4.86868C0.0539634 5.05629 0.205346 5.21785 0.422809 5.29702C0.640411 5.37631 0.894071 5.36234 1.09554 5.2601C1.65589 4.97579 2.24472 4.5867 2.7888 4.22721C3.03657 4.06343 3.27522 3.90586 3.49745 3.76715C4.28635 3.27471 4.90015 2.99406 5.40916 2.97443C5.89262 2.95569 6.45143 3.1748 7.15531 3.59095C7.40701 3.73987 7.65127 3.89733 7.90422 4.06055C7.99444 4.11865 8.08563 4.17753 8.17865 4.23686C8.5207 4.45519 8.88491 4.67951 9.25207 4.85493C9.43166 4.94086 9.65052 4.9586 9.84848 4.90349C10.0464 4.84827 10.2027 4.72586 10.2744 4.56995ZM17.7255 4.56995C17.5432 4.17332 17.5977 3.68875 17.7488 3.24687C17.9064 2.78604 18.1965 2.2895 18.6052 1.82833C19.4198 0.908871 20.7709 0.0635965 22.5957 0.00294253C24.4853 -0.0597074 25.8972 0.888023 26.7671 1.89397C27.2085 2.40437 27.5363 2.95647 27.7422 3.46443C27.9424 3.95853 28.0484 4.46439 27.9784 4.86868C27.946 5.05629 27.7946 5.21785 27.5772 5.29702C27.3597 5.37631 27.106 5.36234 26.9044 5.2601C26.3442 4.97579 25.7552 4.5867 25.2112 4.22721C24.9634 4.06343 24.7247 3.90586 24.5025 3.76715C23.7136 3.27471 23.0998 2.99406 22.5908 2.97443C22.1075 2.95569 21.5485 3.1748 20.8448 3.59095C20.5931 3.73987 20.3488 3.89733 20.0957 4.06055C20.0057 4.11865 19.9143 4.17753 19.8213 4.23686C19.4793 4.45519 19.1151 4.67951 18.748 4.85493C18.5683 4.94086 18.3496 4.9586 18.1516 4.90349C17.9537 4.84827 17.7974 4.72586 17.7255 4.56995Z" fill="white"/>
</svg>
