<svg width="69" height="48" viewBox="0 0 69 48" fill="none" xmlns="http://www.w3.org/2000/svg">
<path d="M68.6514 23.1599L49.9655 10.7415V3.16252C49.9655 2.32377 49.4642 1.51937 48.5717 0.92628C47.6793 0.333193 46.469 0 45.2069 0H4.75862C3.49656 0 2.28618 0.333193 1.39377 0.92628C0.501353 1.51937 0 2.32377 0 3.16252V39.5315C0 40.3702 0.501353 41.1746 1.39377 41.7677C2.28618 42.3608 3.49656 42.694 4.75862 42.694H41.726L40.4756 46.4771C40.4374 46.5927 40.4386 46.7124 40.4792 46.8276C40.5198 46.9428 40.5988 47.0504 40.7104 47.1426C40.8219 47.2348 40.9631 47.3091 41.1237 47.3602C41.2842 47.4113 41.4599 47.4378 41.6379 47.4378H63.0517C63.3416 47.4377 63.6215 47.3673 63.8388 47.2398C64.0562 47.1122 64.1959 46.9363 64.2319 46.7452L65.3716 40.6897L68.6514 38.5092C68.8745 38.3609 68.9999 38.1599 69 37.9502V23.7189C68.9999 23.5092 68.8745 23.3081 68.6514 23.1599ZM4.75862 41.1127C4.12759 41.1127 3.5224 40.9461 3.07619 40.6496C2.62999 40.353 2.37931 39.9508 2.37931 39.5315V3.16252C2.37931 2.74314 2.62999 2.34094 3.07619 2.0444C3.5224 1.74785 4.12759 1.58126 4.75862 1.58126H45.2069C45.8379 1.58126 46.4431 1.74785 46.8893 2.0444C47.3355 2.34094 47.5862 2.74314 47.5862 3.16252V24.1822L41.7819 20.3247C41.1126 19.88 40.205 19.6302 39.2586 19.6302C38.3123 19.6302 37.4046 19.88 36.7354 20.3247L34.1514 22.042C33.4824 22.4867 33.1065 23.0899 33.1065 23.7189C33.1065 24.3478 33.4824 24.951 34.1514 25.3958L42.9965 31.2741C41.4071 32.4081 40.5009 33.8911 40.4504 35.4405C40.4 36.9899 41.2088 38.4975 42.7229 39.6761L42.2482 41.1127H4.75862ZM66.6207 37.6229L63.4003 39.7631C63.2133 39.8874 63.094 40.0496 63.0612 40.2241L62.0013 45.8565H43.1167L45.1795 39.6105C45.222 39.482 45.2155 39.3484 45.1607 39.2219C45.1059 39.0955 45.0044 38.9801 44.8655 38.8863C44.1716 38.4164 43.633 37.8554 43.2843 37.2392C42.9355 36.623 42.7843 35.9652 42.8403 35.3079C42.8963 34.6506 43.1583 34.0083 43.6095 33.4222C44.0606 32.8361 44.691 32.3191 45.4603 31.9043C45.5897 31.8345 45.6957 31.7474 45.7713 31.6487C45.8468 31.55 45.8904 31.4418 45.899 31.3312C45.9076 31.2205 45.8812 31.11 45.8214 31.0066C45.7616 30.9032 45.6698 30.8093 45.5519 30.731L35.8372 24.2747C35.6141 24.1264 35.4889 23.9254 35.4889 23.7157C35.4889 23.5061 35.6141 23.305 35.8372 23.1567L38.4211 21.4395C38.6442 21.2913 38.9467 21.208 39.2622 21.208C39.5776 21.208 39.8802 21.2913 40.1033 21.4395L51.5073 29.0185L53.1895 27.9005L49.9655 25.7634V21.6743L52.6934 23.4872L54.3756 22.3693L49.9655 19.4384V12.9774L66.6207 24.0462V37.6229Z" fill="#AE8644"/>
<path d="M24.9827 22.9283C28.2136 22.9258 31.3475 22.1942 33.8709 20.8533C36.3944 19.5124 38.1578 17.6417 38.8724 15.5477C39.5869 13.4536 39.2102 11.2604 37.804 9.32721C36.3977 7.39405 34.0453 5.83558 31.1321 4.9071C28.2188 3.97863 24.9175 3.73519 21.7689 4.21667C18.6202 4.69815 15.811 5.876 13.8013 7.55727C11.7916 9.23854 10.7006 11.3236 10.7071 13.4708C10.7135 15.618 11.817 17.7001 13.8368 19.376C15.1738 20.4865 16.8702 21.3825 18.7998 21.9975C20.7294 22.6125 22.8427 22.9306 24.9827 22.9283ZM17.8733 14.2314C17.9225 15.2036 18.0876 16.1718 18.367 17.1267C17.2527 17.3066 16.1668 17.5568 15.124 17.8738C14.0141 16.7898 13.3348 15.5368 13.1492 14.2314H17.8733ZM20.2907 20.6979C18.9734 20.3233 17.7691 19.7932 16.736 19.1333C17.4595 18.9415 18.202 18.783 18.9583 18.6589C19.287 19.3694 19.7339 20.0533 20.2907 20.6979ZM21.3519 18.3688C23.7597 18.1508 26.2009 18.1508 28.6088 18.3688C27.6737 20.2054 26.2913 21.3471 24.9827 21.3471C23.6741 21.3471 22.2917 20.2054 21.3519 18.3688ZM31.0071 18.6581C31.7635 18.782 32.506 18.9405 33.2294 19.1325C32.1964 19.7919 30.992 20.3212 29.6747 20.6948C30.2313 20.0512 30.6782 19.3676 31.0071 18.6581ZM29.6747 6.18357C30.992 6.55822 32.1963 7.08833 33.2294 7.74823C32.5059 7.94003 31.7634 8.09853 31.0071 8.22261C30.6784 7.51213 30.2315 6.82823 29.6747 6.18357ZM28.6135 8.51277C26.2057 8.73072 23.7645 8.73072 21.3566 8.51277C22.2917 6.67614 23.68 5.53447 24.9827 5.53447C26.2854 5.53447 27.6737 6.67614 28.6135 8.51277ZM18.9583 8.22261C18.2019 8.09877 17.4594 7.94026 16.736 7.74823C17.7692 7.0889 18.9736 6.55933 20.2907 6.18516C19.7342 6.82936 19.2873 7.51271 18.9583 8.22261ZM20.7309 10.0498C22.1376 10.1961 23.5588 10.2724 24.9827 10.2782C26.4065 10.2727 27.8277 10.1966 29.2345 10.0505C29.4975 10.9072 29.6566 11.7765 29.7104 12.6501H20.2514C20.3064 11.7765 20.4667 10.9064 20.7309 10.0498ZM29.714 14.2314C29.6602 15.1052 29.5011 15.9748 29.2381 16.8318C26.4186 16.5574 23.554 16.5574 20.7344 16.8318C20.4715 15.9748 20.3124 15.1052 20.2586 14.2314H29.714ZM34.8402 17.8738C33.798 17.5565 32.7124 17.3063 31.5984 17.1267C31.8778 16.1718 32.0429 15.2036 32.0921 14.2314H36.8162C36.6307 15.5369 35.9509 16.79 34.8402 17.8738ZM36.8162 12.6501H32.0921C32.0429 11.6779 31.8778 10.7098 31.5984 9.75485C32.7127 9.57494 33.7986 9.32476 34.8414 9.0077C35.9513 10.0918 36.6306 11.3447 36.8162 12.6501ZM15.1252 9.0077C16.1676 9.32466 17.2531 9.57484 18.367 9.75485C18.0876 10.7098 17.9225 11.6779 17.8733 12.6501H13.1492C13.3347 11.3446 14.0145 10.0915 15.1252 9.0077Z" fill="#AE8644"/>
<path d="M32.1207 25.3001H10.7069V26.8814H32.1207V25.3001Z" fill="#AE8644"/>
<path d="M23.7931 29.2533H10.7069V30.8345H23.7931V29.2533Z" fill="#AE8644"/>
<path d="M38.069 29.2533H26.1724V30.8345H38.069V29.2533Z" fill="#AE8644"/>
<path d="M15.4655 32.4158H10.7069C10.3914 32.4158 10.0888 32.4991 9.86568 32.6474C9.64258 32.7956 9.51724 32.9967 9.51724 33.2064V38.7408H11.8966V37.1596H15.4655C15.781 37.1596 16.0836 37.0763 16.3067 36.928C16.5298 36.7797 16.6552 36.5786 16.6552 36.3689V33.2064C16.6552 32.9967 16.5298 32.7956 16.3067 32.6474C16.0836 32.4991 15.781 32.4158 15.4655 32.4158ZM14.2759 35.5783H11.8966V33.9971H14.2759V35.5783Z" fill="#AE8644"/>
<path d="M23.7931 32.4158H19.0345C18.719 32.4158 18.4164 32.4991 18.1933 32.6474C17.9702 32.7956 17.8448 32.9967 17.8448 33.2064V38.7408H20.2241V37.1596H22.6034V38.7408H24.9828V33.2064C24.9828 32.9967 24.8574 32.7956 24.6343 32.6474C24.4112 32.4991 24.1086 32.4158 23.7931 32.4158ZM20.2241 35.5783V33.9971H22.6034V35.5783H20.2241Z" fill="#AE8644"/>
<path d="M26.1724 33.2064V35.5783C26.1724 35.788 26.2978 35.9891 26.5209 36.1374C26.744 36.2856 27.0466 36.3689 27.3621 36.3689H29.7414V37.1596H26.1724V38.7408H30.931C31.2466 38.7408 31.5491 38.6575 31.7722 38.5093C31.9954 38.361 32.1207 38.1599 32.1207 37.9502V35.5783C32.1207 35.3686 31.9954 35.1675 31.7722 35.0193C31.5491 34.871 31.2466 34.7877 30.931 34.7877H28.5517V33.9971H32.1207V32.4158H27.3621C27.0466 32.4158 26.744 32.4991 26.5209 32.6474C26.2978 32.7956 26.1724 32.9967 26.1724 33.2064Z" fill="#AE8644"/>
<path d="M33.3103 33.2064V35.5783C33.3103 35.788 33.4357 35.9891 33.6588 36.1374C33.8819 36.2856 34.1845 36.3689 34.5 36.3689H36.8793V37.1596H33.3103V38.7408H38.069C38.3845 38.7408 38.6871 38.6575 38.9102 38.5093C39.1333 38.361 39.2586 38.1599 39.2586 37.9502V35.5783C39.2586 35.3686 39.1333 35.1675 38.9102 35.0193C38.6871 34.871 38.3845 34.7877 38.069 34.7877H35.6897V33.9971H39.2586V32.4158H34.5C34.1845 32.4158 33.8819 32.4991 33.6588 32.6474C33.4357 32.7956 33.3103 32.9967 33.3103 33.2064Z" fill="#AE8644"/>
<path d="M5.94828 3.95315H3.56897V38.7408H5.94828V3.95315Z" fill="#AE8644"/>
</svg>
