<svg width="60" height="60" viewBox="0 0 60 60" fill="none" xmlns="http://www.w3.org/2000/svg">
<path d="M0.5 58.7976H59.5H0.5Z" fill="#827AC7"/>
<path d="M17.3571 6.11905V58.0952H2.60714V6.11905H17.3571ZM17.3571 4.71429H2.60714C1.975 4.71429 1.55357 5.27619 1.55357 6.11905V58.0952C1.55357 58.9381 1.975 59.5 2.60714 59.5H17.3571C17.9893 59.5 18.4107 58.9381 18.4107 58.0952V6.11905C18.4107 5.27619 17.9893 4.71429 17.3571 4.71429Z" fill="#827AC7"/>
<path d="M8.40179 51.7738C8.40179 54.1619 8.08571 55.9881 6.29464 55.9881C4.50357 55.9881 4.1875 54.1619 4.1875 51.7738C4.1875 49.3857 4.50357 46.1548 6.29464 46.1548C8.08571 46.1548 8.40179 49.3857 8.40179 51.7738ZM15.7768 51.7738C15.7768 54.1619 15.4607 55.9881 13.6696 55.9881C11.8786 55.9881 11.5625 54.1619 11.5625 51.7738C11.5625 49.3857 11.8786 46.1548 13.6696 46.1548C15.4607 46.1548 15.7768 49.3857 15.7768 51.7738ZM11.5625 30.7024H14.7232H11.5625Z" fill="#827AC7"/>
<path d="M18.4107 1.90476V4.71429H1.55357V1.90476H18.4107ZM18.4107 0.5H1.55357C0.921429 0.5 0.5 1.0619 0.5 1.90476V4.71429C0.5 5.55714 0.921429 6.11905 1.55357 6.11905H18.4107C19.0429 6.11905 19.4643 5.55714 19.4643 4.71429V1.90476C19.4643 1.0619 19.0429 0.5 18.4107 0.5ZM57.3929 28.5952V58.0952H28.9464V28.5952H57.3929ZM57.3929 27.1905H28.9464C28.3143 27.1905 27.8929 27.7524 27.8929 28.5952V58.0952C27.8929 58.9381 28.3143 59.5 28.9464 59.5H57.3929C58.025 59.5 58.4464 58.9381 58.4464 58.0952V28.5952C58.4464 27.7524 58.025 27.1905 57.3929 27.1905Z" fill="#827AC7"/>
<path d="M58.4464 24.381V27.1905H27.8929V24.381H58.4464ZM58.4464 22.9762H27.8929C27.2607 22.9762 26.8393 23.5381 26.8393 24.381V27.1905C26.8393 28.0333 27.2607 28.5952 27.8929 28.5952H58.4464C59.0786 28.5952 59.5 28.0333 59.5 27.1905V24.381C59.5 23.5381 59.0786 22.9762 58.4464 22.9762ZM43.1696 48.2619C44.6446 48.2619 45.8036 49.8071 45.8036 51.7738V58.0952H40.5357V51.7738C40.5357 49.8071 41.6946 48.2619 43.1696 48.2619ZM43.1696 46.8571C41.1679 46.8571 39.4821 49.1048 39.4821 51.7738V58.0952C39.4821 58.9381 39.9036 59.5 40.5357 59.5H45.8036C46.4357 59.5 46.8571 58.9381 46.8571 58.0952V51.7738C46.8571 49.1048 45.1714 46.8571 43.1696 46.8571Z" fill="#827AC7"/>
<path d="M58.025 19.4643V22.9762V19.4643Z" fill="#827AC7"/>
<path d="M34.7411 32.8095C35.5839 32.8095 36.3214 33.7929 36.3214 34.9167V37.0238H33.1607V34.9167C33.1607 33.7929 33.8982 32.8095 34.7411 32.8095ZM34.7411 31.4048C33.2661 31.4048 32.1071 32.95 32.1071 34.9167V37.0238C32.1071 37.8667 32.5286 38.4286 33.1607 38.4286H36.3214C36.9536 38.4286 37.375 37.8667 37.375 37.0238V34.9167C37.375 32.95 36.2161 31.4048 34.7411 31.4048ZM43.1696 32.8095C44.0125 32.8095 44.75 33.7929 44.75 34.9167V37.0238H41.5893V34.9167C41.5893 33.7929 42.3268 32.8095 43.1696 32.8095ZM43.1696 31.4048C41.6946 31.4048 40.5357 32.95 40.5357 34.9167V37.0238C40.5357 37.8667 40.9571 38.4286 41.5893 38.4286H44.75C45.3821 38.4286 45.8036 37.8667 45.8036 37.0238V34.9167C45.8036 32.95 44.6446 31.4048 43.1696 31.4048ZM51.5982 32.8095C52.4411 32.8095 53.1786 33.7929 53.1786 34.9167V37.0238H50.0179V34.9167C50.0179 33.7929 50.7554 32.8095 51.5982 32.8095ZM51.5982 31.4048C50.1232 31.4048 48.9643 32.95 48.9643 34.9167V37.0238C48.9643 37.8667 49.3857 38.4286 50.0179 38.4286H53.1786C53.8107 38.4286 54.2321 37.8667 54.2321 37.0238V34.9167C54.2321 32.95 53.0732 31.4048 51.5982 31.4048Z" fill="#827AC7"/>
<path d="M18.4107 8.22619H32.6339V19.1833L18.4107 8.22619ZM32.1071 8.22619H33.6875V4.01191H19.4643" fill="#827AC7"/>
<path d="M24.7321 48.2619V58.0952H21.5714V48.2619H24.7321ZM24.7321 46.8571H21.5714C20.9393 46.8571 20.5179 47.419 20.5179 48.2619V58.0952C20.5179 58.9381 20.9393 59.5 21.5714 59.5H24.7321C25.3643 59.5 25.7857 58.9381 25.7857 58.0952V48.2619C25.7857 47.419 25.3643 46.8571 24.7321 46.8571Z" fill="#827AC7"/>
<path d="M18.4107 12.4405H32.1071H18.4107Z" fill="#827AC7"/>
<path d="M0.5 58.2976C0.223858 58.2976 0 58.5215 0 58.7976C0 59.0738 0.223858 59.2976 0.5 59.2976V58.2976ZM59.5 59.2976C59.7761 59.2976 60 59.0738 60 58.7976C60 58.5215 59.7761 58.2976 59.5 58.2976V59.2976ZM17.3571 6.11905H17.8571V5.61905H17.3571V6.11905ZM17.3571 58.0952V58.5952H17.8571V58.0952H17.3571ZM2.60714 58.0952H2.10714V58.5952H2.60714V58.0952ZM2.60714 6.11905V5.61905H2.10714V6.11905H2.60714ZM6.79464 53.1786C6.79464 52.9024 6.57079 52.6786 6.29464 52.6786C6.0185 52.6786 5.79464 52.9024 5.79464 53.1786H6.79464ZM5.79464 58.7976C5.79464 59.0738 6.0185 59.2976 6.29464 59.2976C6.57079 59.2976 6.79464 59.0738 6.79464 58.7976H5.79464ZM14.1696 53.1786C14.1696 52.9024 13.9458 52.6786 13.6696 52.6786C13.3935 52.6786 13.1696 52.9024 13.1696 53.1786H14.1696ZM13.1696 58.7976C13.1696 59.0738 13.3935 59.2976 13.6696 59.2976C13.9458 59.2976 14.1696 59.0738 14.1696 58.7976H13.1696ZM2.60714 40.0357C2.331 40.0357 2.10714 40.2596 2.10714 40.5357C2.10714 40.8119 2.331 41.0357 2.60714 41.0357V40.0357ZM17.3571 41.0357C17.6333 41.0357 17.8571 40.8119 17.8571 40.5357C17.8571 40.2596 17.6333 40.0357 17.3571 40.0357V41.0357ZM5.24107 9.13095C4.96493 9.13095 4.74107 9.35481 4.74107 9.63095C4.74107 9.90709 4.96493 10.131 5.24107 10.131V9.13095ZM8.40179 10.131C8.67793 10.131 8.90179 9.90709 8.90179 9.63095C8.90179 9.35481 8.67793 9.13095 8.40179 9.13095V10.131ZM11.5625 9.13095C11.2864 9.13095 11.0625 9.35481 11.0625 9.63095C11.0625 9.90709 11.2864 10.131 11.5625 10.131V9.13095ZM14.7232 10.131C14.9994 10.131 15.2232 9.90709 15.2232 9.63095C15.2232 9.35481 14.9994 9.13095 14.7232 9.13095V10.131ZM5.24107 13.3452C4.96493 13.3452 4.74107 13.5691 4.74107 13.8452C4.74107 14.1214 4.96493 14.3452 5.24107 14.3452V13.3452ZM8.40179 14.3452C8.67793 14.3452 8.90179 14.1214 8.90179 13.8452C8.90179 13.5691 8.67793 13.3452 8.40179 13.3452V14.3452ZM11.5625 13.3452C11.2864 13.3452 11.0625 13.5691 11.0625 13.8452C11.0625 14.1214 11.2864 14.3452 11.5625 14.3452V13.3452ZM14.7232 14.3452C14.9994 14.3452 15.2232 14.1214 15.2232 13.8452C15.2232 13.5691 14.9994 13.3452 14.7232 13.3452V14.3452ZM5.24107 17.5595C4.96493 17.5595 4.74107 17.7834 4.74107 18.0595C4.74107 18.3357 4.96493 18.5595 5.24107 18.5595V17.5595ZM8.40179 18.5595C8.67793 18.5595 8.90179 18.3357 8.90179 18.0595C8.90179 17.7834 8.67793 17.5595 8.40179 17.5595V18.5595ZM11.5625 17.5595C11.2864 17.5595 11.0625 17.7834 11.0625 18.0595C11.0625 18.3357 11.2864 18.5595 11.5625 18.5595V17.5595ZM14.7232 18.5595C14.9994 18.5595 15.2232 18.3357 15.2232 18.0595C15.2232 17.7834 14.9994 17.5595 14.7232 17.5595V18.5595ZM5.24107 21.7738C4.96493 21.7738 4.74107 21.9977 4.74107 22.2738C4.74107 22.55 4.96493 22.7738 5.24107 22.7738V21.7738ZM8.40179 22.7738C8.67793 22.7738 8.90179 22.55 8.90179 22.2738C8.90179 21.9977 8.67793 21.7738 8.40179 21.7738V22.7738ZM11.5625 21.7738C11.2864 21.7738 11.0625 21.9977 11.0625 22.2738C11.0625 22.55 11.2864 22.7738 11.5625 22.7738V21.7738ZM14.7232 22.7738C14.9994 22.7738 15.2232 22.55 15.2232 22.2738C15.2232 21.9977 14.9994 21.7738 14.7232 21.7738V22.7738ZM5.24107 25.9881C4.96493 25.9881 4.74107 26.212 4.74107 26.4881C4.74107 26.7642 4.96493 26.9881 5.24107 26.9881V25.9881ZM8.40179 26.9881C8.67793 26.9881 8.90179 26.7642 8.90179 26.4881C8.90179 26.212 8.67793 25.9881 8.40179 25.9881V26.9881ZM11.5625 25.9881C11.2864 25.9881 11.0625 26.212 11.0625 26.4881C11.0625 26.7642 11.2864 26.9881 11.5625 26.9881V25.9881ZM14.7232 26.9881C14.9994 26.9881 15.2232 26.7642 15.2232 26.4881C15.2232 26.212 14.9994 25.9881 14.7232 25.9881V26.9881ZM5.24107 30.2024C4.96493 30.2024 4.74107 30.4262 4.74107 30.7024C4.74107 30.9785 4.96493 31.2024 5.24107 31.2024V30.2024ZM8.40179 31.2024C8.67793 31.2024 8.90179 30.9785 8.90179 30.7024C8.90179 30.4262 8.67793 30.2024 8.40179 30.2024V31.2024ZM11.5625 30.2024C11.2864 30.2024 11.0625 30.4262 11.0625 30.7024C11.0625 30.9785 11.2864 31.2024 11.5625 31.2024V30.2024ZM14.7232 31.2024C14.9994 31.2024 15.2232 30.9785 15.2232 30.7024C15.2232 30.4262 14.9994 30.2024 14.7232 30.2024V31.2024ZM18.4107 1.90476H18.9107V1.40476H18.4107V1.90476ZM18.4107 4.71429V5.21429H18.9107V4.71429H18.4107ZM1.55357 4.71429H1.05357V5.21429H1.55357V4.71429ZM1.55357 1.90476V1.40476H1.05357V1.90476H1.55357ZM57.3929 28.5952H57.8929V28.0952H57.3929V28.5952ZM57.3929 58.0952V58.5952H57.8929V58.0952H57.3929ZM28.9464 58.0952H28.4464V58.5952H28.9464V58.0952ZM28.9464 28.5952V28.0952H28.4464V28.5952H28.9464ZM58.4464 24.381H58.9464V23.881H58.4464V24.381ZM58.4464 27.1905V27.6905H58.9464V27.1905H58.4464ZM27.8929 27.1905H27.3929V27.6905H27.8929V27.1905ZM27.8929 24.381V23.881H27.3929V24.381H27.8929ZM45.8036 58.0952V58.5952H46.3036V58.0952H45.8036ZM40.5357 58.0952H40.0357V58.5952H40.5357V58.0952ZM27.8929 18.8238C27.6167 18.8238 27.3929 19.0477 27.3929 19.3238C27.3929 19.6 27.6167 19.8238 27.8929 19.8238V18.8238ZM58.4464 19.8238C58.7226 19.8238 58.9464 19.6 58.9464 19.3238C58.9464 19.0477 58.7226 18.8238 58.4464 18.8238V19.8238ZM28.9196 19.4643C28.9196 19.1882 28.6958 18.9643 28.4196 18.9643C28.1435 18.9643 27.9196 19.1882 27.9196 19.4643H28.9196ZM27.9196 22.9762C27.9196 23.2524 28.1435 23.4762 28.4196 23.4762C28.6958 23.4762 28.9196 23.2524 28.9196 22.9762H27.9196ZM33.1339 19.4643C33.1339 19.1882 32.9101 18.9643 32.6339 18.9643C32.3578 18.9643 32.1339 19.1882 32.1339 19.4643H33.1339ZM32.1339 22.9762C32.1339 23.2524 32.3578 23.4762 32.6339 23.4762C32.9101 23.4762 33.1339 23.2524 33.1339 22.9762H32.1339ZM37.3482 19.4643C37.3482 19.1882 37.1244 18.9643 36.8482 18.9643C36.5721 18.9643 36.3482 19.1882 36.3482 19.4643H37.3482ZM36.3482 22.9762C36.3482 23.2524 36.5721 23.4762 36.8482 23.4762C37.1244 23.4762 37.3482 23.2524 37.3482 22.9762H36.3482ZM41.5625 19.4643C41.5625 19.1882 41.3386 18.9643 41.0625 18.9643C40.7864 18.9643 40.5625 19.1882 40.5625 19.4643H41.5625ZM40.5625 22.9762C40.5625 23.2524 40.7864 23.4762 41.0625 23.4762C41.3386 23.4762 41.5625 23.2524 41.5625 22.9762H40.5625ZM45.7768 19.4643C45.7768 19.1882 45.5529 18.9643 45.2768 18.9643C45.0006 18.9643 44.7768 19.1882 44.7768 19.4643H45.7768ZM44.7768 22.9762C44.7768 23.2524 45.0006 23.4762 45.2768 23.4762C45.5529 23.4762 45.7768 23.2524 45.7768 22.9762H44.7768ZM49.9911 19.4643C49.9911 19.1882 49.7672 18.9643 49.4911 18.9643C49.2149 18.9643 48.9911 19.1882 48.9911 19.4643H49.9911ZM48.9911 22.9762C48.9911 23.2524 49.2149 23.4762 49.4911 23.4762C49.7672 23.4762 49.9911 23.2524 49.9911 22.9762H48.9911ZM54.2054 19.4643C54.2054 19.1882 53.9815 18.9643 53.7054 18.9643C53.4292 18.9643 53.2054 19.1882 53.2054 19.4643H54.2054ZM53.2054 22.9762C53.2054 23.2524 53.4292 23.4762 53.7054 23.4762C53.9815 23.4762 54.2054 23.2524 54.2054 22.9762H53.2054ZM58.525 19.4643C58.525 19.1882 58.3011 18.9643 58.025 18.9643C57.7489 18.9643 57.525 19.1882 57.525 19.4643H58.525ZM57.525 22.9762C57.525 23.2524 57.7489 23.4762 58.025 23.4762C58.3011 23.4762 58.525 23.2524 58.525 22.9762H57.525ZM36.3214 37.0238V37.5238H36.8214V37.0238H36.3214ZM33.1607 37.0238H32.6607V37.5238H33.1607V37.0238ZM44.75 37.0238V37.5238H45.25V37.0238H44.75ZM41.5893 37.0238H41.0893V37.5238H41.5893V37.0238ZM53.1786 37.0238V37.5238H53.6786V37.0238H53.1786ZM50.0179 37.0238H49.5179V37.5238H50.0179V37.0238ZM28.9464 42.8452C28.6703 42.8452 28.4464 43.0691 28.4464 43.3452C28.4464 43.6214 28.6703 43.8452 28.9464 43.8452V42.8452ZM57.3929 43.8452C57.669 43.8452 57.8929 43.6214 57.8929 43.3452C57.8929 43.0691 57.669 42.8452 57.3929 42.8452V43.8452ZM18.4107 8.22619V7.72619C18.1967 7.72619 18.0064 7.86241 17.9374 8.06502C17.8684 8.26762 17.936 8.49167 18.1056 8.62228L18.4107 8.22619ZM32.6339 8.22619H33.1339C33.1339 7.95005 32.9101 7.72619 32.6339 7.72619V8.22619ZM32.6339 19.1833L32.3288 19.5794C32.4797 19.6957 32.6837 19.7161 32.8546 19.632C33.0256 19.5479 33.1339 19.3739 33.1339 19.1833H32.6339ZM32.1071 7.72619C31.831 7.72619 31.6071 7.95005 31.6071 8.22619C31.6071 8.50233 31.831 8.72619 32.1071 8.72619V7.72619ZM33.6875 8.22619V8.72619C33.9636 8.72619 34.1875 8.50233 34.1875 8.22619H33.6875ZM33.6875 4.01191H34.1875C34.1875 3.73576 33.9636 3.51191 33.6875 3.51191V4.01191ZM19.4643 3.51191C19.1881 3.51191 18.9643 3.73576 18.9643 4.01191C18.9643 4.28805 19.1881 4.51191 19.4643 4.51191V3.51191ZM24.7321 48.2619H25.2321V47.7619H24.7321V48.2619ZM24.7321 58.0952V58.5952H25.2321V58.0952H24.7321ZM21.5714 58.0952H21.0714V58.5952H21.5714V58.0952ZM21.5714 48.2619V47.7619H21.0714V48.2619H21.5714ZM22.6518 37.7262C22.6518 38.0023 22.8756 38.2262 23.1518 38.2262C23.4279 38.2262 23.6518 38.0023 23.6518 37.7262H22.6518ZM23.6518 8.92857C23.6518 8.65243 23.4279 8.42857 23.1518 8.42857C22.8756 8.42857 22.6518 8.65243 22.6518 8.92857H23.6518ZM18.4107 37.2262C18.1346 37.2262 17.9107 37.4501 17.9107 37.7262C17.9107 38.0023 18.1346 38.2262 18.4107 38.2262V37.2262ZM27.8929 38.2262C28.169 38.2262 28.3929 38.0023 28.3929 37.7262C28.3929 37.4501 28.169 37.2262 27.8929 37.2262V38.2262ZM18.4107 30.2024C18.1346 30.2024 17.9107 30.4262 17.9107 30.7024C17.9107 30.9785 18.1346 31.2024 18.4107 31.2024V30.2024ZM27.8929 31.2024C28.169 31.2024 28.3929 30.9785 28.3929 30.7024C28.3929 30.4262 28.169 30.2024 27.8929 30.2024V31.2024ZM18.4107 23.1786C18.1346 23.1786 17.9107 23.4024 17.9107 23.6786C17.9107 23.9547 18.1346 24.1786 18.4107 24.1786V23.1786ZM27.8929 24.1786C28.169 24.1786 28.3929 23.9547 28.3929 23.6786C28.3929 23.4024 28.169 23.1786 27.8929 23.1786V24.1786ZM18.4107 17.5595C18.1346 17.5595 17.9107 17.7834 17.9107 18.0595C17.9107 18.3357 18.1346 18.5595 18.4107 18.5595V17.5595ZM32.1071 18.5595C32.3833 18.5595 32.6071 18.3357 32.6071 18.0595C32.6071 17.7834 32.3833 17.5595 32.1071 17.5595V18.5595ZM18.4107 11.9405C18.1346 11.9405 17.9107 12.1643 17.9107 12.4405C17.9107 12.7166 18.1346 12.9405 18.4107 12.9405V11.9405ZM32.1071 12.9405C32.3833 12.9405 32.6071 12.7166 32.6071 12.4405C32.6071 12.1643 32.3833 11.9405 32.1071 11.9405V12.9405ZM0.5 59.2976H59.5V58.2976H0.5V59.2976ZM16.8571 6.11905V58.0952H17.8571V6.11905H16.8571ZM17.3571 57.5952H2.60714V58.5952H17.3571V57.5952ZM3.10714 58.0952V6.11905H2.10714V58.0952H3.10714ZM2.60714 6.61905H17.3571V5.61905H2.60714V6.61905ZM17.3571 4.21429H2.60714V5.21429H17.3571V4.21429ZM2.60714 4.21429C2.12617 4.21429 1.7175 4.43501 1.4433 4.8006C1.17783 5.15456 1.05357 5.61994 1.05357 6.11905H2.05357C2.05357 5.7753 2.14003 5.5383 2.2433 5.4006C2.33786 5.27452 2.45598 5.21429 2.60714 5.21429V4.21429ZM1.05357 6.11905V58.0952H2.05357V6.11905H1.05357ZM1.05357 58.0952C1.05357 58.5943 1.17783 59.0597 1.4433 59.4137C1.7175 59.7793 2.12617 60 2.60714 60V59C2.45598 59 2.33786 58.9398 2.2433 58.8137C2.14003 58.676 2.05357 58.439 2.05357 58.0952H1.05357ZM2.60714 60H17.3571V59H2.60714V60ZM17.3571 60C17.8381 60 18.2468 59.7793 18.521 59.4137C18.7865 59.0597 18.9107 58.5943 18.9107 58.0952H17.9107C17.9107 58.439 17.8243 58.676 17.721 58.8137C17.6264 58.9398 17.5083 59 17.3571 59V60ZM18.9107 58.0952V6.11905H17.9107V58.0952H18.9107ZM18.9107 6.11905C18.9107 5.61994 18.7865 5.15456 18.521 4.8006C18.2468 4.43501 17.8381 4.21429 17.3571 4.21429V5.21429C17.5083 5.21429 17.6264 5.27452 17.721 5.4006C17.8243 5.5383 17.9107 5.7753 17.9107 6.11905H18.9107ZM5.79464 53.1786V58.7976H6.79464V53.1786H5.79464ZM7.90179 51.7738C7.90179 52.9673 7.81931 53.9335 7.55581 54.5903C7.42804 54.9088 7.26876 55.1252 7.08188 55.2637C6.89972 55.3986 6.65297 55.4881 6.29464 55.4881V56.4881C6.83186 56.4881 7.29626 56.3493 7.67711 56.0672C8.05323 55.7886 8.30879 55.3992 8.48392 54.9627C8.82622 54.1094 8.90179 52.9684 8.90179 51.7738H7.90179ZM6.29464 55.4881C5.93632 55.4881 5.68957 55.3986 5.50741 55.2637C5.32053 55.1252 5.16124 54.9088 5.03347 54.5903C4.76997 53.9335 4.6875 52.9673 4.6875 51.7738H3.6875C3.6875 52.9684 3.76306 54.1094 4.10537 54.9627C4.2805 55.3992 4.53606 55.7886 4.91218 56.0672C5.29302 56.3493 5.75743 56.4881 6.29464 56.4881V55.4881ZM4.6875 51.7738C4.6875 50.5902 4.76704 49.2403 5.05167 48.2008C5.19435 47.6797 5.37781 47.2782 5.59502 47.0157C5.79961 46.7684 6.02209 46.6548 6.29464 46.6548V45.6548C5.67166 45.6548 5.18298 45.945 4.82456 46.3782C4.47877 46.7961 4.24739 47.3515 4.08717 47.9367C3.76599 49.1097 3.6875 50.5693 3.6875 51.7738H4.6875ZM6.29464 46.6548C6.5672 46.6548 6.78967 46.7684 6.99426 47.0157C7.21148 47.2782 7.39494 47.6797 7.53762 48.2008C7.82224 49.2403 7.90179 50.5902 7.90179 51.7738H8.90179C8.90179 50.5693 8.82329 49.1097 8.50212 47.9367C8.34189 47.3515 8.11051 46.7961 7.76472 46.3782C7.40631 45.945 6.91762 45.6548 6.29464 45.6548V46.6548ZM13.1696 53.1786V58.7976H14.1696V53.1786H13.1696ZM15.2768 51.7738C15.2768 52.9673 15.1943 53.9335 14.9308 54.5903C14.803 54.9088 14.6438 55.1252 14.4569 55.2637C14.2747 55.3986 14.028 55.4881 13.6696 55.4881V56.4881C14.2069 56.4881 14.6713 56.3493 15.0521 56.0672C15.4282 55.7886 15.6838 55.3992 15.8589 54.9627C16.2012 54.1094 16.2768 52.9684 16.2768 51.7738H15.2768ZM13.6696 55.4881C13.3113 55.4881 13.0646 55.3986 12.8824 55.2637C12.6955 55.1252 12.5362 54.9088 12.4085 54.5903C12.145 53.9335 12.0625 52.9673 12.0625 51.7738H11.0625C11.0625 52.9684 11.1381 54.1094 11.4804 54.9627C11.6555 55.3992 11.9111 55.7886 12.2872 56.0672C12.668 56.3493 13.1324 56.4881 13.6696 56.4881V55.4881ZM12.0625 51.7738C12.0625 50.5902 12.142 49.2403 12.4267 48.2008C12.5693 47.6797 12.7528 47.2782 12.97 47.0157C13.1746 46.7684 13.3971 46.6548 13.6696 46.6548V45.6548C13.0467 45.6548 12.558 45.945 12.1996 46.3782C11.8538 46.7961 11.6224 47.3515 11.4622 47.9367C11.141 49.1097 11.0625 50.5693 11.0625 51.7738H12.0625ZM13.6696 46.6548C13.9422 46.6548 14.1647 46.7684 14.3693 47.0157C14.5865 47.2782 14.7699 47.6797 14.9126 48.2008C15.1972 49.2403 15.2768 50.5902 15.2768 51.7738H16.2768C16.2768 50.5693 16.1983 49.1097 15.8771 47.9367C15.7169 47.3515 15.4855 46.7961 15.1397 46.3782C14.7813 45.945 14.2926 45.6548 13.6696 45.6548V46.6548ZM2.60714 41.0357H17.3571V40.0357H2.60714V41.0357ZM5.24107 10.131H8.40179V9.13095H5.24107V10.131ZM11.5625 10.131H14.7232V9.13095H11.5625V10.131ZM5.24107 14.3452H8.40179V13.3452H5.24107V14.3452ZM11.5625 14.3452H14.7232V13.3452H11.5625V14.3452ZM5.24107 18.5595H8.40179V17.5595H5.24107V18.5595ZM11.5625 18.5595H14.7232V17.5595H11.5625V18.5595ZM5.24107 22.7738H8.40179V21.7738H5.24107V22.7738ZM11.5625 22.7738H14.7232V21.7738H11.5625V22.7738ZM5.24107 26.9881H8.40179V25.9881H5.24107V26.9881ZM11.5625 26.9881H14.7232V25.9881H11.5625V26.9881ZM5.24107 31.2024H8.40179V30.2024H5.24107V31.2024ZM11.5625 31.2024H14.7232V30.2024H11.5625V31.2024ZM17.9107 1.90476V4.71429H18.9107V1.90476H17.9107ZM18.4107 4.21429H1.55357V5.21429H18.4107V4.21429ZM2.05357 4.71429V1.90476H1.05357V4.71429H2.05357ZM1.55357 2.40476H18.4107V1.40476H1.55357V2.40476ZM18.4107 0H1.55357V1H18.4107V0ZM1.55357 0C1.07259 0 0.663925 0.22072 0.389732 0.58631C0.124259 0.940274 0 1.40566 0 1.90476H1C1 1.56101 1.08646 1.32401 1.18973 1.18631C1.28429 1.06023 1.40241 1 1.55357 1V0ZM0 1.90476V4.71429H1V1.90476H0ZM0 4.71429C0 5.21339 0.124259 5.67877 0.389732 6.03274C0.663925 6.39833 1.07259 6.61905 1.55357 6.61905V5.61905C1.40241 5.61905 1.28429 5.55882 1.18973 5.43274C1.08646 5.29504 1 5.05804 1 4.71429H0ZM1.55357 6.61905H18.4107V5.61905H1.55357V6.61905ZM18.4107 6.61905C18.8917 6.61905 19.3004 6.39833 19.5746 6.03274C19.84 5.67877 19.9643 5.21339 19.9643 4.71429H18.9643C18.9643 5.05804 18.8778 5.29504 18.7746 5.43274C18.68 5.55882 18.5619 5.61905 18.4107 5.61905V6.61905ZM19.9643 4.71429V1.90476H18.9643V4.71429H19.9643ZM19.9643 1.90476C19.9643 1.40565 19.84 0.940274 19.5746 0.586309C19.3004 0.22072 18.8917 0 18.4107 0V1C18.5619 1 18.68 1.06023 18.7746 1.18631C18.8778 1.32401 18.9643 1.56101 18.9643 1.90476H19.9643ZM56.8929 28.5952V58.0952H57.8929V28.5952H56.8929ZM57.3929 57.5952H28.9464V58.5952H57.3929V57.5952ZM29.4464 58.0952V28.5952H28.4464V58.0952H29.4464ZM28.9464 29.0952H57.3929V28.0952H28.9464V29.0952ZM57.3929 26.6905H28.9464V27.6905H57.3929V26.6905ZM28.9464 26.6905C28.4655 26.6905 28.0568 26.9112 27.7826 27.2768C27.5171 27.6308 27.3929 28.0961 27.3929 28.5952H28.3929C28.3929 28.2515 28.4793 28.0145 28.5826 27.8768C28.6772 27.7507 28.7953 27.6905 28.9464 27.6905V26.6905ZM27.3929 28.5952V58.0952H28.3929V28.5952H27.3929ZM27.3929 58.0952C27.3929 58.5943 27.5171 59.0597 27.7826 59.4137C28.0568 59.7793 28.4655 60 28.9464 60V59C28.7953 59 28.6771 58.9398 28.5826 58.8137C28.4793 58.676 28.3929 58.439 28.3929 58.0952H27.3929ZM28.9464 60H57.3929V59H28.9464V60ZM57.3929 60C57.8738 60 58.2825 59.7793 58.5567 59.4137C58.8222 59.0597 58.9464 58.5943 58.9464 58.0952H57.9464C57.9464 58.439 57.86 58.676 57.7567 58.8137C57.6621 58.9398 57.544 59 57.3929 59V60ZM58.9464 58.0952V28.5952H57.9464V58.0952H58.9464ZM58.9464 28.5952C58.9464 28.0961 58.8222 27.6308 58.5567 27.2768C58.2825 26.9112 57.8738 26.6905 57.3929 26.6905V27.6905C57.544 27.6905 57.6621 27.7507 57.7567 27.8768C57.86 28.0145 57.9464 28.2515 57.9464 28.5952H58.9464ZM57.9464 24.381V27.1905H58.9464V24.381H57.9464ZM58.4464 26.6905H27.8929V27.6905H58.4464V26.6905ZM28.3929 27.1905V24.381H27.3929V27.1905H28.3929ZM27.8929 24.881H58.4464V23.881H27.8929V24.881ZM58.4464 22.4762H27.8929V23.4762H58.4464V22.4762ZM27.8929 22.4762C27.4119 22.4762 27.0032 22.6969 26.729 23.0625C26.4635 23.4165 26.3393 23.8818 26.3393 24.381H27.3393C27.3393 24.0372 27.4257 23.8002 27.529 23.6625C27.6236 23.5364 27.7417 23.4762 27.8929 23.4762V22.4762ZM26.3393 24.381V27.1905H27.3393V24.381H26.3393ZM26.3393 27.1905C26.3393 27.6896 26.4635 28.155 26.729 28.5089C27.0032 28.8745 27.4119 29.0952 27.8929 29.0952V28.0952C27.7417 28.0952 27.6236 28.035 27.529 27.9089C27.4257 27.7712 27.3393 27.5342 27.3393 27.1905H26.3393ZM27.8929 29.0952H58.4464V28.0952H27.8929V29.0952ZM58.4464 29.0952C58.9274 29.0952 59.3361 28.8745 59.6103 28.5089C59.8757 28.155 60 27.6896 60 27.1905H59C59 27.5342 58.9135 27.7712 58.8103 27.9089C58.7157 28.035 58.5976 28.0952 58.4464 28.0952V29.0952ZM60 27.1905V24.381H59V27.1905H60ZM60 24.381C60 23.8818 59.8757 23.4165 59.6103 23.0625C59.3361 22.6969 58.9274 22.4762 58.4464 22.4762V23.4762C58.5976 23.4762 58.7157 23.5364 58.8103 23.6625C58.9135 23.8002 59 24.0372 59 24.381H60ZM43.1696 48.7619C43.7188 48.7619 44.2398 49.0471 44.6397 49.5804C45.0412 50.1156 45.3036 50.885 45.3036 51.7738H46.3036C46.3036 50.6959 45.9865 49.7094 45.4397 48.9804C44.8915 48.2493 44.0955 47.7619 43.1696 47.7619V48.7619ZM45.3036 51.7738V58.0952H46.3036V51.7738H45.3036ZM45.8036 57.5952H40.5357V58.5952H45.8036V57.5952ZM41.0357 58.0952V51.7738H40.0357V58.0952H41.0357ZM41.0357 51.7738C41.0357 50.885 41.2981 50.1156 41.6996 49.5804C42.0995 49.0471 42.6205 48.7619 43.1696 48.7619V47.7619C42.2438 47.7619 41.4478 48.2493 40.8996 48.9804C40.3528 49.7094 40.0357 50.6959 40.0357 51.7738H41.0357ZM43.1696 46.3571C41.9709 46.3571 40.9141 47.0295 40.1752 48.0146C39.4348 49.0018 38.9821 50.3377 38.9821 51.7738H39.9821C39.9821 50.5408 40.3723 49.4184 40.9752 48.6146C41.5797 47.8086 42.3666 47.3571 43.1696 47.3571V46.3571ZM38.9821 51.7738V58.0952H39.9821V51.7738H38.9821ZM38.9821 58.0952C38.9821 58.5943 39.1064 59.0597 39.3719 59.4137C39.6461 59.7793 40.0547 60 40.5357 60V59C40.3845 59 40.2664 58.9398 40.1719 58.8137C40.0686 58.676 39.9821 58.439 39.9821 58.0952H38.9821ZM40.5357 60H45.8036V59H40.5357V60ZM45.8036 60C46.2846 60 46.6932 59.7793 46.9674 59.4137C47.2329 59.0597 47.3571 58.5943 47.3571 58.0952H46.3571C46.3571 58.439 46.2707 58.676 46.1674 58.8137C46.0729 58.9398 45.9547 59 45.8036 59V60ZM47.3571 58.0952V51.7738H46.3571V58.0952H47.3571ZM47.3571 51.7738C47.3571 50.3377 46.9045 49.0018 46.1641 48.0146C45.4252 47.0295 44.3684 46.3571 43.1696 46.3571V47.3571C43.9727 47.3571 44.7596 47.8086 45.3641 48.6146C45.9669 49.4184 46.3571 50.5408 46.3571 51.7738H47.3571ZM27.8929 19.8238H58.4464V18.8238H27.8929V19.8238ZM27.9196 19.4643V22.9762H28.9196V19.4643H27.9196ZM32.1339 19.4643V22.9762H33.1339V19.4643H32.1339ZM36.3482 19.4643V22.9762H37.3482V19.4643H36.3482ZM40.5625 19.4643V22.9762H41.5625V19.4643H40.5625ZM44.7768 19.4643V22.9762H45.7768V19.4643H44.7768ZM48.9911 19.4643V22.9762H49.9911V19.4643H48.9911ZM53.2054 19.4643V22.9762H54.2054V19.4643H53.2054ZM57.525 19.4643V22.9762H58.525V19.4643H57.525ZM34.7411 33.3095C34.9595 33.3095 35.2208 33.4397 35.4473 33.7417C35.6705 34.0392 35.8214 34.4602 35.8214 34.9167H36.8214C36.8214 34.2494 36.6036 33.6167 36.2473 33.1417C35.8944 32.6711 35.3655 32.3095 34.7411 32.3095V33.3095ZM35.8214 34.9167V37.0238H36.8214V34.9167H35.8214ZM36.3214 36.5238H33.1607V37.5238H36.3214V36.5238ZM33.6607 37.0238V34.9167H32.6607V37.0238H33.6607ZM33.6607 34.9167C33.6607 34.4602 33.8117 34.0392 34.0348 33.7417C34.2613 33.4397 34.5226 33.3095 34.7411 33.3095V32.3095C34.1167 32.3095 33.5878 32.6711 33.2348 33.1417C32.8785 33.6167 32.6607 34.2494 32.6607 34.9167H33.6607ZM34.7411 30.9048C33.8152 30.9048 33.0192 31.3922 32.471 32.1232C31.9242 32.8522 31.6071 33.8388 31.6071 34.9167H32.6071C32.6071 34.0279 32.8695 33.2585 33.271 32.7232C33.6709 32.1899 34.1919 31.9048 34.7411 31.9048V30.9048ZM31.6071 34.9167V37.0238H32.6071V34.9167H31.6071ZM31.6071 37.0238C31.6071 37.5229 31.7314 37.9883 31.9969 38.3423C32.2711 38.7079 32.6797 38.9286 33.1607 38.9286V37.9286C33.0096 37.9286 32.8914 37.8683 32.7969 37.7423C32.6936 37.6046 32.6071 37.3676 32.6071 37.0238H31.6071ZM33.1607 38.9286H36.3214V37.9286H33.1607V38.9286ZM36.3214 38.9286C36.8024 38.9286 37.2111 38.7079 37.4853 38.3423C37.7507 37.9883 37.875 37.5229 37.875 37.0238H36.875C36.875 37.3676 36.7885 37.6046 36.6853 37.7423C36.5907 37.8683 36.4726 37.9286 36.3214 37.9286V38.9286ZM37.875 37.0238V34.9167H36.875V37.0238H37.875ZM37.875 34.9167C37.875 33.8388 37.5579 32.8522 37.0112 32.1232C36.4629 31.3922 35.6669 30.9048 34.7411 30.9048V31.9048C35.2902 31.9048 35.8112 32.1899 36.2112 32.7232C36.6126 33.2585 36.875 34.0279 36.875 34.9167H37.875ZM43.1696 33.3095C43.3881 33.3095 43.6494 33.4397 43.8759 33.7417C44.0991 34.0392 44.25 34.4602 44.25 34.9167H45.25C45.25 34.2494 45.0322 33.6167 44.6759 33.1417C44.3229 32.6711 43.7941 32.3095 43.1696 32.3095V33.3095ZM44.25 34.9167V37.0238H45.25V34.9167H44.25ZM44.75 36.5238H41.5893V37.5238H44.75V36.5238ZM42.0893 37.0238V34.9167H41.0893V37.0238H42.0893ZM42.0893 34.9167C42.0893 34.4602 42.2402 34.0392 42.4634 33.7417C42.6899 33.4397 42.9512 33.3095 43.1696 33.3095V32.3095C42.5452 32.3095 42.0164 32.6711 41.6634 33.1417C41.3071 33.6167 41.0893 34.2494 41.0893 34.9167H42.0893ZM43.1696 30.9048C42.2438 30.9048 41.4478 31.3922 40.8996 32.1232C40.3528 32.8522 40.0357 33.8388 40.0357 34.9167H41.0357C41.0357 34.0279 41.2981 33.2585 41.6996 32.7232C42.0995 32.1899 42.6205 31.9048 43.1696 31.9048V30.9048ZM40.0357 34.9167V37.0238H41.0357V34.9167H40.0357ZM40.0357 37.0238C40.0357 37.5229 40.16 37.9883 40.4254 38.3423C40.6996 38.7079 41.1083 38.9286 41.5893 38.9286V37.9286C41.4381 37.9286 41.32 37.8683 41.2254 37.7423C41.1222 37.6046 41.0357 37.3676 41.0357 37.0238H40.0357ZM41.5893 38.9286H44.75V37.9286H41.5893V38.9286ZM44.75 38.9286C45.231 38.9286 45.6396 38.7079 45.9138 38.3423C46.1793 37.9883 46.3036 37.5229 46.3036 37.0238H45.3036C45.3036 37.3676 45.2171 37.6046 45.1138 37.7423C45.0193 37.8683 44.9012 37.9286 44.75 37.9286V38.9286ZM46.3036 37.0238V34.9167H45.3036V37.0238H46.3036ZM46.3036 34.9167C46.3036 33.8388 45.9865 32.8522 45.4397 32.1232C44.8915 31.3922 44.0955 30.9048 43.1696 30.9048V31.9048C43.7188 31.9048 44.2398 32.1899 44.6397 32.7232C45.0412 33.2585 45.3036 34.0279 45.3036 34.9167H46.3036ZM51.5982 33.3095C51.8167 33.3095 52.078 33.4397 52.3045 33.7417C52.5276 34.0392 52.6786 34.4602 52.6786 34.9167H53.6786C53.6786 34.2494 53.4608 33.6167 53.1045 33.1417C52.7515 32.6711 52.2226 32.3095 51.5982 32.3095V33.3095ZM52.6786 34.9167V37.0238H53.6786V34.9167H52.6786ZM53.1786 36.5238H50.0179V37.5238H53.1786V36.5238ZM50.5179 37.0238V34.9167H49.5179V37.0238H50.5179ZM50.5179 34.9167C50.5179 34.4602 50.6688 34.0392 50.892 33.7417C51.1185 33.4397 51.3798 33.3095 51.5982 33.3095V32.3095C50.9738 32.3095 50.4449 32.6711 50.092 33.1417C49.7357 33.6167 49.5179 34.2494 49.5179 34.9167H50.5179ZM51.5982 30.9048C50.6724 30.9048 49.8764 31.3922 49.3281 32.1232C48.7814 32.8522 48.4643 33.8388 48.4643 34.9167H49.4643C49.4643 34.0279 49.7267 33.2585 50.1281 32.7232C50.5281 32.1899 51.0491 31.9048 51.5982 31.9048V30.9048ZM48.4643 34.9167V37.0238H49.4643V34.9167H48.4643ZM48.4643 37.0238C48.4643 37.5229 48.5885 37.9883 48.854 38.3423C49.1282 38.7079 49.5369 38.9286 50.0179 38.9286V37.9286C49.8667 37.9286 49.7486 37.8683 49.654 37.7423C49.5507 37.6046 49.4643 37.3676 49.4643 37.0238H48.4643ZM50.0179 38.9286H53.1786V37.9286H50.0179V38.9286ZM53.1786 38.9286C53.6596 38.9286 54.0682 38.7079 54.3424 38.3423C54.6079 37.9883 54.7321 37.5229 54.7321 37.0238H53.7321C53.7321 37.3676 53.6457 37.6046 53.5424 37.7423C53.4479 37.8683 53.3297 37.9286 53.1786 37.9286V38.9286ZM54.7321 37.0238V34.9167H53.7321V37.0238H54.7321ZM54.7321 34.9167C54.7321 33.8388 54.4151 32.8522 53.8683 32.1232C53.32 31.3922 52.5241 30.9048 51.5982 30.9048V31.9048C52.1474 31.9048 52.6684 32.1899 53.0683 32.7232C53.4698 33.2585 53.7321 34.0279 53.7321 34.9167H54.7321ZM28.9464 43.8452H57.3929V42.8452H28.9464V43.8452ZM18.4107 8.72619H32.6339V7.72619H18.4107V8.72619ZM32.1339 8.22619V19.1833H33.1339V8.22619H32.1339ZM32.9391 18.7872L18.7159 7.8301L18.1056 8.62228L32.3288 19.5794L32.9391 18.7872ZM32.1071 8.72619H33.6875V7.72619H32.1071V8.72619ZM34.1875 8.22619V4.01191H33.1875V8.22619H34.1875ZM33.6875 3.51191H19.4643V4.51191H33.6875V3.51191ZM24.2321 48.2619V58.0952H25.2321V48.2619H24.2321ZM24.7321 57.5952H21.5714V58.5952H24.7321V57.5952ZM22.0714 58.0952V48.2619H21.0714V58.0952H22.0714ZM21.5714 48.7619H24.7321V47.7619H21.5714V48.7619ZM24.7321 46.3571H21.5714V47.3571H24.7321V46.3571ZM21.5714 46.3571C21.0905 46.3571 20.6818 46.5779 20.4076 46.9435C20.1421 47.2974 20.0179 47.7628 20.0179 48.2619H21.0179C21.0179 47.9182 21.1043 47.6812 21.2076 47.5435C21.3021 47.4174 21.4203 47.3571 21.5714 47.3571V46.3571ZM20.0179 48.2619V58.0952H21.0179V48.2619H20.0179ZM20.0179 58.0952C20.0179 58.5943 20.1421 59.0597 20.4076 59.4137C20.6818 59.7793 21.0905 60 21.5714 60V59C21.4203 59 21.3021 58.9398 21.2076 58.8137C21.1043 58.676 21.0179 58.439 21.0179 58.0952H20.0179ZM21.5714 60H24.7321V59H21.5714V60ZM24.7321 60C25.2131 60 25.6218 59.7793 25.896 59.4137C26.1615 59.0597 26.2857 58.5943 26.2857 58.0952H25.2857C25.2857 58.439 25.1993 58.676 25.096 58.8137C25.0014 58.9398 24.8833 59 24.7321 59V60ZM26.2857 58.0952V48.2619H25.2857V58.0952H26.2857ZM26.2857 48.2619C26.2857 47.7628 26.1615 47.2974 25.896 46.9435C25.6218 46.5779 25.2131 46.3571 24.7321 46.3571V47.3571C24.8833 47.3571 25.0014 47.4174 25.096 47.5435C25.1993 47.6812 25.2857 47.9182 25.2857 48.2619H26.2857ZM23.6518 37.7262V8.92857H22.6518V37.7262H23.6518ZM18.4107 38.2262H27.8929V37.2262H18.4107V38.2262ZM18.4107 31.2024H27.8929V30.2024H18.4107V31.2024ZM18.4107 24.1786H27.8929V23.1786H18.4107V24.1786ZM18.4107 18.5595H32.1071V17.5595H18.4107V18.5595ZM18.4107 12.9405H32.1071V11.9405H18.4107V12.9405Z" fill="#827AC7"/>
</svg>
