<svg width="51" height="49" viewBox="0 0 51 49" fill="none" xmlns="http://www.w3.org/2000/svg">
<g clip-path="url(#clip0_8_70)">
<path d="M13.75 0C15.1026 0 16.3998 0.645311 17.3562 1.79397C18.3127 2.94263 18.85 4.50055 18.85 6.125C18.85 7.74945 18.3127 9.30737 17.3562 10.456C16.3998 11.6047 15.1026 12.25 13.75 12.25C12.3974 12.25 11.1002 11.6047 10.1437 10.456C9.18731 9.30737 8.64999 7.74945 8.64999 6.125C8.64999 4.50055 9.18731 2.94263 10.1437 1.79397C11.1002 0.645311 12.3974 0 13.75 0ZM8.01249 45.9375V38.2813H6.59405C5.72546 38.2813 5.11186 37.2572 5.3828 36.2619L7.86108 27.3232L5.58202 30.9408C4.72936 32.2902 3.12765 32.5486 2.01202 31.5342C0.896396 30.5197 0.673271 28.5961 1.51796 27.2467L6.21155 19.8105C7.99655 16.9777 10.7936 15.3125 13.75 15.3125C16.7064 15.3125 19.5034 16.9777 21.2884 19.8105L25.982 27.2467C26.8347 28.5961 26.6116 30.5197 25.488 31.5342C24.3644 32.5486 22.7626 32.2902 21.918 30.9408L19.6389 27.3232L22.1172 36.2619C22.3961 37.2572 21.7745 38.2813 20.9059 38.2813H19.4875V45.9375C19.4875 47.6314 18.348 49 16.9375 49C15.527 49 14.3875 47.6314 14.3875 45.9375V38.2813H13.1125V45.9375C13.1125 47.6314 11.973 49 10.5625 49C9.15202 49 8.01249 47.6314 8.01249 45.9375ZM39.25 0C40.6026 0 41.8998 0.645311 42.8562 1.79397C43.8127 2.94263 44.35 4.50055 44.35 6.125C44.35 7.74945 43.8127 9.30737 42.8562 10.456C41.8998 11.6047 40.6026 12.25 39.25 12.25C37.8974 12.25 36.6002 11.6047 35.6437 10.456C34.6873 9.30737 34.15 7.74945 34.15 6.125C34.15 4.50055 34.6873 2.94263 35.6437 1.79397C36.6002 0.645311 37.8974 0 39.25 0ZM38.6125 36.75V45.9375C38.6125 47.6314 37.473 49 36.0625 49C34.652 49 33.5125 47.6314 33.5125 45.9375V28.7588L32.4845 30.7207C31.7355 32.1562 30.1576 32.5773 28.9703 31.6777C27.783 30.7781 27.4244 28.8832 28.1734 27.4572L32.2933 19.6C33.6958 16.9299 36.1422 15.3029 38.7639 15.3029H39.7441C42.3737 15.3029 44.8201 16.9203 46.2147 19.6L50.3345 27.4668C51.0836 28.9023 50.725 30.7877 49.5376 31.6873C48.3503 32.5869 46.7725 32.1563 46.0234 30.7303L44.9875 28.7588V45.9375C44.9875 47.6314 43.848 49 42.4375 49C41.027 49 39.8875 47.6314 39.8875 45.9375V36.75H38.6125Z" fill="black"/>
</g>
<defs>
<clipPath id="clip0_8_70">
<rect width="50.7621" height="48.7715" fill="white" transform="scale(1.00469)"/>
</clipPath>
</defs>
</svg>
