<svg width="35" height="32" viewBox="0 0 35 32" fill="none" xmlns="http://www.w3.org/2000/svg">
<path fill-rule="evenodd" clip-rule="evenodd" d="M17.5079 0C7.8633 0 0 6.99259 0 15.58C0 24.1674 7.86489 31.1685 17.5079 31.1685C27.151 31.1685 35 24.1674 35 15.58C35 6.99259 27.151 0 17.5079 0ZM17.5079 2.83273C19.3885 2.82993 21.2511 3.15776 22.989 3.79741C24.7269 4.43707 26.306 5.37596 27.6355 6.56025C28.9651 7.74454 30.0191 9.15092 30.737 10.6987C31.4549 12.2466 31.8226 13.9054 31.819 15.58C31.8228 17.2551 31.4553 18.9144 30.7376 20.4628C30.0199 22.0112 28.9661 23.4182 27.6366 24.6032C26.3071 25.7882 24.7281 26.7279 22.99 27.3684C21.2519 28.0089 19.389 28.3377 17.5079 28.3358C15.6261 28.3378 13.7623 28.0093 12.0233 27.369C10.2842 26.7288 8.70402 25.7893 7.37322 24.6045C6.04242 23.4196 4.98712 22.0126 4.26775 20.4641C3.54838 18.9155 3.17906 17.2558 3.18095 15.58C3.18095 8.52368 9.5842 2.83273 17.5079 2.83273ZM17.4825 5.64563C17.2723 5.64746 17.0645 5.6864 16.8713 5.76018C16.6781 5.83395 16.5032 5.94112 16.3568 6.07546C16.2104 6.20981 16.0953 6.36867 16.0183 6.54287C15.9412 6.71707 15.9037 6.90314 15.9079 7.09032V15.58C15.9088 15.7664 15.951 15.9508 16.032 16.1226C16.1131 16.2945 16.2314 16.4504 16.3803 16.5814L22.7422 22.2497C22.8894 22.3845 23.0652 22.4919 23.2595 22.5656C23.4537 22.6393 23.6625 22.6779 23.8737 22.6789C24.0848 22.68 24.2941 22.6436 24.4893 22.5719C24.6845 22.5002 24.8617 22.3946 25.0106 22.2613C25.1595 22.1279 25.2771 21.9695 25.3565 21.7953C25.4359 21.621 25.4756 21.4345 25.4732 21.2464C25.4708 21.0584 25.4263 20.8727 25.3425 20.7001C25.2586 20.5275 25.137 20.3715 24.9848 20.2413L19.0921 14.9936V7.09032C19.0963 6.90051 19.0577 6.71187 18.9785 6.53562C18.8993 6.35936 18.7811 6.19909 18.631 6.06432C18.4808 5.92955 18.3018 5.82303 18.1045 5.75111C17.9072 5.67918 17.6957 5.64331 17.4825 5.64563Z" fill="#6B5AD0"/>
</svg>
