<svg width="39" height="39" viewBox="0 0 39 39" fill="none" xmlns="http://www.w3.org/2000/svg">
<path d="M36.1463 37.2273V31.0227C36.1463 30.7876 36.0461 30.5622 35.8677 30.396C35.6893 30.2297 35.4474 30.1364 35.1951 30.1364H29.4878C29.2355 30.1364 28.9936 30.2297 28.8152 30.396C28.6368 30.5622 28.5366 30.7876 28.5366 31.0227V37.2273H24.7317V19.5C24.7317 19.2649 24.6315 19.0395 24.4531 18.8732C24.2747 18.707 24.0328 18.6136 23.7805 18.6136H18.0732C17.8209 18.6136 17.5789 18.707 17.4006 18.8732C17.2222 19.0395 17.122 19.2649 17.122 19.5V37.2273H13.3171V24.8182C13.3171 24.5831 13.2169 24.3577 13.0385 24.1914C12.8601 24.0252 12.6181 23.9318 12.3659 23.9318H6.65854C6.40626 23.9318 6.16431 24.0252 5.98592 24.1914C5.80753 24.3577 5.70732 24.5831 5.70732 24.8182V37.2273H2.85366V39H39V37.2273H36.1463ZM7.60976 37.2273V25.7045H11.4146V37.2273H7.60976ZM19.0244 37.2273V20.3864H22.8293V37.2273H19.0244ZM30.439 37.2273V31.9091H34.2439V37.2273H30.439ZM31.3902 11.5227H29.4878V9.75H33.2927V8.86364H30.439C30.1867 8.86364 29.9448 8.77025 29.7664 8.60403C29.588 8.4378 29.4878 8.21235 29.4878 7.97727V5.31818C29.4878 5.0831 29.588 4.85765 29.7664 4.69143C29.9448 4.5252 30.1867 4.43182 30.439 4.43182H31.3902V3.54545H33.2927V4.43182H35.1951V6.20455H31.3902V7.09091H34.2439C34.4962 7.09091 34.7381 7.18429 34.9165 7.35052C35.0949 7.51674 35.1951 7.74219 35.1951 7.97727V10.6364C35.1951 10.8714 35.0949 11.0969 34.9165 11.2631C34.7381 11.4293 34.4962 11.5227 34.2439 11.5227H33.2927V12.4091H31.3902V11.5227ZM31.5329 27.947C31.6182 28.0753 31.7373 28.1812 31.8788 28.2546C32.0203 28.328 32.1795 28.3665 32.3415 28.3665C32.5034 28.3665 32.6627 28.328 32.8042 28.2546C32.9457 28.1812 33.0647 28.0753 33.15 27.947L37.9061 20.8561C37.9962 20.7218 38.046 20.5675 38.0504 20.4092C38.0547 20.2509 38.0135 20.0943 37.931 19.9559C37.8484 19.8175 37.7276 19.7022 37.581 19.622C37.4345 19.5418 37.2675 19.4997 37.0976 19.5H36.1463V15.0682C36.1463 14.8331 36.0461 14.6077 35.8677 14.4414C35.6893 14.2752 35.4474 14.1818 35.1951 14.1818H29.4878C29.2355 14.1818 28.9936 14.2752 28.8152 14.4414C28.6368 14.6077 28.5366 14.8331 28.5366 15.0682V19.5H27.5854C27.4154 19.4997 27.2485 19.5418 27.1019 19.622C26.9553 19.7022 26.8345 19.8175 26.7519 19.9559C26.6694 20.0943 26.6282 20.2509 26.6326 20.4092C26.6369 20.5675 26.6868 20.7218 26.7768 20.8561L31.5329 27.947ZM29.4878 21.2727C29.7401 21.2727 29.982 21.1793 30.1604 21.0131C30.3388 20.8469 30.439 20.6214 30.439 20.3864V15.9545H34.2439V20.3864C34.2439 20.6214 34.3441 20.8469 34.5225 21.0131C34.7009 21.1793 34.9428 21.2727 35.1951 21.2727H35.3854L32.3415 25.802L29.2976 21.2727H29.4878ZM14.2683 12.4091C15.0251 12.4091 15.751 12.1289 16.2861 11.6303C16.8213 11.1316 17.122 10.4552 17.122 9.75V2.65909C17.122 1.95386 16.8213 1.27751 16.2861 0.77883C15.751 0.280153 15.0251 0 14.2683 0H2.85366C2.09682 0 1.37098 0.280153 0.835817 0.77883C0.300653 1.27751 0 1.95386 0 2.65909V9.75C0 10.4552 0.300653 11.1316 0.835817 11.6303C1.37098 12.1289 2.09682 12.4091 2.85366 12.4091H14.2683ZM1.90244 9.75V2.65909C1.90244 2.42401 2.00266 2.19856 2.18104 2.03234C2.35943 1.86611 2.60138 1.77273 2.85366 1.77273H14.2683C14.5206 1.77273 14.7625 1.86611 14.9409 2.03234C15.1193 2.19856 15.2195 2.42401 15.2195 2.65909V9.75C15.2195 9.98508 15.1193 10.2105 14.9409 10.3768C14.7625 10.543 14.5206 10.6364 14.2683 10.6364H2.85366C2.60138 10.6364 2.35943 10.543 2.18104 10.3768C2.00266 10.2105 1.90244 9.98508 1.90244 9.75ZM13.3171 5.31818H3.80488V3.54545H13.3171V5.31818ZM13.3171 8.86364H3.80488V7.09091H13.3171V8.86364Z" fill="white"/>
</svg>
