<svg width="209" height="94" viewBox="0 0 209 94" fill="none" xmlns="http://www.w3.org/2000/svg">
<g filter="url(#filter0_d_18_51)">
<path d="M198.912 93.254H9.96451C4.79429 93.254 0.564123 86.664 0.564123 78.582V15.418C0.564123 7.33596 4.79429 0.746018 9.96451 0.746018H198.912C204.082 0.746018 208.313 7.33596 208.313 15.418V78.582C208.313 86.664 204.082 93.254 198.912 93.254Z" fill="white"/>
<path d="M9.96441 1.49206C5.07621 1.49206 1.03405 7.70899 1.03405 15.418V78.582C1.03405 86.291 5.07621 92.5079 9.96441 92.5079H198.912C203.8 92.5079 207.842 86.291 207.842 78.582V15.418C207.842 7.83333 203.8 1.49206 198.818 1.49206H9.96441ZM9.96441 0H198.912C204.364 0 208.876 6.96296 208.876 15.418V78.582C208.876 87.037 204.364 94 198.818 94H9.96441C4.51219 94 0 87.037 0 78.582V15.418C0 6.96296 4.51219 0 9.96441 0Z" fill="#F2F2F2"/>
</g>
<defs>
<filter id="filter0_d_18_51" x="-31.6071" y="-19.0043" width="272.091" height="157.214" filterUnits="userSpaceOnUse" color-interpolation-filters="sRGB">
<feFlood flood-opacity="0" result="BackgroundImageFix"/>
<feColorMatrix in="SourceAlpha" type="matrix" values="0 0 0 0 0 0 0 0 0 0 0 0 0 0 0 0 0 0 127 0" result="hardAlpha"/>
<feOffset dy="12.6"/>
<feGaussianBlur stdDeviation="15.8"/>
<feColorMatrix type="matrix" values="0 0 0 0 0.203922 0 0 0 0 0.0509804 0 0 0 0 0.270588 0 0 0 0.05 0"/>
<feBlend mode="normal" in2="BackgroundImageFix" result="effect1_dropShadow_18_51"/>
<feBlend mode="normal" in="SourceGraphic" in2="effect1_dropShadow_18_51" result="shape"/>
</filter>
</defs>
</svg>
