<svg width="386" height="174" viewBox="0 0 386 174" fill="none" xmlns="http://www.w3.org/2000/svg">
<path d="M378.04 14.1776C380.151 14.1776 382.176 13.4307 383.669 12.1013C385.161 10.7719 386 8.96886 386 7.08879C386 5.20873 385.161 3.40567 383.669 2.07626C382.176 0.746857 380.151 0 378.04 0C375.929 0 373.904 0.746857 372.411 2.07626C370.918 3.40567 370.08 5.20873 370.08 7.08879C370.08 8.96886 370.918 10.7719 372.411 12.1013C373.904 13.4307 375.929 14.1776 378.04 14.1776ZM7.9602 173.862C9.08445 173.996 10.2278 173.914 11.3135 173.622C12.3993 173.33 13.4025 172.834 14.2558 172.169C15.1092 171.504 15.793 170.684 16.2615 169.764C16.7301 168.844 16.9724 167.845 16.9724 166.835C16.9724 165.825 16.7301 164.827 16.2615 163.907C15.793 162.987 15.1092 162.167 14.2558 161.502C13.4025 160.837 12.3993 160.341 11.3135 160.049C10.2278 159.757 9.08445 159.675 7.9602 159.809C5.84902 159.809 3.82432 160.556 2.33149 161.885C0.838666 163.214 0 165.018 0 166.898C0 168.778 0.838666 170.581 2.33149 171.91C3.82432 173.24 5.84902 173.986 7.9602 173.986V173.862Z" fill="#5F95FC"/>
</svg>
