<svg width="692" height="321" viewBox="0 0 692 321" fill="none" xmlns="http://www.w3.org/2000/svg">
<path d="M61.1707 318.04V310.493C61.1707 310.207 61.0011 309.932 60.6992 309.73C60.3974 309.528 59.9879 309.415 59.561 309.415H49.9024C49.4755 309.415 49.0661 309.528 48.7642 309.73C48.4623 309.932 48.2927 310.207 48.2927 310.493V318.04H41.8537V296.477C41.8537 296.191 41.6841 295.917 41.3822 295.715C41.0803 295.512 40.6708 295.399 40.2439 295.399H30.5854C30.1584 295.399 29.749 295.512 29.4471 295.715C29.1452 295.917 28.9756 296.191 28.9756 296.477V318.04H22.5366V302.946C22.5366 302.66 22.367 302.386 22.0651 302.183C21.7632 301.981 21.3538 301.868 20.9268 301.868H11.2683C10.8414 301.868 10.4319 301.981 10.13 302.183C9.82814 302.386 9.65854 302.66 9.65854 302.946V318.04H4.82927V320.196H66V318.04H61.1707ZM12.878 318.04V304.024H19.3171V318.04H12.878ZM32.1951 318.04V297.555H38.6341V318.04H32.1951ZM51.5122 318.04V311.571H57.9512V318.04H51.5122ZM53.122 286.774H49.9024V284.617H56.3415V283.539H51.5122C51.0853 283.539 50.6758 283.426 50.3739 283.224C50.072 283.021 49.9024 282.747 49.9024 282.461V279.227C49.9024 278.941 50.072 278.667 50.3739 278.464C50.6758 278.262 51.0853 278.149 51.5122 278.149H53.122V277.071H56.3415V278.149H59.561V280.305H53.122V281.383H57.9512C58.3782 281.383 58.7876 281.497 59.0895 281.699C59.3914 281.901 59.561 282.175 59.561 282.461V285.696C59.561 285.982 59.3914 286.256 59.0895 286.458C58.7876 286.66 58.3782 286.774 57.9512 286.774H56.3415V287.852H53.122V286.774ZM53.3634 306.752C53.5078 306.908 53.7092 307.036 53.9487 307.126C54.1881 307.215 54.4577 307.262 54.7317 307.262C55.0058 307.262 55.2753 307.215 55.5147 307.126C55.7542 307.036 55.9556 306.908 56.1 306.752L64.1488 298.126C64.3012 297.963 64.3855 297.775 64.3929 297.583C64.4003 297.39 64.3306 297.2 64.1909 297.031C64.0512 296.863 63.8467 296.723 63.5987 296.625C63.3506 296.528 63.0681 296.477 62.7805 296.477H61.1707V291.086C61.1707 290.8 61.0011 290.526 60.6992 290.324C60.3974 290.122 59.9879 290.008 59.561 290.008H49.9024C49.4755 290.008 49.0661 290.122 48.7642 290.324C48.4623 290.526 48.2927 290.8 48.2927 291.086V296.477H46.6829C46.3953 296.477 46.1128 296.528 45.8647 296.625C45.6167 296.723 45.4122 296.863 45.2725 297.031C45.1328 297.2 45.0631 297.39 45.0705 297.583C45.0779 297.775 45.1622 297.963 45.3146 298.126L53.3634 306.752ZM49.9024 298.633C50.3294 298.633 50.7388 298.52 51.0407 298.317C51.3426 298.115 51.5122 297.841 51.5122 297.555V292.164H57.9512V297.555C57.9512 297.841 58.1208 298.115 58.4227 298.317C58.7246 298.52 59.134 298.633 59.561 298.633H59.8829L54.7317 304.142L49.5805 298.633H49.9024ZM24.1463 287.852C25.4271 287.852 26.6555 287.511 27.5612 286.905C28.4668 286.298 28.9756 285.475 28.9756 284.617V275.992C28.9756 275.135 28.4668 274.312 27.5612 273.705C26.6555 273.099 25.4271 272.758 24.1463 272.758H4.82927C3.54847 272.758 2.32012 273.099 1.41446 273.705C0.508797 274.312 0 275.135 0 275.992V284.617C0 285.475 0.508797 286.298 1.41446 286.905C2.32012 287.511 3.54847 287.852 4.82927 287.852H24.1463ZM3.21951 284.617V275.992C3.21951 275.707 3.38911 275.432 3.691 275.23C3.99289 275.028 4.40233 274.914 4.82927 274.914H24.1463C24.5733 274.914 24.9827 275.028 25.2846 275.23C25.5865 275.432 25.7561 275.707 25.7561 275.992V284.617C25.7561 284.903 25.5865 285.178 25.2846 285.38C24.9827 285.582 24.5733 285.696 24.1463 285.696H4.82927C4.40233 285.696 3.99289 285.582 3.691 285.38C3.38911 285.178 3.21951 284.903 3.21951 284.617ZM22.5366 279.227H6.43902V277.071H22.5366V279.227ZM22.5366 283.539H6.43902V281.383H22.5366V283.539Z" fill="#DB6726"/>
<path fill-rule="evenodd" clip-rule="evenodd" d="M689.971 278.78C689.954 278.141 689.616 277.534 689.03 277.089C688.443 276.644 687.656 276.398 686.839 276.404C686.183 276.407 685.545 276.569 685.012 276.866C683.211 277.778 681.102 278.246 678.956 278.21C675.947 278.199 672.02 277.328 670.852 274.856C670.533 274.118 669.93 273.476 669.127 273.016C668.323 272.556 667.356 272.301 666.36 272.287H658.653C657.655 272.301 656.687 272.556 655.881 273.015C655.074 273.475 654.469 274.118 654.148 274.856C652.978 277.328 649.051 278.21 646.043 278.21C643.897 278.245 641.788 277.777 639.987 276.866C639.454 276.568 638.816 276.407 638.161 276.404C637.343 276.398 636.556 276.644 635.969 277.089C635.383 277.534 635.045 278.141 635.028 278.78C634.424 300.247 643.586 312.523 662.254 315.275C662.336 315.284 662.418 315.288 662.501 315.286C662.588 315.288 662.676 315.284 662.763 315.275C667.305 314.66 671.617 313.265 675.386 311.19C676.12 311.298 676.865 311.352 677.611 311.352C680.892 311.345 684.035 310.324 686.353 308.51C688.67 306.696 689.972 304.239 689.974 301.677C689.979 299.682 689.187 297.735 687.708 296.108C689.409 291.228 690.163 285.452 689.971 278.78ZM678.487 309.159C678.196 309.189 677.902 309.204 677.608 309.202C676.624 309.205 675.645 309.086 674.709 308.847C673.45 308.538 672.287 308.028 671.293 307.349C670.3 306.669 669.499 305.836 668.94 304.902C668.519 304.239 668.24 303.528 668.114 302.795C668.031 302.426 667.99 302.052 667.99 301.677C667.993 300.076 668.647 298.517 669.86 297.225C671.072 295.934 672.78 294.978 674.734 294.496H674.748C675.672 294.267 676.636 294.151 677.605 294.152H677.729C679.033 294.166 680.32 294.387 681.51 294.803C682.7 295.219 683.77 295.821 684.652 296.571C685.484 297.264 686.133 298.078 686.562 298.968C686.999 299.83 687.222 300.749 687.221 301.677C687.221 303.55 686.326 305.356 684.711 306.74C683.095 308.124 680.875 308.987 678.487 309.159ZM685.465 294.216C683.459 292.919 680.977 292.151 678.377 292.023C678.792 290.508 679.095 288.976 679.284 287.433C679.307 287.288 679.289 287.141 679.232 287.002C679.175 286.863 679.08 286.735 678.954 286.627C678.834 286.514 678.686 286.423 678.518 286.358C678.35 286.293 678.166 286.257 677.979 286.251C672.061 286.057 666.811 284.133 663.569 280.962C663.437 280.841 663.273 280.743 663.088 280.676C662.903 280.61 662.701 280.575 662.498 280.575C662.294 280.575 662.092 280.61 661.907 280.676C661.722 280.743 661.558 280.841 661.426 280.962C658.184 284.133 652.937 286.057 647.017 286.251C646.652 286.262 646.308 286.386 646.06 286.596C645.812 286.805 645.681 287.083 645.695 287.368C645.71 287.654 645.869 287.922 646.137 288.116C646.406 288.31 646.761 288.412 647.126 288.401C653.239 288.207 658.748 286.347 662.498 283.262C666.203 286.196 671.138 287.99 676.398 288.315C676.199 289.597 675.915 290.871 675.547 292.131C672.664 292.518 670.05 293.688 668.165 295.435C666.279 297.181 665.245 299.392 665.245 301.677C665.244 302.463 665.364 303.246 665.602 304.01C665.819 304.695 666.137 305.359 666.549 305.988C667.736 307.853 669.664 309.369 672.044 310.309C669.102 311.685 665.869 312.639 662.497 313.125C645.533 310.524 637.208 298.989 637.772 278.833C637.776 278.779 637.799 278.726 637.839 278.681C637.879 278.637 637.934 278.601 637.998 278.579C638.062 278.557 638.132 278.549 638.201 278.556C638.271 278.563 638.336 278.584 638.391 278.618C640.654 279.795 643.324 280.403 646.042 280.36C651.166 280.36 655.355 278.489 656.729 275.598C656.858 275.273 657.113 274.988 657.457 274.781C657.801 274.573 658.218 274.453 658.652 274.437H666.359C666.791 274.455 667.206 274.576 667.547 274.783C667.888 274.991 668.14 275.275 668.268 275.598C669.012 277.082 670.41 278.309 672.211 279.059C674.277 279.941 676.6 280.389 678.955 280.36C681.673 280.403 684.343 279.795 686.606 278.618C686.672 278.577 686.755 278.554 686.84 278.554C686.938 278.552 687.033 278.58 687.105 278.632C687.177 278.685 687.22 278.757 687.224 278.833C687.469 283.998 686.878 289.167 685.465 294.216ZM666.55 305.988C665.36 306.435 664.112 306.781 662.827 307.02C662.611 307.063 662.384 307.063 662.168 307.02C654.146 305.493 649.105 300.752 646.742 292.529C646.703 292.391 646.699 292.249 646.73 292.111C646.762 291.972 646.828 291.84 646.925 291.721C647.022 291.603 647.148 291.5 647.295 291.419C647.443 291.339 647.609 291.282 647.785 291.251C647.961 291.221 648.143 291.218 648.32 291.243C648.498 291.267 648.667 291.319 648.819 291.394C648.971 291.47 649.102 291.568 649.206 291.684C649.309 291.799 649.382 291.929 649.421 292.066C652.429 302.537 659.682 304.321 662.496 304.87C663.567 304.671 664.608 304.383 665.6 304.01C665.818 304.695 666.137 305.359 666.55 305.988ZM676.057 305.864C675.692 305.864 675.343 305.751 675.085 305.549L671.144 302.465C670.904 302.261 670.775 301.992 670.783 301.716C670.791 301.439 670.935 301.176 671.185 300.98C671.435 300.784 671.773 300.671 672.127 300.665C672.481 300.658 672.824 300.758 673.086 300.945L676.057 303.269L682.133 298.514C682.258 298.406 682.41 298.32 682.58 298.26C682.749 298.2 682.932 298.168 683.118 298.164C683.304 298.161 683.489 298.188 683.661 298.242C683.834 298.296 683.991 298.377 684.122 298.48C684.254 298.583 684.357 298.705 684.426 298.84C684.495 298.975 684.529 299.119 684.524 299.265C684.52 299.41 684.478 299.553 684.401 299.685C684.323 299.817 684.213 299.936 684.075 300.034L677.028 305.549C676.9 305.649 676.749 305.729 676.582 305.783C676.415 305.837 676.236 305.865 676.056 305.864H676.057Z" fill="#5D5A10"/>
<path d="M657.527 4.08248e-05C657.488 -0.000229533 657.45 0.000843063 657.412 0.00325428C657.247 0.0117798 657.088 0.0448839 656.943 0.100324C656.799 0.155764 656.673 0.232245 656.575 0.324585L653.126 3.53789C652.977 3.67607 652.897 3.84396 652.896 4.01668V4.95175C650.402 5.57292 648.184 6.63982 646.464 8.04616H638.161C638.029 8.02983 637.893 8.02983 637.761 8.04616H637.69V8.0558C637.434 8.09724 637.206 8.19857 637.044 8.34296C636.882 8.48734 636.796 8.66609 636.8 8.84949C636.801 9.27291 636.643 9.68909 636.34 10.056C636.038 10.4229 635.602 10.7276 635.078 10.9393C634.553 11.151 633.957 11.2623 633.351 11.2618C632.745 11.2613 632.15 11.1491 631.626 10.9365C631.101 10.7251 630.665 10.4207 630.363 10.054C630.06 9.68729 629.901 9.27125 629.902 8.84789C629.904 8.74036 629.875 8.63362 629.817 8.534C629.759 8.43438 629.673 8.3439 629.564 8.26794C629.455 8.19197 629.326 8.13206 629.183 8.09176C629.04 8.05146 628.887 8.03158 628.733 8.03331C628.583 8.03499 628.433 8.05743 628.295 8.09935C628.156 8.14128 628.031 8.20187 627.926 8.27766C627.821 8.35345 627.738 8.44296 627.683 8.54108C627.627 8.63919 627.6 8.74399 627.602 8.84949C627.602 10.1557 628.545 11.3494 630.053 12.0965L623.077 26.0294C623.004 26.1624 622.982 26.3065 623.015 26.4472C623.01 26.4722 623.007 26.4974 623.006 26.5227C623.006 28.4402 624.096 30.2792 626.036 31.635C627.977 32.9909 630.609 33.7526 633.353 33.7526C636.097 33.7526 638.729 32.9909 640.67 31.635C642.61 30.2792 643.7 28.4402 643.7 26.5227C643.7 26.5028 643.698 26.483 643.696 26.4632C643.734 26.3177 643.714 26.1676 643.638 26.0294L636.657 12.0933C637.841 11.5037 638.655 10.6393 638.947 9.65121H652.896V12.0499C652.896 12.263 653.017 12.4673 653.232 12.618C653.448 12.7686 653.74 12.8533 654.045 12.8533H654.055V40.3672C650.463 40.7705 647.352 41.81 645.45 43.3829H640.249C639.944 43.3829 639.652 43.4676 639.436 43.6182C639.22 43.7689 639.099 43.9732 639.099 44.1862V47.3996C639.099 47.6126 639.22 47.8169 639.436 47.9676C639.652 48.1182 639.944 48.2029 640.249 48.2029H674.754C675.059 48.2029 675.351 48.1182 675.567 47.9676C675.782 47.8169 675.904 47.6126 675.904 47.3996V44.1862C675.904 43.9732 675.782 43.7689 675.567 43.6182C675.351 43.4676 675.059 43.3829 674.754 43.3829H669.566C667.653 41.802 664.531 40.7609 660.953 40.3576V12.8533C661.256 12.8516 661.546 12.7662 661.76 12.6157C661.973 12.4653 662.093 12.2619 662.093 12.0499V9.65282H676.041C676.336 10.6409 677.15 11.5101 678.336 12.0998L671.362 26.0294C671.289 26.1624 671.267 26.3065 671.3 26.4472C671.295 26.4722 671.292 26.4974 671.291 26.5227C671.291 28.4402 672.381 30.2792 674.322 31.635C676.262 32.9909 678.894 33.7526 681.638 33.7526C684.383 33.7526 687.014 32.9909 688.955 31.635C690.895 30.2792 691.986 28.4402 691.986 26.5227C691.985 26.5028 691.984 26.483 691.981 26.4632C692.019 26.3177 691.999 26.1676 691.923 26.0294L684.945 12.0981C685.693 11.7322 686.305 11.2466 686.73 10.6817C687.155 10.1168 687.38 9.48918 687.387 8.8511C687.389 8.7456 687.362 8.6408 687.306 8.54268C687.251 8.44457 687.168 8.35506 687.063 8.27927C686.958 8.20347 686.833 8.14289 686.694 8.10096C686.555 8.05903 686.406 8.03659 686.255 8.03492C686.101 8.03318 685.948 8.05311 685.805 8.09351C685.663 8.13391 685.533 8.19396 685.424 8.2701C685.315 8.34624 685.229 8.43691 685.171 8.53672C685.113 8.63652 685.085 8.74344 685.087 8.8511C685.089 9.27451 684.93 9.69069 684.628 10.0576C684.325 10.4246 683.89 10.7292 683.365 10.941C682.84 11.1527 682.245 11.2639 681.639 11.2634C681.033 11.2629 680.438 11.1507 679.914 10.9381C679.389 10.7267 678.953 10.4223 678.65 10.0556C678.347 9.68889 678.188 9.27286 678.189 8.84949C678.192 8.6668 678.107 8.48878 677.946 8.34478C677.785 8.20078 677.558 8.09942 677.304 8.05741V8.04777H677.228C677.096 8.03143 676.96 8.03143 676.828 8.04777H668.497C666.772 6.66452 664.567 5.61488 662.093 4.99995V4.01668C662.093 3.84341 662.012 3.6749 661.863 3.53629L658.414 0.322978C658.311 0.225893 658.177 0.146419 658.023 0.0904969C657.87 0.034575 657.7 0.00365238 657.527 4.08248e-05ZM657.494 2.14332L659.794 4.28659V11.2466H655.195V4.28659L657.494 2.14332ZM652.896 6.68372V8.04616H649.729C650.686 7.48384 651.751 7.02915 652.896 6.68372ZM662.093 6.72228C663.218 7.05968 664.259 7.50312 665.207 8.04616H662.093V6.72228ZM633.351 8.04295C633.046 8.04295 632.753 8.12759 632.538 8.27824C632.322 8.42889 632.201 8.63322 632.201 8.84628C632.201 9.05933 632.322 9.26366 632.538 9.41432C632.753 9.56497 633.046 9.6496 633.351 9.6496C633.656 9.6496 633.948 9.56497 634.164 9.41432C634.379 9.26366 634.5 9.05933 634.5 8.84628C634.5 8.63322 634.379 8.42889 634.164 8.27824C633.948 8.12759 633.656 8.04295 633.351 8.04295ZM681.638 8.04616C681.333 8.04616 681.041 8.1308 680.825 8.28145C680.61 8.43211 680.489 8.63644 680.489 8.84949C680.489 9.06255 680.61 9.26688 680.825 9.41753C681.041 9.56818 681.333 9.65282 681.638 9.65282C681.943 9.65282 682.236 9.56818 682.451 9.41753C682.667 9.26688 682.788 9.06255 682.788 8.84949C682.788 8.63644 682.667 8.43211 682.451 8.28145C682.236 8.1308 681.943 8.04616 681.638 8.04616ZM632.16 12.7537C632.951 12.8693 633.76 12.8709 634.551 12.7537L641.045 25.7194H625.666L632.16 12.7537ZM680.447 12.7553C681.238 12.8726 682.052 12.8742 682.841 12.7553L689.332 25.7194H673.954L680.447 12.7553ZM656.354 12.8533H658.653V40.1696H656.354V12.8533ZM625.611 27.326H641.088C640.723 28.9969 639.511 30.5313 637.375 31.3925C636.151 31.8863 634.763 32.1463 633.351 32.1463C631.938 32.1463 630.55 31.8863 629.327 31.3925C627.191 30.5313 625.979 28.9985 625.613 27.326H625.611ZM673.898 27.326H689.376C689.01 28.9969 687.798 30.5313 685.662 31.3925C684.439 31.8863 683.051 32.1463 681.638 32.1463C680.225 32.1463 678.838 31.8863 677.614 31.3925C675.478 30.5313 674.266 28.9985 673.901 27.326H673.898ZM657.283 41.7763C660.718 41.749 663.928 42.3916 666.099 43.3829H648.925C651.001 42.4398 654.002 41.802 657.283 41.7763ZM641.399 44.9896H673.604V46.5962H641.399V44.9896Z" fill="#B76060"/>
</svg>
