<svg width="45" height="50" viewBox="0 0 45 50" fill="none" xmlns="http://www.w3.org/2000/svg">
<path d="M22.5174 4.23469e-05C22.4924 -0.00023809 22.4673 0.000874494 22.4424 0.00337561C22.3352 0.012219 22.231 0.0465573 22.1369 0.104065C22.0427 0.161572 21.9607 0.240904 21.8965 0.336686L19.6471 3.6698C19.5504 3.81312 19.4978 3.98727 19.4972 4.16643V5.13636C17.8707 5.78069 16.4246 6.88737 15.3027 8.34615H9.88765C9.80134 8.3292 9.71302 8.3292 9.62671 8.34615H9.58022V8.35614C9.41345 8.39912 9.26494 8.50423 9.15936 8.654C9.05378 8.80377 8.9975 8.98918 8.99988 9.17942C9.00078 9.61862 8.89741 10.0503 8.7002 10.4309C8.50298 10.8115 8.21891 11.1276 7.87665 11.3472C7.53438 11.5668 7.14605 11.6822 6.75084 11.6816C6.35564 11.6811 5.96755 11.5648 5.62575 11.3443C5.28337 11.125 4.99911 10.8092 4.80164 10.4288C4.60417 10.0485 4.50048 9.61691 4.50104 9.17776C4.50245 9.06622 4.48371 8.9555 4.44591 8.85217C4.40811 8.74883 4.35202 8.65498 4.28098 8.57619C4.20993 8.49739 4.12537 8.43524 4.03232 8.39344C3.93926 8.35163 3.83959 8.33102 3.73923 8.33281C3.64076 8.33455 3.54357 8.35783 3.45319 8.40132C3.36282 8.44481 3.28104 8.50765 3.21253 8.58627C3.14401 8.66489 3.0901 8.75774 3.05388 8.85951C3.01766 8.96128 2.99984 9.06999 3.00142 9.17942C3.00142 10.5343 3.61627 11.7726 4.60001 12.5475L0.050186 26.9999C0.00235425 27.1378 -0.0116198 27.2873 0.00969655 27.4332C0.00658936 27.4592 0.00458763 27.4853 0.00369809 27.5115C0.00369809 29.5005 0.714673 31.408 1.98022 32.8145C3.24576 34.2209 4.96221 35.011 6.75196 35.011C8.5417 35.011 10.2582 34.2209 11.5237 32.8145C12.7892 31.408 13.5002 29.5005 13.5002 27.5115C13.4999 27.4909 13.4989 27.4704 13.4972 27.4499C13.5222 27.2989 13.5093 27.1432 13.4597 26.9999L8.9069 12.5442C9.6792 11.9326 10.2101 11.036 10.4005 10.011H19.4972V12.4992C19.4972 12.7202 19.5762 12.9321 19.7168 13.0884C19.8574 13.2447 20.0481 13.3325 20.247 13.3325H20.253V41.8722C17.9106 42.2905 15.8816 43.3688 14.6414 45.0003H11.2493C11.0504 45.0003 10.8597 45.0881 10.7191 45.2444C10.5785 45.4007 10.4995 45.6126 10.4995 45.8336V49.1667C10.4995 49.3877 10.5785 49.5997 10.7191 49.7559C10.8597 49.9122 11.0504 50 11.2493 50H33.7525C33.9513 50 34.1421 49.9122 34.2827 49.7559C34.4233 49.5997 34.5023 49.3877 34.5023 49.1667V45.8336C34.5023 45.6126 34.4233 45.4007 34.2827 45.2444C34.1421 45.0881 33.9513 45.0003 33.7525 45.0003H30.3694C29.1217 43.3605 27.0852 42.2805 24.7518 41.8622V13.3325C24.9496 13.3307 25.1388 13.2422 25.2781 13.0861C25.4174 12.93 25.4956 12.719 25.4956 12.4992V10.0127H34.5923C34.7842 11.0376 35.3151 11.9392 36.0889 12.5509L31.5406 26.9999C31.4927 27.1378 31.4787 27.2873 31.5001 27.4332C31.497 27.4592 31.495 27.4853 31.4941 27.5115C31.4941 29.5005 32.205 31.408 33.4706 32.8145C34.7361 34.2209 36.4526 35.011 38.2423 35.011C40.0321 35.011 41.7485 34.2209 43.0141 32.8145C44.2796 31.408 44.9906 29.5005 44.9906 27.5115C44.9903 27.4909 44.9893 27.4704 44.9876 27.4499C45.0126 27.2989 44.9996 27.1432 44.9501 26.9999L40.3988 12.5492C40.8867 12.1696 41.2858 11.6659 41.5629 11.0799C41.8399 10.494 41.9868 9.84296 41.9914 9.18109C41.9929 9.07166 41.9751 8.96295 41.9389 8.86118C41.9027 8.7594 41.8488 8.66656 41.7803 8.58794C41.7117 8.50932 41.63 8.44647 41.5396 8.40298C41.4492 8.35949 41.352 8.33622 41.2535 8.33448C41.1531 8.33268 41.0533 8.35335 40.9601 8.39525C40.867 8.43716 40.7823 8.49946 40.7113 8.57843C40.6402 8.65741 40.5841 8.75146 40.5464 8.85499C40.5087 8.95852 40.4901 9.06941 40.4917 9.18109C40.4926 9.62029 40.3893 10.052 40.1921 10.4326C39.9949 10.8132 39.7108 11.1293 39.3685 11.3489C39.0262 11.5685 38.6379 11.6838 38.2427 11.6833C37.8475 11.6828 37.4594 11.5664 37.1176 11.3459C36.7752 11.1267 36.491 10.8109 36.2935 10.4305C36.096 10.0501 35.9923 9.61857 35.9929 9.17942C35.9951 8.98992 35.9391 8.80526 35.8341 8.65589C35.7292 8.50653 35.5815 8.40138 35.4156 8.35781V8.34781H35.3661C35.2798 8.33086 35.1914 8.33086 35.1051 8.34781H29.672C28.5472 6.91299 27.1089 5.82422 25.4956 5.18636V4.16643C25.4953 3.9867 25.4427 3.81191 25.3457 3.66813L23.0962 0.33502C23.0287 0.234315 22.9416 0.151878 22.8413 0.0938708C22.7411 0.035864 22.6303 0.00378855 22.5174 4.23469e-05ZM22.4964 2.22323L23.996 4.44641V11.6659H20.9968V4.44641L22.4964 2.22323ZM19.4972 6.93291V8.34615H17.4322C18.056 7.76285 18.7504 7.29122 19.4972 6.93291ZM25.4956 6.97291C26.2289 7.32288 26.9082 7.78285 27.5261 8.34615H25.4956V6.97291ZM6.75046 8.34281C6.55159 8.34281 6.36088 8.4306 6.22026 8.58687C6.07965 8.74314 6.00065 8.95509 6.00065 9.17609C6.00065 9.39709 6.07965 9.60904 6.22026 9.76531C6.36088 9.92158 6.55159 10.0094 6.75046 10.0094C6.94932 10.0094 7.14003 9.92158 7.28065 9.76531C7.42127 9.60904 7.50026 9.39709 7.50026 9.17609C7.50026 8.95509 7.42127 8.74314 7.28065 8.58687C7.14003 8.4306 6.94932 8.34281 6.75046 8.34281ZM38.2423 8.34615C38.0435 8.34615 37.8527 8.43394 37.7121 8.59021C37.5715 8.74648 37.4925 8.95842 37.4925 9.17942C37.4925 9.40042 37.5715 9.61237 37.7121 9.76864C37.8527 9.92491 38.0435 10.0127 38.2423 10.0127C38.4412 10.0127 38.6319 9.92491 38.7725 9.76864C38.9131 9.61237 38.9921 9.40042 38.9921 9.17942C38.9921 8.95842 38.9131 8.74648 38.7725 8.59021C38.6319 8.43394 38.4412 8.34615 38.2423 8.34615ZM5.97366 13.2291C6.48952 13.3491 7.01739 13.3508 7.53325 13.2291L11.7682 26.6782H1.73875L5.97366 13.2291ZM37.4655 13.2308C37.9814 13.3525 38.5123 13.3541 39.0266 13.2308L43.26 26.6782H33.2306L37.4655 13.2308ZM21.7526 13.3325H23.2522V41.6672H21.7526V13.3325ZM1.70276 28.3448H11.7967C11.5582 30.078 10.7679 31.6696 9.37478 32.5628C8.57698 33.0751 7.67185 33.3448 6.75046 33.3448C5.82907 33.3448 4.92393 33.0751 4.12613 32.5628C2.73299 31.6696 1.9427 30.0797 1.70426 28.3448H1.70276ZM33.1946 28.3448H43.2885C43.0501 30.078 42.2598 31.6696 40.8666 32.5628C40.0688 33.0751 39.1637 33.3448 38.2423 33.3448C37.3209 33.3448 36.4158 33.0751 35.618 32.5628C34.2249 31.6696 33.4346 30.0797 33.1961 28.3448H33.1946ZM22.3584 43.3338C24.5988 43.3055 26.6923 43.9721 28.1079 45.0003H16.9073C18.2615 44.0221 20.2185 43.3605 22.3584 43.3338ZM11.9991 46.6669H33.0027V48.3334H11.9991V46.6669Z" fill="white"/>
</svg>
