<svg width="44" height="37" viewBox="0 0 44 37" fill="none" xmlns="http://www.w3.org/2000/svg">
<path fill-rule="evenodd" clip-rule="evenodd" d="M0 4.19225C0 1.87695 2.07138 0 4.6268 0H29.1065C31.6618 0 33.7333 1.87695 33.7333 4.19225V18.2388C33.7329 18.2392 33.7324 18.2397 33.7318 18.2401C30.1575 21.4703 22.7265 28.1884 21.5977 29.2187C20.1867 30.5066 19.865 32.4056 19.8339 32.7911C19.8161 33.0104 19.7234 33.7936 19.6324 34.5603C19.5637 35.1405 19.496 35.7113 19.4628 36.0215C19.4185 36.4364 19.4508 36.7432 19.5304 37H4.6268C2.07138 37 0 35.1231 0 32.8078V4.19225ZM5.32581 8.35471C5.32581 7.42857 6.15441 6.67779 7.17655 6.67779H26.5558C27.578 6.67779 28.4066 7.42857 28.4066 8.35471C28.4066 9.28075 27.578 10.0315 26.5558 10.0315H7.17655C6.15441 10.0315 5.32581 9.28075 5.32581 8.35471ZM7.17655 13.4726C6.15441 13.4726 5.32581 14.2233 5.32581 15.1495C5.32581 16.0756 6.15441 16.8264 7.17655 16.8264H26.5558C27.578 16.8264 28.4066 16.0756 28.4066 15.1495C28.4066 14.2233 27.578 13.4726 26.5558 13.4726H7.17655ZM5.32581 21.9443C5.32581 21.0182 6.15441 20.2674 7.17655 20.2674H16.8416C17.8637 20.2674 18.6923 21.0182 18.6923 21.9443C18.6923 22.8704 17.8637 23.6212 16.8416 23.6212H7.17655C6.15441 23.6212 5.32581 22.8704 5.32581 21.9443Z" fill="#FFF8F9"/>
<path d="M43.2333 18.0076C42.2109 16.9022 40.5534 16.9022 39.531 18.0076L36.6666 21.1045L40.3688 25.1072L43.2333 22.0102C44.2555 20.905 44.2555 19.1129 43.2333 18.0076Z" fill="#FFF8F9"/>
<path d="M38.1333 26.3332L33.8098 22.4643L23.9514 31.2864C23.3744 31.8026 22.9655 32.4497 22.7686 33.1583L22.0328 35.806C21.8337 36.522 22.5735 37.1634 23.3671 36.9627L26.2634 36.2301C27.0042 36.0427 27.6788 35.6886 28.2232 35.2015L38.1333 26.3332Z" fill="#FFF8F9"/>
</svg>
