<svg width="81" height="76" viewBox="0 0 81 76" fill="none" xmlns="http://www.w3.org/2000/svg">
<g clip-path="url(#clip0_3_314)">
<path d="M44.9853 51.1324C48.4669 51.1324 51.8702 50.1573 54.765 48.3305C57.6598 46.5038 59.916 43.9073 61.2483 40.8695C62.5806 37.8316 62.9292 34.4889 62.25 31.264C61.5708 28.039 59.8943 25.0768 57.4325 22.7517C54.9707 20.4267 51.8341 18.8433 48.4195 18.2018C45.0048 17.5603 41.4655 17.8896 38.249 19.1479C35.0324 20.4062 32.2832 22.537 30.349 25.271C28.4148 28.005 27.3824 31.2192 27.3824 34.5074C27.3824 38.9166 29.237 43.1452 32.5382 46.263C35.8394 49.3808 40.3167 51.1324 44.9853 51.1324ZM44.9853 55.8824C34.0746 55.8824 12.2941 62.2474 12.2941 74.8824V84.3824H77.6765V74.8824C77.6765 62.2474 55.896 55.8824 44.9853 55.8824Z" fill="black"/>
</g>
<defs>
<clipPath id="clip0_3_314">
<rect width="80.2516" height="75.7932" fill="white" transform="scale(1.00273)"/>
</clipPath>
</defs>
</svg>
