<svg width="29" height="30" viewBox="0 0 29 30" fill="none" xmlns="http://www.w3.org/2000/svg">
<path d="M28.0473 0H18.3799C17.8544 0 17.4269 0.414376 17.4269 0.923732V7.09947C17.4269 7.60882 17.8544 8.02338 18.3799 8.02338H18.969V10.3276C18.969 11.0123 19.8451 11.327 20.3065 10.8131L22.8128 8.02338H28.0473C28.5726 8.02338 29 7.60882 29 7.09947V0.923732C29 0.414376 28.5726 0 28.0473 0ZM28.362 7.09953C28.362 7.26792 28.2209 7.40486 28.0474 7.40486H22.6677C22.5755 7.40486 22.4877 7.44353 22.4272 7.51103L19.8256 10.4069C19.7487 10.4922 19.6072 10.4392 19.6072 10.3276V7.71418C19.6072 7.54337 19.4645 7.40492 19.2882 7.40492H18.3801C18.2065 7.40492 18.0651 7.26792 18.0651 7.09958V0.923732C18.0651 0.755509 18.2065 0.618517 18.3801 0.618517H28.0475C28.221 0.618517 28.3621 0.755509 28.3621 0.923732L28.362 7.09953ZM23.2132 2.89196C22.5773 2.89196 22.0599 3.39346 22.0599 4.01005C22.0599 4.62815 22.5773 5.13089 23.2132 5.13089C23.849 5.13089 24.3665 4.62815 24.3665 4.01005C24.3665 3.39346 23.849 2.89196 23.2132 2.89196ZM23.2132 4.51231C22.929 4.51231 22.6979 4.28702 22.6979 4.01005C22.6979 3.7346 22.929 3.51048 23.2132 3.51048C23.4973 3.51048 23.7285 3.7346 23.7285 4.01005C23.7285 4.28702 23.4973 4.51231 23.2132 4.51231ZM20.285 2.89196C19.6491 2.89196 19.1317 3.39346 19.1317 4.01005C19.1317 4.62815 19.6491 5.13089 20.285 5.13089C20.9224 5.13089 21.4408 4.62815 21.4408 4.01005C21.4408 3.39346 20.9224 2.89196 20.285 2.89196ZM20.285 4.51231C20.0008 4.51231 19.7697 4.28702 19.7697 4.01005C19.7697 3.7346 20.0008 3.51048 20.285 3.51048C20.5704 3.51048 20.8027 3.7346 20.8027 4.01005C20.8028 4.28702 20.5704 4.51231 20.285 4.51231ZM26.1413 2.89196C25.5039 2.89196 24.9855 3.39346 24.9855 4.01005C24.9855 4.62815 25.5039 5.13089 26.1413 5.13089C26.7772 5.13089 27.2946 4.62815 27.2946 4.01005C27.2947 3.39346 26.7772 2.89196 26.1413 2.89196ZM26.1413 4.51231C25.8559 4.51231 25.6235 4.28702 25.6235 4.01005C25.6235 3.7346 25.8559 3.51048 26.1413 3.51048C26.4254 3.51048 26.6566 3.7346 26.6566 4.01005C26.6566 4.28702 26.4254 4.51231 26.1413 4.51231ZM18.9279 26.1169C18.9279 26.2877 18.7852 26.4261 18.6089 26.4261H15.7836C15.6072 26.4261 15.4646 26.2877 15.4646 26.1169C15.4646 25.9461 15.6073 25.8076 15.7836 25.8076H18.6089C18.7852 25.8076 18.9279 25.9461 18.9279 26.1169ZM17.6319 21.3799V12.9843C17.6319 9.05955 14.1949 6.19185 10.3989 6.45699C6.88942 6.69605 4.14036 9.63617 4.14036 13.1503V21.3825C1.39088 22.2807 0 23.8929 0 26.1928V27.8351C0 29.0289 1.00189 30 2.23309 30H19.5494C20.7806 30 21.7825 29.0288 21.7825 27.8351V26.1928C21.7826 23.8902 20.388 22.2772 17.6319 21.3799ZM4.77835 13.1502C4.77835 9.95943 7.26692 7.29037 10.4443 7.07398C13.8813 6.83193 16.9938 9.42969 16.9938 12.9843V21.1909C16.0075 20.9274 14.8867 20.7569 13.8641 20.664C13.385 20.6204 13.0096 20.2154 13.0096 19.7417V19.5651C14.5394 18.4025 15.52 16.1583 15.52 14.4863C15.52 12.6481 13.8062 10.0244 12.303 9.56094C11.6388 9.35586 11.0422 9.55578 10.6263 10.1259C9.51785 11.6513 8.49564 12.1107 7.74923 12.4461C6.91396 12.8217 6.25415 13.1181 6.25415 14.4863C6.25415 16.1578 7.23423 18.4013 8.76327 19.5642V19.7421C8.76327 20.2236 8.39598 20.62 7.90903 20.6642C6.93427 20.753 5.7655 20.9287 4.77835 21.1934V13.1502ZM9.38089 19.9558C9.84748 20.196 10.3523 20.3361 10.8871 20.3361C11.4215 20.3361 11.9258 20.1963 12.3921 19.9564C12.4913 20.6586 13.0622 21.2123 13.8047 21.2798C14.2685 21.322 14.715 21.3757 15.1352 21.4402C14.8554 23.4813 13.0442 25.0422 10.8914 25.0422C8.7368 25.0422 6.92393 23.4813 6.64416 21.44C7.06191 21.3757 7.5062 21.3221 7.96886 21.2799C8.71105 21.2124 9.28207 20.6585 9.38089 19.9558ZM6.8922 14.4863C6.8922 13.5132 7.22184 13.365 8.01782 13.0073C8.82939 12.6426 9.94098 12.1428 11.1476 10.4827C11.3995 10.1373 11.7039 10.0252 12.1099 10.1505C13.3536 10.5338 14.882 12.9246 14.882 14.4863C14.882 16.7923 13.0012 19.7176 10.8871 19.7176C8.68198 19.7176 6.8922 16.5522 6.8922 14.4863ZM21.1445 27.8351C21.1445 28.6878 20.4289 29.3815 19.5494 29.3815H2.23309C1.35359 29.3815 0.637992 28.6878 0.637992 27.8351V26.1929C0.637992 23.7861 2.45176 22.2272 6.02007 21.5505C6.35551 23.8813 8.42674 25.6608 10.8914 25.6608C13.3541 25.6608 15.4236 23.8817 15.7593 21.5513C19.329 22.2275 21.1446 23.7859 21.1446 26.1929L21.1445 27.8351Z" fill="#4B1A6B"/>
</svg>
