<svg width="47" height="49" viewBox="0 0 47 49" fill="none" xmlns="http://www.w3.org/2000/svg">
<path fill-rule="evenodd" clip-rule="evenodd" d="M46.9749 7.39893C46.9607 6.67164 46.6717 5.97952 46.1707 5.47271C45.6697 4.96589 44.997 4.68527 44.2986 4.6917C43.7385 4.69537 43.1932 4.87936 42.7373 5.21845C41.1989 6.25794 39.3958 6.79146 37.5625 6.74968C34.9915 6.73743 31.6349 5.74519 30.6369 2.92772C30.3645 2.0874 29.8497 1.3552 29.1627 0.831169C28.4757 0.307141 27.6501 0.0168601 26.7987 0H20.2125C19.3596 0.016566 18.5324 0.306547 17.8435 0.830441C17.1545 1.35433 16.6374 2.08667 16.3625 2.92772C15.3628 5.74519 12.0073 6.74968 9.43636 6.74968C7.60324 6.78938 5.80077 6.25603 4.26148 5.21845C3.80592 4.8793 3.26075 4.6953 2.70079 4.6917C2.0023 4.6851 1.32948 4.96565 0.82834 5.47248C0.327201 5.97931 0.0381773 6.67153 0.0239632 7.39893C-0.492349 31.8619 7.33699 45.8513 23.2898 48.9873C23.3597 48.9974 23.4303 49.0015 23.5009 48.9995C23.5755 49.0012 23.6502 48.9971 23.7243 48.9873C27.6065 48.286 31.2908 46.6961 34.5116 44.3323C35.1386 44.4553 35.7753 44.5168 36.4134 44.516C39.2167 44.5089 41.903 43.3444 43.8833 41.2778C45.8636 39.2111 46.9764 36.411 46.9778 33.4912C46.9825 31.2176 46.3055 28.9993 45.0413 27.1457C46.495 21.5843 47.1395 15.002 46.9749 7.39893ZM37.162 42.0171C36.9129 42.0521 36.6618 42.0684 36.4104 42.0661C35.5694 42.0702 34.7331 41.9338 33.9336 41.6618C32.8573 41.3098 31.8631 40.7282 31.0143 39.9543C30.1655 39.1803 29.4806 38.2308 29.0033 37.1661C28.6435 36.4114 28.4052 35.6003 28.2977 34.7651C28.2269 34.3445 28.1915 33.9182 28.1918 33.4912C28.1936 31.6665 28.7531 29.8899 29.7892 28.4187C30.8254 26.9474 32.2843 25.858 33.9547 25.3082H33.9665C34.7561 25.0472 35.5797 24.9149 36.4081 24.9162H36.514C37.6282 24.9321 38.7277 25.1847 39.7449 25.6586C40.7622 26.1325 41.6758 26.8178 42.4298 27.6725C43.1413 28.4621 43.6959 29.3905 44.0617 30.4042C44.4353 31.3868 44.6264 32.4343 44.625 33.4912C44.6256 35.6256 43.8606 37.6833 42.4799 39.2606C41.0992 40.8379 39.2026 41.821 37.162 42.0171ZM43.1249 24.9897C41.4103 23.5108 39.2898 22.636 37.0679 22.4908C37.4223 20.7641 37.6808 19.0177 37.8424 17.2601C37.862 17.0948 37.8469 16.9271 37.7983 16.7685C37.7497 16.6099 37.6686 16.4642 37.5607 16.3413C37.4583 16.2131 37.3313 16.1087 37.1877 16.0349C37.0442 15.961 36.8874 15.9194 36.7274 15.9126C31.6701 15.6921 27.1839 13.4994 24.4135 9.88565C24.3007 9.74747 24.1604 9.63647 24.0023 9.56036C23.8442 9.48424 23.6721 9.44482 23.4979 9.44482C23.3238 9.44482 23.1517 9.48424 22.9936 9.56036C22.8355 9.63647 22.6952 9.74747 22.5824 9.88565C19.812 13.4994 15.3281 15.6921 10.2691 15.9126C9.95713 15.9255 9.66291 16.0669 9.45111 16.3058C9.23932 16.5447 9.12728 16.8614 9.13968 17.1863C9.15208 17.5112 9.2879 17.8176 9.51723 18.0382C9.74656 18.2588 10.0506 18.3755 10.3626 18.3626C15.5862 18.1421 20.2936 16.0228 23.4979 12.5071C26.6646 15.8507 30.8815 17.8946 35.3766 18.2646C35.2067 19.7263 34.9639 21.1778 34.6492 22.6133C32.1859 23.0542 29.9515 24.3877 28.3406 26.3781C26.7297 28.3685 25.8459 30.8879 25.8454 33.4912C25.8448 34.3868 25.9473 35.2792 26.1507 36.1494C26.3359 36.9308 26.6076 37.6872 26.9604 38.4034C27.9746 40.5294 29.6218 42.2568 31.656 43.3278C29.142 44.8959 26.3789 45.9828 23.4974 46.5373C9.00062 43.5728 1.88692 30.4287 2.36854 7.46017C2.37219 7.39806 2.39215 7.3382 2.42622 7.28708C2.46029 7.23597 2.50715 7.19559 2.56175 7.17032C2.61634 7.14505 2.67653 7.13586 2.73579 7.14377C2.79504 7.15168 2.8511 7.17638 2.8978 7.21518C4.83156 8.55625 7.11306 9.24876 9.43579 9.19966C13.8144 9.19966 17.3945 7.06818 18.5683 3.77296C18.6791 3.4036 18.8962 3.07862 19.1901 2.84199C19.4841 2.60536 19.8408 2.46851 20.2119 2.44998H26.7981C27.1672 2.47065 27.5213 2.60851 27.8129 2.84502C28.1046 3.08153 28.3197 3.40535 28.4294 3.77296C29.065 5.46405 30.2598 6.86296 31.7984 7.71743C33.5638 8.72272 35.5495 9.23345 37.5613 9.19966C39.8842 9.24873 42.1659 8.55623 44.0998 7.21518C44.1562 7.16759 44.2267 7.14164 44.2992 7.14168C44.3831 7.1395 44.4645 7.17161 44.5259 7.23114C44.5874 7.29067 44.624 7.37287 44.6279 7.46017C44.8375 13.346 44.3325 19.2358 43.1249 24.9897ZM26.961 38.4034C25.9442 38.9134 24.8776 39.3077 23.7796 39.5793C23.5948 39.6283 23.4011 39.6283 23.2162 39.5793C16.3613 37.8399 12.0532 32.4377 10.0338 23.0665C10.0006 22.91 9.99736 22.7481 10.0242 22.5902C10.051 22.4323 10.1075 22.2815 10.1903 22.1463C10.2731 22.0112 10.3807 21.8943 10.5068 21.8025C10.633 21.7106 10.7753 21.6455 10.9256 21.6109C11.0759 21.5763 11.2313 21.5729 11.3829 21.6009C11.5345 21.6289 11.6793 21.6876 11.8091 21.7739C11.9388 21.8601 12.051 21.9722 12.1392 22.1036C12.2275 22.235 12.2899 22.3832 12.3231 22.5398C14.8935 34.4712 21.0916 36.5046 23.4962 37.1294C24.4119 36.9032 25.3015 36.5746 26.1495 36.1494C26.3353 36.9309 26.6076 37.6873 26.961 38.4034ZM35.085 38.2631C34.7735 38.2627 34.4749 38.1336 34.2547 37.9042L30.8863 34.3891C30.682 34.1564 30.5717 33.8508 30.5783 33.5356C30.5849 33.2204 30.708 32.92 30.9218 32.6969C31.1356 32.4738 31.4238 32.3452 31.7264 32.3377C32.0289 32.3303 32.3226 32.4446 32.5463 32.6569L35.085 35.306L40.2769 29.8866C40.3842 29.7645 40.5141 29.6662 40.6589 29.5978C40.8036 29.5294 40.9602 29.4923 41.1191 29.4886C41.278 29.485 41.436 29.515 41.5835 29.5768C41.7309 29.6385 41.8649 29.7307 41.9772 29.8479C42.0895 29.9651 42.1778 30.1047 42.2368 30.2585C42.2959 30.4122 42.3244 30.5768 42.3206 30.7423C42.3168 30.9078 42.2809 31.0708 42.215 31.2214C42.149 31.3721 42.0545 31.5073 41.937 31.6188L35.9147 37.9042C35.8057 38.018 35.6762 38.1083 35.5336 38.1699C35.391 38.2315 35.2382 38.2632 35.0838 38.2631H35.085Z" fill="white"/>
</svg>
