<svg width="62" height="62" viewBox="0 0 62 62" fill="none" xmlns="http://www.w3.org/2000/svg">
<path fill-rule="evenodd" clip-rule="evenodd" d="M0 7.02485C0 3.14516 2.91876 0 6.51957 0H41.0137C44.6144 0 47.5333 3.14516 47.5333 7.02485V30.5623C47.5326 30.563 47.532 30.5638 47.5311 30.5645C42.4946 35.9773 32.0238 47.2346 30.4331 48.9611C28.4448 51.1192 27.9916 54.3013 27.9478 54.9471C27.9227 55.3147 27.792 56.6271 27.6639 57.9118C27.567 58.8841 27.4716 59.8406 27.4249 60.3603C27.3625 61.0555 27.4079 61.5697 27.5201 62H6.51957C2.91876 62 0 58.8548 0 54.9751V7.02485ZM7.50454 13.9998C7.50454 12.4479 8.67212 11.1898 10.1124 11.1898H37.4195C38.8598 11.1898 40.0274 12.4479 40.0274 13.9998C40.0274 15.5515 38.8598 16.8096 37.4195 16.8096H10.1124C8.67212 16.8096 7.50454 15.5515 7.50454 13.9998ZM10.1124 22.5756C8.67212 22.5756 7.50454 23.8337 7.50454 25.3856C7.50454 26.9375 8.67212 28.1956 10.1124 28.1956H37.4195C38.8598 28.1956 40.0274 26.9375 40.0274 25.3856C40.0274 23.8337 38.8598 22.5756 37.4195 22.5756H10.1124ZM7.50454 36.7714C7.50454 35.2197 8.67212 33.9616 10.1124 33.9616H23.7313C25.1716 33.9616 26.3391 35.2197 26.3391 36.7714C26.3391 38.3234 25.1716 39.5814 23.7313 39.5814H10.1124C8.67212 39.5814 7.50454 38.3234 7.50454 36.7714Z" fill="#FF385C"/>
<path d="M60.9196 30.1749C59.4789 28.3226 57.1434 28.3226 55.7028 30.1749L51.6666 35.3643L56.8833 42.0714L60.9196 36.882C62.36 35.0299 62.36 32.0269 60.9196 30.1749Z" fill="#FF385C"/>
<path d="M53.7333 44.1259L47.641 37.6429L33.7496 52.4258C32.9367 53.2908 32.3604 54.3752 32.0831 55.5625L31.0462 59.9992C30.7657 61.1991 31.8082 62.2739 32.9263 61.9375L37.0075 60.7098C38.0513 60.3959 39.002 59.8025 39.769 58.9863L53.7333 44.1259Z" fill="#FF385C"/>
</svg>
