<svg width="79" height="86" viewBox="0 0 79 86" fill="none" xmlns="http://www.w3.org/2000/svg">
<ellipse cx="39.5" cy="43" rx="39.5" ry="43" fill="#425066"/>
<path fill-rule="evenodd" clip-rule="evenodd" d="M40.1077 63.5076C50.8476 63.5076 59.5539 54.0298 59.5539 42.3383C59.5539 30.6468 50.8476 21.1691 40.1077 21.1691C29.3678 21.1691 20.6615 30.6468 20.6615 42.3383C20.6615 54.0298 29.3678 63.5076 40.1077 63.5076ZM40.1077 66.1537C52.19 66.1537 61.9846 55.4912 61.9846 42.3383C61.9846 29.1855 52.19 18.5229 40.1077 18.5229C28.0254 18.5229 18.2308 29.1855 18.2308 42.3383C18.2308 55.4912 28.0254 66.1537 40.1077 66.1537Z" fill="white"/>
<path fill-rule="evenodd" clip-rule="evenodd" d="M31.2292 47.6305C33.1193 52.7004 36.6004 55.569 40.1077 55.569C43.6151 55.569 47.0962 52.7004 48.9863 47.6305H31.2292ZM40.1077 58.2151C35.1999 58.2151 30.9459 54.1825 28.8556 48.2921C28.8355 48.2354 28.8156 48.1787 28.7959 48.1218C28.2511 46.5456 29.4121 44.9844 30.9592 44.9844H49.2563C50.8034 44.9844 51.9644 46.5456 51.4196 48.1218C51.3999 48.1787 51.38 48.2354 51.3599 48.2921C49.2696 54.1825 45.0156 58.2151 40.1077 58.2151Z" fill="white"/>
<path d="M36.8289 40.2771C36.9869 39.8038 36.9396 39.2256 36.8087 38.6984C36.6722 38.1485 36.4209 37.556 36.0669 37.0058C35.3612 35.9087 34.1909 34.9001 32.6099 34.8277C30.9731 34.753 29.7499 35.8838 28.9964 37.0841C28.6141 37.6931 28.33 38.3519 28.1518 38.958C27.9784 39.5475 27.8864 40.1511 27.947 40.6335C27.9751 40.8574 28.1062 41.0502 28.2946 41.1446C28.4831 41.2392 28.7028 41.2226 28.8774 41.1006C29.3628 40.7613 29.8729 40.2971 30.3442 39.8681C30.5589 39.6727 30.7656 39.4847 30.9581 39.3192C31.6415 38.7316 32.1733 38.3967 32.6142 38.3733C33.033 38.351 33.5171 38.6124 34.1269 39.1089C34.3449 39.2866 34.5565 39.4745 34.7756 39.6693C34.8538 39.7386 34.9328 39.8088 35.0134 39.8796C35.3097 40.1401 35.6252 40.4078 35.9433 40.6171C36.0988 40.7197 36.2884 40.7408 36.4599 40.6751C36.6314 40.6092 36.7668 40.4631 36.8289 40.2771ZM43.2837 40.2771C43.1257 39.8038 43.173 39.2256 43.3039 38.6984C43.4404 38.1485 43.6917 37.556 44.0457 37.0058C44.7514 35.9087 45.9218 34.9001 47.5027 34.8277C49.1395 34.753 50.3627 35.8838 51.1162 37.0841C51.4986 37.6931 51.7826 38.3519 51.9609 38.958C52.1344 39.5475 52.2263 40.1511 52.1656 40.6335C52.1375 40.8574 52.0064 41.0502 51.818 41.1446C51.6296 41.2392 51.4099 41.2226 51.2352 41.1006C50.7499 40.7613 50.2397 40.2971 49.7684 39.8681C49.5537 39.6727 49.347 39.4847 49.1545 39.3192C48.4711 38.7316 47.9393 38.3967 47.4984 38.3733C47.0797 38.351 46.5955 38.6124 45.9859 39.1089C45.7678 39.2866 45.5562 39.4745 45.337 39.6693C45.2589 39.7386 45.1798 39.8088 45.0992 39.8796C44.8029 40.1401 44.4874 40.4078 44.1695 40.6171C44.0138 40.7197 43.8243 40.7408 43.6528 40.6751C43.4813 40.6092 43.3459 40.4631 43.2837 40.2771Z" fill="white"/>
</svg>
