<svg width="52" height="52" viewBox="0 0 52 52" fill="none" xmlns="http://www.w3.org/2000/svg">
<path fill-rule="evenodd" clip-rule="evenodd" d="M26.0118 0C11.6826 0 0 11.6661 0 25.9929C0 40.3197 11.685 52 26.0118 52C40.3386 52 52 40.3197 52 25.9929C52 11.6661 40.3386 0 26.0118 0ZM26.0118 4.72598C28.8057 4.72131 31.5731 5.26825 34.1551 6.33541C36.7372 7.40258 39.0832 8.96899 41.0585 10.9448C43.0339 12.9206 44.5998 15.2669 45.6664 17.8492C46.733 20.4315 47.2793 23.199 47.274 25.9929C47.2796 28.7876 46.7336 31.5558 45.6673 34.1391C44.601 36.7223 43.0353 39.0697 41.0601 41.0467C39.0848 43.0237 36.7388 44.5915 34.1566 45.6601C31.5743 46.7287 28.8065 47.2771 26.0118 47.274C23.216 47.2774 20.4469 46.7294 17.8631 45.6611C15.2794 44.5929 12.9317 43.0256 10.9545 41.0488C8.97731 39.0721 7.40944 36.7248 6.34066 34.1412C5.27188 31.5577 4.72318 28.7888 4.72598 25.9929C4.72598 14.2205 14.2394 4.72598 26.0118 4.72598ZM25.974 9.41889C25.6617 9.42195 25.353 9.4869 25.066 9.60999C24.7789 9.73308 24.5191 9.91186 24.3015 10.136C24.084 10.3601 23.913 10.6252 23.7986 10.9158C23.6841 11.2064 23.6284 11.5168 23.6346 11.8291V25.9929C23.636 26.3039 23.6986 26.6115 23.819 26.8982C23.9395 27.1849 24.1153 27.4449 24.3365 27.6635L33.7884 37.1202C34.0071 37.3452 34.2683 37.5244 34.5569 37.6474C34.8456 37.7703 35.1558 37.8346 35.4695 37.8364C35.7832 37.8382 36.0941 37.7775 36.3842 37.6579C36.6742 37.5382 36.9375 37.3621 37.1587 37.1396C37.3799 36.9171 37.5546 36.6529 37.6726 36.3622C37.7906 36.0715 37.8495 35.7602 37.8459 35.4465C37.8423 35.1328 37.7763 34.8229 37.6517 34.535C37.5271 34.2471 37.3465 33.9869 37.1202 33.7695L28.3654 25.0146V11.8291C28.3717 11.5125 28.3143 11.1978 28.1967 10.9037C28.079 10.6096 27.9034 10.3422 27.6803 10.1174C27.4572 9.89256 27.1912 9.71486 26.8981 9.59486C26.605 9.47487 26.2907 9.41502 25.974 9.41889Z" fill="white"/>
</svg>
