<svg width="52" height="44" viewBox="0 0 52 44" fill="none" xmlns="http://www.w3.org/2000/svg">
<path d="M51.7373 21.2922L37.6552 9.87524V2.90748C37.6552 2.13636 37.2773 1.39684 36.6048 0.85158C35.9323 0.306322 35.0201 0 34.069 0H3.58621C2.63509 0 1.72292 0.306322 1.05038 0.85158C0.377831 1.39684 0 2.13636 0 2.90748V36.3434C0 37.1146 0.377831 37.8541 1.05038 38.3993C1.72292 38.9446 2.63509 39.2509 3.58621 39.2509H31.4457L30.5034 42.729C30.4745 42.8352 30.4755 42.9453 30.5061 43.0512C30.5367 43.157 30.5962 43.256 30.6803 43.3407C30.7643 43.4255 30.8708 43.4939 30.9918 43.5408C31.1127 43.5878 31.2452 43.6122 31.3793 43.6121H47.5172C47.7357 43.6121 47.9467 43.5473 48.1104 43.4301C48.2742 43.3129 48.3795 43.1512 48.4066 42.9754L49.2655 37.4083L51.7373 35.4036C51.9055 35.2673 52 35.0825 52 34.8897V21.8061C52 21.6133 51.9055 21.4285 51.7373 21.2922ZM3.58621 37.7972C3.11065 37.7972 2.65456 37.644 2.31829 37.3714C1.98202 37.0988 1.7931 36.729 1.7931 36.3434V2.90748C1.7931 2.52192 1.98202 2.15216 2.31829 1.87953C2.65456 1.6069 3.11065 1.45374 3.58621 1.45374H34.069C34.5445 1.45374 35.0006 1.6069 35.3369 1.87953C35.6732 2.15216 35.8621 2.52192 35.8621 2.90748V22.232L31.4878 18.6856C30.9834 18.2768 30.2994 18.0472 29.5862 18.0472C28.873 18.0472 28.189 18.2768 27.6846 18.6856L25.7373 20.2644C25.2331 20.6733 24.9498 21.2278 24.9498 21.8061C24.9498 22.3843 25.2331 22.9388 25.7373 23.3478L32.4032 28.752C31.2054 29.7946 30.5224 31.1579 30.4844 32.5824C30.4464 34.0068 31.0559 35.3928 32.197 36.4765L31.8392 37.7972H3.58621ZM50.2069 34.5888L47.7799 36.5564C47.639 36.6707 47.5491 36.8198 47.5244 36.9802L46.7256 42.1584H32.4937L34.0483 36.4161C34.0804 36.2979 34.0755 36.1752 34.0342 36.0589C33.9928 35.9426 33.9163 35.8366 33.8117 35.7503C33.2887 35.3183 32.8829 34.8026 32.62 34.2361C32.3572 33.6696 32.2433 33.0648 32.2855 32.4605C32.3277 31.8562 32.5251 31.2657 32.8651 30.7269C33.2051 30.188 33.6802 29.7127 34.2599 29.3313C34.3575 29.2672 34.4373 29.1871 34.4943 29.0964C34.5512 29.0056 34.584 28.9062 34.5905 28.8045C34.5971 28.7028 34.5771 28.6011 34.5321 28.506C34.487 28.411 34.4178 28.3246 34.329 28.2527L27.0077 22.3171C26.8396 22.1807 26.7452 21.9959 26.7452 21.8032C26.7452 21.6104 26.8396 21.4256 27.0077 21.2893L28.955 19.7105C29.1232 19.5742 29.3512 19.4977 29.5889 19.4977C29.8266 19.4977 30.0546 19.5742 30.2228 19.7105L38.8171 26.6783L40.0848 25.6505L37.6552 23.6857V19.9264L39.711 21.5931L40.9787 20.5653L37.6552 17.8708V11.9308L50.2069 22.107V34.5888Z" fill="#4A3DB8"/>
<path d="M18.8275 21.0793C21.2624 21.077 23.6242 20.4044 25.5259 19.1716C27.4276 17.9388 28.7566 16.219 29.2951 14.2938C29.8336 12.3686 29.5497 10.3523 28.4899 8.57501C27.4302 6.79775 25.6573 5.36497 23.4618 4.51137C21.2664 3.65777 18.7784 3.43396 16.4055 3.87661C14.0326 4.31926 11.9155 5.40212 10.401 6.94781C8.88641 8.4935 8.06423 10.4104 8.0691 12.3844C8.07396 14.3585 8.90559 16.2727 10.4277 17.8134C11.4354 18.8344 12.7137 19.6581 14.1679 20.2235C15.6221 20.7889 17.2148 21.0814 18.8275 21.0793ZM13.4697 13.0837C13.5068 13.9775 13.6312 14.8676 13.8418 15.7455C13.002 15.9109 12.1837 16.1409 11.3978 16.4324C10.5614 15.4358 10.0494 14.2838 9.90954 13.0837H13.4697ZM15.2915 19.0288C14.2988 18.6843 13.3912 18.197 12.6126 17.5903C13.1579 17.414 13.7175 17.2682 14.2874 17.1542C14.5351 17.8073 14.8719 18.4361 15.2915 19.0288ZM16.0913 16.8874C17.9059 16.687 19.7456 16.687 21.5602 16.8874C20.8555 18.5759 19.8137 19.6255 18.8275 19.6255C17.8413 19.6255 16.7995 18.5759 16.0913 16.8874ZM23.3677 17.1534C23.9377 17.2673 24.4973 17.413 25.0424 17.5896C24.264 18.1957 23.3563 18.6824 22.3635 19.0259C22.783 18.4342 23.1198 17.8057 23.3677 17.1534ZM22.3635 5.6849C23.3563 6.02934 24.2639 6.51669 25.0424 7.12337C24.4972 7.29971 23.9376 7.44542 23.3677 7.55949C23.1199 6.90632 22.7831 6.27757 22.3635 5.6849ZM21.5638 7.82625C19.7492 8.02663 17.9095 8.02663 16.0949 7.82625C16.7995 6.13774 17.8458 5.08814 18.8275 5.08814C19.8093 5.08814 20.8555 6.13774 21.5638 7.82625ZM14.2874 7.55949C13.7174 7.44564 13.1578 7.29992 12.6126 7.12337C13.3913 6.51721 14.2989 6.03035 15.2915 5.68635C14.8722 6.2786 14.5354 6.90685 14.2874 7.55949ZM15.6233 9.23929C16.6834 9.3738 17.7545 9.44401 18.8275 9.44935C19.9006 9.44422 20.9716 9.37425 22.0318 9.24001C22.23 10.0276 22.3499 10.8268 22.3904 11.63H15.262C15.3033 10.8268 15.4242 10.0268 15.6233 9.23929ZM22.3931 13.0837C22.3526 13.8871 22.2327 14.6865 22.0345 15.4744C19.9096 15.2221 17.7508 15.2221 15.626 15.4744C15.4278 14.6865 15.3079 13.8871 15.2673 13.0837H22.3931ZM26.2564 16.4324C25.4709 16.1407 24.6528 15.9106 23.8133 15.7455C24.0238 14.8676 24.1482 13.9775 24.1853 13.0837H27.7455C27.6057 14.2839 27.0934 15.436 26.2564 16.4324ZM27.7455 11.63H24.1853C24.1482 10.7361 24.0238 9.84607 23.8133 8.96817C24.653 8.80277 25.4714 8.57276 26.2573 8.28127C27.0937 9.2779 27.6057 10.4298 27.7455 11.63ZM11.3987 8.28127C12.1843 8.57267 13.0024 8.80268 13.8418 8.96817C13.6312 9.84607 13.5068 10.7361 13.4697 11.63H9.90954C10.0493 10.4297 10.5616 9.2777 11.3987 8.28127Z" fill="#4A3DB8"/>
<path d="M24.2069 23.2598H8.06897V24.7135H24.2069V23.2598Z" fill="#4A3DB8"/>
<path d="M17.931 26.8941H8.06897V28.3479H17.931V26.8941Z" fill="#4A3DB8"/>
<path d="M28.6897 26.8941H19.7241V28.3479H28.6897V26.8941Z" fill="#4A3DB8"/>
<path d="M11.6552 29.8016H8.06897C7.83119 29.8016 7.60314 29.8782 7.43501 30.0145C7.26687 30.1508 7.17241 30.3357 7.17241 30.5285V35.6166H8.96552V34.1628H11.6552C11.893 34.1628 12.121 34.0863 12.2891 33.9499C12.4573 33.8136 12.5517 33.6287 12.5517 33.436V30.5285C12.5517 30.3357 12.4573 30.1508 12.2891 30.0145C12.121 29.8782 11.893 29.8016 11.6552 29.8016ZM10.7586 32.7091H8.96552V31.2554H10.7586V32.7091Z" fill="#4A3DB8"/>
<path d="M17.931 29.8016H14.3448C14.107 29.8016 13.879 29.8782 13.7109 30.0145C13.5427 30.1508 13.4483 30.3357 13.4483 30.5285V35.6166H15.2414V34.1628H17.0345V35.6166H18.8276V30.5285C18.8276 30.3357 18.7331 30.1508 18.565 30.0145C18.3969 29.8782 18.1688 29.8016 17.931 29.8016ZM15.2414 32.7091V31.2554H17.0345V32.7091H15.2414Z" fill="#4A3DB8"/>
<path d="M19.7241 30.5285V32.7091C19.7241 32.9019 19.8186 33.0868 19.9867 33.2231C20.1549 33.3594 20.3829 33.436 20.6207 33.436H22.4138V34.1628H19.7241V35.6166H23.3103C23.5481 35.6166 23.7762 35.54 23.9443 35.4037C24.1124 35.2674 24.2069 35.0825 24.2069 34.8897V32.7091C24.2069 32.5163 24.1124 32.3314 23.9443 32.1951C23.7762 32.0588 23.5481 31.9822 23.3103 31.9822H21.5172V31.2554H24.2069V29.8016H20.6207C20.3829 29.8016 20.1549 29.8782 19.9867 30.0145C19.8186 30.1508 19.7241 30.3357 19.7241 30.5285Z" fill="#4A3DB8"/>
<path d="M25.1034 30.5285V32.7091C25.1034 32.9019 25.1979 33.0868 25.366 33.2231C25.5342 33.3594 25.7622 33.436 26 33.436H27.7931V34.1628H25.1034V35.6166H28.6897C28.9274 35.6166 29.1555 35.54 29.3236 35.4037C29.4918 35.2674 29.5862 35.0825 29.5862 34.8897V32.7091C29.5862 32.5163 29.4918 32.3314 29.3236 32.1951C29.1555 32.0588 28.9274 31.9822 28.6897 31.9822H26.8966V31.2554H29.5862V29.8016H26C25.7622 29.8016 25.5342 29.8782 25.366 30.0145C25.1979 30.1508 25.1034 30.3357 25.1034 30.5285Z" fill="#4A3DB8"/>
<path d="M4.48276 3.63434H2.68966V35.6166H4.48276V3.63434Z" fill="#4A3DB8"/>
</svg>
