<svg width="28" height="25" viewBox="0 0 28 25" fill="none" xmlns="http://www.w3.org/2000/svg">
<path d="M6.90941 9.12116C6.72481 8.94786 6.57837 8.74207 6.47845 8.51556C6.37853 8.28904 6.3271 8.04623 6.3271 7.80102C6.3271 7.55581 6.37853 7.313 6.47845 7.08648C6.57837 6.85996 6.72481 6.65417 6.90941 6.48088L13.2282 0.547253C13.5055 0.286284 13.859 0.10843 14.2439 0.0361629C14.6288 -0.0361046 15.0278 0.00045602 15.3906 0.141226C15.7534 0.281996 16.0636 0.52066 16.2822 0.827064C16.5007 1.13347 16.6177 1.49387 16.6183 1.86273C16.6178 2.04749 16.5894 2.23124 16.534 2.40851C16.534 2.45516 16.4992 2.50181 16.4794 2.55312C16.379 2.78372 16.2304 2.99309 16.0425 3.16887L9.71885 9.12116C9.53445 9.29465 9.31548 9.43227 9.07444 9.52617C8.83341 9.62008 8.57505 9.66841 8.31413 9.66841C8.05321 9.66841 7.79485 9.62008 7.55382 9.52617C7.31278 9.43227 7.09381 9.29465 6.90941 9.12116ZM13.3671 12.9463L1.69261 23.9039C1.55379 24.0336 1.37728 24.1218 1.18525 24.1575C0.993232 24.1932 0.794273 24.1747 0.613388 24.1044C0.432503 24.0341 0.277765 23.9152 0.168627 23.7625C0.0594892 23.6097 0.000821816 23.4301 0 23.2462C0.00893573 23.002 0.119432 22.7709 0.307747 22.6024L11.9773 11.6215C12.515 11.9883 12.9845 12.4359 13.3671 12.9463ZM15.3377 14.397L15.2682 14.467C14.9193 13.3744 14.288 12.3799 13.4305 11.5724C12.573 10.765 11.5161 10.1696 10.3542 9.83954L10.4237 9.7789L16.7375 3.84527C16.7871 3.79862 16.8367 3.74731 16.8814 3.69599C17.2157 4.79846 17.8438 5.8025 18.7063 6.61309C19.5689 7.42368 20.6372 8.01399 21.8103 8.32814L21.6515 8.46342L15.3377 14.397ZM25.7465 10.4413C25.7461 10.6867 25.6941 10.9297 25.5936 11.1562C25.4931 11.3827 25.346 11.5884 25.1608 11.7614L18.847 17.6997C18.6626 17.8732 18.4436 18.0108 18.2026 18.1047C17.9616 18.1986 17.7032 18.247 17.4423 18.247C17.1814 18.247 16.923 18.1986 16.682 18.1047C16.441 18.0108 16.222 17.8732 16.0376 17.6997C15.8533 17.5263 15.7071 17.3205 15.6075 17.094C15.5078 16.8674 15.4566 16.6247 15.4568 16.3796C15.4568 16.1815 15.4903 15.9847 15.5561 15.7965C15.5671 15.76 15.5804 15.7242 15.5958 15.6892C15.6924 15.4515 15.8432 15.2366 16.0376 15.0595L22.3563 9.12116C22.5495 8.94055 22.7813 8.80062 23.0363 8.71065C23.0794 8.69251 23.1243 8.67844 23.1704 8.66867C23.3658 8.60862 23.5703 8.57869 23.7759 8.58004C24.3025 8.58004 24.8075 8.77663 25.1799 9.12656C25.5522 9.47648 25.7614 9.95109 25.7614 10.446L25.7465 10.4413ZM26.5109 22.136H14.5981C14.2032 22.136 13.8244 22.2834 13.5452 22.5458C13.2659 22.8083 13.109 23.1642 13.109 23.5354C13.109 23.9066 13.2659 24.2625 13.5452 24.5249C13.8244 24.7874 14.2032 24.9348 14.5981 24.9348H26.5109C26.9058 24.9348 27.2846 24.7874 27.5639 24.5249C27.8431 24.2625 28 23.9066 28 23.5354C28 23.1642 27.8431 22.8083 27.5639 22.5458C27.2846 22.2834 26.9058 22.136 26.5109 22.136Z" fill="#1AA260"/>
</svg>
