<svg width="28" height="19" viewBox="0 0 28 19" fill="none" xmlns="http://www.w3.org/2000/svg">
<path d="M4.66581 0C2.08895 0 0 1.86061 0 4.15578V14.5453C0 16.8404 2.08895 18.7011 4.66581 18.7011H16.3303C18.8193 18.7011 20.8529 16.9653 20.9889 14.7789L26.2438 17.5213C26.6045 17.7096 27.0507 17.7114 27.4135 17.5263C27.7763 17.3411 28 16.9973 28 16.6249V2.07625C28 1.70425 27.7767 1.36062 27.4144 1.17534C27.0524 0.990052 26.6066 0.991383 26.2459 1.17883L20.9882 3.91038C20.8457 1.72945 18.8147 0 16.3303 0H4.66581ZM2.33291 4.15578C2.33291 3.0082 3.37739 2.07789 4.66581 2.07789H16.3303C17.6188 2.07789 18.6632 3.0082 18.6632 4.15578V14.5453C18.6632 15.6928 17.6188 16.6232 16.3303 16.6232H4.66581C3.37739 16.6232 2.33291 15.6928 2.33291 14.5453V4.15578ZM20.9964 12.3743V6.31172L25.6671 3.88505V14.8119L20.9964 12.3743Z" fill="white"/>
</svg>
