<svg width="72" height="72" viewBox="0 0 72 72" fill="none" xmlns="http://www.w3.org/2000/svg">
<path d="M35.775 2.25001C21.15 2.25001 8.6625 11.7 4.05 24.75H67.725C63 11.7 50.5125 2.25001 35.775 2.25001Z" fill="#F2B200"/>
<path d="M35.775 69.75C50.5125 69.75 63 60.4125 67.6125 47.25H4.05C8.6625 60.4125 21.15 69.75 35.775 69.75Z" fill="#83BF4F"/>
<path d="M4.05 24.75C2.8125 28.2375 2.1375 32.0625 2.1375 36C2.1375 39.9375 2.8125 43.7625 4.05 47.25H67.725C68.9625 43.7625 69.6375 39.9375 69.6375 36C69.6375 32.0625 68.9625 28.2375 67.725 24.75H4.05Z" fill="white"/>
<path d="M35.775 45C40.7456 45 44.775 40.9706 44.775 36C44.775 31.0294 40.7456 27 35.775 27C30.8044 27 26.775 31.0294 26.775 36C26.775 40.9706 30.8044 45 35.775 45Z" fill="#428BC1"/>
<path d="M35.775 43.875C40.1242 43.875 43.65 40.3492 43.65 36C43.65 31.6507 40.1242 28.125 35.775 28.125C31.4258 28.125 27.9 31.6507 27.9 36C27.9 40.3492 31.4258 43.875 35.775 43.875Z" fill="white"/>
<path d="M32.8497 29.2494C33.1602 29.2494 33.4119 28.9977 33.4119 28.6872C33.4119 28.3767 33.1602 28.125 32.8497 28.125C32.5392 28.125 32.2875 28.3767 32.2875 28.6872C32.2875 28.9977 32.5392 29.2494 32.8497 29.2494Z" fill="#428BC1"/>
<path d="M31.0497 30.2619C31.3602 30.2619 31.6119 30.0102 31.6119 29.6997C31.6119 29.3892 31.3602 29.1375 31.0497 29.1375C30.7392 29.1375 30.4875 29.3892 30.4875 29.6997C30.4875 30.0102 30.7392 30.2619 31.0497 30.2619Z" fill="#428BC1"/>
<path d="M29.5872 31.7244C29.8977 31.7244 30.1494 31.4727 30.1494 31.1622C30.1494 30.8517 29.8977 30.6 29.5872 30.6C29.2767 30.6 29.025 30.8517 29.025 31.1622C29.025 31.4727 29.2767 31.7244 29.5872 31.7244Z" fill="#428BC1"/>
<path d="M28.5747 33.5244C28.8852 33.5244 29.1369 33.2727 29.1369 32.9622C29.1369 32.6517 28.8852 32.4 28.5747 32.4C28.2642 32.4 28.0125 32.6517 28.0125 32.9622C28.0125 33.2727 28.2642 33.5244 28.5747 33.5244Z" fill="#428BC1"/>
<path d="M28.0122 35.5493C28.3227 35.5493 28.5744 35.2976 28.5744 34.9871C28.5744 34.6767 28.3227 34.425 28.0122 34.425C27.7017 34.425 27.45 34.6767 27.45 34.9871C27.45 35.2976 27.7017 35.5493 28.0122 35.5493Z" fill="#428BC1"/>
<path d="M28.0122 37.5744C28.3227 37.5744 28.5744 37.3227 28.5744 37.0122C28.5744 36.7017 28.3227 36.45 28.0122 36.45C27.7017 36.45 27.45 36.7017 27.45 37.0122C27.45 37.3227 27.7017 37.5744 28.0122 37.5744Z" fill="#428BC1"/>
<path d="M28.5747 39.5994C28.8852 39.5994 29.1369 39.3477 29.1369 39.0372C29.1369 38.7267 28.8852 38.475 28.5747 38.475C28.2642 38.475 28.0125 38.7267 28.0125 39.0372C28.0125 39.3477 28.2642 39.5994 28.5747 39.5994Z" fill="#428BC1"/>
<path d="M29.5872 41.3993C29.8977 41.3993 30.1494 41.1476 30.1494 40.8372C30.1494 40.5267 29.8977 40.275 29.5872 40.275C29.2767 40.275 29.025 40.5267 29.025 40.8372C29.025 41.1476 29.2767 41.3993 29.5872 41.3993Z" fill="#428BC1"/>
<path d="M31.0497 42.8619C31.3602 42.8619 31.6119 42.6102 31.6119 42.2997C31.6119 41.9892 31.3602 41.7375 31.0497 41.7375C30.7392 41.7375 30.4875 41.9892 30.4875 42.2997C30.4875 42.6102 30.7392 42.8619 31.0497 42.8619Z" fill="#428BC1"/>
<path d="M32.8497 43.8744C33.1602 43.8744 33.4119 43.6227 33.4119 43.3122C33.4119 43.0017 33.1602 42.75 32.8497 42.75C32.5392 42.75 32.2875 43.0017 32.2875 43.3122C32.2875 43.6227 32.5392 43.8744 32.8497 43.8744Z" fill="#428BC1"/>
<path d="M34.7622 44.3244C35.0727 44.3244 35.3244 44.0727 35.3244 43.7622C35.3244 43.4517 35.0727 43.2 34.7622 43.2C34.4517 43.2 34.2 43.4517 34.2 43.7622C34.2 44.0727 34.4517 44.3244 34.7622 44.3244Z" fill="#428BC1"/>
<path d="M36.3375 43.8746C36.3375 43.5373 36.5624 43.3124 36.7873 43.2C37.1246 43.2 37.3494 43.4249 37.4619 43.6498C37.4619 43.9871 37.237 44.2119 37.0121 44.3244C36.5624 44.4368 36.3375 44.2119 36.3375 43.8746Z" fill="#428BC1"/>
<path d="M38.8122 43.8744C39.1227 43.8744 39.3744 43.6227 39.3744 43.3122C39.3744 43.0017 39.1227 42.75 38.8122 42.75C38.5017 42.75 38.25 43.0017 38.25 43.3122C38.25 43.6227 38.5017 43.8744 38.8122 43.8744Z" fill="#428BC1"/>
<path d="M40.6122 42.8619C40.9227 42.8619 41.1744 42.6102 41.1744 42.2997C41.1744 41.9892 40.9227 41.7375 40.6122 41.7375C40.3017 41.7375 40.05 41.9892 40.05 42.2997C40.05 42.6102 40.3017 42.8619 40.6122 42.8619Z" fill="#428BC1"/>
<path d="M42.0747 41.3993C42.3852 41.3993 42.6369 41.1476 42.6369 40.8372C42.6369 40.5267 42.3852 40.275 42.0747 40.275C41.7642 40.275 41.5125 40.5267 41.5125 40.8372C41.5125 41.1476 41.7642 41.3993 42.0747 41.3993Z" fill="#428BC1"/>
<path d="M43.0872 39.5994C43.3977 39.5994 43.6494 39.3477 43.6494 39.0372C43.6494 38.7267 43.3977 38.475 43.0872 38.475C42.7767 38.475 42.525 38.7267 42.525 39.0372C42.525 39.3477 42.7767 39.5994 43.0872 39.5994Z" fill="#428BC1"/>
<path d="M43.6497 37.5744C43.9602 37.5744 44.2119 37.3227 44.2119 37.0122C44.2119 36.7017 43.9602 36.45 43.6497 36.45C43.3392 36.45 43.0875 36.7017 43.0875 37.0122C43.0875 37.3227 43.3392 37.5744 43.6497 37.5744Z" fill="#428BC1"/>
<path d="M43.6496 35.5493C43.3123 35.5493 43.0874 35.3245 42.975 35.0996C42.975 34.7623 43.1999 34.5374 43.4247 34.425C43.7621 34.425 43.9869 34.6498 44.0994 34.8747C44.2118 35.212 43.9869 35.4369 43.6496 35.5493Z" fill="#428BC1"/>
<path d="M43.0872 33.5244C43.3977 33.5244 43.6494 33.2727 43.6494 32.9622C43.6494 32.6517 43.3977 32.4 43.0872 32.4C42.7767 32.4 42.525 32.6517 42.525 32.9622C42.525 33.2727 42.7767 33.5244 43.0872 33.5244Z" fill="#428BC1"/>
<path d="M42.0747 31.7244C42.3852 31.7244 42.6369 31.4727 42.6369 31.1622C42.6369 30.8517 42.3852 30.6 42.0747 30.6C41.7642 30.6 41.5125 30.8517 41.5125 31.1622C41.5125 31.4727 41.7642 31.7244 42.0747 31.7244Z" fill="#428BC1"/>
<path d="M40.6122 30.2619C40.9227 30.2619 41.1744 30.0102 41.1744 29.6997C41.1744 29.3892 40.9227 29.1375 40.6122 29.1375C40.3017 29.1375 40.05 29.3892 40.05 29.6997C40.05 30.0102 40.3017 30.2619 40.6122 30.2619Z" fill="#428BC1"/>
<path d="M39.375 28.9125C39.2625 29.25 38.925 29.3625 38.5875 29.25C38.25 29.1375 38.1375 28.8 38.25 28.4625C38.3625 28.125 38.7 28.0125 39.0375 28.125C39.375 28.35 39.4875 28.6875 39.375 28.9125ZM37.35 28.2375C37.35 28.575 37.0125 28.8 36.675 28.6875C36.3375 28.6875 36.1125 28.35 36.225 28.0125C36.225 27.675 36.5625 27.45 36.9 27.5625C37.2375 27.675 37.4625 28.0125 37.35 28.2375ZM35.325 28.125C35.325 28.4625 35.1 28.6875 34.875 28.8C34.5375 28.8 34.3125 28.575 34.2 28.35C34.2 28.0125 34.425 27.7875 34.65 27.675C34.9875 27.5625 35.325 27.7875 35.325 28.125Z" fill="#428BC1"/>
<path d="M35.775 37.6875C36.707 37.6875 37.4625 36.932 37.4625 36C37.4625 35.068 36.707 34.3125 35.775 34.3125C34.843 34.3125 34.0875 35.068 34.0875 36C34.0875 36.932 34.843 37.6875 35.775 37.6875Z" fill="#428BC1"/>
<path d="M35.775 28.125L35.55 32.9625L35.775 36L36.1125 32.9625L35.775 28.125ZM33.75 28.35L34.7625 33.1875L35.775 36L35.325 32.9625L33.75 28.35Z" fill="#428BC1"/>
<path d="M31.8375 29.1375L34.0875 33.525L35.775 36L34.5375 33.1875L31.8375 29.1375ZM30.2625 30.375L33.525 34.0875L35.775 36L33.8625 33.6375L30.2625 30.375Z" fill="#428BC1"/>
<path d="M29.025 32.0625L33.075 34.7625L35.775 36L33.3 34.2L29.025 32.0625Z" fill="#428BC1"/>
<path d="M28.2375 33.975L32.85 35.4375L35.775 36L32.9625 34.9875L28.2375 33.975ZM27.9 36L32.85 36.225L35.775 36L32.85 35.775L27.9 36Z" fill="#428BC1"/>
<path d="M28.2375 38.025L32.9625 37.0125L35.775 36L32.85 36.5625L28.2375 38.025ZM29.025 39.9375L33.3 37.8L35.775 36L33.075 37.2375L29.025 39.9375Z" fill="#428BC1"/>
<path d="M30.2625 41.5125L33.8625 38.3625L35.775 36L33.525 37.9125L30.2625 41.5125ZM31.8375 42.8625L34.5375 38.7L35.775 36L34.0875 38.475L31.8375 42.8625Z" fill="#428BC1"/>
<path d="M33.75 43.65L35.325 39.0375L35.775 36L34.7625 38.8125L33.75 43.65ZM35.775 43.875L36.1125 39.0375L35.775 36L35.55 39.0375L35.775 43.875ZM37.8 43.65L36.9 38.8125L35.775 36L36.3375 39.0375L37.8 43.65Z" fill="#428BC1"/>
<path d="M39.7125 42.8625L37.575 38.475L35.775 36L37.125 38.8125L39.7125 42.8625ZM41.4 41.5125L38.1375 37.9125L35.775 36L37.8 38.3625L41.4 41.5125Z" fill="#428BC1"/>
<path d="M42.6375 39.9375L38.5875 37.2375L35.775 36L38.25 37.8L42.6375 39.9375ZM43.425 38.025L38.8125 36.5625L35.775 36L38.7 37.0125L43.425 38.025ZM43.65 36L38.8125 35.6625L35.775 36L38.8125 36.225L43.65 36ZM43.425 33.975L38.7 34.9875L35.775 36L38.8125 35.4375L43.425 33.975Z" fill="#428BC1"/>
<path d="M42.6375 32.0625L38.25 34.2L35.775 36L38.5875 34.7625L42.6375 32.0625ZM41.4 30.4875L37.8 33.6375L35.775 36L38.1375 34.0875L41.4 30.4875Z" fill="#428BC1"/>
<path d="M39.7125 29.1375L37.125 33.3L35.775 36L37.575 33.525L39.7125 29.1375Z" fill="#428BC1"/>
<path d="M37.9125 28.35L36.3375 32.9625L35.775 36L36.9 33.1875L37.9125 28.35Z" fill="#428BC1"/>
</svg>
